  0
SECTION
  2
BLOCKS
  0
ENDSEC
  0
SECTION
  2
ENTITIES
  0
LINE
  8
0
 10
151.25
 20
-102.583
 11
157.75
 21
-102.583
  0
LINE
  8
0
 10
157.75
 20
-102.583
 11
157.75
 21
-76.5833
  0
LINE
  8
0
 10
157.75
 20
-76.5833
 11
151.25
 21
-76.5833
  0
LINE
  8
0
 10
151.25
 20
-76.5833
 11
151.25
 21
16.75
  0
LINE
  8
0
 10
151.25
 20
16.75
 11
157.75
 21
16.75
  0
LINE
  8
0
 10
157.75
 20
16.75
 11
157.75
 21
42.75
  0
LINE
  8
0
 10
157.75
 20
42.75
 11
151.25
 21
42.75
  0
LINE
  8
0
 10
151.25
 20
42.75
 11
151.25
 21
136.083
  0
LINE
  8
0
 10
151.25
 20
136.083
 11
157.75
 21
136.083
  0
LINE
  8
0
 10
157.75
 20
136.083
 11
157.75
 21
162.083
  0
LINE
  8
0
 10
157.75
 20
162.083
 11
151.25
 21
162.083
  0
LINE
  8
0
 10
151.25
 20
162.083
 11
151.25
 21
208.75
  0
LINE
  8
0
 10
151.25
 20
208.75
 11
141.25
 21
208.75
  0
LINE
  8
0
 10
141.25
 20
208.75
 11
141.25
 21
202.25
  0
LINE
  8
0
 10
141.25
 20
202.25
 11
108.75
 21
202.25
  0
LINE
  8
0
 10
108.75
 20
202.25
 11
108.75
 21
208.75
  0
LINE
  8
0
 10
108.75
 20
208.75
 11
16.25
 21
208.75
  0
LINE
  8
0
 10
16.25
 20
208.75
 11
16.25
 21
202.25
  0
LINE
  8
0
 10
16.25
 20
202.25
 11
-16.25
 21
202.25
  0
LINE
  8
0
 10
-16.25
 20
202.25
 11
-16.25
 21
208.75
  0
LINE
  8
0
 10
-16.25
 20
208.75
 11
-84.5833
 21
208.75
  0
LINE
  8
0
 10
-84.5833
 20
208.75
 11
-84.5833
 21
202.35
  0
LINE
  8
0
 10
-84.5833
 20
202.35
 11
-117.083
 21
202.35
  0
LINE
  8
0
 10
-117.083
 20
202.35
 11
-117.083
 21
208.75
  0
LINE
  8
0
 10
-117.083
 20
208.75
 11
-151.25
 21
208.75
  0
LINE
  8
0
 10
-151.25
 20
208.75
 11
-151.25
 21
162.083
  0
LINE
  8
0
 10
-151.25
 20
162.083
 11
-157.75
 21
162.083
  0
LINE
  8
0
 10
-157.75
 20
162.083
 11
-157.75
 21
136.083
  0
LINE
  8
0
 10
-157.75
 20
136.083
 11
-151.25
 21
136.083
  0
LINE
  8
0
 10
-151.25
 20
136.083
 11
-151.25
 21
42.75
  0
LINE
  8
0
 10
-151.25
 20
42.75
 11
-157.75
 21
42.75
  0
LINE
  8
0
 10
-157.75
 20
42.75
 11
-157.75
 21
16.75
  0
LINE
  8
0
 10
-157.75
 20
16.75
 11
-151.25
 21
16.75
  0
LINE
  8
0
 10
-151.25
 20
16.75
 11
-151.25
 21
-76.5833
  0
LINE
  8
0
 10
-151.25
 20
-76.5833
 11
-157.75
 21
-76.5833
  0
LINE
  8
0
 10
-157.75
 20
-76.5833
 11
-157.75
 21
-102.583
  0
LINE
  8
0
 10
-157.75
 20
-102.583
 11
-151.25
 21
-102.583
  0
LINE
  8
0
 10
-151.25
 20
-102.583
 11
-151.25
 21
-149.25
  0
LINE
  8
0
 10
-151.25
 20
-149.25
 11
151.25
 21
-149.25
  0
LINE
  8
0
 10
151.25
 20
-149.25
 11
151.25
 21
-102.583
  0
LINE
  8
0
 10
-117.083
 20
-3.14999
 11
-117.083
 21
3.34999
  0
LINE
  8
0
 10
-117.083
 20
3.34999
 11
-84.5833
 21
3.34999
  0
LINE
  8
0
 10
-84.5833
 20
3.34999
 11
-84.5833
 21
-3.14999
  0
LINE
  8
0
 10
-84.5833
 20
-3.14999
 11
-117.083
 21
-3.14999
  0
LINE
  8
0
 10
108.75
 20
-3.25
 11
108.75
 21
3.25
  0
LINE
  8
0
 10
108.75
 20
3.25
 11
141.25
 21
3.25
  0
LINE
  8
0
 10
141.25
 20
3.25
 11
141.25
 21
-3.25
  0
LINE
  8
0
 10
141.25
 20
-3.25
 11
108.75
 21
-3.25
  0
LINE
  8
0
 10
-16.25
 20
-3.25
 11
-16.25
 21
3.25
  0
LINE
  8
0
 10
-16.25
 20
3.25
 11
16.25
 21
3.25
  0
LINE
  8
0
 10
16.25
 20
3.25
 11
16.25
 21
-3.25
  0
LINE
  8
0
 10
16.25
 20
-3.25
 11
-16.25
 21
-3.25
  0
LINE
  8
0
 10
122.702
 20
-16.9906
 11
122.11
 21
-16.9159
  0
LINE
  8
0
 10
122.11
 20
-16.9159
 11
121.532
 21
-16.7675
  0
LINE
  8
0
 10
121.532
 20
-16.7675
 11
120.978
 21
-16.5479
  0
LINE
  8
0
 10
120.978
 20
-16.5479
 11
120.455
 21
-16.2605
  0
LINE
  8
0
 10
120.455
 20
-16.2605
 11
119.972
 21
-15.9099
  0
LINE
  8
0
 10
119.972
 20
-15.9099
 11
119.537
 21
-15.5016
  0
LINE
  8
0
 10
119.537
 20
-15.5016
 11
119.157
 21
-15.042
  0
LINE
  8
0
 10
119.157
 20
-15.042
 11
118.838
 21
-14.5383
  0
LINE
  8
0
 10
118.838
 20
-14.5383
 11
118.584
 21
-13.9986
  0
LINE
  8
0
 10
118.584
 20
-13.9986
 11
118.399
 21
-13.4313
  0
LINE
  8
0
 10
118.399
 20
-13.4313
 11
118.287
 21
-12.8453
  0
LINE
  8
0
 10
118.287
 20
-12.8453
 11
118.25
 21
-12.25
  0
LINE
  8
0
 10
118.25
 20
-12.25
 11
118.287
 21
-11.6547
  0
LINE
  8
0
 10
118.287
 20
-11.6547
 11
118.399
 21
-11.0687
  0
LINE
  8
0
 10
118.399
 20
-11.0687
 11
118.584
 21
-10.5014
  0
LINE
  8
0
 10
118.584
 20
-10.5014
 11
118.838
 21
-9.96167
  0
LINE
  8
0
 10
118.838
 20
-9.96167
 11
119.157
 21
-9.45801
  0
LINE
  8
0
 10
119.157
 20
-9.45801
 11
119.537
 21
-8.9984
  0
LINE
  8
0
 10
119.537
 20
-8.9984
 11
119.972
 21
-8.59006
  0
LINE
  8
0
 10
119.972
 20
-8.59006
 11
120.455
 21
-8.23944
  0
LINE
  8
0
 10
120.455
 20
-8.23944
 11
120.978
 21
-7.95206
  0
LINE
  8
0
 10
120.978
 20
-7.95206
 11
121.532
 21
-7.73247
  0
LINE
  8
0
 10
121.532
 20
-7.73247
 11
122.11
 21
-7.58412
  0
LINE
  8
0
 10
122.11
 20
-7.58412
 11
122.702
 21
-7.50937
  0
LINE
  8
0
 10
122.702
 20
-7.50937
 11
123.298
 21
-7.50937
  0
LINE
  8
0
 10
123.298
 20
-7.50937
 11
123.89
 21
-7.58412
  0
LINE
  8
0
 10
123.89
 20
-7.58412
 11
124.468
 21
-7.73247
  0
LINE
  8
0
 10
124.468
 20
-7.73247
 11
125.022
 21
-7.95206
  0
LINE
  8
0
 10
125.022
 20
-7.95206
 11
125.545
 21
-8.23944
  0
LINE
  8
0
 10
125.545
 20
-8.23944
 11
126.028
 21
-8.59006
  0
LINE
  8
0
 10
126.028
 20
-8.59006
 11
126.463
 21
-8.9984
  0
LINE
  8
0
 10
126.463
 20
-8.9984
 11
126.843
 21
-9.45801
  0
LINE
  8
0
 10
126.843
 20
-9.45801
 11
127.162
 21
-9.96167
  0
LINE
  8
0
 10
127.162
 20
-9.96167
 11
127.416
 21
-10.5014
  0
LINE
  8
0
 10
127.416
 20
-10.5014
 11
127.601
 21
-11.0687
  0
LINE
  8
0
 10
127.601
 20
-11.0687
 11
127.713
 21
-11.6547
  0
LINE
  8
0
 10
127.713
 20
-11.6547
 11
127.75
 21
-12.25
  0
LINE
  8
0
 10
127.75
 20
-12.25
 11
127.713
 21
-12.8453
  0
LINE
  8
0
 10
127.713
 20
-12.8453
 11
127.601
 21
-13.4313
  0
LINE
  8
0
 10
127.601
 20
-13.4313
 11
127.416
 21
-13.9986
  0
LINE
  8
0
 10
127.416
 20
-13.9986
 11
127.162
 21
-14.5383
  0
LINE
  8
0
 10
127.162
 20
-14.5383
 11
126.843
 21
-15.042
  0
LINE
  8
0
 10
126.843
 20
-15.042
 11
126.463
 21
-15.5016
  0
LINE
  8
0
 10
126.463
 20
-15.5016
 11
126.028
 21
-15.9099
  0
LINE
  8
0
 10
126.028
 20
-15.9099
 11
125.545
 21
-16.2605
  0
LINE
  8
0
 10
125.545
 20
-16.2605
 11
125.022
 21
-16.5479
  0
LINE
  8
0
 10
125.022
 20
-16.5479
 11
124.468
 21
-16.7675
  0
LINE
  8
0
 10
124.468
 20
-16.7675
 11
123.89
 21
-16.9159
  0
LINE
  8
0
 10
123.89
 20
-16.9159
 11
123.298
 21
-16.9906
  0
LINE
  8
0
 10
123.298
 20
-16.9906
 11
122.702
 21
-16.9906
  0
LINE
  8
0
 10
64.2017
 20
-16.9906
 11
63.6099
 21
-16.9159
  0
LINE
  8
0
 10
63.6099
 20
-16.9159
 11
63.0322
 21
-16.7675
  0
LINE
  8
0
 10
63.0322
 20
-16.7675
 11
62.4775
 21
-16.5479
  0
LINE
  8
0
 10
62.4775
 20
-16.5479
 11
61.9548
 21
-16.2605
  0
LINE
  8
0
 10
61.9548
 20
-16.2605
 11
61.4722
 21
-15.9099
  0
LINE
  8
0
 10
61.4722
 20
-15.9099
 11
61.0374
 21
-15.5016
  0
LINE
  8
0
 10
61.0374
 20
-15.5016
 11
60.6572
 21
-15.042
  0
LINE
  8
0
 10
60.6572
 20
-15.042
 11
60.3375
 21
-14.5383
  0
LINE
  8
0
 10
60.3375
 20
-14.5383
 11
60.0836
 21
-13.9986
  0
LINE
  8
0
 10
60.0836
 20
-13.9986
 11
59.8992
 21
-13.4313
  0
LINE
  8
0
 10
59.8992
 20
-13.4313
 11
59.7874
 21
-12.8453
  0
LINE
  8
0
 10
59.7874
 20
-12.8453
 11
59.75
 21
-12.25
  0
LINE
  8
0
 10
59.75
 20
-12.25
 11
59.7874
 21
-11.6547
  0
LINE
  8
0
 10
59.7874
 20
-11.6547
 11
59.8992
 21
-11.0687
  0
LINE
  8
0
 10
59.8992
 20
-11.0687
 11
60.0836
 21
-10.5014
  0
LINE
  8
0
 10
60.0836
 20
-10.5014
 11
60.3375
 21
-9.96167
  0
LINE
  8
0
 10
60.3375
 20
-9.96167
 11
60.6572
 21
-9.45801
  0
LINE
  8
0
 10
60.6572
 20
-9.45801
 11
61.0374
 21
-8.9984
  0
LINE
  8
0
 10
61.0374
 20
-8.9984
 11
61.4722
 21
-8.59006
  0
LINE
  8
0
 10
61.4722
 20
-8.59006
 11
61.9548
 21
-8.23944
  0
LINE
  8
0
 10
61.9548
 20
-8.23944
 11
62.4775
 21
-7.95206
  0
LINE
  8
0
 10
62.4775
 20
-7.95206
 11
63.0322
 21
-7.73247
  0
LINE
  8
0
 10
63.0322
 20
-7.73247
 11
63.6099
 21
-7.58412
  0
LINE
  8
0
 10
63.6099
 20
-7.58412
 11
64.2017
 21
-7.50937
  0
LINE
  8
0
 10
64.2017
 20
-7.50937
 11
64.7982
 21
-7.50937
  0
LINE
  8
0
 10
64.7982
 20
-7.50937
 11
65.3901
 21
-7.58412
  0
LINE
  8
0
 10
65.3901
 20
-7.58412
 11
65.9678
 21
-7.73247
  0
LINE
  8
0
 10
65.9678
 20
-7.73247
 11
66.5224
 21
-7.95206
  0
LINE
  8
0
 10
66.5224
 20
-7.95206
 11
67.0452
 21
-8.23944
  0
LINE
  8
0
 10
67.0452
 20
-8.23944
 11
67.5278
 21
-8.59006
  0
LINE
  8
0
 10
67.5278
 20
-8.59006
 11
67.9626
 21
-8.9984
  0
LINE
  8
0
 10
67.9626
 20
-8.9984
 11
68.3428
 21
-9.45801
  0
LINE
  8
0
 10
68.3428
 20
-9.45801
 11
68.6625
 21
-9.96167
  0
LINE
  8
0
 10
68.6625
 20
-9.96167
 11
68.9164
 21
-10.5014
  0
LINE
  8
0
 10
68.9164
 20
-10.5014
 11
69.1008
 21
-11.0687
  0
LINE
  8
0
 10
69.1008
 20
-11.0687
 11
69.2125
 21
-11.6547
  0
LINE
  8
0
 10
69.2125
 20
-11.6547
 11
69.25
 21
-12.25
  0
LINE
  8
0
 10
69.25
 20
-12.25
 11
69.2125
 21
-12.8453
  0
LINE
  8
0
 10
69.2125
 20
-12.8453
 11
69.1008
 21
-13.4313
  0
LINE
  8
0
 10
69.1008
 20
-13.4313
 11
68.9164
 21
-13.9986
  0
LINE
  8
0
 10
68.9164
 20
-13.9986
 11
68.6625
 21
-14.5383
  0
LINE
  8
0
 10
68.6625
 20
-14.5383
 11
68.3428
 21
-15.042
  0
LINE
  8
0
 10
68.3428
 20
-15.042
 11
67.9626
 21
-15.5016
  0
LINE
  8
0
 10
67.9626
 20
-15.5016
 11
67.5278
 21
-15.9099
  0
LINE
  8
0
 10
67.5278
 20
-15.9099
 11
67.0452
 21
-16.2605
  0
LINE
  8
0
 10
67.0452
 20
-16.2605
 11
66.5224
 21
-16.5479
  0
LINE
  8
0
 10
66.5224
 20
-16.5479
 11
65.9678
 21
-16.7675
  0
LINE
  8
0
 10
65.9678
 20
-16.7675
 11
65.3901
 21
-16.9159
  0
LINE
  8
0
 10
65.3901
 20
-16.9159
 11
64.7982
 21
-16.9906
  0
LINE
  8
0
 10
64.7982
 20
-16.9906
 11
64.2017
 21
-16.9906
  0
LINE
  8
0
 10
5.70174
 20
-16.9906
 11
5.10992
 21
-16.9159
  0
LINE
  8
0
 10
5.10992
 20
-16.9159
 11
4.53217
 21
-16.7675
  0
LINE
  8
0
 10
4.53217
 20
-16.7675
 11
3.97754
 21
-16.5479
  0
LINE
  8
0
 10
3.97754
 20
-16.5479
 11
3.45482
 21
-16.2605
  0
LINE
  8
0
 10
3.45482
 20
-16.2605
 11
2.97223
 21
-15.9099
  0
LINE
  8
0
 10
2.97223
 20
-15.9099
 11
2.53738
 21
-15.5016
  0
LINE
  8
0
 10
2.53738
 20
-15.5016
 11
2.15717
 21
-15.042
  0
LINE
  8
0
 10
2.15717
 20
-15.042
 11
1.83754
 21
-14.5383
  0
LINE
  8
0
 10
1.83754
 20
-14.5383
 11
1.58356
 21
-13.9986
  0
LINE
  8
0
 10
1.58356
 20
-13.9986
 11
1.39922
 21
-13.4313
  0
LINE
  8
0
 10
1.39922
 20
-13.4313
 11
1.28745
 21
-12.8453
  0
LINE
  8
0
 10
1.28745
 20
-12.8453
 11
1.25
 21
-12.25
  0
LINE
  8
0
 10
1.25
 20
-12.25
 11
1.28745
 21
-11.6547
  0
LINE
  8
0
 10
1.28745
 20
-11.6547
 11
1.39922
 21
-11.0687
  0
LINE
  8
0
 10
1.39922
 20
-11.0687
 11
1.58356
 21
-10.5014
  0
LINE
  8
0
 10
1.58356
 20
-10.5014
 11
1.83754
 21
-9.96167
  0
LINE
  8
0
 10
1.83754
 20
-9.96167
 11
2.15717
 21
-9.45801
  0
LINE
  8
0
 10
2.15717
 20
-9.45801
 11
2.53738
 21
-8.9984
  0
LINE
  8
0
 10
2.53738
 20
-8.9984
 11
2.97223
 21
-8.59006
  0
LINE
  8
0
 10
2.97223
 20
-8.59006
 11
3.45482
 21
-8.23944
  0
LINE
  8
0
 10
3.45482
 20
-8.23944
 11
3.97754
 21
-7.95206
  0
LINE
  8
0
 10
3.97754
 20
-7.95206
 11
4.53217
 21
-7.73247
  0
LINE
  8
0
 10
4.53217
 20
-7.73247
 11
5.10992
 21
-7.58412
  0
LINE
  8
0
 10
5.10992
 20
-7.58412
 11
5.70174
 21
-7.50937
  0
LINE
  8
0
 10
5.70174
 20
-7.50937
 11
6.29825
 21
-7.50937
  0
LINE
  8
0
 10
6.29825
 20
-7.50937
 11
6.89006
 21
-7.58412
  0
LINE
  8
0
 10
6.89006
 20
-7.58412
 11
7.46782
 21
-7.73247
  0
LINE
  8
0
 10
7.46782
 20
-7.73247
 11
8.02245
 21
-7.95206
  0
LINE
  8
0
 10
8.02245
 20
-7.95206
 11
8.54517
 21
-8.23944
  0
LINE
  8
0
 10
8.54517
 20
-8.23944
 11
9.02776
 21
-8.59006
  0
LINE
  8
0
 10
9.02776
 20
-8.59006
 11
9.4626
 21
-8.9984
  0
LINE
  8
0
 10
9.4626
 20
-8.9984
 11
9.84282
 21
-9.45801
  0
LINE
  8
0
 10
9.84282
 20
-9.45801
 11
10.1624
 21
-9.96167
  0
LINE
  8
0
 10
10.1624
 20
-9.96167
 11
10.4164
 21
-10.5014
  0
LINE
  8
0
 10
10.4164
 20
-10.5014
 11
10.6008
 21
-11.0687
  0
LINE
  8
0
 10
10.6008
 20
-11.0687
 11
10.7125
 21
-11.6547
  0
LINE
  8
0
 10
10.7125
 20
-11.6547
 11
10.75
 21
-12.25
  0
LINE
  8
0
 10
10.75
 20
-12.25
 11
10.7125
 21
-12.8453
  0
LINE
  8
0
 10
10.7125
 20
-12.8453
 11
10.6008
 21
-13.4313
  0
LINE
  8
0
 10
10.6008
 20
-13.4313
 11
10.4164
 21
-13.9986
  0
LINE
  8
0
 10
10.4164
 20
-13.9986
 11
10.1624
 21
-14.5383
  0
LINE
  8
0
 10
10.1624
 20
-14.5383
 11
9.84282
 21
-15.042
  0
LINE
  8
0
 10
9.84282
 20
-15.042
 11
9.4626
 21
-15.5016
  0
LINE
  8
0
 10
9.4626
 20
-15.5016
 11
9.02776
 21
-15.9099
  0
LINE
  8
0
 10
9.02776
 20
-15.9099
 11
8.54517
 21
-16.2605
  0
LINE
  8
0
 10
8.54517
 20
-16.2605
 11
8.02245
 21
-16.5479
  0
LINE
  8
0
 10
8.02245
 20
-16.5479
 11
7.46782
 21
-16.7675
  0
LINE
  8
0
 10
7.46782
 20
-16.7675
 11
6.89006
 21
-16.9159
  0
LINE
  8
0
 10
6.89006
 20
-16.9159
 11
6.29825
 21
-16.9906
  0
LINE
  8
0
 10
6.29825
 20
-16.9906
 11
5.70174
 21
-16.9906
  0
LINE
  8
0
 10
-111.298
 20
-16.9906
 11
-111.89
 21
-16.9159
  0
LINE
  8
0
 10
-111.89
 20
-16.9159
 11
-112.468
 21
-16.7675
  0
LINE
  8
0
 10
-112.468
 20
-16.7675
 11
-113.022
 21
-16.5479
  0
LINE
  8
0
 10
-113.022
 20
-16.5479
 11
-113.545
 21
-16.2605
  0
LINE
  8
0
 10
-113.545
 20
-16.2605
 11
-114.028
 21
-15.9099
  0
LINE
  8
0
 10
-114.028
 20
-15.9099
 11
-114.463
 21
-15.5016
  0
LINE
  8
0
 10
-114.463
 20
-15.5016
 11
-114.843
 21
-15.042
  0
LINE
  8
0
 10
-114.843
 20
-15.042
 11
-115.162
 21
-14.5383
  0
LINE
  8
0
 10
-115.162
 20
-14.5383
 11
-115.416
 21
-13.9986
  0
LINE
  8
0
 10
-115.416
 20
-13.9986
 11
-115.601
 21
-13.4313
  0
LINE
  8
0
 10
-115.601
 20
-13.4313
 11
-115.713
 21
-12.8453
  0
LINE
  8
0
 10
-115.713
 20
-12.8453
 11
-115.75
 21
-12.25
  0
LINE
  8
0
 10
-115.75
 20
-12.25
 11
-115.713
 21
-11.6547
  0
LINE
  8
0
 10
-115.713
 20
-11.6547
 11
-115.601
 21
-11.0687
  0
LINE
  8
0
 10
-115.601
 20
-11.0687
 11
-115.416
 21
-10.5014
  0
LINE
  8
0
 10
-115.416
 20
-10.5014
 11
-115.162
 21
-9.96167
  0
LINE
  8
0
 10
-115.162
 20
-9.96167
 11
-114.843
 21
-9.45801
  0
LINE
  8
0
 10
-114.843
 20
-9.45801
 11
-114.463
 21
-8.9984
  0
LINE
  8
0
 10
-114.463
 20
-8.9984
 11
-114.028
 21
-8.59006
  0
LINE
  8
0
 10
-114.028
 20
-8.59006
 11
-113.545
 21
-8.23944
  0
LINE
  8
0
 10
-113.545
 20
-8.23944
 11
-113.022
 21
-7.95206
  0
LINE
  8
0
 10
-113.022
 20
-7.95206
 11
-112.468
 21
-7.73247
  0
LINE
  8
0
 10
-112.468
 20
-7.73247
 11
-111.89
 21
-7.58412
  0
LINE
  8
0
 10
-111.89
 20
-7.58412
 11
-111.298
 21
-7.50937
  0
LINE
  8
0
 10
-111.298
 20
-7.50937
 11
-110.702
 21
-7.50937
  0
LINE
  8
0
 10
-110.702
 20
-7.50937
 11
-110.11
 21
-7.58412
  0
LINE
  8
0
 10
-110.11
 20
-7.58412
 11
-109.532
 21
-7.73247
  0
LINE
  8
0
 10
-109.532
 20
-7.73247
 11
-108.978
 21
-7.95206
  0
LINE
  8
0
 10
-108.978
 20
-7.95206
 11
-108.455
 21
-8.23944
  0
LINE
  8
0
 10
-108.455
 20
-8.23944
 11
-107.972
 21
-8.59006
  0
LINE
  8
0
 10
-107.972
 20
-8.59006
 11
-107.537
 21
-8.9984
  0
LINE
  8
0
 10
-107.537
 20
-8.9984
 11
-107.157
 21
-9.45801
  0
LINE
  8
0
 10
-107.157
 20
-9.45801
 11
-106.838
 21
-9.96167
  0
LINE
  8
0
 10
-106.838
 20
-9.96167
 11
-106.584
 21
-10.5014
  0
LINE
  8
0
 10
-106.584
 20
-10.5014
 11
-106.399
 21
-11.0687
  0
LINE
  8
0
 10
-106.399
 20
-11.0687
 11
-106.287
 21
-11.6547
  0
LINE
  8
0
 10
-106.287
 20
-11.6547
 11
-106.25
 21
-12.25
  0
LINE
  8
0
 10
-106.25
 20
-12.25
 11
-106.287
 21
-12.8453
  0
LINE
  8
0
 10
-106.287
 20
-12.8453
 11
-106.399
 21
-13.4313
  0
LINE
  8
0
 10
-106.399
 20
-13.4313
 11
-106.584
 21
-13.9986
  0
LINE
  8
0
 10
-106.584
 20
-13.9986
 11
-106.838
 21
-14.5383
  0
LINE
  8
0
 10
-106.838
 20
-14.5383
 11
-107.157
 21
-15.042
  0
LINE
  8
0
 10
-107.157
 20
-15.042
 11
-107.537
 21
-15.5016
  0
LINE
  8
0
 10
-107.537
 20
-15.5016
 11
-107.972
 21
-15.9099
  0
LINE
  8
0
 10
-107.972
 20
-15.9099
 11
-108.455
 21
-16.2605
  0
LINE
  8
0
 10
-108.455
 20
-16.2605
 11
-108.978
 21
-16.5479
  0
LINE
  8
0
 10
-108.978
 20
-16.5479
 11
-109.532
 21
-16.7675
  0
LINE
  8
0
 10
-109.532
 20
-16.7675
 11
-110.11
 21
-16.9159
  0
LINE
  8
0
 10
-110.11
 20
-16.9159
 11
-110.702
 21
-16.9906
  0
LINE
  8
0
 10
-110.702
 20
-16.9906
 11
-111.298
 21
-16.9906
  0
LINE
  8
0
 10
-52.7982
 20
-16.9906
 11
-53.3901
 21
-16.9159
  0
LINE
  8
0
 10
-53.3901
 20
-16.9159
 11
-53.9678
 21
-16.7675
  0
LINE
  8
0
 10
-53.9678
 20
-16.7675
 11
-54.5224
 21
-16.5479
  0
LINE
  8
0
 10
-54.5224
 20
-16.5479
 11
-55.0452
 21
-16.2605
  0
LINE
  8
0
 10
-55.0452
 20
-16.2605
 11
-55.5278
 21
-15.9099
  0
LINE
  8
0
 10
-55.5278
 20
-15.9099
 11
-55.9626
 21
-15.5016
  0
LINE
  8
0
 10
-55.9626
 20
-15.5016
 11
-56.3428
 21
-15.042
  0
LINE
  8
0
 10
-56.3428
 20
-15.042
 11
-56.6624
 21
-14.5383
  0
LINE
  8
0
 10
-56.6624
 20
-14.5383
 11
-56.9164
 21
-13.9986
  0
LINE
  8
0
 10
-56.9164
 20
-13.9986
 11
-57.1008
 21
-13.4313
  0
LINE
  8
0
 10
-57.1008
 20
-13.4313
 11
-57.2125
 21
-12.8453
  0
LINE
  8
0
 10
-57.2125
 20
-12.8453
 11
-57.25
 21
-12.25
  0
LINE
  8
0
 10
-57.25
 20
-12.25
 11
-57.2125
 21
-11.6547
  0
LINE
  8
0
 10
-57.2125
 20
-11.6547
 11
-57.1008
 21
-11.0687
  0
LINE
  8
0
 10
-57.1008
 20
-11.0687
 11
-56.9164
 21
-10.5014
  0
LINE
  8
0
 10
-56.9164
 20
-10.5014
 11
-56.6624
 21
-9.96167
  0
LINE
  8
0
 10
-56.6624
 20
-9.96167
 11
-56.3428
 21
-9.45801
  0
LINE
  8
0
 10
-56.3428
 20
-9.45801
 11
-55.9626
 21
-8.9984
  0
LINE
  8
0
 10
-55.9626
 20
-8.9984
 11
-55.5278
 21
-8.59006
  0
LINE
  8
0
 10
-55.5278
 20
-8.59006
 11
-55.0452
 21
-8.23944
  0
LINE
  8
0
 10
-55.0452
 20
-8.23944
 11
-54.5224
 21
-7.95206
  0
LINE
  8
0
 10
-54.5224
 20
-7.95206
 11
-53.9678
 21
-7.73247
  0
LINE
  8
0
 10
-53.9678
 20
-7.73247
 11
-53.3901
 21
-7.58412
  0
LINE
  8
0
 10
-53.3901
 20
-7.58412
 11
-52.7982
 21
-7.50937
  0
LINE
  8
0
 10
-52.7982
 20
-7.50937
 11
-52.2017
 21
-7.50937
  0
LINE
  8
0
 10
-52.2017
 20
-7.50937
 11
-51.6099
 21
-7.58412
  0
LINE
  8
0
 10
-51.6099
 20
-7.58412
 11
-51.0322
 21
-7.73247
  0
LINE
  8
0
 10
-51.0322
 20
-7.73247
 11
-50.4775
 21
-7.95206
  0
LINE
  8
0
 10
-50.4775
 20
-7.95206
 11
-49.9548
 21
-8.23944
  0
LINE
  8
0
 10
-49.9548
 20
-8.23944
 11
-49.4722
 21
-8.59006
  0
LINE
  8
0
 10
-49.4722
 20
-8.59006
 11
-49.0374
 21
-8.9984
  0
LINE
  8
0
 10
-49.0374
 20
-8.9984
 11
-48.6572
 21
-9.45801
  0
LINE
  8
0
 10
-48.6572
 20
-9.45801
 11
-48.3375
 21
-9.96167
  0
LINE
  8
0
 10
-48.3375
 20
-9.96167
 11
-48.0836
 21
-10.5014
  0
LINE
  8
0
 10
-48.0836
 20
-10.5014
 11
-47.8992
 21
-11.0687
  0
LINE
  8
0
 10
-47.8992
 20
-11.0687
 11
-47.7874
 21
-11.6547
  0
LINE
  8
0
 10
-47.7874
 20
-11.6547
 11
-47.75
 21
-12.25
  0
LINE
  8
0
 10
-47.75
 20
-12.25
 11
-47.7874
 21
-12.8453
  0
LINE
  8
0
 10
-47.7874
 20
-12.8453
 11
-47.8992
 21
-13.4313
  0
LINE
  8
0
 10
-47.8992
 20
-13.4313
 11
-48.0836
 21
-13.9986
  0
LINE
  8
0
 10
-48.0836
 20
-13.9986
 11
-48.3375
 21
-14.5383
  0
LINE
  8
0
 10
-48.3375
 20
-14.5383
 11
-48.6572
 21
-15.042
  0
LINE
  8
0
 10
-48.6572
 20
-15.042
 11
-49.0374
 21
-15.5016
  0
LINE
  8
0
 10
-49.0374
 20
-15.5016
 11
-49.4722
 21
-15.9099
  0
LINE
  8
0
 10
-49.4722
 20
-15.9099
 11
-49.9548
 21
-16.2605
  0
LINE
  8
0
 10
-49.9548
 20
-16.2605
 11
-50.4775
 21
-16.5479
  0
LINE
  8
0
 10
-50.4775
 20
-16.5479
 11
-51.0322
 21
-16.7675
  0
LINE
  8
0
 10
-51.0322
 20
-16.7675
 11
-51.6099
 21
-16.9159
  0
LINE
  8
0
 10
-51.6099
 20
-16.9159
 11
-52.2017
 21
-16.9906
  0
LINE
  8
0
 10
-52.2017
 20
-16.9906
 11
-52.7982
 21
-16.9906
  0
LINE
  8
0
 10
64.2017
 20
-31.9906
 11
63.6099
 21
-31.9159
  0
LINE
  8
0
 10
63.6099
 20
-31.9159
 11
63.0322
 21
-31.7675
  0
LINE
  8
0
 10
63.0322
 20
-31.7675
 11
62.4775
 21
-31.5479
  0
LINE
  8
0
 10
62.4775
 20
-31.5479
 11
61.9548
 21
-31.2605
  0
LINE
  8
0
 10
61.9548
 20
-31.2605
 11
61.4722
 21
-30.9099
  0
LINE
  8
0
 10
61.4722
 20
-30.9099
 11
61.0374
 21
-30.5016
  0
LINE
  8
0
 10
61.0374
 20
-30.5016
 11
60.6572
 21
-30.042
  0
LINE
  8
0
 10
60.6572
 20
-30.042
 11
60.3375
 21
-29.5383
  0
LINE
  8
0
 10
60.3375
 20
-29.5383
 11
60.0836
 21
-28.9986
  0
LINE
  8
0
 10
60.0836
 20
-28.9986
 11
59.8992
 21
-28.4313
  0
LINE
  8
0
 10
59.8992
 20
-28.4313
 11
59.7874
 21
-27.8453
  0
LINE
  8
0
 10
59.7874
 20
-27.8453
 11
59.75
 21
-27.25
  0
LINE
  8
0
 10
59.75
 20
-27.25
 11
59.7874
 21
-26.6547
  0
LINE
  8
0
 10
59.7874
 20
-26.6547
 11
59.8992
 21
-26.0687
  0
LINE
  8
0
 10
59.8992
 20
-26.0687
 11
60.0836
 21
-25.5014
  0
LINE
  8
0
 10
60.0836
 20
-25.5014
 11
60.3375
 21
-24.9617
  0
LINE
  8
0
 10
60.3375
 20
-24.9617
 11
60.6572
 21
-24.458
  0
LINE
  8
0
 10
60.6572
 20
-24.458
 11
61.0374
 21
-23.9984
  0
LINE
  8
0
 10
61.0374
 20
-23.9984
 11
61.4722
 21
-23.5901
  0
LINE
  8
0
 10
61.4722
 20
-23.5901
 11
61.9548
 21
-23.2394
  0
LINE
  8
0
 10
61.9548
 20
-23.2394
 11
62.4775
 21
-22.9521
  0
LINE
  8
0
 10
62.4775
 20
-22.9521
 11
63.0322
 21
-22.7325
  0
LINE
  8
0
 10
63.0322
 20
-22.7325
 11
63.6099
 21
-22.5841
  0
LINE
  8
0
 10
63.6099
 20
-22.5841
 11
64.2017
 21
-22.5094
  0
LINE
  8
0
 10
64.2017
 20
-22.5094
 11
64.7982
 21
-22.5094
  0
LINE
  8
0
 10
64.7982
 20
-22.5094
 11
65.3901
 21
-22.5841
  0
LINE
  8
0
 10
65.3901
 20
-22.5841
 11
65.9678
 21
-22.7325
  0
LINE
  8
0
 10
65.9678
 20
-22.7325
 11
66.5224
 21
-22.9521
  0
LINE
  8
0
 10
66.5224
 20
-22.9521
 11
67.0452
 21
-23.2394
  0
LINE
  8
0
 10
67.0452
 20
-23.2394
 11
67.5278
 21
-23.5901
  0
LINE
  8
0
 10
67.5278
 20
-23.5901
 11
67.9626
 21
-23.9984
  0
LINE
  8
0
 10
67.9626
 20
-23.9984
 11
68.3428
 21
-24.458
  0
LINE
  8
0
 10
68.3428
 20
-24.458
 11
68.6625
 21
-24.9617
  0
LINE
  8
0
 10
68.6625
 20
-24.9617
 11
68.9164
 21
-25.5014
  0
LINE
  8
0
 10
68.9164
 20
-25.5014
 11
69.1008
 21
-26.0687
  0
LINE
  8
0
 10
69.1008
 20
-26.0687
 11
69.2125
 21
-26.6547
  0
LINE
  8
0
 10
69.2125
 20
-26.6547
 11
69.25
 21
-27.25
  0
LINE
  8
0
 10
69.25
 20
-27.25
 11
69.2125
 21
-27.8453
  0
LINE
  8
0
 10
69.2125
 20
-27.8453
 11
69.1008
 21
-28.4313
  0
LINE
  8
0
 10
69.1008
 20
-28.4313
 11
68.9164
 21
-28.9986
  0
LINE
  8
0
 10
68.9164
 20
-28.9986
 11
68.6625
 21
-29.5383
  0
LINE
  8
0
 10
68.6625
 20
-29.5383
 11
68.3428
 21
-30.042
  0
LINE
  8
0
 10
68.3428
 20
-30.042
 11
67.9626
 21
-30.5016
  0
LINE
  8
0
 10
67.9626
 20
-30.5016
 11
67.5278
 21
-30.9099
  0
LINE
  8
0
 10
67.5278
 20
-30.9099
 11
67.0452
 21
-31.2605
  0
LINE
  8
0
 10
67.0452
 20
-31.2605
 11
66.5224
 21
-31.5479
  0
LINE
  8
0
 10
66.5224
 20
-31.5479
 11
65.9678
 21
-31.7675
  0
LINE
  8
0
 10
65.9678
 20
-31.7675
 11
65.3901
 21
-31.9159
  0
LINE
  8
0
 10
65.3901
 20
-31.9159
 11
64.7982
 21
-31.9906
  0
LINE
  8
0
 10
64.7982
 20
-31.9906
 11
64.2017
 21
-31.9906
  0
LINE
  8
0
 10
-52.7982
 20
-31.9906
 11
-53.3901
 21
-31.9159
  0
LINE
  8
0
 10
-53.3901
 20
-31.9159
 11
-53.9678
 21
-31.7675
  0
LINE
  8
0
 10
-53.9678
 20
-31.7675
 11
-54.5224
 21
-31.5479
  0
LINE
  8
0
 10
-54.5224
 20
-31.5479
 11
-55.0452
 21
-31.2605
  0
LINE
  8
0
 10
-55.0452
 20
-31.2605
 11
-55.5278
 21
-30.9099
  0
LINE
  8
0
 10
-55.5278
 20
-30.9099
 11
-55.9626
 21
-30.5016
  0
LINE
  8
0
 10
-55.9626
 20
-30.5016
 11
-56.3428
 21
-30.042
  0
LINE
  8
0
 10
-56.3428
 20
-30.042
 11
-56.6624
 21
-29.5383
  0
LINE
  8
0
 10
-56.6624
 20
-29.5383
 11
-56.9164
 21
-28.9986
  0
LINE
  8
0
 10
-56.9164
 20
-28.9986
 11
-57.1008
 21
-28.4313
  0
LINE
  8
0
 10
-57.1008
 20
-28.4313
 11
-57.2125
 21
-27.8453
  0
LINE
  8
0
 10
-57.2125
 20
-27.8453
 11
-57.25
 21
-27.25
  0
LINE
  8
0
 10
-57.25
 20
-27.25
 11
-57.2125
 21
-26.6547
  0
LINE
  8
0
 10
-57.2125
 20
-26.6547
 11
-57.1008
 21
-26.0687
  0
LINE
  8
0
 10
-57.1008
 20
-26.0687
 11
-56.9164
 21
-25.5014
  0
LINE
  8
0
 10
-56.9164
 20
-25.5014
 11
-56.6624
 21
-24.9617
  0
LINE
  8
0
 10
-56.6624
 20
-24.9617
 11
-56.3428
 21
-24.458
  0
LINE
  8
0
 10
-56.3428
 20
-24.458
 11
-55.9626
 21
-23.9984
  0
LINE
  8
0
 10
-55.9626
 20
-23.9984
 11
-55.5278
 21
-23.5901
  0
LINE
  8
0
 10
-55.5278
 20
-23.5901
 11
-55.0452
 21
-23.2394
  0
LINE
  8
0
 10
-55.0452
 20
-23.2394
 11
-54.5224
 21
-22.9521
  0
LINE
  8
0
 10
-54.5224
 20
-22.9521
 11
-53.9678
 21
-22.7325
  0
LINE
  8
0
 10
-53.9678
 20
-22.7325
 11
-53.3901
 21
-22.5841
  0
LINE
  8
0
 10
-53.3901
 20
-22.5841
 11
-52.7982
 21
-22.5094
  0
LINE
  8
0
 10
-52.7982
 20
-22.5094
 11
-52.2017
 21
-22.5094
  0
LINE
  8
0
 10
-52.2017
 20
-22.5094
 11
-51.6099
 21
-22.5841
  0
LINE
  8
0
 10
-51.6099
 20
-22.5841
 11
-51.0322
 21
-22.7325
  0
LINE
  8
0
 10
-51.0322
 20
-22.7325
 11
-50.4775
 21
-22.9521
  0
LINE
  8
0
 10
-50.4775
 20
-22.9521
 11
-49.9548
 21
-23.2394
  0
LINE
  8
0
 10
-49.9548
 20
-23.2394
 11
-49.4722
 21
-23.5901
  0
LINE
  8
0
 10
-49.4722
 20
-23.5901
 11
-49.0374
 21
-23.9984
  0
LINE
  8
0
 10
-49.0374
 20
-23.9984
 11
-48.6572
 21
-24.458
  0
LINE
  8
0
 10
-48.6572
 20
-24.458
 11
-48.3375
 21
-24.9617
  0
LINE
  8
0
 10
-48.3375
 20
-24.9617
 11
-48.0836
 21
-25.5014
  0
LINE
  8
0
 10
-48.0836
 20
-25.5014
 11
-47.8992
 21
-26.0687
  0
LINE
  8
0
 10
-47.8992
 20
-26.0687
 11
-47.7874
 21
-26.6547
  0
LINE
  8
0
 10
-47.7874
 20
-26.6547
 11
-47.75
 21
-27.25
  0
LINE
  8
0
 10
-47.75
 20
-27.25
 11
-47.7874
 21
-27.8453
  0
LINE
  8
0
 10
-47.7874
 20
-27.8453
 11
-47.8992
 21
-28.4313
  0
LINE
  8
0
 10
-47.8992
 20
-28.4313
 11
-48.0836
 21
-28.9986
  0
LINE
  8
0
 10
-48.0836
 20
-28.9986
 11
-48.3375
 21
-29.5383
  0
LINE
  8
0
 10
-48.3375
 20
-29.5383
 11
-48.6572
 21
-30.042
  0
LINE
  8
0
 10
-48.6572
 20
-30.042
 11
-49.0374
 21
-30.5016
  0
LINE
  8
0
 10
-49.0374
 20
-30.5016
 11
-49.4722
 21
-30.9099
  0
LINE
  8
0
 10
-49.4722
 20
-30.9099
 11
-49.9548
 21
-31.2605
  0
LINE
  8
0
 10
-49.9548
 20
-31.2605
 11
-50.4775
 21
-31.5479
  0
LINE
  8
0
 10
-50.4775
 20
-31.5479
 11
-51.0322
 21
-31.7675
  0
LINE
  8
0
 10
-51.0322
 20
-31.7675
 11
-51.6099
 21
-31.9159
  0
LINE
  8
0
 10
-51.6099
 20
-31.9159
 11
-52.2017
 21
-31.9906
  0
LINE
  8
0
 10
-52.2017
 20
-31.9906
 11
-52.7982
 21
-31.9906
  0
LINE
  8
0
 10
122.702
 20
-31.9906
 11
122.11
 21
-31.9159
  0
LINE
  8
0
 10
122.11
 20
-31.9159
 11
121.532
 21
-31.7675
  0
LINE
  8
0
 10
121.532
 20
-31.7675
 11
120.978
 21
-31.5479
  0
LINE
  8
0
 10
120.978
 20
-31.5479
 11
120.455
 21
-31.2605
  0
LINE
  8
0
 10
120.455
 20
-31.2605
 11
119.972
 21
-30.9099
  0
LINE
  8
0
 10
119.972
 20
-30.9099
 11
119.537
 21
-30.5016
  0
LINE
  8
0
 10
119.537
 20
-30.5016
 11
119.157
 21
-30.042
  0
LINE
  8
0
 10
119.157
 20
-30.042
 11
118.838
 21
-29.5383
  0
LINE
  8
0
 10
118.838
 20
-29.5383
 11
118.584
 21
-28.9986
  0
LINE
  8
0
 10
118.584
 20
-28.9986
 11
118.399
 21
-28.4313
  0
LINE
  8
0
 10
118.399
 20
-28.4313
 11
118.287
 21
-27.8453
  0
LINE
  8
0
 10
118.287
 20
-27.8453
 11
118.25
 21
-27.25
  0
LINE
  8
0
 10
118.25
 20
-27.25
 11
118.287
 21
-26.6547
  0
LINE
  8
0
 10
118.287
 20
-26.6547
 11
118.399
 21
-26.0687
  0
LINE
  8
0
 10
118.399
 20
-26.0687
 11
118.584
 21
-25.5014
  0
LINE
  8
0
 10
118.584
 20
-25.5014
 11
118.838
 21
-24.9617
  0
LINE
  8
0
 10
118.838
 20
-24.9617
 11
119.157
 21
-24.458
  0
LINE
  8
0
 10
119.157
 20
-24.458
 11
119.537
 21
-23.9984
  0
LINE
  8
0
 10
119.537
 20
-23.9984
 11
119.972
 21
-23.5901
  0
LINE
  8
0
 10
119.972
 20
-23.5901
 11
120.455
 21
-23.2394
  0
LINE
  8
0
 10
120.455
 20
-23.2394
 11
120.978
 21
-22.9521
  0
LINE
  8
0
 10
120.978
 20
-22.9521
 11
121.532
 21
-22.7325
  0
LINE
  8
0
 10
121.532
 20
-22.7325
 11
122.11
 21
-22.5841
  0
LINE
  8
0
 10
122.11
 20
-22.5841
 11
122.702
 21
-22.5094
  0
LINE
  8
0
 10
122.702
 20
-22.5094
 11
123.298
 21
-22.5094
  0
LINE
  8
0
 10
123.298
 20
-22.5094
 11
123.89
 21
-22.5841
  0
LINE
  8
0
 10
123.89
 20
-22.5841
 11
124.468
 21
-22.7325
  0
LINE
  8
0
 10
124.468
 20
-22.7325
 11
125.022
 21
-22.9521
  0
LINE
  8
0
 10
125.022
 20
-22.9521
 11
125.545
 21
-23.2394
  0
LINE
  8
0
 10
125.545
 20
-23.2394
 11
126.028
 21
-23.5901
  0
LINE
  8
0
 10
126.028
 20
-23.5901
 11
126.463
 21
-23.9984
  0
LINE
  8
0
 10
126.463
 20
-23.9984
 11
126.843
 21
-24.458
  0
LINE
  8
0
 10
126.843
 20
-24.458
 11
127.162
 21
-24.9617
  0
LINE
  8
0
 10
127.162
 20
-24.9617
 11
127.416
 21
-25.5014
  0
LINE
  8
0
 10
127.416
 20
-25.5014
 11
127.601
 21
-26.0687
  0
LINE
  8
0
 10
127.601
 20
-26.0687
 11
127.713
 21
-26.6547
  0
LINE
  8
0
 10
127.713
 20
-26.6547
 11
127.75
 21
-27.25
  0
LINE
  8
0
 10
127.75
 20
-27.25
 11
127.713
 21
-27.8453
  0
LINE
  8
0
 10
127.713
 20
-27.8453
 11
127.601
 21
-28.4313
  0
LINE
  8
0
 10
127.601
 20
-28.4313
 11
127.416
 21
-28.9986
  0
LINE
  8
0
 10
127.416
 20
-28.9986
 11
127.162
 21
-29.5383
  0
LINE
  8
0
 10
127.162
 20
-29.5383
 11
126.843
 21
-30.042
  0
LINE
  8
0
 10
126.843
 20
-30.042
 11
126.463
 21
-30.5016
  0
LINE
  8
0
 10
126.463
 20
-30.5016
 11
126.028
 21
-30.9099
  0
LINE
  8
0
 10
126.028
 20
-30.9099
 11
125.545
 21
-31.2605
  0
LINE
  8
0
 10
125.545
 20
-31.2605
 11
125.022
 21
-31.5479
  0
LINE
  8
0
 10
125.022
 20
-31.5479
 11
124.468
 21
-31.7675
  0
LINE
  8
0
 10
124.468
 20
-31.7675
 11
123.89
 21
-31.9159
  0
LINE
  8
0
 10
123.89
 20
-31.9159
 11
123.298
 21
-31.9906
  0
LINE
  8
0
 10
123.298
 20
-31.9906
 11
122.702
 21
-31.9906
  0
LINE
  8
0
 10
5.70174
 20
-31.9906
 11
5.10992
 21
-31.9159
  0
LINE
  8
0
 10
5.10992
 20
-31.9159
 11
4.53217
 21
-31.7675
  0
LINE
  8
0
 10
4.53217
 20
-31.7675
 11
3.97754
 21
-31.5479
  0
LINE
  8
0
 10
3.97754
 20
-31.5479
 11
3.45482
 21
-31.2605
  0
LINE
  8
0
 10
3.45482
 20
-31.2605
 11
2.97223
 21
-30.9099
  0
LINE
  8
0
 10
2.97223
 20
-30.9099
 11
2.53738
 21
-30.5016
  0
LINE
  8
0
 10
2.53738
 20
-30.5016
 11
2.15717
 21
-30.042
  0
LINE
  8
0
 10
2.15717
 20
-30.042
 11
1.83754
 21
-29.5383
  0
LINE
  8
0
 10
1.83754
 20
-29.5383
 11
1.58356
 21
-28.9986
  0
LINE
  8
0
 10
1.58356
 20
-28.9986
 11
1.39922
 21
-28.4313
  0
LINE
  8
0
 10
1.39922
 20
-28.4313
 11
1.28745
 21
-27.8453
  0
LINE
  8
0
 10
1.28745
 20
-27.8453
 11
1.25
 21
-27.25
  0
LINE
  8
0
 10
1.25
 20
-27.25
 11
1.28745
 21
-26.6547
  0
LINE
  8
0
 10
1.28745
 20
-26.6547
 11
1.39922
 21
-26.0687
  0
LINE
  8
0
 10
1.39922
 20
-26.0687
 11
1.58356
 21
-25.5014
  0
LINE
  8
0
 10
1.58356
 20
-25.5014
 11
1.83754
 21
-24.9617
  0
LINE
  8
0
 10
1.83754
 20
-24.9617
 11
2.15717
 21
-24.458
  0
LINE
  8
0
 10
2.15717
 20
-24.458
 11
2.53738
 21
-23.9984
  0
LINE
  8
0
 10
2.53738
 20
-23.9984
 11
2.97223
 21
-23.5901
  0
LINE
  8
0
 10
2.97223
 20
-23.5901
 11
3.45482
 21
-23.2394
  0
LINE
  8
0
 10
3.45482
 20
-23.2394
 11
3.97754
 21
-22.9521
  0
LINE
  8
0
 10
3.97754
 20
-22.9521
 11
4.53217
 21
-22.7325
  0
LINE
  8
0
 10
4.53217
 20
-22.7325
 11
5.10992
 21
-22.5841
  0
LINE
  8
0
 10
5.10992
 20
-22.5841
 11
5.70174
 21
-22.5094
  0
LINE
  8
0
 10
5.70174
 20
-22.5094
 11
6.29825
 21
-22.5094
  0
LINE
  8
0
 10
6.29825
 20
-22.5094
 11
6.89006
 21
-22.5841
  0
LINE
  8
0
 10
6.89006
 20
-22.5841
 11
7.46782
 21
-22.7325
  0
LINE
  8
0
 10
7.46782
 20
-22.7325
 11
8.02245
 21
-22.9521
  0
LINE
  8
0
 10
8.02245
 20
-22.9521
 11
8.54517
 21
-23.2394
  0
LINE
  8
0
 10
8.54517
 20
-23.2394
 11
9.02776
 21
-23.5901
  0
LINE
  8
0
 10
9.02776
 20
-23.5901
 11
9.4626
 21
-23.9984
  0
LINE
  8
0
 10
9.4626
 20
-23.9984
 11
9.84282
 21
-24.458
  0
LINE
  8
0
 10
9.84282
 20
-24.458
 11
10.1624
 21
-24.9617
  0
LINE
  8
0
 10
10.1624
 20
-24.9617
 11
10.4164
 21
-25.5014
  0
LINE
  8
0
 10
10.4164
 20
-25.5014
 11
10.6008
 21
-26.0687
  0
LINE
  8
0
 10
10.6008
 20
-26.0687
 11
10.7125
 21
-26.6547
  0
LINE
  8
0
 10
10.7125
 20
-26.6547
 11
10.75
 21
-27.25
  0
LINE
  8
0
 10
10.75
 20
-27.25
 11
10.7125
 21
-27.8453
  0
LINE
  8
0
 10
10.7125
 20
-27.8453
 11
10.6008
 21
-28.4313
  0
LINE
  8
0
 10
10.6008
 20
-28.4313
 11
10.4164
 21
-28.9986
  0
LINE
  8
0
 10
10.4164
 20
-28.9986
 11
10.1624
 21
-29.5383
  0
LINE
  8
0
 10
10.1624
 20
-29.5383
 11
9.84282
 21
-30.042
  0
LINE
  8
0
 10
9.84282
 20
-30.042
 11
9.4626
 21
-30.5016
  0
LINE
  8
0
 10
9.4626
 20
-30.5016
 11
9.02776
 21
-30.9099
  0
LINE
  8
0
 10
9.02776
 20
-30.9099
 11
8.54517
 21
-31.2605
  0
LINE
  8
0
 10
8.54517
 20
-31.2605
 11
8.02245
 21
-31.5479
  0
LINE
  8
0
 10
8.02245
 20
-31.5479
 11
7.46782
 21
-31.7675
  0
LINE
  8
0
 10
7.46782
 20
-31.7675
 11
6.89006
 21
-31.9159
  0
LINE
  8
0
 10
6.89006
 20
-31.9159
 11
6.29825
 21
-31.9906
  0
LINE
  8
0
 10
6.29825
 20
-31.9906
 11
5.70174
 21
-31.9906
  0
LINE
  8
0
 10
-111.298
 20
-31.9906
 11
-111.89
 21
-31.9159
  0
LINE
  8
0
 10
-111.89
 20
-31.9159
 11
-112.468
 21
-31.7675
  0
LINE
  8
0
 10
-112.468
 20
-31.7675
 11
-113.022
 21
-31.5479
  0
LINE
  8
0
 10
-113.022
 20
-31.5479
 11
-113.545
 21
-31.2605
  0
LINE
  8
0
 10
-113.545
 20
-31.2605
 11
-114.028
 21
-30.9099
  0
LINE
  8
0
 10
-114.028
 20
-30.9099
 11
-114.463
 21
-30.5016
  0
LINE
  8
0
 10
-114.463
 20
-30.5016
 11
-114.843
 21
-30.042
  0
LINE
  8
0
 10
-114.843
 20
-30.042
 11
-115.162
 21
-29.5383
  0
LINE
  8
0
 10
-115.162
 20
-29.5383
 11
-115.416
 21
-28.9986
  0
LINE
  8
0
 10
-115.416
 20
-28.9986
 11
-115.601
 21
-28.4313
  0
LINE
  8
0
 10
-115.601
 20
-28.4313
 11
-115.713
 21
-27.8453
  0
LINE
  8
0
 10
-115.713
 20
-27.8453
 11
-115.75
 21
-27.25
  0
LINE
  8
0
 10
-115.75
 20
-27.25
 11
-115.713
 21
-26.6547
  0
LINE
  8
0
 10
-115.713
 20
-26.6547
 11
-115.601
 21
-26.0687
  0
LINE
  8
0
 10
-115.601
 20
-26.0687
 11
-115.416
 21
-25.5014
  0
LINE
  8
0
 10
-115.416
 20
-25.5014
 11
-115.162
 21
-24.9617
  0
LINE
  8
0
 10
-115.162
 20
-24.9617
 11
-114.843
 21
-24.458
  0
LINE
  8
0
 10
-114.843
 20
-24.458
 11
-114.463
 21
-23.9984
  0
LINE
  8
0
 10
-114.463
 20
-23.9984
 11
-114.028
 21
-23.5901
  0
LINE
  8
0
 10
-114.028
 20
-23.5901
 11
-113.545
 21
-23.2394
  0
LINE
  8
0
 10
-113.545
 20
-23.2394
 11
-113.022
 21
-22.9521
  0
LINE
  8
0
 10
-113.022
 20
-22.9521
 11
-112.468
 21
-22.7325
  0
LINE
  8
0
 10
-112.468
 20
-22.7325
 11
-111.89
 21
-22.5841
  0
LINE
  8
0
 10
-111.89
 20
-22.5841
 11
-111.298
 21
-22.5094
  0
LINE
  8
0
 10
-111.298
 20
-22.5094
 11
-110.702
 21
-22.5094
  0
LINE
  8
0
 10
-110.702
 20
-22.5094
 11
-110.11
 21
-22.5841
  0
LINE
  8
0
 10
-110.11
 20
-22.5841
 11
-109.532
 21
-22.7325
  0
LINE
  8
0
 10
-109.532
 20
-22.7325
 11
-108.978
 21
-22.9521
  0
LINE
  8
0
 10
-108.978
 20
-22.9521
 11
-108.455
 21
-23.2394
  0
LINE
  8
0
 10
-108.455
 20
-23.2394
 11
-107.972
 21
-23.5901
  0
LINE
  8
0
 10
-107.972
 20
-23.5901
 11
-107.537
 21
-23.9984
  0
LINE
  8
0
 10
-107.537
 20
-23.9984
 11
-107.157
 21
-24.458
  0
LINE
  8
0
 10
-107.157
 20
-24.458
 11
-106.838
 21
-24.9617
  0
LINE
  8
0
 10
-106.838
 20
-24.9617
 11
-106.584
 21
-25.5014
  0
LINE
  8
0
 10
-106.584
 20
-25.5014
 11
-106.399
 21
-26.0687
  0
LINE
  8
0
 10
-106.399
 20
-26.0687
 11
-106.287
 21
-26.6547
  0
LINE
  8
0
 10
-106.287
 20
-26.6547
 11
-106.25
 21
-27.25
  0
LINE
  8
0
 10
-106.25
 20
-27.25
 11
-106.287
 21
-27.8453
  0
LINE
  8
0
 10
-106.287
 20
-27.8453
 11
-106.399
 21
-28.4313
  0
LINE
  8
0
 10
-106.399
 20
-28.4313
 11
-106.584
 21
-28.9986
  0
LINE
  8
0
 10
-106.584
 20
-28.9986
 11
-106.838
 21
-29.5383
  0
LINE
  8
0
 10
-106.838
 20
-29.5383
 11
-107.157
 21
-30.042
  0
LINE
  8
0
 10
-107.157
 20
-30.042
 11
-107.537
 21
-30.5016
  0
LINE
  8
0
 10
-107.537
 20
-30.5016
 11
-107.972
 21
-30.9099
  0
LINE
  8
0
 10
-107.972
 20
-30.9099
 11
-108.455
 21
-31.2605
  0
LINE
  8
0
 10
-108.455
 20
-31.2605
 11
-108.978
 21
-31.5479
  0
LINE
  8
0
 10
-108.978
 20
-31.5479
 11
-109.532
 21
-31.7675
  0
LINE
  8
0
 10
-109.532
 20
-31.7675
 11
-110.11
 21
-31.9159
  0
LINE
  8
0
 10
-110.11
 20
-31.9159
 11
-110.702
 21
-31.9906
  0
LINE
  8
0
 10
-110.702
 20
-31.9906
 11
-111.298
 21
-31.9906
  0
LINE
  8
0
 10
-23.3497
 20
-104.922
 11
-23.5475
 21
-104.897
  0
LINE
  8
0
 10
-23.5475
 20
-104.897
 11
-23.7406
 21
-104.847
  0
LINE
  8
0
 10
-23.7406
 20
-104.847
 11
-23.9259
 21
-104.774
  0
LINE
  8
0
 10
-23.9259
 20
-104.774
 11
-24.1006
 21
-104.678
  0
LINE
  8
0
 10
-24.1006
 20
-104.678
 11
-24.2619
 21
-104.561
  0
LINE
  8
0
 10
-24.2619
 20
-104.561
 11
-24.4072
 21
-104.424
  0
LINE
  8
0
 10
-24.4072
 20
-104.424
 11
-24.5343
 21
-104.271
  0
LINE
  8
0
 10
-24.5343
 20
-104.271
 11
-24.6411
 21
-104.102
  0
LINE
  8
0
 10
-24.6411
 20
-104.102
 11
-24.726
 21
-103.922
  0
LINE
  8
0
 10
-24.726
 20
-103.922
 11
-24.7876
 21
-103.732
  0
LINE
  8
0
 10
-24.7876
 20
-103.732
 11
-24.825
 21
-103.536
  0
LINE
  8
0
 10
-24.825
 20
-103.536
 11
-24.8375
 21
-103.337
  0
LINE
  8
0
 10
-24.8375
 20
-103.337
 11
-24.825
 21
-103.139
  0
LINE
  8
0
 10
-24.825
 20
-103.139
 11
-24.7876
 21
-102.943
  0
LINE
  8
0
 10
-24.7876
 20
-102.943
 11
-24.726
 21
-102.753
  0
LINE
  8
0
 10
-24.726
 20
-102.753
 11
-24.6411
 21
-102.573
  0
LINE
  8
0
 10
-24.6411
 20
-102.573
 11
-24.5343
 21
-102.404
  0
LINE
  8
0
 10
-24.5343
 20
-102.404
 11
-24.4072
 21
-102.251
  0
LINE
  8
0
 10
-24.4072
 20
-102.251
 11
-24.2619
 21
-102.114
  0
LINE
  8
0
 10
-24.2619
 20
-102.114
 11
-24.1006
 21
-101.997
  0
LINE
  8
0
 10
-24.1006
 20
-101.997
 11
-23.9259
 21
-101.901
  0
LINE
  8
0
 10
-23.9259
 20
-101.901
 11
-23.7406
 21
-101.828
  0
LINE
  8
0
 10
-23.7406
 20
-101.828
 11
-23.5475
 21
-101.778
  0
LINE
  8
0
 10
-23.5475
 20
-101.778
 11
-23.3497
 21
-101.753
  0
LINE
  8
0
 10
-23.3497
 20
-101.753
 11
-23.1503
 21
-101.753
  0
LINE
  8
0
 10
-23.1503
 20
-101.753
 11
-22.9525
 21
-101.778
  0
LINE
  8
0
 10
-22.9525
 20
-101.778
 11
-22.7594
 21
-101.828
  0
LINE
  8
0
 10
-22.7594
 20
-101.828
 11
-22.5741
 21
-101.901
  0
LINE
  8
0
 10
-22.5741
 20
-101.901
 11
-22.3994
 21
-101.997
  0
LINE
  8
0
 10
-22.3994
 20
-101.997
 11
-22.2381
 21
-102.114
  0
LINE
  8
0
 10
-22.2381
 20
-102.114
 11
-22.0928
 21
-102.251
  0
LINE
  8
0
 10
-22.0928
 20
-102.251
 11
-21.9657
 21
-102.404
  0
LINE
  8
0
 10
-21.9657
 20
-102.404
 11
-21.8589
 21
-102.573
  0
LINE
  8
0
 10
-21.8589
 20
-102.573
 11
-21.774
 21
-102.753
  0
LINE
  8
0
 10
-21.774
 20
-102.753
 11
-21.7124
 21
-102.943
  0
LINE
  8
0
 10
-21.7124
 20
-102.943
 11
-21.675
 21
-103.139
  0
LINE
  8
0
 10
-21.675
 20
-103.139
 11
-21.6625
 21
-103.337
  0
LINE
  8
0
 10
-21.6625
 20
-103.337
 11
-21.675
 21
-103.536
  0
LINE
  8
0
 10
-21.675
 20
-103.536
 11
-21.7124
 21
-103.732
  0
LINE
  8
0
 10
-21.7124
 20
-103.732
 11
-21.774
 21
-103.922
  0
LINE
  8
0
 10
-21.774
 20
-103.922
 11
-21.8589
 21
-104.102
  0
LINE
  8
0
 10
-21.8589
 20
-104.102
 11
-21.9657
 21
-104.271
  0
LINE
  8
0
 10
-21.9657
 20
-104.271
 11
-22.0928
 21
-104.424
  0
LINE
  8
0
 10
-22.0928
 20
-104.424
 11
-22.2381
 21
-104.561
  0
LINE
  8
0
 10
-22.2381
 20
-104.561
 11
-22.3994
 21
-104.678
  0
LINE
  8
0
 10
-22.3994
 20
-104.678
 11
-22.5741
 21
-104.774
  0
LINE
  8
0
 10
-22.5741
 20
-104.774
 11
-22.7594
 21
-104.847
  0
LINE
  8
0
 10
-22.7594
 20
-104.847
 11
-22.9525
 21
-104.897
  0
LINE
  8
0
 10
-22.9525
 20
-104.897
 11
-23.1503
 21
-104.922
  0
LINE
  8
0
 10
-23.1503
 20
-104.922
 11
-23.3497
 21
-104.922
  0
LINE
  8
0
 10
23.1503
 20
-104.922
 11
22.9525
 21
-104.897
  0
LINE
  8
0
 10
22.9525
 20
-104.897
 11
22.7594
 21
-104.847
  0
LINE
  8
0
 10
22.7594
 20
-104.847
 11
22.5741
 21
-104.774
  0
LINE
  8
0
 10
22.5741
 20
-104.774
 11
22.3994
 21
-104.678
  0
LINE
  8
0
 10
22.3994
 20
-104.678
 11
22.2381
 21
-104.561
  0
LINE
  8
0
 10
22.2381
 20
-104.561
 11
22.0928
 21
-104.424
  0
LINE
  8
0
 10
22.0928
 20
-104.424
 11
21.9657
 21
-104.271
  0
LINE
  8
0
 10
21.9657
 20
-104.271
 11
21.8589
 21
-104.102
  0
LINE
  8
0
 10
21.8589
 20
-104.102
 11
21.774
 21
-103.922
  0
LINE
  8
0
 10
21.774
 20
-103.922
 11
21.7124
 21
-103.732
  0
LINE
  8
0
 10
21.7124
 20
-103.732
 11
21.675
 21
-103.536
  0
LINE
  8
0
 10
21.675
 20
-103.536
 11
21.6625
 21
-103.337
  0
LINE
  8
0
 10
21.6625
 20
-103.337
 11
21.675
 21
-103.139
  0
LINE
  8
0
 10
21.675
 20
-103.139
 11
21.7124
 21
-102.943
  0
LINE
  8
0
 10
21.7124
 20
-102.943
 11
21.774
 21
-102.753
  0
LINE
  8
0
 10
21.774
 20
-102.753
 11
21.8589
 21
-102.573
  0
LINE
  8
0
 10
21.8589
 20
-102.573
 11
21.9657
 21
-102.404
  0
LINE
  8
0
 10
21.9657
 20
-102.404
 11
22.0928
 21
-102.251
  0
LINE
  8
0
 10
22.0928
 20
-102.251
 11
22.2381
 21
-102.114
  0
LINE
  8
0
 10
22.2381
 20
-102.114
 11
22.3994
 21
-101.997
  0
LINE
  8
0
 10
22.3994
 20
-101.997
 11
22.5741
 21
-101.901
  0
LINE
  8
0
 10
22.5741
 20
-101.901
 11
22.7594
 21
-101.828
  0
LINE
  8
0
 10
22.7594
 20
-101.828
 11
22.9525
 21
-101.778
  0
LINE
  8
0
 10
22.9525
 20
-101.778
 11
23.1503
 21
-101.753
  0
LINE
  8
0
 10
23.1503
 20
-101.753
 11
23.3497
 21
-101.753
  0
LINE
  8
0
 10
23.3497
 20
-101.753
 11
23.5475
 21
-101.778
  0
LINE
  8
0
 10
23.5475
 20
-101.778
 11
23.7406
 21
-101.828
  0
LINE
  8
0
 10
23.7406
 20
-101.828
 11
23.9259
 21
-101.901
  0
LINE
  8
0
 10
23.9259
 20
-101.901
 11
24.1006
 21
-101.997
  0
LINE
  8
0
 10
24.1006
 20
-101.997
 11
24.2619
 21
-102.114
  0
LINE
  8
0
 10
24.2619
 20
-102.114
 11
24.4072
 21
-102.251
  0
LINE
  8
0
 10
24.4072
 20
-102.251
 11
24.5343
 21
-102.404
  0
LINE
  8
0
 10
24.5343
 20
-102.404
 11
24.6411
 21
-102.573
  0
LINE
  8
0
 10
24.6411
 20
-102.573
 11
24.726
 21
-102.753
  0
LINE
  8
0
 10
24.726
 20
-102.753
 11
24.7876
 21
-102.943
  0
LINE
  8
0
 10
24.7876
 20
-102.943
 11
24.825
 21
-103.139
  0
LINE
  8
0
 10
24.825
 20
-103.139
 11
24.8375
 21
-103.337
  0
LINE
  8
0
 10
24.8375
 20
-103.337
 11
24.825
 21
-103.536
  0
LINE
  8
0
 10
24.825
 20
-103.536
 11
24.7876
 21
-103.732
  0
LINE
  8
0
 10
24.7876
 20
-103.732
 11
24.726
 21
-103.922
  0
LINE
  8
0
 10
24.726
 20
-103.922
 11
24.6411
 21
-104.102
  0
LINE
  8
0
 10
24.6411
 20
-104.102
 11
24.5343
 21
-104.271
  0
LINE
  8
0
 10
24.5343
 20
-104.271
 11
24.4072
 21
-104.424
  0
LINE
  8
0
 10
24.4072
 20
-104.424
 11
24.2619
 21
-104.561
  0
LINE
  8
0
 10
24.2619
 20
-104.561
 11
24.1006
 21
-104.678
  0
LINE
  8
0
 10
24.1006
 20
-104.678
 11
23.9259
 21
-104.774
  0
LINE
  8
0
 10
23.9259
 20
-104.774
 11
23.7406
 21
-104.847
  0
LINE
  8
0
 10
23.7406
 20
-104.847
 11
23.5475
 21
-104.897
  0
LINE
  8
0
 10
23.5475
 20
-104.897
 11
23.3497
 21
-104.922
  0
LINE
  8
0
 10
23.3497
 20
-104.922
 11
23.1503
 21
-104.922
  0
LINE
  8
0
 10
-81.8497
 20
-104.922
 11
-82.0475
 21
-104.897
  0
LINE
  8
0
 10
-82.0475
 20
-104.897
 11
-82.2406
 21
-104.847
  0
LINE
  8
0
 10
-82.2406
 20
-104.847
 11
-82.4259
 21
-104.774
  0
LINE
  8
0
 10
-82.4259
 20
-104.774
 11
-82.6006
 21
-104.678
  0
LINE
  8
0
 10
-82.6006
 20
-104.678
 11
-82.7619
 21
-104.561
  0
LINE
  8
0
 10
-82.7619
 20
-104.561
 11
-82.9072
 21
-104.424
  0
LINE
  8
0
 10
-82.9072
 20
-104.424
 11
-83.0343
 21
-104.271
  0
LINE
  8
0
 10
-83.0343
 20
-104.271
 11
-83.1411
 21
-104.102
  0
LINE
  8
0
 10
-83.1411
 20
-104.102
 11
-83.226
 21
-103.922
  0
LINE
  8
0
 10
-83.226
 20
-103.922
 11
-83.2876
 21
-103.732
  0
LINE
  8
0
 10
-83.2876
 20
-103.732
 11
-83.325
 21
-103.536
  0
LINE
  8
0
 10
-83.325
 20
-103.536
 11
-83.3375
 21
-103.337
  0
LINE
  8
0
 10
-83.3375
 20
-103.337
 11
-83.325
 21
-103.139
  0
LINE
  8
0
 10
-83.325
 20
-103.139
 11
-83.2876
 21
-102.943
  0
LINE
  8
0
 10
-83.2876
 20
-102.943
 11
-83.226
 21
-102.753
  0
LINE
  8
0
 10
-83.226
 20
-102.753
 11
-83.1411
 21
-102.573
  0
LINE
  8
0
 10
-83.1411
 20
-102.573
 11
-83.0343
 21
-102.404
  0
LINE
  8
0
 10
-83.0343
 20
-102.404
 11
-82.9072
 21
-102.251
  0
LINE
  8
0
 10
-82.9072
 20
-102.251
 11
-82.7619
 21
-102.114
  0
LINE
  8
0
 10
-82.7619
 20
-102.114
 11
-82.6006
 21
-101.997
  0
LINE
  8
0
 10
-82.6006
 20
-101.997
 11
-82.4259
 21
-101.901
  0
LINE
  8
0
 10
-82.4259
 20
-101.901
 11
-82.2406
 21
-101.828
  0
LINE
  8
0
 10
-82.2406
 20
-101.828
 11
-82.0475
 21
-101.778
  0
LINE
  8
0
 10
-82.0475
 20
-101.778
 11
-81.8497
 21
-101.753
  0
LINE
  8
0
 10
-81.8497
 20
-101.753
 11
-81.6503
 21
-101.753
  0
LINE
  8
0
 10
-81.6503
 20
-101.753
 11
-81.4525
 21
-101.778
  0
LINE
  8
0
 10
-81.4525
 20
-101.778
 11
-81.2594
 21
-101.828
  0
LINE
  8
0
 10
-81.2594
 20
-101.828
 11
-81.0741
 21
-101.901
  0
LINE
  8
0
 10
-81.0741
 20
-101.901
 11
-80.8994
 21
-101.997
  0
LINE
  8
0
 10
-80.8994
 20
-101.997
 11
-80.7381
 21
-102.114
  0
LINE
  8
0
 10
-80.7381
 20
-102.114
 11
-80.5928
 21
-102.251
  0
LINE
  8
0
 10
-80.5928
 20
-102.251
 11
-80.4657
 21
-102.404
  0
LINE
  8
0
 10
-80.4657
 20
-102.404
 11
-80.3589
 21
-102.573
  0
LINE
  8
0
 10
-80.3589
 20
-102.573
 11
-80.274
 21
-102.753
  0
LINE
  8
0
 10
-80.274
 20
-102.753
 11
-80.2124
 21
-102.943
  0
LINE
  8
0
 10
-80.2124
 20
-102.943
 11
-80.175
 21
-103.139
  0
LINE
  8
0
 10
-80.175
 20
-103.139
 11
-80.1625
 21
-103.337
  0
LINE
  8
0
 10
-80.1625
 20
-103.337
 11
-80.175
 21
-103.536
  0
LINE
  8
0
 10
-80.175
 20
-103.536
 11
-80.2124
 21
-103.732
  0
LINE
  8
0
 10
-80.2124
 20
-103.732
 11
-80.274
 21
-103.922
  0
LINE
  8
0
 10
-80.274
 20
-103.922
 11
-80.3589
 21
-104.102
  0
LINE
  8
0
 10
-80.3589
 20
-104.102
 11
-80.4657
 21
-104.271
  0
LINE
  8
0
 10
-80.4657
 20
-104.271
 11
-80.5928
 21
-104.424
  0
LINE
  8
0
 10
-80.5928
 20
-104.424
 11
-80.7381
 21
-104.561
  0
LINE
  8
0
 10
-80.7381
 20
-104.561
 11
-80.8994
 21
-104.678
  0
LINE
  8
0
 10
-80.8994
 20
-104.678
 11
-81.0741
 21
-104.774
  0
LINE
  8
0
 10
-81.0741
 20
-104.774
 11
-81.2594
 21
-104.847
  0
LINE
  8
0
 10
-81.2594
 20
-104.847
 11
-81.4525
 21
-104.897
  0
LINE
  8
0
 10
-81.4525
 20
-104.897
 11
-81.6503
 21
-104.922
  0
LINE
  8
0
 10
-81.6503
 20
-104.922
 11
-81.8497
 21
-104.922
  0
LINE
  8
0
 10
93.6503
 20
-104.922
 11
93.4525
 21
-104.897
  0
LINE
  8
0
 10
93.4525
 20
-104.897
 11
93.2594
 21
-104.847
  0
LINE
  8
0
 10
93.2594
 20
-104.847
 11
93.0741
 21
-104.774
  0
LINE
  8
0
 10
93.0741
 20
-104.774
 11
92.8994
 21
-104.678
  0
LINE
  8
0
 10
92.8994
 20
-104.678
 11
92.7381
 21
-104.561
  0
LINE
  8
0
 10
92.7381
 20
-104.561
 11
92.5928
 21
-104.424
  0
LINE
  8
0
 10
92.5928
 20
-104.424
 11
92.4657
 21
-104.271
  0
LINE
  8
0
 10
92.4657
 20
-104.271
 11
92.3589
 21
-104.102
  0
LINE
  8
0
 10
92.3589
 20
-104.102
 11
92.274
 21
-103.922
  0
LINE
  8
0
 10
92.274
 20
-103.922
 11
92.2124
 21
-103.732
  0
LINE
  8
0
 10
92.2124
 20
-103.732
 11
92.175
 21
-103.536
  0
LINE
  8
0
 10
92.175
 20
-103.536
 11
92.1625
 21
-103.337
  0
LINE
  8
0
 10
92.1625
 20
-103.337
 11
92.175
 21
-103.139
  0
LINE
  8
0
 10
92.175
 20
-103.139
 11
92.2124
 21
-102.943
  0
LINE
  8
0
 10
92.2124
 20
-102.943
 11
92.274
 21
-102.753
  0
LINE
  8
0
 10
92.274
 20
-102.753
 11
92.3589
 21
-102.573
  0
LINE
  8
0
 10
92.3589
 20
-102.573
 11
92.4657
 21
-102.404
  0
LINE
  8
0
 10
92.4657
 20
-102.404
 11
92.5928
 21
-102.251
  0
LINE
  8
0
 10
92.5928
 20
-102.251
 11
92.7381
 21
-102.114
  0
LINE
  8
0
 10
92.7381
 20
-102.114
 11
92.8994
 21
-101.997
  0
LINE
  8
0
 10
92.8994
 20
-101.997
 11
93.0741
 21
-101.901
  0
LINE
  8
0
 10
93.0741
 20
-101.901
 11
93.2594
 21
-101.828
  0
LINE
  8
0
 10
93.2594
 20
-101.828
 11
93.4525
 21
-101.778
  0
LINE
  8
0
 10
93.4525
 20
-101.778
 11
93.6503
 21
-101.753
  0
LINE
  8
0
 10
93.6503
 20
-101.753
 11
93.8497
 21
-101.753
  0
LINE
  8
0
 10
93.8497
 20
-101.753
 11
94.0475
 21
-101.778
  0
LINE
  8
0
 10
94.0475
 20
-101.778
 11
94.2406
 21
-101.828
  0
LINE
  8
0
 10
94.2406
 20
-101.828
 11
94.4259
 21
-101.901
  0
LINE
  8
0
 10
94.4259
 20
-101.901
 11
94.6006
 21
-101.997
  0
LINE
  8
0
 10
94.6006
 20
-101.997
 11
94.7619
 21
-102.114
  0
LINE
  8
0
 10
94.7619
 20
-102.114
 11
94.9072
 21
-102.251
  0
LINE
  8
0
 10
94.9072
 20
-102.251
 11
95.0343
 21
-102.404
  0
LINE
  8
0
 10
95.0343
 20
-102.404
 11
95.1411
 21
-102.573
  0
LINE
  8
0
 10
95.1411
 20
-102.573
 11
95.226
 21
-102.753
  0
LINE
  8
0
 10
95.226
 20
-102.753
 11
95.2876
 21
-102.943
  0
LINE
  8
0
 10
95.2876
 20
-102.943
 11
95.325
 21
-103.139
  0
LINE
  8
0
 10
95.325
 20
-103.139
 11
95.3375
 21
-103.337
  0
LINE
  8
0
 10
95.3375
 20
-103.337
 11
95.325
 21
-103.536
  0
LINE
  8
0
 10
95.325
 20
-103.536
 11
95.2876
 21
-103.732
  0
LINE
  8
0
 10
95.2876
 20
-103.732
 11
95.226
 21
-103.922
  0
LINE
  8
0
 10
95.226
 20
-103.922
 11
95.1411
 21
-104.102
  0
LINE
  8
0
 10
95.1411
 20
-104.102
 11
95.0343
 21
-104.271
  0
LINE
  8
0
 10
95.0343
 20
-104.271
 11
94.9072
 21
-104.424
  0
LINE
  8
0
 10
94.9072
 20
-104.424
 11
94.7619
 21
-104.561
  0
LINE
  8
0
 10
94.7619
 20
-104.561
 11
94.6006
 21
-104.678
  0
LINE
  8
0
 10
94.6006
 20
-104.678
 11
94.4259
 21
-104.774
  0
LINE
  8
0
 10
94.4259
 20
-104.774
 11
94.2406
 21
-104.847
  0
LINE
  8
0
 10
94.2406
 20
-104.847
 11
94.0475
 21
-104.897
  0
LINE
  8
0
 10
94.0475
 20
-104.897
 11
93.8497
 21
-104.922
  0
LINE
  8
0
 10
93.8497
 20
-104.922
 11
93.6503
 21
-104.922
  0
LINE
  8
0
 10
35.1503
 20
-104.922
 11
34.9525
 21
-104.897
  0
LINE
  8
0
 10
34.9525
 20
-104.897
 11
34.7594
 21
-104.847
  0
LINE
  8
0
 10
34.7594
 20
-104.847
 11
34.5741
 21
-104.774
  0
LINE
  8
0
 10
34.5741
 20
-104.774
 11
34.3994
 21
-104.678
  0
LINE
  8
0
 10
34.3994
 20
-104.678
 11
34.2381
 21
-104.561
  0
LINE
  8
0
 10
34.2381
 20
-104.561
 11
34.0928
 21
-104.424
  0
LINE
  8
0
 10
34.0928
 20
-104.424
 11
33.9657
 21
-104.271
  0
LINE
  8
0
 10
33.9657
 20
-104.271
 11
33.8589
 21
-104.102
  0
LINE
  8
0
 10
33.8589
 20
-104.102
 11
33.774
 21
-103.922
  0
LINE
  8
0
 10
33.774
 20
-103.922
 11
33.7124
 21
-103.732
  0
LINE
  8
0
 10
33.7124
 20
-103.732
 11
33.675
 21
-103.536
  0
LINE
  8
0
 10
33.675
 20
-103.536
 11
33.6625
 21
-103.337
  0
LINE
  8
0
 10
33.6625
 20
-103.337
 11
33.675
 21
-103.139
  0
LINE
  8
0
 10
33.675
 20
-103.139
 11
33.7124
 21
-102.943
  0
LINE
  8
0
 10
33.7124
 20
-102.943
 11
33.774
 21
-102.753
  0
LINE
  8
0
 10
33.774
 20
-102.753
 11
33.8589
 21
-102.573
  0
LINE
  8
0
 10
33.8589
 20
-102.573
 11
33.9657
 21
-102.404
  0
LINE
  8
0
 10
33.9657
 20
-102.404
 11
34.0928
 21
-102.251
  0
LINE
  8
0
 10
34.0928
 20
-102.251
 11
34.2381
 21
-102.114
  0
LINE
  8
0
 10
34.2381
 20
-102.114
 11
34.3994
 21
-101.997
  0
LINE
  8
0
 10
34.3994
 20
-101.997
 11
34.5741
 21
-101.901
  0
LINE
  8
0
 10
34.5741
 20
-101.901
 11
34.7594
 21
-101.828
  0
LINE
  8
0
 10
34.7594
 20
-101.828
 11
34.9525
 21
-101.778
  0
LINE
  8
0
 10
34.9525
 20
-101.778
 11
35.1503
 21
-101.753
  0
LINE
  8
0
 10
35.1503
 20
-101.753
 11
35.3497
 21
-101.753
  0
LINE
  8
0
 10
35.3497
 20
-101.753
 11
35.5475
 21
-101.778
  0
LINE
  8
0
 10
35.5475
 20
-101.778
 11
35.7406
 21
-101.828
  0
LINE
  8
0
 10
35.7406
 20
-101.828
 11
35.9259
 21
-101.901
  0
LINE
  8
0
 10
35.9259
 20
-101.901
 11
36.1006
 21
-101.997
  0
LINE
  8
0
 10
36.1006
 20
-101.997
 11
36.2619
 21
-102.114
  0
LINE
  8
0
 10
36.2619
 20
-102.114
 11
36.4072
 21
-102.251
  0
LINE
  8
0
 10
36.4072
 20
-102.251
 11
36.5343
 21
-102.404
  0
LINE
  8
0
 10
36.5343
 20
-102.404
 11
36.6411
 21
-102.573
  0
LINE
  8
0
 10
36.6411
 20
-102.573
 11
36.726
 21
-102.753
  0
LINE
  8
0
 10
36.726
 20
-102.753
 11
36.7876
 21
-102.943
  0
LINE
  8
0
 10
36.7876
 20
-102.943
 11
36.825
 21
-103.139
  0
LINE
  8
0
 10
36.825
 20
-103.139
 11
36.8375
 21
-103.337
  0
LINE
  8
0
 10
36.8375
 20
-103.337
 11
36.825
 21
-103.536
  0
LINE
  8
0
 10
36.825
 20
-103.536
 11
36.7876
 21
-103.732
  0
LINE
  8
0
 10
36.7876
 20
-103.732
 11
36.726
 21
-103.922
  0
LINE
  8
0
 10
36.726
 20
-103.922
 11
36.6411
 21
-104.102
  0
LINE
  8
0
 10
36.6411
 20
-104.102
 11
36.5343
 21
-104.271
  0
LINE
  8
0
 10
36.5343
 20
-104.271
 11
36.4072
 21
-104.424
  0
LINE
  8
0
 10
36.4072
 20
-104.424
 11
36.2619
 21
-104.561
  0
LINE
  8
0
 10
36.2619
 20
-104.561
 11
36.1006
 21
-104.678
  0
LINE
  8
0
 10
36.1006
 20
-104.678
 11
35.9259
 21
-104.774
  0
LINE
  8
0
 10
35.9259
 20
-104.774
 11
35.7406
 21
-104.847
  0
LINE
  8
0
 10
35.7406
 20
-104.847
 11
35.5475
 21
-104.897
  0
LINE
  8
0
 10
35.5475
 20
-104.897
 11
35.3497
 21
-104.922
  0
LINE
  8
0
 10
35.3497
 20
-104.922
 11
35.1503
 21
-104.922
  0
LINE
  8
0
 10
140.15
 20
-104.922
 11
139.953
 21
-104.897
  0
LINE
  8
0
 10
139.953
 20
-104.897
 11
139.759
 21
-104.847
  0
LINE
  8
0
 10
139.759
 20
-104.847
 11
139.574
 21
-104.774
  0
LINE
  8
0
 10
139.574
 20
-104.774
 11
139.399
 21
-104.678
  0
LINE
  8
0
 10
139.399
 20
-104.678
 11
139.238
 21
-104.561
  0
LINE
  8
0
 10
139.238
 20
-104.561
 11
139.093
 21
-104.424
  0
LINE
  8
0
 10
139.093
 20
-104.424
 11
138.966
 21
-104.271
  0
LINE
  8
0
 10
138.966
 20
-104.271
 11
138.859
 21
-104.102
  0
LINE
  8
0
 10
138.859
 20
-104.102
 11
138.774
 21
-103.922
  0
LINE
  8
0
 10
138.774
 20
-103.922
 11
138.712
 21
-103.732
  0
LINE
  8
0
 10
138.712
 20
-103.732
 11
138.675
 21
-103.536
  0
LINE
  8
0
 10
138.675
 20
-103.536
 11
138.663
 21
-103.337
  0
LINE
  8
0
 10
138.663
 20
-103.337
 11
138.675
 21
-103.139
  0
LINE
  8
0
 10
138.675
 20
-103.139
 11
138.712
 21
-102.943
  0
LINE
  8
0
 10
138.712
 20
-102.943
 11
138.774
 21
-102.753
  0
LINE
  8
0
 10
138.774
 20
-102.753
 11
138.859
 21
-102.573
  0
LINE
  8
0
 10
138.859
 20
-102.573
 11
138.966
 21
-102.404
  0
LINE
  8
0
 10
138.966
 20
-102.404
 11
139.093
 21
-102.251
  0
LINE
  8
0
 10
139.093
 20
-102.251
 11
139.238
 21
-102.114
  0
LINE
  8
0
 10
139.238
 20
-102.114
 11
139.399
 21
-101.997
  0
LINE
  8
0
 10
139.399
 20
-101.997
 11
139.574
 21
-101.901
  0
LINE
  8
0
 10
139.574
 20
-101.901
 11
139.759
 21
-101.828
  0
LINE
  8
0
 10
139.759
 20
-101.828
 11
139.953
 21
-101.778
  0
LINE
  8
0
 10
139.953
 20
-101.778
 11
140.15
 21
-101.753
  0
LINE
  8
0
 10
140.15
 20
-101.753
 11
140.35
 21
-101.753
  0
LINE
  8
0
 10
140.35
 20
-101.753
 11
140.547
 21
-101.778
  0
LINE
  8
0
 10
140.547
 20
-101.778
 11
140.741
 21
-101.828
  0
LINE
  8
0
 10
140.741
 20
-101.828
 11
140.926
 21
-101.901
  0
LINE
  8
0
 10
140.926
 20
-101.901
 11
141.101
 21
-101.997
  0
LINE
  8
0
 10
141.101
 20
-101.997
 11
141.262
 21
-102.114
  0
LINE
  8
0
 10
141.262
 20
-102.114
 11
141.407
 21
-102.251
  0
LINE
  8
0
 10
141.407
 20
-102.251
 11
141.534
 21
-102.404
  0
LINE
  8
0
 10
141.534
 20
-102.404
 11
141.641
 21
-102.573
  0
LINE
  8
0
 10
141.641
 20
-102.573
 11
141.726
 21
-102.753
  0
LINE
  8
0
 10
141.726
 20
-102.753
 11
141.788
 21
-102.943
  0
LINE
  8
0
 10
141.788
 20
-102.943
 11
141.825
 21
-103.139
  0
LINE
  8
0
 10
141.825
 20
-103.139
 11
141.837
 21
-103.337
  0
LINE
  8
0
 10
141.837
 20
-103.337
 11
141.825
 21
-103.536
  0
LINE
  8
0
 10
141.825
 20
-103.536
 11
141.788
 21
-103.732
  0
LINE
  8
0
 10
141.788
 20
-103.732
 11
141.726
 21
-103.922
  0
LINE
  8
0
 10
141.726
 20
-103.922
 11
141.641
 21
-104.102
  0
LINE
  8
0
 10
141.641
 20
-104.102
 11
141.534
 21
-104.271
  0
LINE
  8
0
 10
141.534
 20
-104.271
 11
141.407
 21
-104.424
  0
LINE
  8
0
 10
141.407
 20
-104.424
 11
141.262
 21
-104.561
  0
LINE
  8
0
 10
141.262
 20
-104.561
 11
141.101
 21
-104.678
  0
LINE
  8
0
 10
141.101
 20
-104.678
 11
140.926
 21
-104.774
  0
LINE
  8
0
 10
140.926
 20
-104.774
 11
140.741
 21
-104.847
  0
LINE
  8
0
 10
140.741
 20
-104.847
 11
140.547
 21
-104.897
  0
LINE
  8
0
 10
140.547
 20
-104.897
 11
140.35
 21
-104.922
  0
LINE
  8
0
 10
140.35
 20
-104.922
 11
140.15
 21
-104.922
  0
LINE
  8
0
 10
-93.8497
 20
-104.922
 11
-94.0475
 21
-104.897
  0
LINE
  8
0
 10
-94.0475
 20
-104.897
 11
-94.2406
 21
-104.847
  0
LINE
  8
0
 10
-94.2406
 20
-104.847
 11
-94.4259
 21
-104.774
  0
LINE
  8
0
 10
-94.4259
 20
-104.774
 11
-94.6006
 21
-104.678
  0
LINE
  8
0
 10
-94.6006
 20
-104.678
 11
-94.7619
 21
-104.561
  0
LINE
  8
0
 10
-94.7619
 20
-104.561
 11
-94.9072
 21
-104.424
  0
LINE
  8
0
 10
-94.9072
 20
-104.424
 11
-95.0343
 21
-104.271
  0
LINE
  8
0
 10
-95.0343
 20
-104.271
 11
-95.1411
 21
-104.102
  0
LINE
  8
0
 10
-95.1411
 20
-104.102
 11
-95.226
 21
-103.922
  0
LINE
  8
0
 10
-95.226
 20
-103.922
 11
-95.2876
 21
-103.732
  0
LINE
  8
0
 10
-95.2876
 20
-103.732
 11
-95.325
 21
-103.536
  0
LINE
  8
0
 10
-95.325
 20
-103.536
 11
-95.3375
 21
-103.337
  0
LINE
  8
0
 10
-95.3375
 20
-103.337
 11
-95.325
 21
-103.139
  0
LINE
  8
0
 10
-95.325
 20
-103.139
 11
-95.2876
 21
-102.943
  0
LINE
  8
0
 10
-95.2876
 20
-102.943
 11
-95.226
 21
-102.753
  0
LINE
  8
0
 10
-95.226
 20
-102.753
 11
-95.1411
 21
-102.573
  0
LINE
  8
0
 10
-95.1411
 20
-102.573
 11
-95.0343
 21
-102.404
  0
LINE
  8
0
 10
-95.0343
 20
-102.404
 11
-94.9072
 21
-102.251
  0
LINE
  8
0
 10
-94.9072
 20
-102.251
 11
-94.7619
 21
-102.114
  0
LINE
  8
0
 10
-94.7619
 20
-102.114
 11
-94.6006
 21
-101.997
  0
LINE
  8
0
 10
-94.6006
 20
-101.997
 11
-94.4259
 21
-101.901
  0
LINE
  8
0
 10
-94.4259
 20
-101.901
 11
-94.2406
 21
-101.828
  0
LINE
  8
0
 10
-94.2406
 20
-101.828
 11
-94.0475
 21
-101.778
  0
LINE
  8
0
 10
-94.0475
 20
-101.778
 11
-93.8497
 21
-101.753
  0
LINE
  8
0
 10
-93.8497
 20
-101.753
 11
-93.6503
 21
-101.753
  0
LINE
  8
0
 10
-93.6503
 20
-101.753
 11
-93.4525
 21
-101.778
  0
LINE
  8
0
 10
-93.4525
 20
-101.778
 11
-93.2594
 21
-101.828
  0
LINE
  8
0
 10
-93.2594
 20
-101.828
 11
-93.0741
 21
-101.901
  0
LINE
  8
0
 10
-93.0741
 20
-101.901
 11
-92.8994
 21
-101.997
  0
LINE
  8
0
 10
-92.8994
 20
-101.997
 11
-92.7381
 21
-102.114
  0
LINE
  8
0
 10
-92.7381
 20
-102.114
 11
-92.5928
 21
-102.251
  0
LINE
  8
0
 10
-92.5928
 20
-102.251
 11
-92.4657
 21
-102.404
  0
LINE
  8
0
 10
-92.4657
 20
-102.404
 11
-92.3589
 21
-102.573
  0
LINE
  8
0
 10
-92.3589
 20
-102.573
 11
-92.274
 21
-102.753
  0
LINE
  8
0
 10
-92.274
 20
-102.753
 11
-92.2124
 21
-102.943
  0
LINE
  8
0
 10
-92.2124
 20
-102.943
 11
-92.175
 21
-103.139
  0
LINE
  8
0
 10
-92.175
 20
-103.139
 11
-92.1625
 21
-103.337
  0
LINE
  8
0
 10
-92.1625
 20
-103.337
 11
-92.175
 21
-103.536
  0
LINE
  8
0
 10
-92.175
 20
-103.536
 11
-92.2124
 21
-103.732
  0
LINE
  8
0
 10
-92.2124
 20
-103.732
 11
-92.274
 21
-103.922
  0
LINE
  8
0
 10
-92.274
 20
-103.922
 11
-92.3589
 21
-104.102
  0
LINE
  8
0
 10
-92.3589
 20
-104.102
 11
-92.4657
 21
-104.271
  0
LINE
  8
0
 10
-92.4657
 20
-104.271
 11
-92.5928
 21
-104.424
  0
LINE
  8
0
 10
-92.5928
 20
-104.424
 11
-92.7381
 21
-104.561
  0
LINE
  8
0
 10
-92.7381
 20
-104.561
 11
-92.8994
 21
-104.678
  0
LINE
  8
0
 10
-92.8994
 20
-104.678
 11
-93.0741
 21
-104.774
  0
LINE
  8
0
 10
-93.0741
 20
-104.774
 11
-93.2594
 21
-104.847
  0
LINE
  8
0
 10
-93.2594
 20
-104.847
 11
-93.4525
 21
-104.897
  0
LINE
  8
0
 10
-93.4525
 20
-104.897
 11
-93.6503
 21
-104.922
  0
LINE
  8
0
 10
-93.6503
 20
-104.922
 11
-93.8497
 21
-104.922
  0
LINE
  8
0
 10
81.6503
 20
-104.922
 11
81.4525
 21
-104.897
  0
LINE
  8
0
 10
81.4525
 20
-104.897
 11
81.2594
 21
-104.847
  0
LINE
  8
0
 10
81.2594
 20
-104.847
 11
81.0741
 21
-104.774
  0
LINE
  8
0
 10
81.0741
 20
-104.774
 11
80.8994
 21
-104.678
  0
LINE
  8
0
 10
80.8994
 20
-104.678
 11
80.7381
 21
-104.561
  0
LINE
  8
0
 10
80.7381
 20
-104.561
 11
80.5928
 21
-104.424
  0
LINE
  8
0
 10
80.5928
 20
-104.424
 11
80.4657
 21
-104.271
  0
LINE
  8
0
 10
80.4657
 20
-104.271
 11
80.3589
 21
-104.102
  0
LINE
  8
0
 10
80.3589
 20
-104.102
 11
80.274
 21
-103.922
  0
LINE
  8
0
 10
80.274
 20
-103.922
 11
80.2124
 21
-103.732
  0
LINE
  8
0
 10
80.2124
 20
-103.732
 11
80.175
 21
-103.536
  0
LINE
  8
0
 10
80.175
 20
-103.536
 11
80.1625
 21
-103.337
  0
LINE
  8
0
 10
80.1625
 20
-103.337
 11
80.175
 21
-103.139
  0
LINE
  8
0
 10
80.175
 20
-103.139
 11
80.2124
 21
-102.943
  0
LINE
  8
0
 10
80.2124
 20
-102.943
 11
80.274
 21
-102.753
  0
LINE
  8
0
 10
80.274
 20
-102.753
 11
80.3589
 21
-102.573
  0
LINE
  8
0
 10
80.3589
 20
-102.573
 11
80.4657
 21
-102.404
  0
LINE
  8
0
 10
80.4657
 20
-102.404
 11
80.5928
 21
-102.251
  0
LINE
  8
0
 10
80.5928
 20
-102.251
 11
80.7381
 21
-102.114
  0
LINE
  8
0
 10
80.7381
 20
-102.114
 11
80.8994
 21
-101.997
  0
LINE
  8
0
 10
80.8994
 20
-101.997
 11
81.0741
 21
-101.901
  0
LINE
  8
0
 10
81.0741
 20
-101.901
 11
81.2594
 21
-101.828
  0
LINE
  8
0
 10
81.2594
 20
-101.828
 11
81.4525
 21
-101.778
  0
LINE
  8
0
 10
81.4525
 20
-101.778
 11
81.6503
 21
-101.753
  0
LINE
  8
0
 10
81.6503
 20
-101.753
 11
81.8497
 21
-101.753
  0
LINE
  8
0
 10
81.8497
 20
-101.753
 11
82.0475
 21
-101.778
  0
LINE
  8
0
 10
82.0475
 20
-101.778
 11
82.2406
 21
-101.828
  0
LINE
  8
0
 10
82.2406
 20
-101.828
 11
82.4259
 21
-101.901
  0
LINE
  8
0
 10
82.4259
 20
-101.901
 11
82.6006
 21
-101.997
  0
LINE
  8
0
 10
82.6006
 20
-101.997
 11
82.7619
 21
-102.114
  0
LINE
  8
0
 10
82.7619
 20
-102.114
 11
82.9072
 21
-102.251
  0
LINE
  8
0
 10
82.9072
 20
-102.251
 11
83.0343
 21
-102.404
  0
LINE
  8
0
 10
83.0343
 20
-102.404
 11
83.1411
 21
-102.573
  0
LINE
  8
0
 10
83.1411
 20
-102.573
 11
83.226
 21
-102.753
  0
LINE
  8
0
 10
83.226
 20
-102.753
 11
83.2876
 21
-102.943
  0
LINE
  8
0
 10
83.2876
 20
-102.943
 11
83.325
 21
-103.139
  0
LINE
  8
0
 10
83.325
 20
-103.139
 11
83.3375
 21
-103.337
  0
LINE
  8
0
 10
83.3375
 20
-103.337
 11
83.325
 21
-103.536
  0
LINE
  8
0
 10
83.325
 20
-103.536
 11
83.2876
 21
-103.732
  0
LINE
  8
0
 10
83.2876
 20
-103.732
 11
83.226
 21
-103.922
  0
LINE
  8
0
 10
83.226
 20
-103.922
 11
83.1411
 21
-104.102
  0
LINE
  8
0
 10
83.1411
 20
-104.102
 11
83.0343
 21
-104.271
  0
LINE
  8
0
 10
83.0343
 20
-104.271
 11
82.9072
 21
-104.424
  0
LINE
  8
0
 10
82.9072
 20
-104.424
 11
82.7619
 21
-104.561
  0
LINE
  8
0
 10
82.7619
 20
-104.561
 11
82.6006
 21
-104.678
  0
LINE
  8
0
 10
82.6006
 20
-104.678
 11
82.4259
 21
-104.774
  0
LINE
  8
0
 10
82.4259
 20
-104.774
 11
82.2406
 21
-104.847
  0
LINE
  8
0
 10
82.2406
 20
-104.847
 11
82.0475
 21
-104.897
  0
LINE
  8
0
 10
82.0475
 20
-104.897
 11
81.8497
 21
-104.922
  0
LINE
  8
0
 10
81.8497
 20
-104.922
 11
81.6503
 21
-104.922
  0
LINE
  8
0
 10
-35.3497
 20
-104.922
 11
-35.5475
 21
-104.897
  0
LINE
  8
0
 10
-35.5475
 20
-104.897
 11
-35.7406
 21
-104.847
  0
LINE
  8
0
 10
-35.7406
 20
-104.847
 11
-35.9259
 21
-104.774
  0
LINE
  8
0
 10
-35.9259
 20
-104.774
 11
-36.1006
 21
-104.678
  0
LINE
  8
0
 10
-36.1006
 20
-104.678
 11
-36.2619
 21
-104.561
  0
LINE
  8
0
 10
-36.2619
 20
-104.561
 11
-36.4072
 21
-104.424
  0
LINE
  8
0
 10
-36.4072
 20
-104.424
 11
-36.5343
 21
-104.271
  0
LINE
  8
0
 10
-36.5343
 20
-104.271
 11
-36.6411
 21
-104.102
  0
LINE
  8
0
 10
-36.6411
 20
-104.102
 11
-36.726
 21
-103.922
  0
LINE
  8
0
 10
-36.726
 20
-103.922
 11
-36.7876
 21
-103.732
  0
LINE
  8
0
 10
-36.7876
 20
-103.732
 11
-36.825
 21
-103.536
  0
LINE
  8
0
 10
-36.825
 20
-103.536
 11
-36.8375
 21
-103.337
  0
LINE
  8
0
 10
-36.8375
 20
-103.337
 11
-36.825
 21
-103.139
  0
LINE
  8
0
 10
-36.825
 20
-103.139
 11
-36.7876
 21
-102.943
  0
LINE
  8
0
 10
-36.7876
 20
-102.943
 11
-36.726
 21
-102.753
  0
LINE
  8
0
 10
-36.726
 20
-102.753
 11
-36.6411
 21
-102.573
  0
LINE
  8
0
 10
-36.6411
 20
-102.573
 11
-36.5343
 21
-102.404
  0
LINE
  8
0
 10
-36.5343
 20
-102.404
 11
-36.4072
 21
-102.251
  0
LINE
  8
0
 10
-36.4072
 20
-102.251
 11
-36.2619
 21
-102.114
  0
LINE
  8
0
 10
-36.2619
 20
-102.114
 11
-36.1006
 21
-101.997
  0
LINE
  8
0
 10
-36.1006
 20
-101.997
 11
-35.9259
 21
-101.901
  0
LINE
  8
0
 10
-35.9259
 20
-101.901
 11
-35.7406
 21
-101.828
  0
LINE
  8
0
 10
-35.7406
 20
-101.828
 11
-35.5475
 21
-101.778
  0
LINE
  8
0
 10
-35.5475
 20
-101.778
 11
-35.3497
 21
-101.753
  0
LINE
  8
0
 10
-35.3497
 20
-101.753
 11
-35.1503
 21
-101.753
  0
LINE
  8
0
 10
-35.1503
 20
-101.753
 11
-34.9525
 21
-101.778
  0
LINE
  8
0
 10
-34.9525
 20
-101.778
 11
-34.7594
 21
-101.828
  0
LINE
  8
0
 10
-34.7594
 20
-101.828
 11
-34.5741
 21
-101.901
  0
LINE
  8
0
 10
-34.5741
 20
-101.901
 11
-34.3994
 21
-101.997
  0
LINE
  8
0
 10
-34.3994
 20
-101.997
 11
-34.2381
 21
-102.114
  0
LINE
  8
0
 10
-34.2381
 20
-102.114
 11
-34.0928
 21
-102.251
  0
LINE
  8
0
 10
-34.0928
 20
-102.251
 11
-33.9657
 21
-102.404
  0
LINE
  8
0
 10
-33.9657
 20
-102.404
 11
-33.8589
 21
-102.573
  0
LINE
  8
0
 10
-33.8589
 20
-102.573
 11
-33.774
 21
-102.753
  0
LINE
  8
0
 10
-33.774
 20
-102.753
 11
-33.7124
 21
-102.943
  0
LINE
  8
0
 10
-33.7124
 20
-102.943
 11
-33.675
 21
-103.139
  0
LINE
  8
0
 10
-33.675
 20
-103.139
 11
-33.6625
 21
-103.337
  0
LINE
  8
0
 10
-33.6625
 20
-103.337
 11
-33.675
 21
-103.536
  0
LINE
  8
0
 10
-33.675
 20
-103.536
 11
-33.7124
 21
-103.732
  0
LINE
  8
0
 10
-33.7124
 20
-103.732
 11
-33.774
 21
-103.922
  0
LINE
  8
0
 10
-33.774
 20
-103.922
 11
-33.8589
 21
-104.102
  0
LINE
  8
0
 10
-33.8589
 20
-104.102
 11
-33.9657
 21
-104.271
  0
LINE
  8
0
 10
-33.9657
 20
-104.271
 11
-34.0928
 21
-104.424
  0
LINE
  8
0
 10
-34.0928
 20
-104.424
 11
-34.2381
 21
-104.561
  0
LINE
  8
0
 10
-34.2381
 20
-104.561
 11
-34.3994
 21
-104.678
  0
LINE
  8
0
 10
-34.3994
 20
-104.678
 11
-34.5741
 21
-104.774
  0
LINE
  8
0
 10
-34.5741
 20
-104.774
 11
-34.7594
 21
-104.847
  0
LINE
  8
0
 10
-34.7594
 20
-104.847
 11
-34.9525
 21
-104.897
  0
LINE
  8
0
 10
-34.9525
 20
-104.897
 11
-35.1503
 21
-104.922
  0
LINE
  8
0
 10
-35.1503
 20
-104.922
 11
-35.3497
 21
-104.922
  0
LINE
  8
0
 10
-140.35
 20
-104.922
 11
-140.547
 21
-104.897
  0
LINE
  8
0
 10
-140.547
 20
-104.897
 11
-140.741
 21
-104.847
  0
LINE
  8
0
 10
-140.741
 20
-104.847
 11
-140.926
 21
-104.774
  0
LINE
  8
0
 10
-140.926
 20
-104.774
 11
-141.101
 21
-104.678
  0
LINE
  8
0
 10
-141.101
 20
-104.678
 11
-141.262
 21
-104.561
  0
LINE
  8
0
 10
-141.262
 20
-104.561
 11
-141.407
 21
-104.424
  0
LINE
  8
0
 10
-141.407
 20
-104.424
 11
-141.534
 21
-104.271
  0
LINE
  8
0
 10
-141.534
 20
-104.271
 11
-141.641
 21
-104.102
  0
LINE
  8
0
 10
-141.641
 20
-104.102
 11
-141.726
 21
-103.922
  0
LINE
  8
0
 10
-141.726
 20
-103.922
 11
-141.788
 21
-103.732
  0
LINE
  8
0
 10
-141.788
 20
-103.732
 11
-141.825
 21
-103.536
  0
LINE
  8
0
 10
-141.825
 20
-103.536
 11
-141.837
 21
-103.337
  0
LINE
  8
0
 10
-141.837
 20
-103.337
 11
-141.825
 21
-103.139
  0
LINE
  8
0
 10
-141.825
 20
-103.139
 11
-141.788
 21
-102.943
  0
LINE
  8
0
 10
-141.788
 20
-102.943
 11
-141.726
 21
-102.753
  0
LINE
  8
0
 10
-141.726
 20
-102.753
 11
-141.641
 21
-102.573
  0
LINE
  8
0
 10
-141.641
 20
-102.573
 11
-141.534
 21
-102.404
  0
LINE
  8
0
 10
-141.534
 20
-102.404
 11
-141.407
 21
-102.251
  0
LINE
  8
0
 10
-141.407
 20
-102.251
 11
-141.262
 21
-102.114
  0
LINE
  8
0
 10
-141.262
 20
-102.114
 11
-141.101
 21
-101.997
  0
LINE
  8
0
 10
-141.101
 20
-101.997
 11
-140.926
 21
-101.901
  0
LINE
  8
0
 10
-140.926
 20
-101.901
 11
-140.741
 21
-101.828
  0
LINE
  8
0
 10
-140.741
 20
-101.828
 11
-140.547
 21
-101.778
  0
LINE
  8
0
 10
-140.547
 20
-101.778
 11
-140.35
 21
-101.753
  0
LINE
  8
0
 10
-140.35
 20
-101.753
 11
-140.15
 21
-101.753
  0
LINE
  8
0
 10
-140.15
 20
-101.753
 11
-139.953
 21
-101.778
  0
LINE
  8
0
 10
-139.953
 20
-101.778
 11
-139.759
 21
-101.828
  0
LINE
  8
0
 10
-139.759
 20
-101.828
 11
-139.574
 21
-101.901
  0
LINE
  8
0
 10
-139.574
 20
-101.901
 11
-139.399
 21
-101.997
  0
LINE
  8
0
 10
-139.399
 20
-101.997
 11
-139.238
 21
-102.114
  0
LINE
  8
0
 10
-139.238
 20
-102.114
 11
-139.093
 21
-102.251
  0
LINE
  8
0
 10
-139.093
 20
-102.251
 11
-138.966
 21
-102.404
  0
LINE
  8
0
 10
-138.966
 20
-102.404
 11
-138.859
 21
-102.573
  0
LINE
  8
0
 10
-138.859
 20
-102.573
 11
-138.774
 21
-102.753
  0
LINE
  8
0
 10
-138.774
 20
-102.753
 11
-138.712
 21
-102.943
  0
LINE
  8
0
 10
-138.712
 20
-102.943
 11
-138.675
 21
-103.139
  0
LINE
  8
0
 10
-138.675
 20
-103.139
 11
-138.663
 21
-103.337
  0
LINE
  8
0
 10
-138.663
 20
-103.337
 11
-138.675
 21
-103.536
  0
LINE
  8
0
 10
-138.675
 20
-103.536
 11
-138.712
 21
-103.732
  0
LINE
  8
0
 10
-138.712
 20
-103.732
 11
-138.774
 21
-103.922
  0
LINE
  8
0
 10
-138.774
 20
-103.922
 11
-138.859
 21
-104.102
  0
LINE
  8
0
 10
-138.859
 20
-104.102
 11
-138.966
 21
-104.271
  0
LINE
  8
0
 10
-138.966
 20
-104.271
 11
-139.093
 21
-104.424
  0
LINE
  8
0
 10
-139.093
 20
-104.424
 11
-139.238
 21
-104.561
  0
LINE
  8
0
 10
-139.238
 20
-104.561
 11
-139.399
 21
-104.678
  0
LINE
  8
0
 10
-139.399
 20
-104.678
 11
-139.574
 21
-104.774
  0
LINE
  8
0
 10
-139.574
 20
-104.774
 11
-139.759
 21
-104.847
  0
LINE
  8
0
 10
-139.759
 20
-104.847
 11
-139.953
 21
-104.897
  0
LINE
  8
0
 10
-139.953
 20
-104.897
 11
-140.15
 21
-104.922
  0
LINE
  8
0
 10
-140.15
 20
-104.922
 11
-140.35
 21
-104.922
  0
LINE
  8
0
 10
93.6503
 20
-138.922
 11
93.4525
 21
-138.897
  0
LINE
  8
0
 10
93.4525
 20
-138.897
 11
93.2594
 21
-138.847
  0
LINE
  8
0
 10
93.2594
 20
-138.847
 11
93.0741
 21
-138.774
  0
LINE
  8
0
 10
93.0741
 20
-138.774
 11
92.8994
 21
-138.678
  0
LINE
  8
0
 10
92.8994
 20
-138.678
 11
92.7381
 21
-138.561
  0
LINE
  8
0
 10
92.7381
 20
-138.561
 11
92.5928
 21
-138.424
  0
LINE
  8
0
 10
92.5928
 20
-138.424
 11
92.4657
 21
-138.271
  0
LINE
  8
0
 10
92.4657
 20
-138.271
 11
92.3589
 21
-138.102
  0
LINE
  8
0
 10
92.3589
 20
-138.102
 11
92.274
 21
-137.922
  0
LINE
  8
0
 10
92.274
 20
-137.922
 11
92.2124
 21
-137.732
  0
LINE
  8
0
 10
92.2124
 20
-137.732
 11
92.175
 21
-137.536
  0
LINE
  8
0
 10
92.175
 20
-137.536
 11
92.1625
 21
-137.337
  0
LINE
  8
0
 10
92.1625
 20
-137.337
 11
92.175
 21
-137.139
  0
LINE
  8
0
 10
92.175
 20
-137.139
 11
92.2124
 21
-136.943
  0
LINE
  8
0
 10
92.2124
 20
-136.943
 11
92.274
 21
-136.753
  0
LINE
  8
0
 10
92.274
 20
-136.753
 11
92.3589
 21
-136.573
  0
LINE
  8
0
 10
92.3589
 20
-136.573
 11
92.4657
 21
-136.404
  0
LINE
  8
0
 10
92.4657
 20
-136.404
 11
92.5928
 21
-136.251
  0
LINE
  8
0
 10
92.5928
 20
-136.251
 11
92.7381
 21
-136.114
  0
LINE
  8
0
 10
92.7381
 20
-136.114
 11
92.8994
 21
-135.997
  0
LINE
  8
0
 10
92.8994
 20
-135.997
 11
93.0741
 21
-135.901
  0
LINE
  8
0
 10
93.0741
 20
-135.901
 11
93.2594
 21
-135.828
  0
LINE
  8
0
 10
93.2594
 20
-135.828
 11
93.4525
 21
-135.778
  0
LINE
  8
0
 10
93.4525
 20
-135.778
 11
93.6503
 21
-135.753
  0
LINE
  8
0
 10
93.6503
 20
-135.753
 11
93.8497
 21
-135.753
  0
LINE
  8
0
 10
93.8497
 20
-135.753
 11
94.0475
 21
-135.778
  0
LINE
  8
0
 10
94.0475
 20
-135.778
 11
94.2406
 21
-135.828
  0
LINE
  8
0
 10
94.2406
 20
-135.828
 11
94.4259
 21
-135.901
  0
LINE
  8
0
 10
94.4259
 20
-135.901
 11
94.6006
 21
-135.997
  0
LINE
  8
0
 10
94.6006
 20
-135.997
 11
94.7619
 21
-136.114
  0
LINE
  8
0
 10
94.7619
 20
-136.114
 11
94.9072
 21
-136.251
  0
LINE
  8
0
 10
94.9072
 20
-136.251
 11
95.0343
 21
-136.404
  0
LINE
  8
0
 10
95.0343
 20
-136.404
 11
95.1411
 21
-136.573
  0
LINE
  8
0
 10
95.1411
 20
-136.573
 11
95.226
 21
-136.753
  0
LINE
  8
0
 10
95.226
 20
-136.753
 11
95.2876
 21
-136.943
  0
LINE
  8
0
 10
95.2876
 20
-136.943
 11
95.325
 21
-137.139
  0
LINE
  8
0
 10
95.325
 20
-137.139
 11
95.3375
 21
-137.337
  0
LINE
  8
0
 10
95.3375
 20
-137.337
 11
95.325
 21
-137.536
  0
LINE
  8
0
 10
95.325
 20
-137.536
 11
95.2876
 21
-137.732
  0
LINE
  8
0
 10
95.2876
 20
-137.732
 11
95.226
 21
-137.922
  0
LINE
  8
0
 10
95.226
 20
-137.922
 11
95.1411
 21
-138.102
  0
LINE
  8
0
 10
95.1411
 20
-138.102
 11
95.0343
 21
-138.271
  0
LINE
  8
0
 10
95.0343
 20
-138.271
 11
94.9072
 21
-138.424
  0
LINE
  8
0
 10
94.9072
 20
-138.424
 11
94.7619
 21
-138.561
  0
LINE
  8
0
 10
94.7619
 20
-138.561
 11
94.6006
 21
-138.678
  0
LINE
  8
0
 10
94.6006
 20
-138.678
 11
94.4259
 21
-138.774
  0
LINE
  8
0
 10
94.4259
 20
-138.774
 11
94.2406
 21
-138.847
  0
LINE
  8
0
 10
94.2406
 20
-138.847
 11
94.0475
 21
-138.897
  0
LINE
  8
0
 10
94.0475
 20
-138.897
 11
93.8497
 21
-138.922
  0
LINE
  8
0
 10
93.8497
 20
-138.922
 11
93.6503
 21
-138.922
  0
LINE
  8
0
 10
-23.3497
 20
-138.922
 11
-23.5475
 21
-138.897
  0
LINE
  8
0
 10
-23.5475
 20
-138.897
 11
-23.7406
 21
-138.847
  0
LINE
  8
0
 10
-23.7406
 20
-138.847
 11
-23.9259
 21
-138.774
  0
LINE
  8
0
 10
-23.9259
 20
-138.774
 11
-24.1006
 21
-138.678
  0
LINE
  8
0
 10
-24.1006
 20
-138.678
 11
-24.2619
 21
-138.561
  0
LINE
  8
0
 10
-24.2619
 20
-138.561
 11
-24.4072
 21
-138.424
  0
LINE
  8
0
 10
-24.4072
 20
-138.424
 11
-24.5343
 21
-138.271
  0
LINE
  8
0
 10
-24.5343
 20
-138.271
 11
-24.6411
 21
-138.102
  0
LINE
  8
0
 10
-24.6411
 20
-138.102
 11
-24.726
 21
-137.922
  0
LINE
  8
0
 10
-24.726
 20
-137.922
 11
-24.7876
 21
-137.732
  0
LINE
  8
0
 10
-24.7876
 20
-137.732
 11
-24.825
 21
-137.536
  0
LINE
  8
0
 10
-24.825
 20
-137.536
 11
-24.8375
 21
-137.337
  0
LINE
  8
0
 10
-24.8375
 20
-137.337
 11
-24.825
 21
-137.139
  0
LINE
  8
0
 10
-24.825
 20
-137.139
 11
-24.7876
 21
-136.943
  0
LINE
  8
0
 10
-24.7876
 20
-136.943
 11
-24.726
 21
-136.753
  0
LINE
  8
0
 10
-24.726
 20
-136.753
 11
-24.6411
 21
-136.573
  0
LINE
  8
0
 10
-24.6411
 20
-136.573
 11
-24.5343
 21
-136.404
  0
LINE
  8
0
 10
-24.5343
 20
-136.404
 11
-24.4072
 21
-136.251
  0
LINE
  8
0
 10
-24.4072
 20
-136.251
 11
-24.2619
 21
-136.114
  0
LINE
  8
0
 10
-24.2619
 20
-136.114
 11
-24.1006
 21
-135.997
  0
LINE
  8
0
 10
-24.1006
 20
-135.997
 11
-23.9259
 21
-135.901
  0
LINE
  8
0
 10
-23.9259
 20
-135.901
 11
-23.7406
 21
-135.828
  0
LINE
  8
0
 10
-23.7406
 20
-135.828
 11
-23.5475
 21
-135.778
  0
LINE
  8
0
 10
-23.5475
 20
-135.778
 11
-23.3497
 21
-135.753
  0
LINE
  8
0
 10
-23.3497
 20
-135.753
 11
-23.1503
 21
-135.753
  0
LINE
  8
0
 10
-23.1503
 20
-135.753
 11
-22.9525
 21
-135.778
  0
LINE
  8
0
 10
-22.9525
 20
-135.778
 11
-22.7594
 21
-135.828
  0
LINE
  8
0
 10
-22.7594
 20
-135.828
 11
-22.5741
 21
-135.901
  0
LINE
  8
0
 10
-22.5741
 20
-135.901
 11
-22.3994
 21
-135.997
  0
LINE
  8
0
 10
-22.3994
 20
-135.997
 11
-22.2381
 21
-136.114
  0
LINE
  8
0
 10
-22.2381
 20
-136.114
 11
-22.0928
 21
-136.251
  0
LINE
  8
0
 10
-22.0928
 20
-136.251
 11
-21.9657
 21
-136.404
  0
LINE
  8
0
 10
-21.9657
 20
-136.404
 11
-21.8589
 21
-136.573
  0
LINE
  8
0
 10
-21.8589
 20
-136.573
 11
-21.774
 21
-136.753
  0
LINE
  8
0
 10
-21.774
 20
-136.753
 11
-21.7124
 21
-136.943
  0
LINE
  8
0
 10
-21.7124
 20
-136.943
 11
-21.675
 21
-137.139
  0
LINE
  8
0
 10
-21.675
 20
-137.139
 11
-21.6625
 21
-137.337
  0
LINE
  8
0
 10
-21.6625
 20
-137.337
 11
-21.675
 21
-137.536
  0
LINE
  8
0
 10
-21.675
 20
-137.536
 11
-21.7124
 21
-137.732
  0
LINE
  8
0
 10
-21.7124
 20
-137.732
 11
-21.774
 21
-137.922
  0
LINE
  8
0
 10
-21.774
 20
-137.922
 11
-21.8589
 21
-138.102
  0
LINE
  8
0
 10
-21.8589
 20
-138.102
 11
-21.9657
 21
-138.271
  0
LINE
  8
0
 10
-21.9657
 20
-138.271
 11
-22.0928
 21
-138.424
  0
LINE
  8
0
 10
-22.0928
 20
-138.424
 11
-22.2381
 21
-138.561
  0
LINE
  8
0
 10
-22.2381
 20
-138.561
 11
-22.3994
 21
-138.678
  0
LINE
  8
0
 10
-22.3994
 20
-138.678
 11
-22.5741
 21
-138.774
  0
LINE
  8
0
 10
-22.5741
 20
-138.774
 11
-22.7594
 21
-138.847
  0
LINE
  8
0
 10
-22.7594
 20
-138.847
 11
-22.9525
 21
-138.897
  0
LINE
  8
0
 10
-22.9525
 20
-138.897
 11
-23.1503
 21
-138.922
  0
LINE
  8
0
 10
-23.1503
 20
-138.922
 11
-23.3497
 21
-138.922
  0
LINE
  8
0
 10
-35.3497
 20
-138.922
 11
-35.5475
 21
-138.897
  0
LINE
  8
0
 10
-35.5475
 20
-138.897
 11
-35.7406
 21
-138.847
  0
LINE
  8
0
 10
-35.7406
 20
-138.847
 11
-35.9259
 21
-138.774
  0
LINE
  8
0
 10
-35.9259
 20
-138.774
 11
-36.1006
 21
-138.678
  0
LINE
  8
0
 10
-36.1006
 20
-138.678
 11
-36.2619
 21
-138.561
  0
LINE
  8
0
 10
-36.2619
 20
-138.561
 11
-36.4072
 21
-138.424
  0
LINE
  8
0
 10
-36.4072
 20
-138.424
 11
-36.5343
 21
-138.271
  0
LINE
  8
0
 10
-36.5343
 20
-138.271
 11
-36.6411
 21
-138.102
  0
LINE
  8
0
 10
-36.6411
 20
-138.102
 11
-36.726
 21
-137.922
  0
LINE
  8
0
 10
-36.726
 20
-137.922
 11
-36.7876
 21
-137.732
  0
LINE
  8
0
 10
-36.7876
 20
-137.732
 11
-36.825
 21
-137.536
  0
LINE
  8
0
 10
-36.825
 20
-137.536
 11
-36.8375
 21
-137.337
  0
LINE
  8
0
 10
-36.8375
 20
-137.337
 11
-36.825
 21
-137.139
  0
LINE
  8
0
 10
-36.825
 20
-137.139
 11
-36.7876
 21
-136.943
  0
LINE
  8
0
 10
-36.7876
 20
-136.943
 11
-36.726
 21
-136.753
  0
LINE
  8
0
 10
-36.726
 20
-136.753
 11
-36.6411
 21
-136.573
  0
LINE
  8
0
 10
-36.6411
 20
-136.573
 11
-36.5343
 21
-136.404
  0
LINE
  8
0
 10
-36.5343
 20
-136.404
 11
-36.4072
 21
-136.251
  0
LINE
  8
0
 10
-36.4072
 20
-136.251
 11
-36.2619
 21
-136.114
  0
LINE
  8
0
 10
-36.2619
 20
-136.114
 11
-36.1006
 21
-135.997
  0
LINE
  8
0
 10
-36.1006
 20
-135.997
 11
-35.9259
 21
-135.901
  0
LINE
  8
0
 10
-35.9259
 20
-135.901
 11
-35.7406
 21
-135.828
  0
LINE
  8
0
 10
-35.7406
 20
-135.828
 11
-35.5475
 21
-135.778
  0
LINE
  8
0
 10
-35.5475
 20
-135.778
 11
-35.3497
 21
-135.753
  0
LINE
  8
0
 10
-35.3497
 20
-135.753
 11
-35.1503
 21
-135.753
  0
LINE
  8
0
 10
-35.1503
 20
-135.753
 11
-34.9525
 21
-135.778
  0
LINE
  8
0
 10
-34.9525
 20
-135.778
 11
-34.7594
 21
-135.828
  0
LINE
  8
0
 10
-34.7594
 20
-135.828
 11
-34.5741
 21
-135.901
  0
LINE
  8
0
 10
-34.5741
 20
-135.901
 11
-34.3994
 21
-135.997
  0
LINE
  8
0
 10
-34.3994
 20
-135.997
 11
-34.2381
 21
-136.114
  0
LINE
  8
0
 10
-34.2381
 20
-136.114
 11
-34.0928
 21
-136.251
  0
LINE
  8
0
 10
-34.0928
 20
-136.251
 11
-33.9657
 21
-136.404
  0
LINE
  8
0
 10
-33.9657
 20
-136.404
 11
-33.8589
 21
-136.573
  0
LINE
  8
0
 10
-33.8589
 20
-136.573
 11
-33.774
 21
-136.753
  0
LINE
  8
0
 10
-33.774
 20
-136.753
 11
-33.7124
 21
-136.943
  0
LINE
  8
0
 10
-33.7124
 20
-136.943
 11
-33.675
 21
-137.139
  0
LINE
  8
0
 10
-33.675
 20
-137.139
 11
-33.6625
 21
-137.337
  0
LINE
  8
0
 10
-33.6625
 20
-137.337
 11
-33.675
 21
-137.536
  0
LINE
  8
0
 10
-33.675
 20
-137.536
 11
-33.7124
 21
-137.732
  0
LINE
  8
0
 10
-33.7124
 20
-137.732
 11
-33.774
 21
-137.922
  0
LINE
  8
0
 10
-33.774
 20
-137.922
 11
-33.8589
 21
-138.102
  0
LINE
  8
0
 10
-33.8589
 20
-138.102
 11
-33.9657
 21
-138.271
  0
LINE
  8
0
 10
-33.9657
 20
-138.271
 11
-34.0928
 21
-138.424
  0
LINE
  8
0
 10
-34.0928
 20
-138.424
 11
-34.2381
 21
-138.561
  0
LINE
  8
0
 10
-34.2381
 20
-138.561
 11
-34.3994
 21
-138.678
  0
LINE
  8
0
 10
-34.3994
 20
-138.678
 11
-34.5741
 21
-138.774
  0
LINE
  8
0
 10
-34.5741
 20
-138.774
 11
-34.7594
 21
-138.847
  0
LINE
  8
0
 10
-34.7594
 20
-138.847
 11
-34.9525
 21
-138.897
  0
LINE
  8
0
 10
-34.9525
 20
-138.897
 11
-35.1503
 21
-138.922
  0
LINE
  8
0
 10
-35.1503
 20
-138.922
 11
-35.3497
 21
-138.922
  0
LINE
  8
0
 10
-81.8497
 20
-138.922
 11
-82.0475
 21
-138.897
  0
LINE
  8
0
 10
-82.0475
 20
-138.897
 11
-82.2406
 21
-138.847
  0
LINE
  8
0
 10
-82.2406
 20
-138.847
 11
-82.4259
 21
-138.774
  0
LINE
  8
0
 10
-82.4259
 20
-138.774
 11
-82.6006
 21
-138.678
  0
LINE
  8
0
 10
-82.6006
 20
-138.678
 11
-82.7619
 21
-138.561
  0
LINE
  8
0
 10
-82.7619
 20
-138.561
 11
-82.9072
 21
-138.424
  0
LINE
  8
0
 10
-82.9072
 20
-138.424
 11
-83.0343
 21
-138.271
  0
LINE
  8
0
 10
-83.0343
 20
-138.271
 11
-83.1411
 21
-138.102
  0
LINE
  8
0
 10
-83.1411
 20
-138.102
 11
-83.226
 21
-137.922
  0
LINE
  8
0
 10
-83.226
 20
-137.922
 11
-83.2876
 21
-137.732
  0
LINE
  8
0
 10
-83.2876
 20
-137.732
 11
-83.325
 21
-137.536
  0
LINE
  8
0
 10
-83.325
 20
-137.536
 11
-83.3375
 21
-137.337
  0
LINE
  8
0
 10
-83.3375
 20
-137.337
 11
-83.325
 21
-137.139
  0
LINE
  8
0
 10
-83.325
 20
-137.139
 11
-83.2876
 21
-136.943
  0
LINE
  8
0
 10
-83.2876
 20
-136.943
 11
-83.226
 21
-136.753
  0
LINE
  8
0
 10
-83.226
 20
-136.753
 11
-83.1411
 21
-136.573
  0
LINE
  8
0
 10
-83.1411
 20
-136.573
 11
-83.0343
 21
-136.404
  0
LINE
  8
0
 10
-83.0343
 20
-136.404
 11
-82.9072
 21
-136.251
  0
LINE
  8
0
 10
-82.9072
 20
-136.251
 11
-82.7619
 21
-136.114
  0
LINE
  8
0
 10
-82.7619
 20
-136.114
 11
-82.6006
 21
-135.997
  0
LINE
  8
0
 10
-82.6006
 20
-135.997
 11
-82.4259
 21
-135.901
  0
LINE
  8
0
 10
-82.4259
 20
-135.901
 11
-82.2406
 21
-135.828
  0
LINE
  8
0
 10
-82.2406
 20
-135.828
 11
-82.0475
 21
-135.778
  0
LINE
  8
0
 10
-82.0475
 20
-135.778
 11
-81.8497
 21
-135.753
  0
LINE
  8
0
 10
-81.8497
 20
-135.753
 11
-81.6503
 21
-135.753
  0
LINE
  8
0
 10
-81.6503
 20
-135.753
 11
-81.4525
 21
-135.778
  0
LINE
  8
0
 10
-81.4525
 20
-135.778
 11
-81.2594
 21
-135.828
  0
LINE
  8
0
 10
-81.2594
 20
-135.828
 11
-81.0741
 21
-135.901
  0
LINE
  8
0
 10
-81.0741
 20
-135.901
 11
-80.8994
 21
-135.997
  0
LINE
  8
0
 10
-80.8994
 20
-135.997
 11
-80.7381
 21
-136.114
  0
LINE
  8
0
 10
-80.7381
 20
-136.114
 11
-80.5928
 21
-136.251
  0
LINE
  8
0
 10
-80.5928
 20
-136.251
 11
-80.4657
 21
-136.404
  0
LINE
  8
0
 10
-80.4657
 20
-136.404
 11
-80.3589
 21
-136.573
  0
LINE
  8
0
 10
-80.3589
 20
-136.573
 11
-80.274
 21
-136.753
  0
LINE
  8
0
 10
-80.274
 20
-136.753
 11
-80.2124
 21
-136.943
  0
LINE
  8
0
 10
-80.2124
 20
-136.943
 11
-80.175
 21
-137.139
  0
LINE
  8
0
 10
-80.175
 20
-137.139
 11
-80.1625
 21
-137.337
  0
LINE
  8
0
 10
-80.1625
 20
-137.337
 11
-80.175
 21
-137.536
  0
LINE
  8
0
 10
-80.175
 20
-137.536
 11
-80.2124
 21
-137.732
  0
LINE
  8
0
 10
-80.2124
 20
-137.732
 11
-80.274
 21
-137.922
  0
LINE
  8
0
 10
-80.274
 20
-137.922
 11
-80.3589
 21
-138.102
  0
LINE
  8
0
 10
-80.3589
 20
-138.102
 11
-80.4657
 21
-138.271
  0
LINE
  8
0
 10
-80.4657
 20
-138.271
 11
-80.5928
 21
-138.424
  0
LINE
  8
0
 10
-80.5928
 20
-138.424
 11
-80.7381
 21
-138.561
  0
LINE
  8
0
 10
-80.7381
 20
-138.561
 11
-80.8994
 21
-138.678
  0
LINE
  8
0
 10
-80.8994
 20
-138.678
 11
-81.0741
 21
-138.774
  0
LINE
  8
0
 10
-81.0741
 20
-138.774
 11
-81.2594
 21
-138.847
  0
LINE
  8
0
 10
-81.2594
 20
-138.847
 11
-81.4525
 21
-138.897
  0
LINE
  8
0
 10
-81.4525
 20
-138.897
 11
-81.6503
 21
-138.922
  0
LINE
  8
0
 10
-81.6503
 20
-138.922
 11
-81.8497
 21
-138.922
  0
LINE
  8
0
 10
-140.35
 20
-138.922
 11
-140.547
 21
-138.897
  0
LINE
  8
0
 10
-140.547
 20
-138.897
 11
-140.741
 21
-138.847
  0
LINE
  8
0
 10
-140.741
 20
-138.847
 11
-140.926
 21
-138.774
  0
LINE
  8
0
 10
-140.926
 20
-138.774
 11
-141.101
 21
-138.678
  0
LINE
  8
0
 10
-141.101
 20
-138.678
 11
-141.262
 21
-138.561
  0
LINE
  8
0
 10
-141.262
 20
-138.561
 11
-141.407
 21
-138.424
  0
LINE
  8
0
 10
-141.407
 20
-138.424
 11
-141.534
 21
-138.271
  0
LINE
  8
0
 10
-141.534
 20
-138.271
 11
-141.641
 21
-138.102
  0
LINE
  8
0
 10
-141.641
 20
-138.102
 11
-141.726
 21
-137.922
  0
LINE
  8
0
 10
-141.726
 20
-137.922
 11
-141.788
 21
-137.732
  0
LINE
  8
0
 10
-141.788
 20
-137.732
 11
-141.825
 21
-137.536
  0
LINE
  8
0
 10
-141.825
 20
-137.536
 11
-141.837
 21
-137.337
  0
LINE
  8
0
 10
-141.837
 20
-137.337
 11
-141.825
 21
-137.139
  0
LINE
  8
0
 10
-141.825
 20
-137.139
 11
-141.788
 21
-136.943
  0
LINE
  8
0
 10
-141.788
 20
-136.943
 11
-141.726
 21
-136.753
  0
LINE
  8
0
 10
-141.726
 20
-136.753
 11
-141.641
 21
-136.573
  0
LINE
  8
0
 10
-141.641
 20
-136.573
 11
-141.534
 21
-136.404
  0
LINE
  8
0
 10
-141.534
 20
-136.404
 11
-141.407
 21
-136.251
  0
LINE
  8
0
 10
-141.407
 20
-136.251
 11
-141.262
 21
-136.114
  0
LINE
  8
0
 10
-141.262
 20
-136.114
 11
-141.101
 21
-135.997
  0
LINE
  8
0
 10
-141.101
 20
-135.997
 11
-140.926
 21
-135.901
  0
LINE
  8
0
 10
-140.926
 20
-135.901
 11
-140.741
 21
-135.828
  0
LINE
  8
0
 10
-140.741
 20
-135.828
 11
-140.547
 21
-135.778
  0
LINE
  8
0
 10
-140.547
 20
-135.778
 11
-140.35
 21
-135.753
  0
LINE
  8
0
 10
-140.35
 20
-135.753
 11
-140.15
 21
-135.753
  0
LINE
  8
0
 10
-140.15
 20
-135.753
 11
-139.953
 21
-135.778
  0
LINE
  8
0
 10
-139.953
 20
-135.778
 11
-139.759
 21
-135.828
  0
LINE
  8
0
 10
-139.759
 20
-135.828
 11
-139.574
 21
-135.901
  0
LINE
  8
0
 10
-139.574
 20
-135.901
 11
-139.399
 21
-135.997
  0
LINE
  8
0
 10
-139.399
 20
-135.997
 11
-139.238
 21
-136.114
  0
LINE
  8
0
 10
-139.238
 20
-136.114
 11
-139.093
 21
-136.251
  0
LINE
  8
0
 10
-139.093
 20
-136.251
 11
-138.966
 21
-136.404
  0
LINE
  8
0
 10
-138.966
 20
-136.404
 11
-138.859
 21
-136.573
  0
LINE
  8
0
 10
-138.859
 20
-136.573
 11
-138.774
 21
-136.753
  0
LINE
  8
0
 10
-138.774
 20
-136.753
 11
-138.712
 21
-136.943
  0
LINE
  8
0
 10
-138.712
 20
-136.943
 11
-138.675
 21
-137.139
  0
LINE
  8
0
 10
-138.675
 20
-137.139
 11
-138.663
 21
-137.337
  0
LINE
  8
0
 10
-138.663
 20
-137.337
 11
-138.675
 21
-137.536
  0
LINE
  8
0
 10
-138.675
 20
-137.536
 11
-138.712
 21
-137.732
  0
LINE
  8
0
 10
-138.712
 20
-137.732
 11
-138.774
 21
-137.922
  0
LINE
  8
0
 10
-138.774
 20
-137.922
 11
-138.859
 21
-138.102
  0
LINE
  8
0
 10
-138.859
 20
-138.102
 11
-138.966
 21
-138.271
  0
LINE
  8
0
 10
-138.966
 20
-138.271
 11
-139.093
 21
-138.424
  0
LINE
  8
0
 10
-139.093
 20
-138.424
 11
-139.238
 21
-138.561
  0
LINE
  8
0
 10
-139.238
 20
-138.561
 11
-139.399
 21
-138.678
  0
LINE
  8
0
 10
-139.399
 20
-138.678
 11
-139.574
 21
-138.774
  0
LINE
  8
0
 10
-139.574
 20
-138.774
 11
-139.759
 21
-138.847
  0
LINE
  8
0
 10
-139.759
 20
-138.847
 11
-139.953
 21
-138.897
  0
LINE
  8
0
 10
-139.953
 20
-138.897
 11
-140.15
 21
-138.922
  0
LINE
  8
0
 10
-140.15
 20
-138.922
 11
-140.35
 21
-138.922
  0
LINE
  8
0
 10
-93.8497
 20
-138.922
 11
-94.0475
 21
-138.897
  0
LINE
  8
0
 10
-94.0475
 20
-138.897
 11
-94.2406
 21
-138.847
  0
LINE
  8
0
 10
-94.2406
 20
-138.847
 11
-94.4259
 21
-138.774
  0
LINE
  8
0
 10
-94.4259
 20
-138.774
 11
-94.6006
 21
-138.678
  0
LINE
  8
0
 10
-94.6006
 20
-138.678
 11
-94.7619
 21
-138.561
  0
LINE
  8
0
 10
-94.7619
 20
-138.561
 11
-94.9072
 21
-138.424
  0
LINE
  8
0
 10
-94.9072
 20
-138.424
 11
-95.0343
 21
-138.271
  0
LINE
  8
0
 10
-95.0343
 20
-138.271
 11
-95.1411
 21
-138.102
  0
LINE
  8
0
 10
-95.1411
 20
-138.102
 11
-95.226
 21
-137.922
  0
LINE
  8
0
 10
-95.226
 20
-137.922
 11
-95.2876
 21
-137.732
  0
LINE
  8
0
 10
-95.2876
 20
-137.732
 11
-95.325
 21
-137.536
  0
LINE
  8
0
 10
-95.325
 20
-137.536
 11
-95.3375
 21
-137.337
  0
LINE
  8
0
 10
-95.3375
 20
-137.337
 11
-95.325
 21
-137.139
  0
LINE
  8
0
 10
-95.325
 20
-137.139
 11
-95.2876
 21
-136.943
  0
LINE
  8
0
 10
-95.2876
 20
-136.943
 11
-95.226
 21
-136.753
  0
LINE
  8
0
 10
-95.226
 20
-136.753
 11
-95.1411
 21
-136.573
  0
LINE
  8
0
 10
-95.1411
 20
-136.573
 11
-95.0343
 21
-136.404
  0
LINE
  8
0
 10
-95.0343
 20
-136.404
 11
-94.9072
 21
-136.251
  0
LINE
  8
0
 10
-94.9072
 20
-136.251
 11
-94.7619
 21
-136.114
  0
LINE
  8
0
 10
-94.7619
 20
-136.114
 11
-94.6006
 21
-135.997
  0
LINE
  8
0
 10
-94.6006
 20
-135.997
 11
-94.4259
 21
-135.901
  0
LINE
  8
0
 10
-94.4259
 20
-135.901
 11
-94.2406
 21
-135.828
  0
LINE
  8
0
 10
-94.2406
 20
-135.828
 11
-94.0475
 21
-135.778
  0
LINE
  8
0
 10
-94.0475
 20
-135.778
 11
-93.8497
 21
-135.753
  0
LINE
  8
0
 10
-93.8497
 20
-135.753
 11
-93.6503
 21
-135.753
  0
LINE
  8
0
 10
-93.6503
 20
-135.753
 11
-93.4525
 21
-135.778
  0
LINE
  8
0
 10
-93.4525
 20
-135.778
 11
-93.2594
 21
-135.828
  0
LINE
  8
0
 10
-93.2594
 20
-135.828
 11
-93.0741
 21
-135.901
  0
LINE
  8
0
 10
-93.0741
 20
-135.901
 11
-92.8994
 21
-135.997
  0
LINE
  8
0
 10
-92.8994
 20
-135.997
 11
-92.7381
 21
-136.114
  0
LINE
  8
0
 10
-92.7381
 20
-136.114
 11
-92.5928
 21
-136.251
  0
LINE
  8
0
 10
-92.5928
 20
-136.251
 11
-92.4657
 21
-136.404
  0
LINE
  8
0
 10
-92.4657
 20
-136.404
 11
-92.3589
 21
-136.573
  0
LINE
  8
0
 10
-92.3589
 20
-136.573
 11
-92.274
 21
-136.753
  0
LINE
  8
0
 10
-92.274
 20
-136.753
 11
-92.2124
 21
-136.943
  0
LINE
  8
0
 10
-92.2124
 20
-136.943
 11
-92.175
 21
-137.139
  0
LINE
  8
0
 10
-92.175
 20
-137.139
 11
-92.1625
 21
-137.337
  0
LINE
  8
0
 10
-92.1625
 20
-137.337
 11
-92.175
 21
-137.536
  0
LINE
  8
0
 10
-92.175
 20
-137.536
 11
-92.2124
 21
-137.732
  0
LINE
  8
0
 10
-92.2124
 20
-137.732
 11
-92.274
 21
-137.922
  0
LINE
  8
0
 10
-92.274
 20
-137.922
 11
-92.3589
 21
-138.102
  0
LINE
  8
0
 10
-92.3589
 20
-138.102
 11
-92.4657
 21
-138.271
  0
LINE
  8
0
 10
-92.4657
 20
-138.271
 11
-92.5928
 21
-138.424
  0
LINE
  8
0
 10
-92.5928
 20
-138.424
 11
-92.7381
 21
-138.561
  0
LINE
  8
0
 10
-92.7381
 20
-138.561
 11
-92.8994
 21
-138.678
  0
LINE
  8
0
 10
-92.8994
 20
-138.678
 11
-93.0741
 21
-138.774
  0
LINE
  8
0
 10
-93.0741
 20
-138.774
 11
-93.2594
 21
-138.847
  0
LINE
  8
0
 10
-93.2594
 20
-138.847
 11
-93.4525
 21
-138.897
  0
LINE
  8
0
 10
-93.4525
 20
-138.897
 11
-93.6503
 21
-138.922
  0
LINE
  8
0
 10
-93.6503
 20
-138.922
 11
-93.8497
 21
-138.922
  0
LINE
  8
0
 10
23.1503
 20
-138.922
 11
22.9525
 21
-138.897
  0
LINE
  8
0
 10
22.9525
 20
-138.897
 11
22.7594
 21
-138.847
  0
LINE
  8
0
 10
22.7594
 20
-138.847
 11
22.5741
 21
-138.774
  0
LINE
  8
0
 10
22.5741
 20
-138.774
 11
22.3994
 21
-138.678
  0
LINE
  8
0
 10
22.3994
 20
-138.678
 11
22.2381
 21
-138.561
  0
LINE
  8
0
 10
22.2381
 20
-138.561
 11
22.0928
 21
-138.424
  0
LINE
  8
0
 10
22.0928
 20
-138.424
 11
21.9657
 21
-138.271
  0
LINE
  8
0
 10
21.9657
 20
-138.271
 11
21.8589
 21
-138.102
  0
LINE
  8
0
 10
21.8589
 20
-138.102
 11
21.774
 21
-137.922
  0
LINE
  8
0
 10
21.774
 20
-137.922
 11
21.7124
 21
-137.732
  0
LINE
  8
0
 10
21.7124
 20
-137.732
 11
21.675
 21
-137.536
  0
LINE
  8
0
 10
21.675
 20
-137.536
 11
21.6625
 21
-137.337
  0
LINE
  8
0
 10
21.6625
 20
-137.337
 11
21.675
 21
-137.139
  0
LINE
  8
0
 10
21.675
 20
-137.139
 11
21.7124
 21
-136.943
  0
LINE
  8
0
 10
21.7124
 20
-136.943
 11
21.774
 21
-136.753
  0
LINE
  8
0
 10
21.774
 20
-136.753
 11
21.8589
 21
-136.573
  0
LINE
  8
0
 10
21.8589
 20
-136.573
 11
21.9657
 21
-136.404
  0
LINE
  8
0
 10
21.9657
 20
-136.404
 11
22.0928
 21
-136.251
  0
LINE
  8
0
 10
22.0928
 20
-136.251
 11
22.2381
 21
-136.114
  0
LINE
  8
0
 10
22.2381
 20
-136.114
 11
22.3994
 21
-135.997
  0
LINE
  8
0
 10
22.3994
 20
-135.997
 11
22.5741
 21
-135.901
  0
LINE
  8
0
 10
22.5741
 20
-135.901
 11
22.7594
 21
-135.828
  0
LINE
  8
0
 10
22.7594
 20
-135.828
 11
22.9525
 21
-135.778
  0
LINE
  8
0
 10
22.9525
 20
-135.778
 11
23.1503
 21
-135.753
  0
LINE
  8
0
 10
23.1503
 20
-135.753
 11
23.3497
 21
-135.753
  0
LINE
  8
0
 10
23.3497
 20
-135.753
 11
23.5475
 21
-135.778
  0
LINE
  8
0
 10
23.5475
 20
-135.778
 11
23.7406
 21
-135.828
  0
LINE
  8
0
 10
23.7406
 20
-135.828
 11
23.9259
 21
-135.901
  0
LINE
  8
0
 10
23.9259
 20
-135.901
 11
24.1006
 21
-135.997
  0
LINE
  8
0
 10
24.1006
 20
-135.997
 11
24.2619
 21
-136.114
  0
LINE
  8
0
 10
24.2619
 20
-136.114
 11
24.4072
 21
-136.251
  0
LINE
  8
0
 10
24.4072
 20
-136.251
 11
24.5343
 21
-136.404
  0
LINE
  8
0
 10
24.5343
 20
-136.404
 11
24.6411
 21
-136.573
  0
LINE
  8
0
 10
24.6411
 20
-136.573
 11
24.726
 21
-136.753
  0
LINE
  8
0
 10
24.726
 20
-136.753
 11
24.7876
 21
-136.943
  0
LINE
  8
0
 10
24.7876
 20
-136.943
 11
24.825
 21
-137.139
  0
LINE
  8
0
 10
24.825
 20
-137.139
 11
24.8375
 21
-137.337
  0
LINE
  8
0
 10
24.8375
 20
-137.337
 11
24.825
 21
-137.536
  0
LINE
  8
0
 10
24.825
 20
-137.536
 11
24.7876
 21
-137.732
  0
LINE
  8
0
 10
24.7876
 20
-137.732
 11
24.726
 21
-137.922
  0
LINE
  8
0
 10
24.726
 20
-137.922
 11
24.6411
 21
-138.102
  0
LINE
  8
0
 10
24.6411
 20
-138.102
 11
24.5343
 21
-138.271
  0
LINE
  8
0
 10
24.5343
 20
-138.271
 11
24.4072
 21
-138.424
  0
LINE
  8
0
 10
24.4072
 20
-138.424
 11
24.2619
 21
-138.561
  0
LINE
  8
0
 10
24.2619
 20
-138.561
 11
24.1006
 21
-138.678
  0
LINE
  8
0
 10
24.1006
 20
-138.678
 11
23.9259
 21
-138.774
  0
LINE
  8
0
 10
23.9259
 20
-138.774
 11
23.7406
 21
-138.847
  0
LINE
  8
0
 10
23.7406
 20
-138.847
 11
23.5475
 21
-138.897
  0
LINE
  8
0
 10
23.5475
 20
-138.897
 11
23.3497
 21
-138.922
  0
LINE
  8
0
 10
23.3497
 20
-138.922
 11
23.1503
 21
-138.922
  0
LINE
  8
0
 10
35.1503
 20
-138.922
 11
34.9525
 21
-138.897
  0
LINE
  8
0
 10
34.9525
 20
-138.897
 11
34.7594
 21
-138.847
  0
LINE
  8
0
 10
34.7594
 20
-138.847
 11
34.5741
 21
-138.774
  0
LINE
  8
0
 10
34.5741
 20
-138.774
 11
34.3994
 21
-138.678
  0
LINE
  8
0
 10
34.3994
 20
-138.678
 11
34.2381
 21
-138.561
  0
LINE
  8
0
 10
34.2381
 20
-138.561
 11
34.0928
 21
-138.424
  0
LINE
  8
0
 10
34.0928
 20
-138.424
 11
33.9657
 21
-138.271
  0
LINE
  8
0
 10
33.9657
 20
-138.271
 11
33.8589
 21
-138.102
  0
LINE
  8
0
 10
33.8589
 20
-138.102
 11
33.774
 21
-137.922
  0
LINE
  8
0
 10
33.774
 20
-137.922
 11
33.7124
 21
-137.732
  0
LINE
  8
0
 10
33.7124
 20
-137.732
 11
33.675
 21
-137.536
  0
LINE
  8
0
 10
33.675
 20
-137.536
 11
33.6625
 21
-137.337
  0
LINE
  8
0
 10
33.6625
 20
-137.337
 11
33.675
 21
-137.139
  0
LINE
  8
0
 10
33.675
 20
-137.139
 11
33.7124
 21
-136.943
  0
LINE
  8
0
 10
33.7124
 20
-136.943
 11
33.774
 21
-136.753
  0
LINE
  8
0
 10
33.774
 20
-136.753
 11
33.8589
 21
-136.573
  0
LINE
  8
0
 10
33.8589
 20
-136.573
 11
33.9657
 21
-136.404
  0
LINE
  8
0
 10
33.9657
 20
-136.404
 11
34.0928
 21
-136.251
  0
LINE
  8
0
 10
34.0928
 20
-136.251
 11
34.2381
 21
-136.114
  0
LINE
  8
0
 10
34.2381
 20
-136.114
 11
34.3994
 21
-135.997
  0
LINE
  8
0
 10
34.3994
 20
-135.997
 11
34.5741
 21
-135.901
  0
LINE
  8
0
 10
34.5741
 20
-135.901
 11
34.7594
 21
-135.828
  0
LINE
  8
0
 10
34.7594
 20
-135.828
 11
34.9525
 21
-135.778
  0
LINE
  8
0
 10
34.9525
 20
-135.778
 11
35.1503
 21
-135.753
  0
LINE
  8
0
 10
35.1503
 20
-135.753
 11
35.3497
 21
-135.753
  0
LINE
  8
0
 10
35.3497
 20
-135.753
 11
35.5475
 21
-135.778
  0
LINE
  8
0
 10
35.5475
 20
-135.778
 11
35.7406
 21
-135.828
  0
LINE
  8
0
 10
35.7406
 20
-135.828
 11
35.9259
 21
-135.901
  0
LINE
  8
0
 10
35.9259
 20
-135.901
 11
36.1006
 21
-135.997
  0
LINE
  8
0
 10
36.1006
 20
-135.997
 11
36.2619
 21
-136.114
  0
LINE
  8
0
 10
36.2619
 20
-136.114
 11
36.4072
 21
-136.251
  0
LINE
  8
0
 10
36.4072
 20
-136.251
 11
36.5343
 21
-136.404
  0
LINE
  8
0
 10
36.5343
 20
-136.404
 11
36.6411
 21
-136.573
  0
LINE
  8
0
 10
36.6411
 20
-136.573
 11
36.726
 21
-136.753
  0
LINE
  8
0
 10
36.726
 20
-136.753
 11
36.7876
 21
-136.943
  0
LINE
  8
0
 10
36.7876
 20
-136.943
 11
36.825
 21
-137.139
  0
LINE
  8
0
 10
36.825
 20
-137.139
 11
36.8375
 21
-137.337
  0
LINE
  8
0
 10
36.8375
 20
-137.337
 11
36.825
 21
-137.536
  0
LINE
  8
0
 10
36.825
 20
-137.536
 11
36.7876
 21
-137.732
  0
LINE
  8
0
 10
36.7876
 20
-137.732
 11
36.726
 21
-137.922
  0
LINE
  8
0
 10
36.726
 20
-137.922
 11
36.6411
 21
-138.102
  0
LINE
  8
0
 10
36.6411
 20
-138.102
 11
36.5343
 21
-138.271
  0
LINE
  8
0
 10
36.5343
 20
-138.271
 11
36.4072
 21
-138.424
  0
LINE
  8
0
 10
36.4072
 20
-138.424
 11
36.2619
 21
-138.561
  0
LINE
  8
0
 10
36.2619
 20
-138.561
 11
36.1006
 21
-138.678
  0
LINE
  8
0
 10
36.1006
 20
-138.678
 11
35.9259
 21
-138.774
  0
LINE
  8
0
 10
35.9259
 20
-138.774
 11
35.7406
 21
-138.847
  0
LINE
  8
0
 10
35.7406
 20
-138.847
 11
35.5475
 21
-138.897
  0
LINE
  8
0
 10
35.5475
 20
-138.897
 11
35.3497
 21
-138.922
  0
LINE
  8
0
 10
35.3497
 20
-138.922
 11
35.1503
 21
-138.922
  0
LINE
  8
0
 10
140.15
 20
-138.922
 11
139.953
 21
-138.897
  0
LINE
  8
0
 10
139.953
 20
-138.897
 11
139.759
 21
-138.847
  0
LINE
  8
0
 10
139.759
 20
-138.847
 11
139.574
 21
-138.774
  0
LINE
  8
0
 10
139.574
 20
-138.774
 11
139.399
 21
-138.678
  0
LINE
  8
0
 10
139.399
 20
-138.678
 11
139.238
 21
-138.561
  0
LINE
  8
0
 10
139.238
 20
-138.561
 11
139.093
 21
-138.424
  0
LINE
  8
0
 10
139.093
 20
-138.424
 11
138.966
 21
-138.271
  0
LINE
  8
0
 10
138.966
 20
-138.271
 11
138.859
 21
-138.102
  0
LINE
  8
0
 10
138.859
 20
-138.102
 11
138.774
 21
-137.922
  0
LINE
  8
0
 10
138.774
 20
-137.922
 11
138.712
 21
-137.732
  0
LINE
  8
0
 10
138.712
 20
-137.732
 11
138.675
 21
-137.536
  0
LINE
  8
0
 10
138.675
 20
-137.536
 11
138.663
 21
-137.337
  0
LINE
  8
0
 10
138.663
 20
-137.337
 11
138.675
 21
-137.139
  0
LINE
  8
0
 10
138.675
 20
-137.139
 11
138.712
 21
-136.943
  0
LINE
  8
0
 10
138.712
 20
-136.943
 11
138.774
 21
-136.753
  0
LINE
  8
0
 10
138.774
 20
-136.753
 11
138.859
 21
-136.573
  0
LINE
  8
0
 10
138.859
 20
-136.573
 11
138.966
 21
-136.404
  0
LINE
  8
0
 10
138.966
 20
-136.404
 11
139.093
 21
-136.251
  0
LINE
  8
0
 10
139.093
 20
-136.251
 11
139.238
 21
-136.114
  0
LINE
  8
0
 10
139.238
 20
-136.114
 11
139.399
 21
-135.997
  0
LINE
  8
0
 10
139.399
 20
-135.997
 11
139.574
 21
-135.901
  0
LINE
  8
0
 10
139.574
 20
-135.901
 11
139.759
 21
-135.828
  0
LINE
  8
0
 10
139.759
 20
-135.828
 11
139.953
 21
-135.778
  0
LINE
  8
0
 10
139.953
 20
-135.778
 11
140.15
 21
-135.753
  0
LINE
  8
0
 10
140.15
 20
-135.753
 11
140.35
 21
-135.753
  0
LINE
  8
0
 10
140.35
 20
-135.753
 11
140.547
 21
-135.778
  0
LINE
  8
0
 10
140.547
 20
-135.778
 11
140.741
 21
-135.828
  0
LINE
  8
0
 10
140.741
 20
-135.828
 11
140.926
 21
-135.901
  0
LINE
  8
0
 10
140.926
 20
-135.901
 11
141.101
 21
-135.997
  0
LINE
  8
0
 10
141.101
 20
-135.997
 11
141.262
 21
-136.114
  0
LINE
  8
0
 10
141.262
 20
-136.114
 11
141.407
 21
-136.251
  0
LINE
  8
0
 10
141.407
 20
-136.251
 11
141.534
 21
-136.404
  0
LINE
  8
0
 10
141.534
 20
-136.404
 11
141.641
 21
-136.573
  0
LINE
  8
0
 10
141.641
 20
-136.573
 11
141.726
 21
-136.753
  0
LINE
  8
0
 10
141.726
 20
-136.753
 11
141.788
 21
-136.943
  0
LINE
  8
0
 10
141.788
 20
-136.943
 11
141.825
 21
-137.139
  0
LINE
  8
0
 10
141.825
 20
-137.139
 11
141.837
 21
-137.337
  0
LINE
  8
0
 10
141.837
 20
-137.337
 11
141.825
 21
-137.536
  0
LINE
  8
0
 10
141.825
 20
-137.536
 11
141.788
 21
-137.732
  0
LINE
  8
0
 10
141.788
 20
-137.732
 11
141.726
 21
-137.922
  0
LINE
  8
0
 10
141.726
 20
-137.922
 11
141.641
 21
-138.102
  0
LINE
  8
0
 10
141.641
 20
-138.102
 11
141.534
 21
-138.271
  0
LINE
  8
0
 10
141.534
 20
-138.271
 11
141.407
 21
-138.424
  0
LINE
  8
0
 10
141.407
 20
-138.424
 11
141.262
 21
-138.561
  0
LINE
  8
0
 10
141.262
 20
-138.561
 11
141.101
 21
-138.678
  0
LINE
  8
0
 10
141.101
 20
-138.678
 11
140.926
 21
-138.774
  0
LINE
  8
0
 10
140.926
 20
-138.774
 11
140.741
 21
-138.847
  0
LINE
  8
0
 10
140.741
 20
-138.847
 11
140.547
 21
-138.897
  0
LINE
  8
0
 10
140.547
 20
-138.897
 11
140.35
 21
-138.922
  0
LINE
  8
0
 10
140.35
 20
-138.922
 11
140.15
 21
-138.922
  0
LINE
  8
0
 10
81.6503
 20
-138.922
 11
81.4525
 21
-138.897
  0
LINE
  8
0
 10
81.4525
 20
-138.897
 11
81.2594
 21
-138.847
  0
LINE
  8
0
 10
81.2594
 20
-138.847
 11
81.0741
 21
-138.774
  0
LINE
  8
0
 10
81.0741
 20
-138.774
 11
80.8994
 21
-138.678
  0
LINE
  8
0
 10
80.8994
 20
-138.678
 11
80.7381
 21
-138.561
  0
LINE
  8
0
 10
80.7381
 20
-138.561
 11
80.5928
 21
-138.424
  0
LINE
  8
0
 10
80.5928
 20
-138.424
 11
80.4657
 21
-138.271
  0
LINE
  8
0
 10
80.4657
 20
-138.271
 11
80.3589
 21
-138.102
  0
LINE
  8
0
 10
80.3589
 20
-138.102
 11
80.274
 21
-137.922
  0
LINE
  8
0
 10
80.274
 20
-137.922
 11
80.2124
 21
-137.732
  0
LINE
  8
0
 10
80.2124
 20
-137.732
 11
80.175
 21
-137.536
  0
LINE
  8
0
 10
80.175
 20
-137.536
 11
80.1625
 21
-137.337
  0
LINE
  8
0
 10
80.1625
 20
-137.337
 11
80.175
 21
-137.139
  0
LINE
  8
0
 10
80.175
 20
-137.139
 11
80.2124
 21
-136.943
  0
LINE
  8
0
 10
80.2124
 20
-136.943
 11
80.274
 21
-136.753
  0
LINE
  8
0
 10
80.274
 20
-136.753
 11
80.3589
 21
-136.573
  0
LINE
  8
0
 10
80.3589
 20
-136.573
 11
80.4657
 21
-136.404
  0
LINE
  8
0
 10
80.4657
 20
-136.404
 11
80.5928
 21
-136.251
  0
LINE
  8
0
 10
80.5928
 20
-136.251
 11
80.7381
 21
-136.114
  0
LINE
  8
0
 10
80.7381
 20
-136.114
 11
80.8994
 21
-135.997
  0
LINE
  8
0
 10
80.8994
 20
-135.997
 11
81.0741
 21
-135.901
  0
LINE
  8
0
 10
81.0741
 20
-135.901
 11
81.2594
 21
-135.828
  0
LINE
  8
0
 10
81.2594
 20
-135.828
 11
81.4525
 21
-135.778
  0
LINE
  8
0
 10
81.4525
 20
-135.778
 11
81.6503
 21
-135.753
  0
LINE
  8
0
 10
81.6503
 20
-135.753
 11
81.8497
 21
-135.753
  0
LINE
  8
0
 10
81.8497
 20
-135.753
 11
82.0475
 21
-135.778
  0
LINE
  8
0
 10
82.0475
 20
-135.778
 11
82.2406
 21
-135.828
  0
LINE
  8
0
 10
82.2406
 20
-135.828
 11
82.4259
 21
-135.901
  0
LINE
  8
0
 10
82.4259
 20
-135.901
 11
82.6006
 21
-135.997
  0
LINE
  8
0
 10
82.6006
 20
-135.997
 11
82.7619
 21
-136.114
  0
LINE
  8
0
 10
82.7619
 20
-136.114
 11
82.9072
 21
-136.251
  0
LINE
  8
0
 10
82.9072
 20
-136.251
 11
83.0343
 21
-136.404
  0
LINE
  8
0
 10
83.0343
 20
-136.404
 11
83.1411
 21
-136.573
  0
LINE
  8
0
 10
83.1411
 20
-136.573
 11
83.226
 21
-136.753
  0
LINE
  8
0
 10
83.226
 20
-136.753
 11
83.2876
 21
-136.943
  0
LINE
  8
0
 10
83.2876
 20
-136.943
 11
83.325
 21
-137.139
  0
LINE
  8
0
 10
83.325
 20
-137.139
 11
83.3375
 21
-137.337
  0
LINE
  8
0
 10
83.3375
 20
-137.337
 11
83.325
 21
-137.536
  0
LINE
  8
0
 10
83.325
 20
-137.536
 11
83.2876
 21
-137.732
  0
LINE
  8
0
 10
83.2876
 20
-137.732
 11
83.226
 21
-137.922
  0
LINE
  8
0
 10
83.226
 20
-137.922
 11
83.1411
 21
-138.102
  0
LINE
  8
0
 10
83.1411
 20
-138.102
 11
83.0343
 21
-138.271
  0
LINE
  8
0
 10
83.0343
 20
-138.271
 11
82.9072
 21
-138.424
  0
LINE
  8
0
 10
82.9072
 20
-138.424
 11
82.7619
 21
-138.561
  0
LINE
  8
0
 10
82.7619
 20
-138.561
 11
82.6006
 21
-138.678
  0
LINE
  8
0
 10
82.6006
 20
-138.678
 11
82.4259
 21
-138.774
  0
LINE
  8
0
 10
82.4259
 20
-138.774
 11
82.2406
 21
-138.847
  0
LINE
  8
0
 10
82.2406
 20
-138.847
 11
82.0475
 21
-138.897
  0
LINE
  8
0
 10
82.0475
 20
-138.897
 11
81.8497
 21
-138.922
  0
LINE
  8
0
 10
81.8497
 20
-138.922
 11
81.6503
 21
-138.922
  0
ENDSEC
  0
SECTION
  2
OBJECTS
  0
DICTIONARY
  0
ENDSEC
  0
EOF
