  0
SECTION
  2
BLOCKS
  0
ENDSEC
  0
SECTION
  2
ENTITIES
  0
LINE
  8
0
 10
-84.5833
 20
-76
 11
-16.25
 21
-76
  0
LINE
  8
0
 10
-16.25
 20
-76
 11
-16.25
 21
-82.5
  0
LINE
  8
0
 10
-16.25
 20
-82.5
 11
16.25
 21
-82.5
  0
LINE
  8
0
 10
16.25
 20
-82.5
 11
16.25
 21
-76
  0
LINE
  8
0
 10
16.25
 20
-76
 11
108.75
 21
-76
  0
LINE
  8
0
 10
108.75
 20
-76
 11
108.75
 21
-82.5
  0
LINE
  8
0
 10
108.75
 20
-82.5
 11
141.25
 21
-82.5
  0
LINE
  8
0
 10
141.25
 20
-82.5
 11
141.25
 21
-76
  0
LINE
  8
0
 10
141.25
 20
-76
 11
151.25
 21
-76
  0
LINE
  8
0
 10
151.25
 20
-76
 11
151.25
 21
-63.6667
  0
LINE
  8
0
 10
151.25
 20
-63.6667
 11
157.75
 21
-63.6667
  0
LINE
  8
0
 10
157.75
 20
-63.6667
 11
157.75
 21
-37.6667
  0
LINE
  8
0
 10
157.75
 20
-37.6667
 11
151.25
 21
-37.6667
  0
LINE
  8
0
 10
151.25
 20
-37.6667
 11
151.25
 21
37.6667
  0
LINE
  8
0
 10
151.25
 20
37.6667
 11
157.75
 21
37.6667
  0
LINE
  8
0
 10
157.75
 20
37.6667
 11
157.75
 21
63.6667
  0
LINE
  8
0
 10
157.75
 20
63.6667
 11
151.25
 21
63.6667
  0
LINE
  8
0
 10
151.25
 20
63.6667
 11
151.25
 21
76
  0
LINE
  8
0
 10
151.25
 20
76
 11
-151.25
 21
76
  0
LINE
  8
0
 10
-151.25
 20
76
 11
-151.25
 21
63.6667
  0
LINE
  8
0
 10
-151.25
 20
63.6667
 11
-157.75
 21
63.6667
  0
LINE
  8
0
 10
-157.75
 20
63.6667
 11
-157.75
 21
37.6667
  0
LINE
  8
0
 10
-157.75
 20
37.6667
 11
-151.25
 21
37.6667
  0
LINE
  8
0
 10
-151.25
 20
37.6667
 11
-151.25
 21
-37.6667
  0
LINE
  8
0
 10
-151.25
 20
-37.6667
 11
-157.75
 21
-37.6667
  0
LINE
  8
0
 10
-157.75
 20
-37.6667
 11
-157.75
 21
-63.6667
  0
LINE
  8
0
 10
-157.75
 20
-63.6667
 11
-151.25
 21
-63.6667
  0
LINE
  8
0
 10
-151.25
 20
-63.6667
 11
-151.25
 21
-76
  0
LINE
  8
0
 10
-151.25
 20
-76
 11
-117.083
 21
-76
  0
LINE
  8
0
 10
-117.083
 20
-76
 11
-117.083
 21
-82.5
  0
LINE
  8
0
 10
-117.083
 20
-82.5
 11
-84.5833
 21
-82.5
  0
LINE
  8
0
 10
-84.5833
 20
-82.5
 11
-84.5833
 21
-76
  0
ENDSEC
  0
SECTION
  2
OBJECTS
  0
DICTIONARY
  0
ENDSEC
  0
EOF
