  0
SECTION
  2
BLOCKS
  0
ENDSEC
  0
SECTION
  2
ENTITIES
  0
LINE
  8
0
 10
151.25
 20
-19.5
 11
157.75
 21
-19.5
  0
LINE
  8
0
 10
157.75
 20
-19.5
 11
157.75
 21
19.5
  0
LINE
  8
0
 10
157.75
 20
19.5
 11
151.25
 21
19.5
  0
LINE
  8
0
 10
151.25
 20
19.5
 11
151.25
 21
50
  0
LINE
  8
0
 10
151.25
 20
50
 11
-151.25
 21
50
  0
LINE
  8
0
 10
-151.25
 20
50
 11
-151.25
 21
19.5
  0
LINE
  8
0
 10
-151.25
 20
19.5
 11
-157.75
 21
19.5
  0
LINE
  8
0
 10
-157.75
 20
19.5
 11
-157.75
 21
-19.5
  0
LINE
  8
0
 10
-157.75
 20
-19.5
 11
-151.25
 21
-19.5
  0
LINE
  8
0
 10
-151.25
 20
-19.5
 11
-151.25
 21
-50
  0
LINE
  8
0
 10
-151.25
 20
-50
 11
151.25
 21
-50
  0
LINE
  8
0
 10
151.25
 20
-50
 11
151.25
 21
-19.5
  0
LINE
  8
0
 10
-23.3497
 20
-7.17186
 11
-23.5475
 21
-7.14687
  0
LINE
  8
0
 10
-23.5475
 20
-7.14687
 11
-23.7406
 21
-7.09729
  0
LINE
  8
0
 10
-23.7406
 20
-7.09729
 11
-23.9259
 21
-7.02391
  0
LINE
  8
0
 10
-23.9259
 20
-7.02391
 11
-24.1006
 21
-6.92786
  0
LINE
  8
0
 10
-24.1006
 20
-6.92786
 11
-24.2619
 21
-6.81068
  0
LINE
  8
0
 10
-24.2619
 20
-6.81068
 11
-24.4072
 21
-6.67421
  0
LINE
  8
0
 10
-24.4072
 20
-6.67421
 11
-24.5343
 21
-6.5206
  0
LINE
  8
0
 10
-24.5343
 20
-6.5206
 11
-24.6411
 21
-6.35228
  0
LINE
  8
0
 10
-24.6411
 20
-6.35228
 11
-24.726
 21
-6.17189
  0
LINE
  8
0
 10
-24.726
 20
-6.17189
 11
-24.7876
 21
-5.98228
  0
LINE
  8
0
 10
-24.7876
 20
-5.98228
 11
-24.825
 21
-5.78645
  0
LINE
  8
0
 10
-24.825
 20
-5.78645
 11
-24.8375
 21
-5.58749
  0
LINE
  8
0
 10
-24.8375
 20
-5.58749
 11
-24.825
 21
-5.38852
  0
LINE
  8
0
 10
-24.825
 20
-5.38852
 11
-24.7876
 21
-5.1927
  0
LINE
  8
0
 10
-24.7876
 20
-5.1927
 11
-24.726
 21
-5.0031
  0
LINE
  8
0
 10
-24.726
 20
-5.0031
 11
-24.6411
 21
-4.82271
  0
LINE
  8
0
 10
-24.6411
 20
-4.82271
 11
-24.5343
 21
-4.65439
  0
LINE
  8
0
 10
-24.5343
 20
-4.65439
 11
-24.4072
 21
-4.50078
  0
LINE
  8
0
 10
-24.4072
 20
-4.50078
 11
-24.2619
 21
-4.3643
  0
LINE
  8
0
 10
-24.2619
 20
-4.3643
 11
-24.1006
 21
-4.24712
  0
LINE
  8
0
 10
-24.1006
 20
-4.24712
 11
-23.9259
 21
-4.15108
  0
LINE
  8
0
 10
-23.9259
 20
-4.15108
 11
-23.7406
 21
-4.0777
  0
LINE
  8
0
 10
-23.7406
 20
-4.0777
 11
-23.5475
 21
-4.02811
  0
LINE
  8
0
 10
-23.5475
 20
-4.02811
 11
-23.3497
 21
-4.00313
  0
LINE
  8
0
 10
-23.3497
 20
-4.00313
 11
-23.1503
 21
-4.00313
  0
LINE
  8
0
 10
-23.1503
 20
-4.00313
 11
-22.9525
 21
-4.02811
  0
LINE
  8
0
 10
-22.9525
 20
-4.02811
 11
-22.7594
 21
-4.0777
  0
LINE
  8
0
 10
-22.7594
 20
-4.0777
 11
-22.5741
 21
-4.15108
  0
LINE
  8
0
 10
-22.5741
 20
-4.15108
 11
-22.3994
 21
-4.24712
  0
LINE
  8
0
 10
-22.3994
 20
-4.24712
 11
-22.2381
 21
-4.3643
  0
LINE
  8
0
 10
-22.2381
 20
-4.3643
 11
-22.0928
 21
-4.50078
  0
LINE
  8
0
 10
-22.0928
 20
-4.50078
 11
-21.9657
 21
-4.65439
  0
LINE
  8
0
 10
-21.9657
 20
-4.65439
 11
-21.8589
 21
-4.82271
  0
LINE
  8
0
 10
-21.8589
 20
-4.82271
 11
-21.774
 21
-5.0031
  0
LINE
  8
0
 10
-21.774
 20
-5.0031
 11
-21.7124
 21
-5.1927
  0
LINE
  8
0
 10
-21.7124
 20
-5.1927
 11
-21.675
 21
-5.38852
  0
LINE
  8
0
 10
-21.675
 20
-5.38852
 11
-21.6625
 21
-5.58749
  0
LINE
  8
0
 10
-21.6625
 20
-5.58749
 11
-21.675
 21
-5.78645
  0
LINE
  8
0
 10
-21.675
 20
-5.78645
 11
-21.7124
 21
-5.98228
  0
LINE
  8
0
 10
-21.7124
 20
-5.98228
 11
-21.774
 21
-6.17189
  0
LINE
  8
0
 10
-21.774
 20
-6.17189
 11
-21.8589
 21
-6.35228
  0
LINE
  8
0
 10
-21.8589
 20
-6.35228
 11
-21.9657
 21
-6.5206
  0
LINE
  8
0
 10
-21.9657
 20
-6.5206
 11
-22.0928
 21
-6.67421
  0
LINE
  8
0
 10
-22.0928
 20
-6.67421
 11
-22.2381
 21
-6.81068
  0
LINE
  8
0
 10
-22.2381
 20
-6.81068
 11
-22.3994
 21
-6.92786
  0
LINE
  8
0
 10
-22.3994
 20
-6.92786
 11
-22.5741
 21
-7.02391
  0
LINE
  8
0
 10
-22.5741
 20
-7.02391
 11
-22.7594
 21
-7.09729
  0
LINE
  8
0
 10
-22.7594
 20
-7.09729
 11
-22.9525
 21
-7.14687
  0
LINE
  8
0
 10
-22.9525
 20
-7.14687
 11
-23.1503
 21
-7.17186
  0
LINE
  8
0
 10
-23.1503
 20
-7.17186
 11
-23.3497
 21
-7.17186
  0
LINE
  8
0
 10
140.15
 20
-7.17186
 11
139.953
 21
-7.14687
  0
LINE
  8
0
 10
139.953
 20
-7.14687
 11
139.759
 21
-7.09729
  0
LINE
  8
0
 10
139.759
 20
-7.09729
 11
139.574
 21
-7.02391
  0
LINE
  8
0
 10
139.574
 20
-7.02391
 11
139.399
 21
-6.92786
  0
LINE
  8
0
 10
139.399
 20
-6.92786
 11
139.238
 21
-6.81068
  0
LINE
  8
0
 10
139.238
 20
-6.81068
 11
139.093
 21
-6.67421
  0
LINE
  8
0
 10
139.093
 20
-6.67421
 11
138.966
 21
-6.5206
  0
LINE
  8
0
 10
138.966
 20
-6.5206
 11
138.859
 21
-6.35228
  0
LINE
  8
0
 10
138.859
 20
-6.35228
 11
138.774
 21
-6.17189
  0
LINE
  8
0
 10
138.774
 20
-6.17189
 11
138.712
 21
-5.98228
  0
LINE
  8
0
 10
138.712
 20
-5.98228
 11
138.675
 21
-5.78645
  0
LINE
  8
0
 10
138.675
 20
-5.78645
 11
138.663
 21
-5.58749
  0
LINE
  8
0
 10
138.663
 20
-5.58749
 11
138.675
 21
-5.38852
  0
LINE
  8
0
 10
138.675
 20
-5.38852
 11
138.712
 21
-5.1927
  0
LINE
  8
0
 10
138.712
 20
-5.1927
 11
138.774
 21
-5.0031
  0
LINE
  8
0
 10
138.774
 20
-5.0031
 11
138.859
 21
-4.82271
  0
LINE
  8
0
 10
138.859
 20
-4.82271
 11
138.966
 21
-4.65439
  0
LINE
  8
0
 10
138.966
 20
-4.65439
 11
139.093
 21
-4.50078
  0
LINE
  8
0
 10
139.093
 20
-4.50078
 11
139.238
 21
-4.3643
  0
LINE
  8
0
 10
139.238
 20
-4.3643
 11
139.399
 21
-4.24712
  0
LINE
  8
0
 10
139.399
 20
-4.24712
 11
139.574
 21
-4.15108
  0
LINE
  8
0
 10
139.574
 20
-4.15108
 11
139.759
 21
-4.0777
  0
LINE
  8
0
 10
139.759
 20
-4.0777
 11
139.953
 21
-4.02811
  0
LINE
  8
0
 10
139.953
 20
-4.02811
 11
140.15
 21
-4.00313
  0
LINE
  8
0
 10
140.15
 20
-4.00313
 11
140.35
 21
-4.00313
  0
LINE
  8
0
 10
140.35
 20
-4.00313
 11
140.547
 21
-4.02811
  0
LINE
  8
0
 10
140.547
 20
-4.02811
 11
140.741
 21
-4.0777
  0
LINE
  8
0
 10
140.741
 20
-4.0777
 11
140.926
 21
-4.15108
  0
LINE
  8
0
 10
140.926
 20
-4.15108
 11
141.101
 21
-4.24712
  0
LINE
  8
0
 10
141.101
 20
-4.24712
 11
141.262
 21
-4.3643
  0
LINE
  8
0
 10
141.262
 20
-4.3643
 11
141.407
 21
-4.50078
  0
LINE
  8
0
 10
141.407
 20
-4.50078
 11
141.534
 21
-4.65439
  0
LINE
  8
0
 10
141.534
 20
-4.65439
 11
141.641
 21
-4.82271
  0
LINE
  8
0
 10
141.641
 20
-4.82271
 11
141.726
 21
-5.0031
  0
LINE
  8
0
 10
141.726
 20
-5.0031
 11
141.788
 21
-5.1927
  0
LINE
  8
0
 10
141.788
 20
-5.1927
 11
141.825
 21
-5.38852
  0
LINE
  8
0
 10
141.825
 20
-5.38852
 11
141.837
 21
-5.58749
  0
LINE
  8
0
 10
141.837
 20
-5.58749
 11
141.825
 21
-5.78645
  0
LINE
  8
0
 10
141.825
 20
-5.78645
 11
141.788
 21
-5.98228
  0
LINE
  8
0
 10
141.788
 20
-5.98228
 11
141.726
 21
-6.17189
  0
LINE
  8
0
 10
141.726
 20
-6.17189
 11
141.641
 21
-6.35228
  0
LINE
  8
0
 10
141.641
 20
-6.35228
 11
141.534
 21
-6.5206
  0
LINE
  8
0
 10
141.534
 20
-6.5206
 11
141.407
 21
-6.67421
  0
LINE
  8
0
 10
141.407
 20
-6.67421
 11
141.262
 21
-6.81068
  0
LINE
  8
0
 10
141.262
 20
-6.81068
 11
141.101
 21
-6.92786
  0
LINE
  8
0
 10
141.101
 20
-6.92786
 11
140.926
 21
-7.02391
  0
LINE
  8
0
 10
140.926
 20
-7.02391
 11
140.741
 21
-7.09729
  0
LINE
  8
0
 10
140.741
 20
-7.09729
 11
140.547
 21
-7.14687
  0
LINE
  8
0
 10
140.547
 20
-7.14687
 11
140.35
 21
-7.17186
  0
LINE
  8
0
 10
140.35
 20
-7.17186
 11
140.15
 21
-7.17186
  0
LINE
  8
0
 10
-140.35
 20
-7.17186
 11
-140.547
 21
-7.14687
  0
LINE
  8
0
 10
-140.547
 20
-7.14687
 11
-140.741
 21
-7.09729
  0
LINE
  8
0
 10
-140.741
 20
-7.09729
 11
-140.926
 21
-7.02391
  0
LINE
  8
0
 10
-140.926
 20
-7.02391
 11
-141.101
 21
-6.92786
  0
LINE
  8
0
 10
-141.101
 20
-6.92786
 11
-141.262
 21
-6.81068
  0
LINE
  8
0
 10
-141.262
 20
-6.81068
 11
-141.407
 21
-6.67421
  0
LINE
  8
0
 10
-141.407
 20
-6.67421
 11
-141.534
 21
-6.5206
  0
LINE
  8
0
 10
-141.534
 20
-6.5206
 11
-141.641
 21
-6.35228
  0
LINE
  8
0
 10
-141.641
 20
-6.35228
 11
-141.726
 21
-6.17189
  0
LINE
  8
0
 10
-141.726
 20
-6.17189
 11
-141.788
 21
-5.98228
  0
LINE
  8
0
 10
-141.788
 20
-5.98228
 11
-141.825
 21
-5.78645
  0
LINE
  8
0
 10
-141.825
 20
-5.78645
 11
-141.837
 21
-5.58749
  0
LINE
  8
0
 10
-141.837
 20
-5.58749
 11
-141.825
 21
-5.38852
  0
LINE
  8
0
 10
-141.825
 20
-5.38852
 11
-141.788
 21
-5.1927
  0
LINE
  8
0
 10
-141.788
 20
-5.1927
 11
-141.726
 21
-5.0031
  0
LINE
  8
0
 10
-141.726
 20
-5.0031
 11
-141.641
 21
-4.82271
  0
LINE
  8
0
 10
-141.641
 20
-4.82271
 11
-141.534
 21
-4.65439
  0
LINE
  8
0
 10
-141.534
 20
-4.65439
 11
-141.407
 21
-4.50078
  0
LINE
  8
0
 10
-141.407
 20
-4.50078
 11
-141.262
 21
-4.3643
  0
LINE
  8
0
 10
-141.262
 20
-4.3643
 11
-141.101
 21
-4.24712
  0
LINE
  8
0
 10
-141.101
 20
-4.24712
 11
-140.926
 21
-4.15108
  0
LINE
  8
0
 10
-140.926
 20
-4.15108
 11
-140.741
 21
-4.0777
  0
LINE
  8
0
 10
-140.741
 20
-4.0777
 11
-140.547
 21
-4.02811
  0
LINE
  8
0
 10
-140.547
 20
-4.02811
 11
-140.35
 21
-4.00313
  0
LINE
  8
0
 10
-140.35
 20
-4.00313
 11
-140.15
 21
-4.00313
  0
LINE
  8
0
 10
-140.15
 20
-4.00313
 11
-139.953
 21
-4.02811
  0
LINE
  8
0
 10
-139.953
 20
-4.02811
 11
-139.759
 21
-4.0777
  0
LINE
  8
0
 10
-139.759
 20
-4.0777
 11
-139.574
 21
-4.15108
  0
LINE
  8
0
 10
-139.574
 20
-4.15108
 11
-139.399
 21
-4.24712
  0
LINE
  8
0
 10
-139.399
 20
-4.24712
 11
-139.238
 21
-4.3643
  0
LINE
  8
0
 10
-139.238
 20
-4.3643
 11
-139.093
 21
-4.50078
  0
LINE
  8
0
 10
-139.093
 20
-4.50078
 11
-138.966
 21
-4.65439
  0
LINE
  8
0
 10
-138.966
 20
-4.65439
 11
-138.859
 21
-4.82271
  0
LINE
  8
0
 10
-138.859
 20
-4.82271
 11
-138.774
 21
-5.0031
  0
LINE
  8
0
 10
-138.774
 20
-5.0031
 11
-138.712
 21
-5.1927
  0
LINE
  8
0
 10
-138.712
 20
-5.1927
 11
-138.675
 21
-5.38852
  0
LINE
  8
0
 10
-138.675
 20
-5.38852
 11
-138.663
 21
-5.58749
  0
LINE
  8
0
 10
-138.663
 20
-5.58749
 11
-138.675
 21
-5.78645
  0
LINE
  8
0
 10
-138.675
 20
-5.78645
 11
-138.712
 21
-5.98228
  0
LINE
  8
0
 10
-138.712
 20
-5.98228
 11
-138.774
 21
-6.17189
  0
LINE
  8
0
 10
-138.774
 20
-6.17189
 11
-138.859
 21
-6.35228
  0
LINE
  8
0
 10
-138.859
 20
-6.35228
 11
-138.966
 21
-6.5206
  0
LINE
  8
0
 10
-138.966
 20
-6.5206
 11
-139.093
 21
-6.67421
  0
LINE
  8
0
 10
-139.093
 20
-6.67421
 11
-139.238
 21
-6.81068
  0
LINE
  8
0
 10
-139.238
 20
-6.81068
 11
-139.399
 21
-6.92786
  0
LINE
  8
0
 10
-139.399
 20
-6.92786
 11
-139.574
 21
-7.02391
  0
LINE
  8
0
 10
-139.574
 20
-7.02391
 11
-139.759
 21
-7.09729
  0
LINE
  8
0
 10
-139.759
 20
-7.09729
 11
-139.953
 21
-7.14687
  0
LINE
  8
0
 10
-139.953
 20
-7.14687
 11
-140.15
 21
-7.17186
  0
LINE
  8
0
 10
-140.15
 20
-7.17186
 11
-140.35
 21
-7.17186
  0
LINE
  8
0
 10
81.6503
 20
-7.17186
 11
81.4525
 21
-7.14687
  0
LINE
  8
0
 10
81.4525
 20
-7.14687
 11
81.2594
 21
-7.09729
  0
LINE
  8
0
 10
81.2594
 20
-7.09729
 11
81.0741
 21
-7.02391
  0
LINE
  8
0
 10
81.0741
 20
-7.02391
 11
80.8994
 21
-6.92786
  0
LINE
  8
0
 10
80.8994
 20
-6.92786
 11
80.7381
 21
-6.81068
  0
LINE
  8
0
 10
80.7381
 20
-6.81068
 11
80.5928
 21
-6.67421
  0
LINE
  8
0
 10
80.5928
 20
-6.67421
 11
80.4657
 21
-6.5206
  0
LINE
  8
0
 10
80.4657
 20
-6.5206
 11
80.3589
 21
-6.35228
  0
LINE
  8
0
 10
80.3589
 20
-6.35228
 11
80.274
 21
-6.17189
  0
LINE
  8
0
 10
80.274
 20
-6.17189
 11
80.2124
 21
-5.98228
  0
LINE
  8
0
 10
80.2124
 20
-5.98228
 11
80.175
 21
-5.78645
  0
LINE
  8
0
 10
80.175
 20
-5.78645
 11
80.1625
 21
-5.58749
  0
LINE
  8
0
 10
80.1625
 20
-5.58749
 11
80.175
 21
-5.38852
  0
LINE
  8
0
 10
80.175
 20
-5.38852
 11
80.2124
 21
-5.1927
  0
LINE
  8
0
 10
80.2124
 20
-5.1927
 11
80.274
 21
-5.0031
  0
LINE
  8
0
 10
80.274
 20
-5.0031
 11
80.3589
 21
-4.82271
  0
LINE
  8
0
 10
80.3589
 20
-4.82271
 11
80.4657
 21
-4.65439
  0
LINE
  8
0
 10
80.4657
 20
-4.65439
 11
80.5928
 21
-4.50078
  0
LINE
  8
0
 10
80.5928
 20
-4.50078
 11
80.7381
 21
-4.3643
  0
LINE
  8
0
 10
80.7381
 20
-4.3643
 11
80.8994
 21
-4.24712
  0
LINE
  8
0
 10
80.8994
 20
-4.24712
 11
81.0741
 21
-4.15108
  0
LINE
  8
0
 10
81.0741
 20
-4.15108
 11
81.2594
 21
-4.0777
  0
LINE
  8
0
 10
81.2594
 20
-4.0777
 11
81.4525
 21
-4.02811
  0
LINE
  8
0
 10
81.4525
 20
-4.02811
 11
81.6503
 21
-4.00313
  0
LINE
  8
0
 10
81.6503
 20
-4.00313
 11
81.8497
 21
-4.00313
  0
LINE
  8
0
 10
81.8497
 20
-4.00313
 11
82.0475
 21
-4.02811
  0
LINE
  8
0
 10
82.0475
 20
-4.02811
 11
82.2406
 21
-4.0777
  0
LINE
  8
0
 10
82.2406
 20
-4.0777
 11
82.4259
 21
-4.15108
  0
LINE
  8
0
 10
82.4259
 20
-4.15108
 11
82.6006
 21
-4.24712
  0
LINE
  8
0
 10
82.6006
 20
-4.24712
 11
82.7619
 21
-4.3643
  0
LINE
  8
0
 10
82.7619
 20
-4.3643
 11
82.9072
 21
-4.50078
  0
LINE
  8
0
 10
82.9072
 20
-4.50078
 11
83.0343
 21
-4.65439
  0
LINE
  8
0
 10
83.0343
 20
-4.65439
 11
83.1411
 21
-4.82271
  0
LINE
  8
0
 10
83.1411
 20
-4.82271
 11
83.226
 21
-5.0031
  0
LINE
  8
0
 10
83.226
 20
-5.0031
 11
83.2876
 21
-5.1927
  0
LINE
  8
0
 10
83.2876
 20
-5.1927
 11
83.325
 21
-5.38852
  0
LINE
  8
0
 10
83.325
 20
-5.38852
 11
83.3375
 21
-5.58749
  0
LINE
  8
0
 10
83.3375
 20
-5.58749
 11
83.325
 21
-5.78645
  0
LINE
  8
0
 10
83.325
 20
-5.78645
 11
83.2876
 21
-5.98228
  0
LINE
  8
0
 10
83.2876
 20
-5.98228
 11
83.226
 21
-6.17189
  0
LINE
  8
0
 10
83.226
 20
-6.17189
 11
83.1411
 21
-6.35228
  0
LINE
  8
0
 10
83.1411
 20
-6.35228
 11
83.0343
 21
-6.5206
  0
LINE
  8
0
 10
83.0343
 20
-6.5206
 11
82.9072
 21
-6.67421
  0
LINE
  8
0
 10
82.9072
 20
-6.67421
 11
82.7619
 21
-6.81068
  0
LINE
  8
0
 10
82.7619
 20
-6.81068
 11
82.6006
 21
-6.92786
  0
LINE
  8
0
 10
82.6006
 20
-6.92786
 11
82.4259
 21
-7.02391
  0
LINE
  8
0
 10
82.4259
 20
-7.02391
 11
82.2406
 21
-7.09729
  0
LINE
  8
0
 10
82.2406
 20
-7.09729
 11
82.0475
 21
-7.14687
  0
LINE
  8
0
 10
82.0475
 20
-7.14687
 11
81.8497
 21
-7.17186
  0
LINE
  8
0
 10
81.8497
 20
-7.17186
 11
81.6503
 21
-7.17186
  0
LINE
  8
0
 10
-93.8497
 20
-7.17186
 11
-94.0475
 21
-7.14687
  0
LINE
  8
0
 10
-94.0475
 20
-7.14687
 11
-94.2406
 21
-7.09729
  0
LINE
  8
0
 10
-94.2406
 20
-7.09729
 11
-94.4259
 21
-7.02391
  0
LINE
  8
0
 10
-94.4259
 20
-7.02391
 11
-94.6006
 21
-6.92786
  0
LINE
  8
0
 10
-94.6006
 20
-6.92786
 11
-94.7619
 21
-6.81068
  0
LINE
  8
0
 10
-94.7619
 20
-6.81068
 11
-94.9072
 21
-6.67421
  0
LINE
  8
0
 10
-94.9072
 20
-6.67421
 11
-95.0343
 21
-6.5206
  0
LINE
  8
0
 10
-95.0343
 20
-6.5206
 11
-95.1411
 21
-6.35228
  0
LINE
  8
0
 10
-95.1411
 20
-6.35228
 11
-95.226
 21
-6.17189
  0
LINE
  8
0
 10
-95.226
 20
-6.17189
 11
-95.2876
 21
-5.98228
  0
LINE
  8
0
 10
-95.2876
 20
-5.98228
 11
-95.325
 21
-5.78645
  0
LINE
  8
0
 10
-95.325
 20
-5.78645
 11
-95.3375
 21
-5.58749
  0
LINE
  8
0
 10
-95.3375
 20
-5.58749
 11
-95.325
 21
-5.38852
  0
LINE
  8
0
 10
-95.325
 20
-5.38852
 11
-95.2876
 21
-5.1927
  0
LINE
  8
0
 10
-95.2876
 20
-5.1927
 11
-95.226
 21
-5.0031
  0
LINE
  8
0
 10
-95.226
 20
-5.0031
 11
-95.1411
 21
-4.82271
  0
LINE
  8
0
 10
-95.1411
 20
-4.82271
 11
-95.0343
 21
-4.65439
  0
LINE
  8
0
 10
-95.0343
 20
-4.65439
 11
-94.9072
 21
-4.50078
  0
LINE
  8
0
 10
-94.9072
 20
-4.50078
 11
-94.7619
 21
-4.3643
  0
LINE
  8
0
 10
-94.7619
 20
-4.3643
 11
-94.6006
 21
-4.24712
  0
LINE
  8
0
 10
-94.6006
 20
-4.24712
 11
-94.4259
 21
-4.15108
  0
LINE
  8
0
 10
-94.4259
 20
-4.15108
 11
-94.2406
 21
-4.0777
  0
LINE
  8
0
 10
-94.2406
 20
-4.0777
 11
-94.0475
 21
-4.02811
  0
LINE
  8
0
 10
-94.0475
 20
-4.02811
 11
-93.8497
 21
-4.00313
  0
LINE
  8
0
 10
-93.8497
 20
-4.00313
 11
-93.6503
 21
-4.00313
  0
LINE
  8
0
 10
-93.6503
 20
-4.00313
 11
-93.4525
 21
-4.02811
  0
LINE
  8
0
 10
-93.4525
 20
-4.02811
 11
-93.2594
 21
-4.0777
  0
LINE
  8
0
 10
-93.2594
 20
-4.0777
 11
-93.0741
 21
-4.15108
  0
LINE
  8
0
 10
-93.0741
 20
-4.15108
 11
-92.8994
 21
-4.24712
  0
LINE
  8
0
 10
-92.8994
 20
-4.24712
 11
-92.7381
 21
-4.3643
  0
LINE
  8
0
 10
-92.7381
 20
-4.3643
 11
-92.5928
 21
-4.50078
  0
LINE
  8
0
 10
-92.5928
 20
-4.50078
 11
-92.4657
 21
-4.65439
  0
LINE
  8
0
 10
-92.4657
 20
-4.65439
 11
-92.3589
 21
-4.82271
  0
LINE
  8
0
 10
-92.3589
 20
-4.82271
 11
-92.274
 21
-5.0031
  0
LINE
  8
0
 10
-92.274
 20
-5.0031
 11
-92.2124
 21
-5.1927
  0
LINE
  8
0
 10
-92.2124
 20
-5.1927
 11
-92.175
 21
-5.38852
  0
LINE
  8
0
 10
-92.175
 20
-5.38852
 11
-92.1625
 21
-5.58749
  0
LINE
  8
0
 10
-92.1625
 20
-5.58749
 11
-92.175
 21
-5.78645
  0
LINE
  8
0
 10
-92.175
 20
-5.78645
 11
-92.2124
 21
-5.98228
  0
LINE
  8
0
 10
-92.2124
 20
-5.98228
 11
-92.274
 21
-6.17189
  0
LINE
  8
0
 10
-92.274
 20
-6.17189
 11
-92.3589
 21
-6.35228
  0
LINE
  8
0
 10
-92.3589
 20
-6.35228
 11
-92.4657
 21
-6.5206
  0
LINE
  8
0
 10
-92.4657
 20
-6.5206
 11
-92.5928
 21
-6.67421
  0
LINE
  8
0
 10
-92.5928
 20
-6.67421
 11
-92.7381
 21
-6.81068
  0
LINE
  8
0
 10
-92.7381
 20
-6.81068
 11
-92.8994
 21
-6.92786
  0
LINE
  8
0
 10
-92.8994
 20
-6.92786
 11
-93.0741
 21
-7.02391
  0
LINE
  8
0
 10
-93.0741
 20
-7.02391
 11
-93.2594
 21
-7.09729
  0
LINE
  8
0
 10
-93.2594
 20
-7.09729
 11
-93.4525
 21
-7.14687
  0
LINE
  8
0
 10
-93.4525
 20
-7.14687
 11
-93.6503
 21
-7.17186
  0
LINE
  8
0
 10
-93.6503
 20
-7.17186
 11
-93.8497
 21
-7.17186
  0
LINE
  8
0
 10
23.1503
 20
-7.17186
 11
22.9525
 21
-7.14687
  0
LINE
  8
0
 10
22.9525
 20
-7.14687
 11
22.7594
 21
-7.09729
  0
LINE
  8
0
 10
22.7594
 20
-7.09729
 11
22.5741
 21
-7.02391
  0
LINE
  8
0
 10
22.5741
 20
-7.02391
 11
22.3994
 21
-6.92786
  0
LINE
  8
0
 10
22.3994
 20
-6.92786
 11
22.2381
 21
-6.81068
  0
LINE
  8
0
 10
22.2381
 20
-6.81068
 11
22.0928
 21
-6.67421
  0
LINE
  8
0
 10
22.0928
 20
-6.67421
 11
21.9657
 21
-6.5206
  0
LINE
  8
0
 10
21.9657
 20
-6.5206
 11
21.8589
 21
-6.35228
  0
LINE
  8
0
 10
21.8589
 20
-6.35228
 11
21.774
 21
-6.17189
  0
LINE
  8
0
 10
21.774
 20
-6.17189
 11
21.7124
 21
-5.98228
  0
LINE
  8
0
 10
21.7124
 20
-5.98228
 11
21.675
 21
-5.78645
  0
LINE
  8
0
 10
21.675
 20
-5.78645
 11
21.6625
 21
-5.58749
  0
LINE
  8
0
 10
21.6625
 20
-5.58749
 11
21.675
 21
-5.38852
  0
LINE
  8
0
 10
21.675
 20
-5.38852
 11
21.7124
 21
-5.1927
  0
LINE
  8
0
 10
21.7124
 20
-5.1927
 11
21.774
 21
-5.0031
  0
LINE
  8
0
 10
21.774
 20
-5.0031
 11
21.8589
 21
-4.82271
  0
LINE
  8
0
 10
21.8589
 20
-4.82271
 11
21.9657
 21
-4.65439
  0
LINE
  8
0
 10
21.9657
 20
-4.65439
 11
22.0928
 21
-4.50078
  0
LINE
  8
0
 10
22.0928
 20
-4.50078
 11
22.2381
 21
-4.3643
  0
LINE
  8
0
 10
22.2381
 20
-4.3643
 11
22.3994
 21
-4.24712
  0
LINE
  8
0
 10
22.3994
 20
-4.24712
 11
22.5741
 21
-4.15108
  0
LINE
  8
0
 10
22.5741
 20
-4.15108
 11
22.7594
 21
-4.0777
  0
LINE
  8
0
 10
22.7594
 20
-4.0777
 11
22.9525
 21
-4.02811
  0
LINE
  8
0
 10
22.9525
 20
-4.02811
 11
23.1503
 21
-4.00313
  0
LINE
  8
0
 10
23.1503
 20
-4.00313
 11
23.3497
 21
-4.00313
  0
LINE
  8
0
 10
23.3497
 20
-4.00313
 11
23.5475
 21
-4.02811
  0
LINE
  8
0
 10
23.5475
 20
-4.02811
 11
23.7406
 21
-4.0777
  0
LINE
  8
0
 10
23.7406
 20
-4.0777
 11
23.9259
 21
-4.15108
  0
LINE
  8
0
 10
23.9259
 20
-4.15108
 11
24.1006
 21
-4.24712
  0
LINE
  8
0
 10
24.1006
 20
-4.24712
 11
24.2619
 21
-4.3643
  0
LINE
  8
0
 10
24.2619
 20
-4.3643
 11
24.4072
 21
-4.50078
  0
LINE
  8
0
 10
24.4072
 20
-4.50078
 11
24.5343
 21
-4.65439
  0
LINE
  8
0
 10
24.5343
 20
-4.65439
 11
24.6411
 21
-4.82271
  0
LINE
  8
0
 10
24.6411
 20
-4.82271
 11
24.726
 21
-5.0031
  0
LINE
  8
0
 10
24.726
 20
-5.0031
 11
24.7876
 21
-5.1927
  0
LINE
  8
0
 10
24.7876
 20
-5.1927
 11
24.825
 21
-5.38852
  0
LINE
  8
0
 10
24.825
 20
-5.38852
 11
24.8375
 21
-5.58749
  0
LINE
  8
0
 10
24.8375
 20
-5.58749
 11
24.825
 21
-5.78645
  0
LINE
  8
0
 10
24.825
 20
-5.78645
 11
24.7876
 21
-5.98228
  0
LINE
  8
0
 10
24.7876
 20
-5.98228
 11
24.726
 21
-6.17189
  0
LINE
  8
0
 10
24.726
 20
-6.17189
 11
24.6411
 21
-6.35228
  0
LINE
  8
0
 10
24.6411
 20
-6.35228
 11
24.5343
 21
-6.5206
  0
LINE
  8
0
 10
24.5343
 20
-6.5206
 11
24.4072
 21
-6.67421
  0
LINE
  8
0
 10
24.4072
 20
-6.67421
 11
24.2619
 21
-6.81068
  0
LINE
  8
0
 10
24.2619
 20
-6.81068
 11
24.1006
 21
-6.92786
  0
LINE
  8
0
 10
24.1006
 20
-6.92786
 11
23.9259
 21
-7.02391
  0
LINE
  8
0
 10
23.9259
 20
-7.02391
 11
23.7406
 21
-7.09729
  0
LINE
  8
0
 10
23.7406
 20
-7.09729
 11
23.5475
 21
-7.14687
  0
LINE
  8
0
 10
23.5475
 20
-7.14687
 11
23.3497
 21
-7.17186
  0
LINE
  8
0
 10
23.3497
 20
-7.17186
 11
23.1503
 21
-7.17186
  0
LINE
  8
0
 10
35.1503
 20
-7.17186
 11
34.9525
 21
-7.14687
  0
LINE
  8
0
 10
34.9525
 20
-7.14687
 11
34.7594
 21
-7.09729
  0
LINE
  8
0
 10
34.7594
 20
-7.09729
 11
34.5741
 21
-7.02391
  0
LINE
  8
0
 10
34.5741
 20
-7.02391
 11
34.3994
 21
-6.92786
  0
LINE
  8
0
 10
34.3994
 20
-6.92786
 11
34.2381
 21
-6.81068
  0
LINE
  8
0
 10
34.2381
 20
-6.81068
 11
34.0928
 21
-6.67421
  0
LINE
  8
0
 10
34.0928
 20
-6.67421
 11
33.9657
 21
-6.5206
  0
LINE
  8
0
 10
33.9657
 20
-6.5206
 11
33.8589
 21
-6.35228
  0
LINE
  8
0
 10
33.8589
 20
-6.35228
 11
33.774
 21
-6.17189
  0
LINE
  8
0
 10
33.774
 20
-6.17189
 11
33.7124
 21
-5.98228
  0
LINE
  8
0
 10
33.7124
 20
-5.98228
 11
33.675
 21
-5.78645
  0
LINE
  8
0
 10
33.675
 20
-5.78645
 11
33.6625
 21
-5.58749
  0
LINE
  8
0
 10
33.6625
 20
-5.58749
 11
33.675
 21
-5.38852
  0
LINE
  8
0
 10
33.675
 20
-5.38852
 11
33.7124
 21
-5.1927
  0
LINE
  8
0
 10
33.7124
 20
-5.1927
 11
33.774
 21
-5.0031
  0
LINE
  8
0
 10
33.774
 20
-5.0031
 11
33.8589
 21
-4.82271
  0
LINE
  8
0
 10
33.8589
 20
-4.82271
 11
33.9657
 21
-4.65439
  0
LINE
  8
0
 10
33.9657
 20
-4.65439
 11
34.0928
 21
-4.50078
  0
LINE
  8
0
 10
34.0928
 20
-4.50078
 11
34.2381
 21
-4.3643
  0
LINE
  8
0
 10
34.2381
 20
-4.3643
 11
34.3994
 21
-4.24712
  0
LINE
  8
0
 10
34.3994
 20
-4.24712
 11
34.5741
 21
-4.15108
  0
LINE
  8
0
 10
34.5741
 20
-4.15108
 11
34.7594
 21
-4.0777
  0
LINE
  8
0
 10
34.7594
 20
-4.0777
 11
34.9525
 21
-4.02811
  0
LINE
  8
0
 10
34.9525
 20
-4.02811
 11
35.1503
 21
-4.00313
  0
LINE
  8
0
 10
35.1503
 20
-4.00313
 11
35.3497
 21
-4.00313
  0
LINE
  8
0
 10
35.3497
 20
-4.00313
 11
35.5475
 21
-4.02811
  0
LINE
  8
0
 10
35.5475
 20
-4.02811
 11
35.7406
 21
-4.0777
  0
LINE
  8
0
 10
35.7406
 20
-4.0777
 11
35.9259
 21
-4.15108
  0
LINE
  8
0
 10
35.9259
 20
-4.15108
 11
36.1006
 21
-4.24712
  0
LINE
  8
0
 10
36.1006
 20
-4.24712
 11
36.2619
 21
-4.3643
  0
LINE
  8
0
 10
36.2619
 20
-4.3643
 11
36.4072
 21
-4.50078
  0
LINE
  8
0
 10
36.4072
 20
-4.50078
 11
36.5343
 21
-4.65439
  0
LINE
  8
0
 10
36.5343
 20
-4.65439
 11
36.6411
 21
-4.82271
  0
LINE
  8
0
 10
36.6411
 20
-4.82271
 11
36.726
 21
-5.0031
  0
LINE
  8
0
 10
36.726
 20
-5.0031
 11
36.7876
 21
-5.1927
  0
LINE
  8
0
 10
36.7876
 20
-5.1927
 11
36.825
 21
-5.38852
  0
LINE
  8
0
 10
36.825
 20
-5.38852
 11
36.8375
 21
-5.58749
  0
LINE
  8
0
 10
36.8375
 20
-5.58749
 11
36.825
 21
-5.78645
  0
LINE
  8
0
 10
36.825
 20
-5.78645
 11
36.7876
 21
-5.98228
  0
LINE
  8
0
 10
36.7876
 20
-5.98228
 11
36.726
 21
-6.17189
  0
LINE
  8
0
 10
36.726
 20
-6.17189
 11
36.6411
 21
-6.35228
  0
LINE
  8
0
 10
36.6411
 20
-6.35228
 11
36.5343
 21
-6.5206
  0
LINE
  8
0
 10
36.5343
 20
-6.5206
 11
36.4072
 21
-6.67421
  0
LINE
  8
0
 10
36.4072
 20
-6.67421
 11
36.2619
 21
-6.81068
  0
LINE
  8
0
 10
36.2619
 20
-6.81068
 11
36.1006
 21
-6.92786
  0
LINE
  8
0
 10
36.1006
 20
-6.92786
 11
35.9259
 21
-7.02391
  0
LINE
  8
0
 10
35.9259
 20
-7.02391
 11
35.7406
 21
-7.09729
  0
LINE
  8
0
 10
35.7406
 20
-7.09729
 11
35.5475
 21
-7.14687
  0
LINE
  8
0
 10
35.5475
 20
-7.14687
 11
35.3497
 21
-7.17186
  0
LINE
  8
0
 10
35.3497
 20
-7.17186
 11
35.1503
 21
-7.17186
  0
LINE
  8
0
 10
93.6503
 20
-7.17186
 11
93.4525
 21
-7.14687
  0
LINE
  8
0
 10
93.4525
 20
-7.14687
 11
93.2594
 21
-7.09729
  0
LINE
  8
0
 10
93.2594
 20
-7.09729
 11
93.0741
 21
-7.02391
  0
LINE
  8
0
 10
93.0741
 20
-7.02391
 11
92.8994
 21
-6.92786
  0
LINE
  8
0
 10
92.8994
 20
-6.92786
 11
92.7381
 21
-6.81068
  0
LINE
  8
0
 10
92.7381
 20
-6.81068
 11
92.5928
 21
-6.67421
  0
LINE
  8
0
 10
92.5928
 20
-6.67421
 11
92.4657
 21
-6.5206
  0
LINE
  8
0
 10
92.4657
 20
-6.5206
 11
92.3589
 21
-6.35228
  0
LINE
  8
0
 10
92.3589
 20
-6.35228
 11
92.274
 21
-6.17189
  0
LINE
  8
0
 10
92.274
 20
-6.17189
 11
92.2124
 21
-5.98228
  0
LINE
  8
0
 10
92.2124
 20
-5.98228
 11
92.175
 21
-5.78645
  0
LINE
  8
0
 10
92.175
 20
-5.78645
 11
92.1625
 21
-5.58749
  0
LINE
  8
0
 10
92.1625
 20
-5.58749
 11
92.175
 21
-5.38852
  0
LINE
  8
0
 10
92.175
 20
-5.38852
 11
92.2124
 21
-5.1927
  0
LINE
  8
0
 10
92.2124
 20
-5.1927
 11
92.274
 21
-5.0031
  0
LINE
  8
0
 10
92.274
 20
-5.0031
 11
92.3589
 21
-4.82271
  0
LINE
  8
0
 10
92.3589
 20
-4.82271
 11
92.4657
 21
-4.65439
  0
LINE
  8
0
 10
92.4657
 20
-4.65439
 11
92.5928
 21
-4.50078
  0
LINE
  8
0
 10
92.5928
 20
-4.50078
 11
92.7381
 21
-4.3643
  0
LINE
  8
0
 10
92.7381
 20
-4.3643
 11
92.8994
 21
-4.24712
  0
LINE
  8
0
 10
92.8994
 20
-4.24712
 11
93.0741
 21
-4.15108
  0
LINE
  8
0
 10
93.0741
 20
-4.15108
 11
93.2594
 21
-4.0777
  0
LINE
  8
0
 10
93.2594
 20
-4.0777
 11
93.4525
 21
-4.02811
  0
LINE
  8
0
 10
93.4525
 20
-4.02811
 11
93.6503
 21
-4.00313
  0
LINE
  8
0
 10
93.6503
 20
-4.00313
 11
93.8497
 21
-4.00313
  0
LINE
  8
0
 10
93.8497
 20
-4.00313
 11
94.0475
 21
-4.02811
  0
LINE
  8
0
 10
94.0475
 20
-4.02811
 11
94.2406
 21
-4.0777
  0
LINE
  8
0
 10
94.2406
 20
-4.0777
 11
94.4259
 21
-4.15108
  0
LINE
  8
0
 10
94.4259
 20
-4.15108
 11
94.6006
 21
-4.24712
  0
LINE
  8
0
 10
94.6006
 20
-4.24712
 11
94.7619
 21
-4.3643
  0
LINE
  8
0
 10
94.7619
 20
-4.3643
 11
94.9072
 21
-4.50078
  0
LINE
  8
0
 10
94.9072
 20
-4.50078
 11
95.0343
 21
-4.65439
  0
LINE
  8
0
 10
95.0343
 20
-4.65439
 11
95.1411
 21
-4.82271
  0
LINE
  8
0
 10
95.1411
 20
-4.82271
 11
95.226
 21
-5.0031
  0
LINE
  8
0
 10
95.226
 20
-5.0031
 11
95.2876
 21
-5.1927
  0
LINE
  8
0
 10
95.2876
 20
-5.1927
 11
95.325
 21
-5.38852
  0
LINE
  8
0
 10
95.325
 20
-5.38852
 11
95.3375
 21
-5.58749
  0
LINE
  8
0
 10
95.3375
 20
-5.58749
 11
95.325
 21
-5.78645
  0
LINE
  8
0
 10
95.325
 20
-5.78645
 11
95.2876
 21
-5.98228
  0
LINE
  8
0
 10
95.2876
 20
-5.98228
 11
95.226
 21
-6.17189
  0
LINE
  8
0
 10
95.226
 20
-6.17189
 11
95.1411
 21
-6.35228
  0
LINE
  8
0
 10
95.1411
 20
-6.35228
 11
95.0343
 21
-6.5206
  0
LINE
  8
0
 10
95.0343
 20
-6.5206
 11
94.9072
 21
-6.67421
  0
LINE
  8
0
 10
94.9072
 20
-6.67421
 11
94.7619
 21
-6.81068
  0
LINE
  8
0
 10
94.7619
 20
-6.81068
 11
94.6006
 21
-6.92786
  0
LINE
  8
0
 10
94.6006
 20
-6.92786
 11
94.4259
 21
-7.02391
  0
LINE
  8
0
 10
94.4259
 20
-7.02391
 11
94.2406
 21
-7.09729
  0
LINE
  8
0
 10
94.2406
 20
-7.09729
 11
94.0475
 21
-7.14687
  0
LINE
  8
0
 10
94.0475
 20
-7.14687
 11
93.8497
 21
-7.17186
  0
LINE
  8
0
 10
93.8497
 20
-7.17186
 11
93.6503
 21
-7.17186
  0
LINE
  8
0
 10
-35.3497
 20
-7.17186
 11
-35.5475
 21
-7.14687
  0
LINE
  8
0
 10
-35.5475
 20
-7.14687
 11
-35.7406
 21
-7.09729
  0
LINE
  8
0
 10
-35.7406
 20
-7.09729
 11
-35.9259
 21
-7.02391
  0
LINE
  8
0
 10
-35.9259
 20
-7.02391
 11
-36.1006
 21
-6.92786
  0
LINE
  8
0
 10
-36.1006
 20
-6.92786
 11
-36.2619
 21
-6.81068
  0
LINE
  8
0
 10
-36.2619
 20
-6.81068
 11
-36.4072
 21
-6.67421
  0
LINE
  8
0
 10
-36.4072
 20
-6.67421
 11
-36.5343
 21
-6.5206
  0
LINE
  8
0
 10
-36.5343
 20
-6.5206
 11
-36.6411
 21
-6.35228
  0
LINE
  8
0
 10
-36.6411
 20
-6.35228
 11
-36.726
 21
-6.17189
  0
LINE
  8
0
 10
-36.726
 20
-6.17189
 11
-36.7876
 21
-5.98228
  0
LINE
  8
0
 10
-36.7876
 20
-5.98228
 11
-36.825
 21
-5.78645
  0
LINE
  8
0
 10
-36.825
 20
-5.78645
 11
-36.8375
 21
-5.58749
  0
LINE
  8
0
 10
-36.8375
 20
-5.58749
 11
-36.825
 21
-5.38852
  0
LINE
  8
0
 10
-36.825
 20
-5.38852
 11
-36.7876
 21
-5.1927
  0
LINE
  8
0
 10
-36.7876
 20
-5.1927
 11
-36.726
 21
-5.0031
  0
LINE
  8
0
 10
-36.726
 20
-5.0031
 11
-36.6411
 21
-4.82271
  0
LINE
  8
0
 10
-36.6411
 20
-4.82271
 11
-36.5343
 21
-4.65439
  0
LINE
  8
0
 10
-36.5343
 20
-4.65439
 11
-36.4072
 21
-4.50078
  0
LINE
  8
0
 10
-36.4072
 20
-4.50078
 11
-36.2619
 21
-4.3643
  0
LINE
  8
0
 10
-36.2619
 20
-4.3643
 11
-36.1006
 21
-4.24712
  0
LINE
  8
0
 10
-36.1006
 20
-4.24712
 11
-35.9259
 21
-4.15108
  0
LINE
  8
0
 10
-35.9259
 20
-4.15108
 11
-35.7406
 21
-4.0777
  0
LINE
  8
0
 10
-35.7406
 20
-4.0777
 11
-35.5475
 21
-4.02811
  0
LINE
  8
0
 10
-35.5475
 20
-4.02811
 11
-35.3497
 21
-4.00313
  0
LINE
  8
0
 10
-35.3497
 20
-4.00313
 11
-35.1503
 21
-4.00313
  0
LINE
  8
0
 10
-35.1503
 20
-4.00313
 11
-34.9525
 21
-4.02811
  0
LINE
  8
0
 10
-34.9525
 20
-4.02811
 11
-34.7594
 21
-4.0777
  0
LINE
  8
0
 10
-34.7594
 20
-4.0777
 11
-34.5741
 21
-4.15108
  0
LINE
  8
0
 10
-34.5741
 20
-4.15108
 11
-34.3994
 21
-4.24712
  0
LINE
  8
0
 10
-34.3994
 20
-4.24712
 11
-34.2381
 21
-4.3643
  0
LINE
  8
0
 10
-34.2381
 20
-4.3643
 11
-34.0928
 21
-4.50078
  0
LINE
  8
0
 10
-34.0928
 20
-4.50078
 11
-33.9657
 21
-4.65439
  0
LINE
  8
0
 10
-33.9657
 20
-4.65439
 11
-33.8589
 21
-4.82271
  0
LINE
  8
0
 10
-33.8589
 20
-4.82271
 11
-33.774
 21
-5.0031
  0
LINE
  8
0
 10
-33.774
 20
-5.0031
 11
-33.7124
 21
-5.1927
  0
LINE
  8
0
 10
-33.7124
 20
-5.1927
 11
-33.675
 21
-5.38852
  0
LINE
  8
0
 10
-33.675
 20
-5.38852
 11
-33.6625
 21
-5.58749
  0
LINE
  8
0
 10
-33.6625
 20
-5.58749
 11
-33.675
 21
-5.78645
  0
LINE
  8
0
 10
-33.675
 20
-5.78645
 11
-33.7124
 21
-5.98228
  0
LINE
  8
0
 10
-33.7124
 20
-5.98228
 11
-33.774
 21
-6.17189
  0
LINE
  8
0
 10
-33.774
 20
-6.17189
 11
-33.8589
 21
-6.35228
  0
LINE
  8
0
 10
-33.8589
 20
-6.35228
 11
-33.9657
 21
-6.5206
  0
LINE
  8
0
 10
-33.9657
 20
-6.5206
 11
-34.0928
 21
-6.67421
  0
LINE
  8
0
 10
-34.0928
 20
-6.67421
 11
-34.2381
 21
-6.81068
  0
LINE
  8
0
 10
-34.2381
 20
-6.81068
 11
-34.3994
 21
-6.92786
  0
LINE
  8
0
 10
-34.3994
 20
-6.92786
 11
-34.5741
 21
-7.02391
  0
LINE
  8
0
 10
-34.5741
 20
-7.02391
 11
-34.7594
 21
-7.09729
  0
LINE
  8
0
 10
-34.7594
 20
-7.09729
 11
-34.9525
 21
-7.14687
  0
LINE
  8
0
 10
-34.9525
 20
-7.14687
 11
-35.1503
 21
-7.17186
  0
LINE
  8
0
 10
-35.1503
 20
-7.17186
 11
-35.3497
 21
-7.17186
  0
LINE
  8
0
 10
-81.8497
 20
-7.17186
 11
-82.0475
 21
-7.14687
  0
LINE
  8
0
 10
-82.0475
 20
-7.14687
 11
-82.2406
 21
-7.09729
  0
LINE
  8
0
 10
-82.2406
 20
-7.09729
 11
-82.4259
 21
-7.02391
  0
LINE
  8
0
 10
-82.4259
 20
-7.02391
 11
-82.6006
 21
-6.92786
  0
LINE
  8
0
 10
-82.6006
 20
-6.92786
 11
-82.7619
 21
-6.81068
  0
LINE
  8
0
 10
-82.7619
 20
-6.81068
 11
-82.9072
 21
-6.67421
  0
LINE
  8
0
 10
-82.9072
 20
-6.67421
 11
-83.0343
 21
-6.5206
  0
LINE
  8
0
 10
-83.0343
 20
-6.5206
 11
-83.1411
 21
-6.35228
  0
LINE
  8
0
 10
-83.1411
 20
-6.35228
 11
-83.226
 21
-6.17189
  0
LINE
  8
0
 10
-83.226
 20
-6.17189
 11
-83.2876
 21
-5.98228
  0
LINE
  8
0
 10
-83.2876
 20
-5.98228
 11
-83.325
 21
-5.78645
  0
LINE
  8
0
 10
-83.325
 20
-5.78645
 11
-83.3375
 21
-5.58749
  0
LINE
  8
0
 10
-83.3375
 20
-5.58749
 11
-83.325
 21
-5.38852
  0
LINE
  8
0
 10
-83.325
 20
-5.38852
 11
-83.2876
 21
-5.1927
  0
LINE
  8
0
 10
-83.2876
 20
-5.1927
 11
-83.226
 21
-5.0031
  0
LINE
  8
0
 10
-83.226
 20
-5.0031
 11
-83.1411
 21
-4.82271
  0
LINE
  8
0
 10
-83.1411
 20
-4.82271
 11
-83.0343
 21
-4.65439
  0
LINE
  8
0
 10
-83.0343
 20
-4.65439
 11
-82.9072
 21
-4.50078
  0
LINE
  8
0
 10
-82.9072
 20
-4.50078
 11
-82.7619
 21
-4.3643
  0
LINE
  8
0
 10
-82.7619
 20
-4.3643
 11
-82.6006
 21
-4.24712
  0
LINE
  8
0
 10
-82.6006
 20
-4.24712
 11
-82.4259
 21
-4.15108
  0
LINE
  8
0
 10
-82.4259
 20
-4.15108
 11
-82.2406
 21
-4.0777
  0
LINE
  8
0
 10
-82.2406
 20
-4.0777
 11
-82.0475
 21
-4.02811
  0
LINE
  8
0
 10
-82.0475
 20
-4.02811
 11
-81.8497
 21
-4.00313
  0
LINE
  8
0
 10
-81.8497
 20
-4.00313
 11
-81.6503
 21
-4.00313
  0
LINE
  8
0
 10
-81.6503
 20
-4.00313
 11
-81.4525
 21
-4.02811
  0
LINE
  8
0
 10
-81.4525
 20
-4.02811
 11
-81.2594
 21
-4.0777
  0
LINE
  8
0
 10
-81.2594
 20
-4.0777
 11
-81.0741
 21
-4.15108
  0
LINE
  8
0
 10
-81.0741
 20
-4.15108
 11
-80.8994
 21
-4.24712
  0
LINE
  8
0
 10
-80.8994
 20
-4.24712
 11
-80.7381
 21
-4.3643
  0
LINE
  8
0
 10
-80.7381
 20
-4.3643
 11
-80.5928
 21
-4.50078
  0
LINE
  8
0
 10
-80.5928
 20
-4.50078
 11
-80.4657
 21
-4.65439
  0
LINE
  8
0
 10
-80.4657
 20
-4.65439
 11
-80.3589
 21
-4.82271
  0
LINE
  8
0
 10
-80.3589
 20
-4.82271
 11
-80.274
 21
-5.0031
  0
LINE
  8
0
 10
-80.274
 20
-5.0031
 11
-80.2124
 21
-5.1927
  0
LINE
  8
0
 10
-80.2124
 20
-5.1927
 11
-80.175
 21
-5.38852
  0
LINE
  8
0
 10
-80.175
 20
-5.38852
 11
-80.1625
 21
-5.58749
  0
LINE
  8
0
 10
-80.1625
 20
-5.58749
 11
-80.175
 21
-5.78645
  0
LINE
  8
0
 10
-80.175
 20
-5.78645
 11
-80.2124
 21
-5.98228
  0
LINE
  8
0
 10
-80.2124
 20
-5.98228
 11
-80.274
 21
-6.17189
  0
LINE
  8
0
 10
-80.274
 20
-6.17189
 11
-80.3589
 21
-6.35228
  0
LINE
  8
0
 10
-80.3589
 20
-6.35228
 11
-80.4657
 21
-6.5206
  0
LINE
  8
0
 10
-80.4657
 20
-6.5206
 11
-80.5928
 21
-6.67421
  0
LINE
  8
0
 10
-80.5928
 20
-6.67421
 11
-80.7381
 21
-6.81068
  0
LINE
  8
0
 10
-80.7381
 20
-6.81068
 11
-80.8994
 21
-6.92786
  0
LINE
  8
0
 10
-80.8994
 20
-6.92786
 11
-81.0741
 21
-7.02391
  0
LINE
  8
0
 10
-81.0741
 20
-7.02391
 11
-81.2594
 21
-7.09729
  0
LINE
  8
0
 10
-81.2594
 20
-7.09729
 11
-81.4525
 21
-7.14687
  0
LINE
  8
0
 10
-81.4525
 20
-7.14687
 11
-81.6503
 21
-7.17186
  0
LINE
  8
0
 10
-81.6503
 20
-7.17186
 11
-81.8497
 21
-7.17186
  0
LINE
  8
0
 10
-140.35
 20
-41.1719
 11
-140.547
 21
-41.1469
  0
LINE
  8
0
 10
-140.547
 20
-41.1469
 11
-140.741
 21
-41.0973
  0
LINE
  8
0
 10
-140.741
 20
-41.0973
 11
-140.926
 21
-41.0239
  0
LINE
  8
0
 10
-140.926
 20
-41.0239
 11
-141.101
 21
-40.9279
  0
LINE
  8
0
 10
-141.101
 20
-40.9279
 11
-141.262
 21
-40.8107
  0
LINE
  8
0
 10
-141.262
 20
-40.8107
 11
-141.407
 21
-40.6742
  0
LINE
  8
0
 10
-141.407
 20
-40.6742
 11
-141.534
 21
-40.5206
  0
LINE
  8
0
 10
-141.534
 20
-40.5206
 11
-141.641
 21
-40.3523
  0
LINE
  8
0
 10
-141.641
 20
-40.3523
 11
-141.726
 21
-40.1719
  0
LINE
  8
0
 10
-141.726
 20
-40.1719
 11
-141.788
 21
-39.9823
  0
LINE
  8
0
 10
-141.788
 20
-39.9823
 11
-141.825
 21
-39.7865
  0
LINE
  8
0
 10
-141.825
 20
-39.7865
 11
-141.837
 21
-39.5875
  0
LINE
  8
0
 10
-141.837
 20
-39.5875
 11
-141.825
 21
-39.3885
  0
LINE
  8
0
 10
-141.825
 20
-39.3885
 11
-141.788
 21
-39.1927
  0
LINE
  8
0
 10
-141.788
 20
-39.1927
 11
-141.726
 21
-39.0031
  0
LINE
  8
0
 10
-141.726
 20
-39.0031
 11
-141.641
 21
-38.8227
  0
LINE
  8
0
 10
-141.641
 20
-38.8227
 11
-141.534
 21
-38.6544
  0
LINE
  8
0
 10
-141.534
 20
-38.6544
 11
-141.407
 21
-38.5008
  0
LINE
  8
0
 10
-141.407
 20
-38.5008
 11
-141.262
 21
-38.3643
  0
LINE
  8
0
 10
-141.262
 20
-38.3643
 11
-141.101
 21
-38.2471
  0
LINE
  8
0
 10
-141.101
 20
-38.2471
 11
-140.926
 21
-38.1511
  0
LINE
  8
0
 10
-140.926
 20
-38.1511
 11
-140.741
 21
-38.0777
  0
LINE
  8
0
 10
-140.741
 20
-38.0777
 11
-140.547
 21
-38.0281
  0
LINE
  8
0
 10
-140.547
 20
-38.0281
 11
-140.35
 21
-38.0031
  0
LINE
  8
0
 10
-140.35
 20
-38.0031
 11
-140.15
 21
-38.0031
  0
LINE
  8
0
 10
-140.15
 20
-38.0031
 11
-139.953
 21
-38.0281
  0
LINE
  8
0
 10
-139.953
 20
-38.0281
 11
-139.759
 21
-38.0777
  0
LINE
  8
0
 10
-139.759
 20
-38.0777
 11
-139.574
 21
-38.1511
  0
LINE
  8
0
 10
-139.574
 20
-38.1511
 11
-139.399
 21
-38.2471
  0
LINE
  8
0
 10
-139.399
 20
-38.2471
 11
-139.238
 21
-38.3643
  0
LINE
  8
0
 10
-139.238
 20
-38.3643
 11
-139.093
 21
-38.5008
  0
LINE
  8
0
 10
-139.093
 20
-38.5008
 11
-138.966
 21
-38.6544
  0
LINE
  8
0
 10
-138.966
 20
-38.6544
 11
-138.859
 21
-38.8227
  0
LINE
  8
0
 10
-138.859
 20
-38.8227
 11
-138.774
 21
-39.0031
  0
LINE
  8
0
 10
-138.774
 20
-39.0031
 11
-138.712
 21
-39.1927
  0
LINE
  8
0
 10
-138.712
 20
-39.1927
 11
-138.675
 21
-39.3885
  0
LINE
  8
0
 10
-138.675
 20
-39.3885
 11
-138.663
 21
-39.5875
  0
LINE
  8
0
 10
-138.663
 20
-39.5875
 11
-138.675
 21
-39.7865
  0
LINE
  8
0
 10
-138.675
 20
-39.7865
 11
-138.712
 21
-39.9823
  0
LINE
  8
0
 10
-138.712
 20
-39.9823
 11
-138.774
 21
-40.1719
  0
LINE
  8
0
 10
-138.774
 20
-40.1719
 11
-138.859
 21
-40.3523
  0
LINE
  8
0
 10
-138.859
 20
-40.3523
 11
-138.966
 21
-40.5206
  0
LINE
  8
0
 10
-138.966
 20
-40.5206
 11
-139.093
 21
-40.6742
  0
LINE
  8
0
 10
-139.093
 20
-40.6742
 11
-139.238
 21
-40.8107
  0
LINE
  8
0
 10
-139.238
 20
-40.8107
 11
-139.399
 21
-40.9279
  0
LINE
  8
0
 10
-139.399
 20
-40.9279
 11
-139.574
 21
-41.0239
  0
LINE
  8
0
 10
-139.574
 20
-41.0239
 11
-139.759
 21
-41.0973
  0
LINE
  8
0
 10
-139.759
 20
-41.0973
 11
-139.953
 21
-41.1469
  0
LINE
  8
0
 10
-139.953
 20
-41.1469
 11
-140.15
 21
-41.1719
  0
LINE
  8
0
 10
-140.15
 20
-41.1719
 11
-140.35
 21
-41.1719
  0
LINE
  8
0
 10
-93.8497
 20
-41.1719
 11
-94.0475
 21
-41.1469
  0
LINE
  8
0
 10
-94.0475
 20
-41.1469
 11
-94.2406
 21
-41.0973
  0
LINE
  8
0
 10
-94.2406
 20
-41.0973
 11
-94.4259
 21
-41.0239
  0
LINE
  8
0
 10
-94.4259
 20
-41.0239
 11
-94.6006
 21
-40.9279
  0
LINE
  8
0
 10
-94.6006
 20
-40.9279
 11
-94.7619
 21
-40.8107
  0
LINE
  8
0
 10
-94.7619
 20
-40.8107
 11
-94.9072
 21
-40.6742
  0
LINE
  8
0
 10
-94.9072
 20
-40.6742
 11
-95.0343
 21
-40.5206
  0
LINE
  8
0
 10
-95.0343
 20
-40.5206
 11
-95.1411
 21
-40.3523
  0
LINE
  8
0
 10
-95.1411
 20
-40.3523
 11
-95.226
 21
-40.1719
  0
LINE
  8
0
 10
-95.226
 20
-40.1719
 11
-95.2876
 21
-39.9823
  0
LINE
  8
0
 10
-95.2876
 20
-39.9823
 11
-95.325
 21
-39.7865
  0
LINE
  8
0
 10
-95.325
 20
-39.7865
 11
-95.3375
 21
-39.5875
  0
LINE
  8
0
 10
-95.3375
 20
-39.5875
 11
-95.325
 21
-39.3885
  0
LINE
  8
0
 10
-95.325
 20
-39.3885
 11
-95.2876
 21
-39.1927
  0
LINE
  8
0
 10
-95.2876
 20
-39.1927
 11
-95.226
 21
-39.0031
  0
LINE
  8
0
 10
-95.226
 20
-39.0031
 11
-95.1411
 21
-38.8227
  0
LINE
  8
0
 10
-95.1411
 20
-38.8227
 11
-95.0343
 21
-38.6544
  0
LINE
  8
0
 10
-95.0343
 20
-38.6544
 11
-94.9072
 21
-38.5008
  0
LINE
  8
0
 10
-94.9072
 20
-38.5008
 11
-94.7619
 21
-38.3643
  0
LINE
  8
0
 10
-94.7619
 20
-38.3643
 11
-94.6006
 21
-38.2471
  0
LINE
  8
0
 10
-94.6006
 20
-38.2471
 11
-94.4259
 21
-38.1511
  0
LINE
  8
0
 10
-94.4259
 20
-38.1511
 11
-94.2406
 21
-38.0777
  0
LINE
  8
0
 10
-94.2406
 20
-38.0777
 11
-94.0475
 21
-38.0281
  0
LINE
  8
0
 10
-94.0475
 20
-38.0281
 11
-93.8497
 21
-38.0031
  0
LINE
  8
0
 10
-93.8497
 20
-38.0031
 11
-93.6503
 21
-38.0031
  0
LINE
  8
0
 10
-93.6503
 20
-38.0031
 11
-93.4525
 21
-38.0281
  0
LINE
  8
0
 10
-93.4525
 20
-38.0281
 11
-93.2594
 21
-38.0777
  0
LINE
  8
0
 10
-93.2594
 20
-38.0777
 11
-93.0741
 21
-38.1511
  0
LINE
  8
0
 10
-93.0741
 20
-38.1511
 11
-92.8994
 21
-38.2471
  0
LINE
  8
0
 10
-92.8994
 20
-38.2471
 11
-92.7381
 21
-38.3643
  0
LINE
  8
0
 10
-92.7381
 20
-38.3643
 11
-92.5928
 21
-38.5008
  0
LINE
  8
0
 10
-92.5928
 20
-38.5008
 11
-92.4657
 21
-38.6544
  0
LINE
  8
0
 10
-92.4657
 20
-38.6544
 11
-92.3589
 21
-38.8227
  0
LINE
  8
0
 10
-92.3589
 20
-38.8227
 11
-92.274
 21
-39.0031
  0
LINE
  8
0
 10
-92.274
 20
-39.0031
 11
-92.2124
 21
-39.1927
  0
LINE
  8
0
 10
-92.2124
 20
-39.1927
 11
-92.175
 21
-39.3885
  0
LINE
  8
0
 10
-92.175
 20
-39.3885
 11
-92.1625
 21
-39.5875
  0
LINE
  8
0
 10
-92.1625
 20
-39.5875
 11
-92.175
 21
-39.7865
  0
LINE
  8
0
 10
-92.175
 20
-39.7865
 11
-92.2124
 21
-39.9823
  0
LINE
  8
0
 10
-92.2124
 20
-39.9823
 11
-92.274
 21
-40.1719
  0
LINE
  8
0
 10
-92.274
 20
-40.1719
 11
-92.3589
 21
-40.3523
  0
LINE
  8
0
 10
-92.3589
 20
-40.3523
 11
-92.4657
 21
-40.5206
  0
LINE
  8
0
 10
-92.4657
 20
-40.5206
 11
-92.5928
 21
-40.6742
  0
LINE
  8
0
 10
-92.5928
 20
-40.6742
 11
-92.7381
 21
-40.8107
  0
LINE
  8
0
 10
-92.7381
 20
-40.8107
 11
-92.8994
 21
-40.9279
  0
LINE
  8
0
 10
-92.8994
 20
-40.9279
 11
-93.0741
 21
-41.0239
  0
LINE
  8
0
 10
-93.0741
 20
-41.0239
 11
-93.2594
 21
-41.0973
  0
LINE
  8
0
 10
-93.2594
 20
-41.0973
 11
-93.4525
 21
-41.1469
  0
LINE
  8
0
 10
-93.4525
 20
-41.1469
 11
-93.6503
 21
-41.1719
  0
LINE
  8
0
 10
-93.6503
 20
-41.1719
 11
-93.8497
 21
-41.1719
  0
LINE
  8
0
 10
93.6503
 20
-41.1719
 11
93.4525
 21
-41.1469
  0
LINE
  8
0
 10
93.4525
 20
-41.1469
 11
93.2594
 21
-41.0973
  0
LINE
  8
0
 10
93.2594
 20
-41.0973
 11
93.0741
 21
-41.0239
  0
LINE
  8
0
 10
93.0741
 20
-41.0239
 11
92.8994
 21
-40.9279
  0
LINE
  8
0
 10
92.8994
 20
-40.9279
 11
92.7381
 21
-40.8107
  0
LINE
  8
0
 10
92.7381
 20
-40.8107
 11
92.5928
 21
-40.6742
  0
LINE
  8
0
 10
92.5928
 20
-40.6742
 11
92.4657
 21
-40.5206
  0
LINE
  8
0
 10
92.4657
 20
-40.5206
 11
92.3589
 21
-40.3523
  0
LINE
  8
0
 10
92.3589
 20
-40.3523
 11
92.274
 21
-40.1719
  0
LINE
  8
0
 10
92.274
 20
-40.1719
 11
92.2124
 21
-39.9823
  0
LINE
  8
0
 10
92.2124
 20
-39.9823
 11
92.175
 21
-39.7865
  0
LINE
  8
0
 10
92.175
 20
-39.7865
 11
92.1625
 21
-39.5875
  0
LINE
  8
0
 10
92.1625
 20
-39.5875
 11
92.175
 21
-39.3885
  0
LINE
  8
0
 10
92.175
 20
-39.3885
 11
92.2124
 21
-39.1927
  0
LINE
  8
0
 10
92.2124
 20
-39.1927
 11
92.274
 21
-39.0031
  0
LINE
  8
0
 10
92.274
 20
-39.0031
 11
92.3589
 21
-38.8227
  0
LINE
  8
0
 10
92.3589
 20
-38.8227
 11
92.4657
 21
-38.6544
  0
LINE
  8
0
 10
92.4657
 20
-38.6544
 11
92.5928
 21
-38.5008
  0
LINE
  8
0
 10
92.5928
 20
-38.5008
 11
92.7381
 21
-38.3643
  0
LINE
  8
0
 10
92.7381
 20
-38.3643
 11
92.8994
 21
-38.2471
  0
LINE
  8
0
 10
92.8994
 20
-38.2471
 11
93.0741
 21
-38.1511
  0
LINE
  8
0
 10
93.0741
 20
-38.1511
 11
93.2594
 21
-38.0777
  0
LINE
  8
0
 10
93.2594
 20
-38.0777
 11
93.4525
 21
-38.0281
  0
LINE
  8
0
 10
93.4525
 20
-38.0281
 11
93.6503
 21
-38.0031
  0
LINE
  8
0
 10
93.6503
 20
-38.0031
 11
93.8497
 21
-38.0031
  0
LINE
  8
0
 10
93.8497
 20
-38.0031
 11
94.0475
 21
-38.0281
  0
LINE
  8
0
 10
94.0475
 20
-38.0281
 11
94.2406
 21
-38.0777
  0
LINE
  8
0
 10
94.2406
 20
-38.0777
 11
94.4259
 21
-38.1511
  0
LINE
  8
0
 10
94.4259
 20
-38.1511
 11
94.6006
 21
-38.2471
  0
LINE
  8
0
 10
94.6006
 20
-38.2471
 11
94.7619
 21
-38.3643
  0
LINE
  8
0
 10
94.7619
 20
-38.3643
 11
94.9072
 21
-38.5008
  0
LINE
  8
0
 10
94.9072
 20
-38.5008
 11
95.0343
 21
-38.6544
  0
LINE
  8
0
 10
95.0343
 20
-38.6544
 11
95.1411
 21
-38.8227
  0
LINE
  8
0
 10
95.1411
 20
-38.8227
 11
95.226
 21
-39.0031
  0
LINE
  8
0
 10
95.226
 20
-39.0031
 11
95.2876
 21
-39.1927
  0
LINE
  8
0
 10
95.2876
 20
-39.1927
 11
95.325
 21
-39.3885
  0
LINE
  8
0
 10
95.325
 20
-39.3885
 11
95.3375
 21
-39.5875
  0
LINE
  8
0
 10
95.3375
 20
-39.5875
 11
95.325
 21
-39.7865
  0
LINE
  8
0
 10
95.325
 20
-39.7865
 11
95.2876
 21
-39.9823
  0
LINE
  8
0
 10
95.2876
 20
-39.9823
 11
95.226
 21
-40.1719
  0
LINE
  8
0
 10
95.226
 20
-40.1719
 11
95.1411
 21
-40.3523
  0
LINE
  8
0
 10
95.1411
 20
-40.3523
 11
95.0343
 21
-40.5206
  0
LINE
  8
0
 10
95.0343
 20
-40.5206
 11
94.9072
 21
-40.6742
  0
LINE
  8
0
 10
94.9072
 20
-40.6742
 11
94.7619
 21
-40.8107
  0
LINE
  8
0
 10
94.7619
 20
-40.8107
 11
94.6006
 21
-40.9279
  0
LINE
  8
0
 10
94.6006
 20
-40.9279
 11
94.4259
 21
-41.0239
  0
LINE
  8
0
 10
94.4259
 20
-41.0239
 11
94.2406
 21
-41.0973
  0
LINE
  8
0
 10
94.2406
 20
-41.0973
 11
94.0475
 21
-41.1469
  0
LINE
  8
0
 10
94.0475
 20
-41.1469
 11
93.8497
 21
-41.1719
  0
LINE
  8
0
 10
93.8497
 20
-41.1719
 11
93.6503
 21
-41.1719
  0
LINE
  8
0
 10
140.15
 20
-41.1719
 11
139.953
 21
-41.1469
  0
LINE
  8
0
 10
139.953
 20
-41.1469
 11
139.759
 21
-41.0973
  0
LINE
  8
0
 10
139.759
 20
-41.0973
 11
139.574
 21
-41.0239
  0
LINE
  8
0
 10
139.574
 20
-41.0239
 11
139.399
 21
-40.9279
  0
LINE
  8
0
 10
139.399
 20
-40.9279
 11
139.238
 21
-40.8107
  0
LINE
  8
0
 10
139.238
 20
-40.8107
 11
139.093
 21
-40.6742
  0
LINE
  8
0
 10
139.093
 20
-40.6742
 11
138.966
 21
-40.5206
  0
LINE
  8
0
 10
138.966
 20
-40.5206
 11
138.859
 21
-40.3523
  0
LINE
  8
0
 10
138.859
 20
-40.3523
 11
138.774
 21
-40.1719
  0
LINE
  8
0
 10
138.774
 20
-40.1719
 11
138.712
 21
-39.9823
  0
LINE
  8
0
 10
138.712
 20
-39.9823
 11
138.675
 21
-39.7865
  0
LINE
  8
0
 10
138.675
 20
-39.7865
 11
138.663
 21
-39.5875
  0
LINE
  8
0
 10
138.663
 20
-39.5875
 11
138.675
 21
-39.3885
  0
LINE
  8
0
 10
138.675
 20
-39.3885
 11
138.712
 21
-39.1927
  0
LINE
  8
0
 10
138.712
 20
-39.1927
 11
138.774
 21
-39.0031
  0
LINE
  8
0
 10
138.774
 20
-39.0031
 11
138.859
 21
-38.8227
  0
LINE
  8
0
 10
138.859
 20
-38.8227
 11
138.966
 21
-38.6544
  0
LINE
  8
0
 10
138.966
 20
-38.6544
 11
139.093
 21
-38.5008
  0
LINE
  8
0
 10
139.093
 20
-38.5008
 11
139.238
 21
-38.3643
  0
LINE
  8
0
 10
139.238
 20
-38.3643
 11
139.399
 21
-38.2471
  0
LINE
  8
0
 10
139.399
 20
-38.2471
 11
139.574
 21
-38.1511
  0
LINE
  8
0
 10
139.574
 20
-38.1511
 11
139.759
 21
-38.0777
  0
LINE
  8
0
 10
139.759
 20
-38.0777
 11
139.953
 21
-38.0281
  0
LINE
  8
0
 10
139.953
 20
-38.0281
 11
140.15
 21
-38.0031
  0
LINE
  8
0
 10
140.15
 20
-38.0031
 11
140.35
 21
-38.0031
  0
LINE
  8
0
 10
140.35
 20
-38.0031
 11
140.547
 21
-38.0281
  0
LINE
  8
0
 10
140.547
 20
-38.0281
 11
140.741
 21
-38.0777
  0
LINE
  8
0
 10
140.741
 20
-38.0777
 11
140.926
 21
-38.1511
  0
LINE
  8
0
 10
140.926
 20
-38.1511
 11
141.101
 21
-38.2471
  0
LINE
  8
0
 10
141.101
 20
-38.2471
 11
141.262
 21
-38.3643
  0
LINE
  8
0
 10
141.262
 20
-38.3643
 11
141.407
 21
-38.5008
  0
LINE
  8
0
 10
141.407
 20
-38.5008
 11
141.534
 21
-38.6544
  0
LINE
  8
0
 10
141.534
 20
-38.6544
 11
141.641
 21
-38.8227
  0
LINE
  8
0
 10
141.641
 20
-38.8227
 11
141.726
 21
-39.0031
  0
LINE
  8
0
 10
141.726
 20
-39.0031
 11
141.788
 21
-39.1927
  0
LINE
  8
0
 10
141.788
 20
-39.1927
 11
141.825
 21
-39.3885
  0
LINE
  8
0
 10
141.825
 20
-39.3885
 11
141.837
 21
-39.5875
  0
LINE
  8
0
 10
141.837
 20
-39.5875
 11
141.825
 21
-39.7865
  0
LINE
  8
0
 10
141.825
 20
-39.7865
 11
141.788
 21
-39.9823
  0
LINE
  8
0
 10
141.788
 20
-39.9823
 11
141.726
 21
-40.1719
  0
LINE
  8
0
 10
141.726
 20
-40.1719
 11
141.641
 21
-40.3523
  0
LINE
  8
0
 10
141.641
 20
-40.3523
 11
141.534
 21
-40.5206
  0
LINE
  8
0
 10
141.534
 20
-40.5206
 11
141.407
 21
-40.6742
  0
LINE
  8
0
 10
141.407
 20
-40.6742
 11
141.262
 21
-40.8107
  0
LINE
  8
0
 10
141.262
 20
-40.8107
 11
141.101
 21
-40.9279
  0
LINE
  8
0
 10
141.101
 20
-40.9279
 11
140.926
 21
-41.0239
  0
LINE
  8
0
 10
140.926
 20
-41.0239
 11
140.741
 21
-41.0973
  0
LINE
  8
0
 10
140.741
 20
-41.0973
 11
140.547
 21
-41.1469
  0
LINE
  8
0
 10
140.547
 20
-41.1469
 11
140.35
 21
-41.1719
  0
LINE
  8
0
 10
140.35
 20
-41.1719
 11
140.15
 21
-41.1719
  0
LINE
  8
0
 10
81.6503
 20
-41.1719
 11
81.4525
 21
-41.1469
  0
LINE
  8
0
 10
81.4525
 20
-41.1469
 11
81.2594
 21
-41.0973
  0
LINE
  8
0
 10
81.2594
 20
-41.0973
 11
81.0741
 21
-41.0239
  0
LINE
  8
0
 10
81.0741
 20
-41.0239
 11
80.8994
 21
-40.9279
  0
LINE
  8
0
 10
80.8994
 20
-40.9279
 11
80.7381
 21
-40.8107
  0
LINE
  8
0
 10
80.7381
 20
-40.8107
 11
80.5928
 21
-40.6742
  0
LINE
  8
0
 10
80.5928
 20
-40.6742
 11
80.4657
 21
-40.5206
  0
LINE
  8
0
 10
80.4657
 20
-40.5206
 11
80.3589
 21
-40.3523
  0
LINE
  8
0
 10
80.3589
 20
-40.3523
 11
80.274
 21
-40.1719
  0
LINE
  8
0
 10
80.274
 20
-40.1719
 11
80.2124
 21
-39.9823
  0
LINE
  8
0
 10
80.2124
 20
-39.9823
 11
80.175
 21
-39.7865
  0
LINE
  8
0
 10
80.175
 20
-39.7865
 11
80.1625
 21
-39.5875
  0
LINE
  8
0
 10
80.1625
 20
-39.5875
 11
80.175
 21
-39.3885
  0
LINE
  8
0
 10
80.175
 20
-39.3885
 11
80.2124
 21
-39.1927
  0
LINE
  8
0
 10
80.2124
 20
-39.1927
 11
80.274
 21
-39.0031
  0
LINE
  8
0
 10
80.274
 20
-39.0031
 11
80.3589
 21
-38.8227
  0
LINE
  8
0
 10
80.3589
 20
-38.8227
 11
80.4657
 21
-38.6544
  0
LINE
  8
0
 10
80.4657
 20
-38.6544
 11
80.5928
 21
-38.5008
  0
LINE
  8
0
 10
80.5928
 20
-38.5008
 11
80.7381
 21
-38.3643
  0
LINE
  8
0
 10
80.7381
 20
-38.3643
 11
80.8994
 21
-38.2471
  0
LINE
  8
0
 10
80.8994
 20
-38.2471
 11
81.0741
 21
-38.1511
  0
LINE
  8
0
 10
81.0741
 20
-38.1511
 11
81.2594
 21
-38.0777
  0
LINE
  8
0
 10
81.2594
 20
-38.0777
 11
81.4525
 21
-38.0281
  0
LINE
  8
0
 10
81.4525
 20
-38.0281
 11
81.6503
 21
-38.0031
  0
LINE
  8
0
 10
81.6503
 20
-38.0031
 11
81.8497
 21
-38.0031
  0
LINE
  8
0
 10
81.8497
 20
-38.0031
 11
82.0475
 21
-38.0281
  0
LINE
  8
0
 10
82.0475
 20
-38.0281
 11
82.2406
 21
-38.0777
  0
LINE
  8
0
 10
82.2406
 20
-38.0777
 11
82.4259
 21
-38.1511
  0
LINE
  8
0
 10
82.4259
 20
-38.1511
 11
82.6006
 21
-38.2471
  0
LINE
  8
0
 10
82.6006
 20
-38.2471
 11
82.7619
 21
-38.3643
  0
LINE
  8
0
 10
82.7619
 20
-38.3643
 11
82.9072
 21
-38.5008
  0
LINE
  8
0
 10
82.9072
 20
-38.5008
 11
83.0343
 21
-38.6544
  0
LINE
  8
0
 10
83.0343
 20
-38.6544
 11
83.1411
 21
-38.8227
  0
LINE
  8
0
 10
83.1411
 20
-38.8227
 11
83.226
 21
-39.0031
  0
LINE
  8
0
 10
83.226
 20
-39.0031
 11
83.2876
 21
-39.1927
  0
LINE
  8
0
 10
83.2876
 20
-39.1927
 11
83.325
 21
-39.3885
  0
LINE
  8
0
 10
83.325
 20
-39.3885
 11
83.3375
 21
-39.5875
  0
LINE
  8
0
 10
83.3375
 20
-39.5875
 11
83.325
 21
-39.7865
  0
LINE
  8
0
 10
83.325
 20
-39.7865
 11
83.2876
 21
-39.9823
  0
LINE
  8
0
 10
83.2876
 20
-39.9823
 11
83.226
 21
-40.1719
  0
LINE
  8
0
 10
83.226
 20
-40.1719
 11
83.1411
 21
-40.3523
  0
LINE
  8
0
 10
83.1411
 20
-40.3523
 11
83.0343
 21
-40.5206
  0
LINE
  8
0
 10
83.0343
 20
-40.5206
 11
82.9072
 21
-40.6742
  0
LINE
  8
0
 10
82.9072
 20
-40.6742
 11
82.7619
 21
-40.8107
  0
LINE
  8
0
 10
82.7619
 20
-40.8107
 11
82.6006
 21
-40.9279
  0
LINE
  8
0
 10
82.6006
 20
-40.9279
 11
82.4259
 21
-41.0239
  0
LINE
  8
0
 10
82.4259
 20
-41.0239
 11
82.2406
 21
-41.0973
  0
LINE
  8
0
 10
82.2406
 20
-41.0973
 11
82.0475
 21
-41.1469
  0
LINE
  8
0
 10
82.0475
 20
-41.1469
 11
81.8497
 21
-41.1719
  0
LINE
  8
0
 10
81.8497
 20
-41.1719
 11
81.6503
 21
-41.1719
  0
LINE
  8
0
 10
-23.3497
 20
-41.1719
 11
-23.5475
 21
-41.1469
  0
LINE
  8
0
 10
-23.5475
 20
-41.1469
 11
-23.7406
 21
-41.0973
  0
LINE
  8
0
 10
-23.7406
 20
-41.0973
 11
-23.9259
 21
-41.0239
  0
LINE
  8
0
 10
-23.9259
 20
-41.0239
 11
-24.1006
 21
-40.9279
  0
LINE
  8
0
 10
-24.1006
 20
-40.9279
 11
-24.2619
 21
-40.8107
  0
LINE
  8
0
 10
-24.2619
 20
-40.8107
 11
-24.4072
 21
-40.6742
  0
LINE
  8
0
 10
-24.4072
 20
-40.6742
 11
-24.5343
 21
-40.5206
  0
LINE
  8
0
 10
-24.5343
 20
-40.5206
 11
-24.6411
 21
-40.3523
  0
LINE
  8
0
 10
-24.6411
 20
-40.3523
 11
-24.726
 21
-40.1719
  0
LINE
  8
0
 10
-24.726
 20
-40.1719
 11
-24.7876
 21
-39.9823
  0
LINE
  8
0
 10
-24.7876
 20
-39.9823
 11
-24.825
 21
-39.7865
  0
LINE
  8
0
 10
-24.825
 20
-39.7865
 11
-24.8375
 21
-39.5875
  0
LINE
  8
0
 10
-24.8375
 20
-39.5875
 11
-24.825
 21
-39.3885
  0
LINE
  8
0
 10
-24.825
 20
-39.3885
 11
-24.7876
 21
-39.1927
  0
LINE
  8
0
 10
-24.7876
 20
-39.1927
 11
-24.726
 21
-39.0031
  0
LINE
  8
0
 10
-24.726
 20
-39.0031
 11
-24.6411
 21
-38.8227
  0
LINE
  8
0
 10
-24.6411
 20
-38.8227
 11
-24.5343
 21
-38.6544
  0
LINE
  8
0
 10
-24.5343
 20
-38.6544
 11
-24.4072
 21
-38.5008
  0
LINE
  8
0
 10
-24.4072
 20
-38.5008
 11
-24.2619
 21
-38.3643
  0
LINE
  8
0
 10
-24.2619
 20
-38.3643
 11
-24.1006
 21
-38.2471
  0
LINE
  8
0
 10
-24.1006
 20
-38.2471
 11
-23.9259
 21
-38.1511
  0
LINE
  8
0
 10
-23.9259
 20
-38.1511
 11
-23.7406
 21
-38.0777
  0
LINE
  8
0
 10
-23.7406
 20
-38.0777
 11
-23.5475
 21
-38.0281
  0
LINE
  8
0
 10
-23.5475
 20
-38.0281
 11
-23.3497
 21
-38.0031
  0
LINE
  8
0
 10
-23.3497
 20
-38.0031
 11
-23.1503
 21
-38.0031
  0
LINE
  8
0
 10
-23.1503
 20
-38.0031
 11
-22.9525
 21
-38.0281
  0
LINE
  8
0
 10
-22.9525
 20
-38.0281
 11
-22.7594
 21
-38.0777
  0
LINE
  8
0
 10
-22.7594
 20
-38.0777
 11
-22.5741
 21
-38.1511
  0
LINE
  8
0
 10
-22.5741
 20
-38.1511
 11
-22.3994
 21
-38.2471
  0
LINE
  8
0
 10
-22.3994
 20
-38.2471
 11
-22.2381
 21
-38.3643
  0
LINE
  8
0
 10
-22.2381
 20
-38.3643
 11
-22.0928
 21
-38.5008
  0
LINE
  8
0
 10
-22.0928
 20
-38.5008
 11
-21.9657
 21
-38.6544
  0
LINE
  8
0
 10
-21.9657
 20
-38.6544
 11
-21.8589
 21
-38.8227
  0
LINE
  8
0
 10
-21.8589
 20
-38.8227
 11
-21.774
 21
-39.0031
  0
LINE
  8
0
 10
-21.774
 20
-39.0031
 11
-21.7124
 21
-39.1927
  0
LINE
  8
0
 10
-21.7124
 20
-39.1927
 11
-21.675
 21
-39.3885
  0
LINE
  8
0
 10
-21.675
 20
-39.3885
 11
-21.6625
 21
-39.5875
  0
LINE
  8
0
 10
-21.6625
 20
-39.5875
 11
-21.675
 21
-39.7865
  0
LINE
  8
0
 10
-21.675
 20
-39.7865
 11
-21.7124
 21
-39.9823
  0
LINE
  8
0
 10
-21.7124
 20
-39.9823
 11
-21.774
 21
-40.1719
  0
LINE
  8
0
 10
-21.774
 20
-40.1719
 11
-21.8589
 21
-40.3523
  0
LINE
  8
0
 10
-21.8589
 20
-40.3523
 11
-21.9657
 21
-40.5206
  0
LINE
  8
0
 10
-21.9657
 20
-40.5206
 11
-22.0928
 21
-40.6742
  0
LINE
  8
0
 10
-22.0928
 20
-40.6742
 11
-22.2381
 21
-40.8107
  0
LINE
  8
0
 10
-22.2381
 20
-40.8107
 11
-22.3994
 21
-40.9279
  0
LINE
  8
0
 10
-22.3994
 20
-40.9279
 11
-22.5741
 21
-41.0239
  0
LINE
  8
0
 10
-22.5741
 20
-41.0239
 11
-22.7594
 21
-41.0973
  0
LINE
  8
0
 10
-22.7594
 20
-41.0973
 11
-22.9525
 21
-41.1469
  0
LINE
  8
0
 10
-22.9525
 20
-41.1469
 11
-23.1503
 21
-41.1719
  0
LINE
  8
0
 10
-23.1503
 20
-41.1719
 11
-23.3497
 21
-41.1719
  0
LINE
  8
0
 10
23.1503
 20
-41.1719
 11
22.9525
 21
-41.1469
  0
LINE
  8
0
 10
22.9525
 20
-41.1469
 11
22.7594
 21
-41.0973
  0
LINE
  8
0
 10
22.7594
 20
-41.0973
 11
22.5741
 21
-41.0239
  0
LINE
  8
0
 10
22.5741
 20
-41.0239
 11
22.3994
 21
-40.9279
  0
LINE
  8
0
 10
22.3994
 20
-40.9279
 11
22.2381
 21
-40.8107
  0
LINE
  8
0
 10
22.2381
 20
-40.8107
 11
22.0928
 21
-40.6742
  0
LINE
  8
0
 10
22.0928
 20
-40.6742
 11
21.9657
 21
-40.5206
  0
LINE
  8
0
 10
21.9657
 20
-40.5206
 11
21.8589
 21
-40.3523
  0
LINE
  8
0
 10
21.8589
 20
-40.3523
 11
21.774
 21
-40.1719
  0
LINE
  8
0
 10
21.774
 20
-40.1719
 11
21.7124
 21
-39.9823
  0
LINE
  8
0
 10
21.7124
 20
-39.9823
 11
21.675
 21
-39.7865
  0
LINE
  8
0
 10
21.675
 20
-39.7865
 11
21.6625
 21
-39.5875
  0
LINE
  8
0
 10
21.6625
 20
-39.5875
 11
21.675
 21
-39.3885
  0
LINE
  8
0
 10
21.675
 20
-39.3885
 11
21.7124
 21
-39.1927
  0
LINE
  8
0
 10
21.7124
 20
-39.1927
 11
21.774
 21
-39.0031
  0
LINE
  8
0
 10
21.774
 20
-39.0031
 11
21.8589
 21
-38.8227
  0
LINE
  8
0
 10
21.8589
 20
-38.8227
 11
21.9657
 21
-38.6544
  0
LINE
  8
0
 10
21.9657
 20
-38.6544
 11
22.0928
 21
-38.5008
  0
LINE
  8
0
 10
22.0928
 20
-38.5008
 11
22.2381
 21
-38.3643
  0
LINE
  8
0
 10
22.2381
 20
-38.3643
 11
22.3994
 21
-38.2471
  0
LINE
  8
0
 10
22.3994
 20
-38.2471
 11
22.5741
 21
-38.1511
  0
LINE
  8
0
 10
22.5741
 20
-38.1511
 11
22.7594
 21
-38.0777
  0
LINE
  8
0
 10
22.7594
 20
-38.0777
 11
22.9525
 21
-38.0281
  0
LINE
  8
0
 10
22.9525
 20
-38.0281
 11
23.1503
 21
-38.0031
  0
LINE
  8
0
 10
23.1503
 20
-38.0031
 11
23.3497
 21
-38.0031
  0
LINE
  8
0
 10
23.3497
 20
-38.0031
 11
23.5475
 21
-38.0281
  0
LINE
  8
0
 10
23.5475
 20
-38.0281
 11
23.7406
 21
-38.0777
  0
LINE
  8
0
 10
23.7406
 20
-38.0777
 11
23.9259
 21
-38.1511
  0
LINE
  8
0
 10
23.9259
 20
-38.1511
 11
24.1006
 21
-38.2471
  0
LINE
  8
0
 10
24.1006
 20
-38.2471
 11
24.2619
 21
-38.3643
  0
LINE
  8
0
 10
24.2619
 20
-38.3643
 11
24.4072
 21
-38.5008
  0
LINE
  8
0
 10
24.4072
 20
-38.5008
 11
24.5343
 21
-38.6544
  0
LINE
  8
0
 10
24.5343
 20
-38.6544
 11
24.6411
 21
-38.8227
  0
LINE
  8
0
 10
24.6411
 20
-38.8227
 11
24.726
 21
-39.0031
  0
LINE
  8
0
 10
24.726
 20
-39.0031
 11
24.7876
 21
-39.1927
  0
LINE
  8
0
 10
24.7876
 20
-39.1927
 11
24.825
 21
-39.3885
  0
LINE
  8
0
 10
24.825
 20
-39.3885
 11
24.8375
 21
-39.5875
  0
LINE
  8
0
 10
24.8375
 20
-39.5875
 11
24.825
 21
-39.7865
  0
LINE
  8
0
 10
24.825
 20
-39.7865
 11
24.7876
 21
-39.9823
  0
LINE
  8
0
 10
24.7876
 20
-39.9823
 11
24.726
 21
-40.1719
  0
LINE
  8
0
 10
24.726
 20
-40.1719
 11
24.6411
 21
-40.3523
  0
LINE
  8
0
 10
24.6411
 20
-40.3523
 11
24.5343
 21
-40.5206
  0
LINE
  8
0
 10
24.5343
 20
-40.5206
 11
24.4072
 21
-40.6742
  0
LINE
  8
0
 10
24.4072
 20
-40.6742
 11
24.2619
 21
-40.8107
  0
LINE
  8
0
 10
24.2619
 20
-40.8107
 11
24.1006
 21
-40.9279
  0
LINE
  8
0
 10
24.1006
 20
-40.9279
 11
23.9259
 21
-41.0239
  0
LINE
  8
0
 10
23.9259
 20
-41.0239
 11
23.7406
 21
-41.0973
  0
LINE
  8
0
 10
23.7406
 20
-41.0973
 11
23.5475
 21
-41.1469
  0
LINE
  8
0
 10
23.5475
 20
-41.1469
 11
23.3497
 21
-41.1719
  0
LINE
  8
0
 10
23.3497
 20
-41.1719
 11
23.1503
 21
-41.1719
  0
LINE
  8
0
 10
35.1503
 20
-41.1719
 11
34.9525
 21
-41.1469
  0
LINE
  8
0
 10
34.9525
 20
-41.1469
 11
34.7594
 21
-41.0973
  0
LINE
  8
0
 10
34.7594
 20
-41.0973
 11
34.5741
 21
-41.0239
  0
LINE
  8
0
 10
34.5741
 20
-41.0239
 11
34.3994
 21
-40.9279
  0
LINE
  8
0
 10
34.3994
 20
-40.9279
 11
34.2381
 21
-40.8107
  0
LINE
  8
0
 10
34.2381
 20
-40.8107
 11
34.0928
 21
-40.6742
  0
LINE
  8
0
 10
34.0928
 20
-40.6742
 11
33.9657
 21
-40.5206
  0
LINE
  8
0
 10
33.9657
 20
-40.5206
 11
33.8589
 21
-40.3523
  0
LINE
  8
0
 10
33.8589
 20
-40.3523
 11
33.774
 21
-40.1719
  0
LINE
  8
0
 10
33.774
 20
-40.1719
 11
33.7124
 21
-39.9823
  0
LINE
  8
0
 10
33.7124
 20
-39.9823
 11
33.675
 21
-39.7865
  0
LINE
  8
0
 10
33.675
 20
-39.7865
 11
33.6625
 21
-39.5875
  0
LINE
  8
0
 10
33.6625
 20
-39.5875
 11
33.675
 21
-39.3885
  0
LINE
  8
0
 10
33.675
 20
-39.3885
 11
33.7124
 21
-39.1927
  0
LINE
  8
0
 10
33.7124
 20
-39.1927
 11
33.774
 21
-39.0031
  0
LINE
  8
0
 10
33.774
 20
-39.0031
 11
33.8589
 21
-38.8227
  0
LINE
  8
0
 10
33.8589
 20
-38.8227
 11
33.9657
 21
-38.6544
  0
LINE
  8
0
 10
33.9657
 20
-38.6544
 11
34.0928
 21
-38.5008
  0
LINE
  8
0
 10
34.0928
 20
-38.5008
 11
34.2381
 21
-38.3643
  0
LINE
  8
0
 10
34.2381
 20
-38.3643
 11
34.3994
 21
-38.2471
  0
LINE
  8
0
 10
34.3994
 20
-38.2471
 11
34.5741
 21
-38.1511
  0
LINE
  8
0
 10
34.5741
 20
-38.1511
 11
34.7594
 21
-38.0777
  0
LINE
  8
0
 10
34.7594
 20
-38.0777
 11
34.9525
 21
-38.0281
  0
LINE
  8
0
 10
34.9525
 20
-38.0281
 11
35.1503
 21
-38.0031
  0
LINE
  8
0
 10
35.1503
 20
-38.0031
 11
35.3497
 21
-38.0031
  0
LINE
  8
0
 10
35.3497
 20
-38.0031
 11
35.5475
 21
-38.0281
  0
LINE
  8
0
 10
35.5475
 20
-38.0281
 11
35.7406
 21
-38.0777
  0
LINE
  8
0
 10
35.7406
 20
-38.0777
 11
35.9259
 21
-38.1511
  0
LINE
  8
0
 10
35.9259
 20
-38.1511
 11
36.1006
 21
-38.2471
  0
LINE
  8
0
 10
36.1006
 20
-38.2471
 11
36.2619
 21
-38.3643
  0
LINE
  8
0
 10
36.2619
 20
-38.3643
 11
36.4072
 21
-38.5008
  0
LINE
  8
0
 10
36.4072
 20
-38.5008
 11
36.5343
 21
-38.6544
  0
LINE
  8
0
 10
36.5343
 20
-38.6544
 11
36.6411
 21
-38.8227
  0
LINE
  8
0
 10
36.6411
 20
-38.8227
 11
36.726
 21
-39.0031
  0
LINE
  8
0
 10
36.726
 20
-39.0031
 11
36.7876
 21
-39.1927
  0
LINE
  8
0
 10
36.7876
 20
-39.1927
 11
36.825
 21
-39.3885
  0
LINE
  8
0
 10
36.825
 20
-39.3885
 11
36.8375
 21
-39.5875
  0
LINE
  8
0
 10
36.8375
 20
-39.5875
 11
36.825
 21
-39.7865
  0
LINE
  8
0
 10
36.825
 20
-39.7865
 11
36.7876
 21
-39.9823
  0
LINE
  8
0
 10
36.7876
 20
-39.9823
 11
36.726
 21
-40.1719
  0
LINE
  8
0
 10
36.726
 20
-40.1719
 11
36.6411
 21
-40.3523
  0
LINE
  8
0
 10
36.6411
 20
-40.3523
 11
36.5343
 21
-40.5206
  0
LINE
  8
0
 10
36.5343
 20
-40.5206
 11
36.4072
 21
-40.6742
  0
LINE
  8
0
 10
36.4072
 20
-40.6742
 11
36.2619
 21
-40.8107
  0
LINE
  8
0
 10
36.2619
 20
-40.8107
 11
36.1006
 21
-40.9279
  0
LINE
  8
0
 10
36.1006
 20
-40.9279
 11
35.9259
 21
-41.0239
  0
LINE
  8
0
 10
35.9259
 20
-41.0239
 11
35.7406
 21
-41.0973
  0
LINE
  8
0
 10
35.7406
 20
-41.0973
 11
35.5475
 21
-41.1469
  0
LINE
  8
0
 10
35.5475
 20
-41.1469
 11
35.3497
 21
-41.1719
  0
LINE
  8
0
 10
35.3497
 20
-41.1719
 11
35.1503
 21
-41.1719
  0
LINE
  8
0
 10
-35.3497
 20
-41.1719
 11
-35.5475
 21
-41.1469
  0
LINE
  8
0
 10
-35.5475
 20
-41.1469
 11
-35.7406
 21
-41.0973
  0
LINE
  8
0
 10
-35.7406
 20
-41.0973
 11
-35.9259
 21
-41.0239
  0
LINE
  8
0
 10
-35.9259
 20
-41.0239
 11
-36.1006
 21
-40.9279
  0
LINE
  8
0
 10
-36.1006
 20
-40.9279
 11
-36.2619
 21
-40.8107
  0
LINE
  8
0
 10
-36.2619
 20
-40.8107
 11
-36.4072
 21
-40.6742
  0
LINE
  8
0
 10
-36.4072
 20
-40.6742
 11
-36.5343
 21
-40.5206
  0
LINE
  8
0
 10
-36.5343
 20
-40.5206
 11
-36.6411
 21
-40.3523
  0
LINE
  8
0
 10
-36.6411
 20
-40.3523
 11
-36.726
 21
-40.1719
  0
LINE
  8
0
 10
-36.726
 20
-40.1719
 11
-36.7876
 21
-39.9823
  0
LINE
  8
0
 10
-36.7876
 20
-39.9823
 11
-36.825
 21
-39.7865
  0
LINE
  8
0
 10
-36.825
 20
-39.7865
 11
-36.8375
 21
-39.5875
  0
LINE
  8
0
 10
-36.8375
 20
-39.5875
 11
-36.825
 21
-39.3885
  0
LINE
  8
0
 10
-36.825
 20
-39.3885
 11
-36.7876
 21
-39.1927
  0
LINE
  8
0
 10
-36.7876
 20
-39.1927
 11
-36.726
 21
-39.0031
  0
LINE
  8
0
 10
-36.726
 20
-39.0031
 11
-36.6411
 21
-38.8227
  0
LINE
  8
0
 10
-36.6411
 20
-38.8227
 11
-36.5343
 21
-38.6544
  0
LINE
  8
0
 10
-36.5343
 20
-38.6544
 11
-36.4072
 21
-38.5008
  0
LINE
  8
0
 10
-36.4072
 20
-38.5008
 11
-36.2619
 21
-38.3643
  0
LINE
  8
0
 10
-36.2619
 20
-38.3643
 11
-36.1006
 21
-38.2471
  0
LINE
  8
0
 10
-36.1006
 20
-38.2471
 11
-35.9259
 21
-38.1511
  0
LINE
  8
0
 10
-35.9259
 20
-38.1511
 11
-35.7406
 21
-38.0777
  0
LINE
  8
0
 10
-35.7406
 20
-38.0777
 11
-35.5475
 21
-38.0281
  0
LINE
  8
0
 10
-35.5475
 20
-38.0281
 11
-35.3497
 21
-38.0031
  0
LINE
  8
0
 10
-35.3497
 20
-38.0031
 11
-35.1503
 21
-38.0031
  0
LINE
  8
0
 10
-35.1503
 20
-38.0031
 11
-34.9525
 21
-38.0281
  0
LINE
  8
0
 10
-34.9525
 20
-38.0281
 11
-34.7594
 21
-38.0777
  0
LINE
  8
0
 10
-34.7594
 20
-38.0777
 11
-34.5741
 21
-38.1511
  0
LINE
  8
0
 10
-34.5741
 20
-38.1511
 11
-34.3994
 21
-38.2471
  0
LINE
  8
0
 10
-34.3994
 20
-38.2471
 11
-34.2381
 21
-38.3643
  0
LINE
  8
0
 10
-34.2381
 20
-38.3643
 11
-34.0928
 21
-38.5008
  0
LINE
  8
0
 10
-34.0928
 20
-38.5008
 11
-33.9657
 21
-38.6544
  0
LINE
  8
0
 10
-33.9657
 20
-38.6544
 11
-33.8589
 21
-38.8227
  0
LINE
  8
0
 10
-33.8589
 20
-38.8227
 11
-33.774
 21
-39.0031
  0
LINE
  8
0
 10
-33.774
 20
-39.0031
 11
-33.7124
 21
-39.1927
  0
LINE
  8
0
 10
-33.7124
 20
-39.1927
 11
-33.675
 21
-39.3885
  0
LINE
  8
0
 10
-33.675
 20
-39.3885
 11
-33.6625
 21
-39.5875
  0
LINE
  8
0
 10
-33.6625
 20
-39.5875
 11
-33.675
 21
-39.7865
  0
LINE
  8
0
 10
-33.675
 20
-39.7865
 11
-33.7124
 21
-39.9823
  0
LINE
  8
0
 10
-33.7124
 20
-39.9823
 11
-33.774
 21
-40.1719
  0
LINE
  8
0
 10
-33.774
 20
-40.1719
 11
-33.8589
 21
-40.3523
  0
LINE
  8
0
 10
-33.8589
 20
-40.3523
 11
-33.9657
 21
-40.5206
  0
LINE
  8
0
 10
-33.9657
 20
-40.5206
 11
-34.0928
 21
-40.6742
  0
LINE
  8
0
 10
-34.0928
 20
-40.6742
 11
-34.2381
 21
-40.8107
  0
LINE
  8
0
 10
-34.2381
 20
-40.8107
 11
-34.3994
 21
-40.9279
  0
LINE
  8
0
 10
-34.3994
 20
-40.9279
 11
-34.5741
 21
-41.0239
  0
LINE
  8
0
 10
-34.5741
 20
-41.0239
 11
-34.7594
 21
-41.0973
  0
LINE
  8
0
 10
-34.7594
 20
-41.0973
 11
-34.9525
 21
-41.1469
  0
LINE
  8
0
 10
-34.9525
 20
-41.1469
 11
-35.1503
 21
-41.1719
  0
LINE
  8
0
 10
-35.1503
 20
-41.1719
 11
-35.3497
 21
-41.1719
  0
LINE
  8
0
 10
-81.8497
 20
-41.1719
 11
-82.0475
 21
-41.1469
  0
LINE
  8
0
 10
-82.0475
 20
-41.1469
 11
-82.2406
 21
-41.0973
  0
LINE
  8
0
 10
-82.2406
 20
-41.0973
 11
-82.4259
 21
-41.0239
  0
LINE
  8
0
 10
-82.4259
 20
-41.0239
 11
-82.6006
 21
-40.9279
  0
LINE
  8
0
 10
-82.6006
 20
-40.9279
 11
-82.7619
 21
-40.8107
  0
LINE
  8
0
 10
-82.7619
 20
-40.8107
 11
-82.9072
 21
-40.6742
  0
LINE
  8
0
 10
-82.9072
 20
-40.6742
 11
-83.0343
 21
-40.5206
  0
LINE
  8
0
 10
-83.0343
 20
-40.5206
 11
-83.1411
 21
-40.3523
  0
LINE
  8
0
 10
-83.1411
 20
-40.3523
 11
-83.226
 21
-40.1719
  0
LINE
  8
0
 10
-83.226
 20
-40.1719
 11
-83.2876
 21
-39.9823
  0
LINE
  8
0
 10
-83.2876
 20
-39.9823
 11
-83.325
 21
-39.7865
  0
LINE
  8
0
 10
-83.325
 20
-39.7865
 11
-83.3375
 21
-39.5875
  0
LINE
  8
0
 10
-83.3375
 20
-39.5875
 11
-83.325
 21
-39.3885
  0
LINE
  8
0
 10
-83.325
 20
-39.3885
 11
-83.2876
 21
-39.1927
  0
LINE
  8
0
 10
-83.2876
 20
-39.1927
 11
-83.226
 21
-39.0031
  0
LINE
  8
0
 10
-83.226
 20
-39.0031
 11
-83.1411
 21
-38.8227
  0
LINE
  8
0
 10
-83.1411
 20
-38.8227
 11
-83.0343
 21
-38.6544
  0
LINE
  8
0
 10
-83.0343
 20
-38.6544
 11
-82.9072
 21
-38.5008
  0
LINE
  8
0
 10
-82.9072
 20
-38.5008
 11
-82.7619
 21
-38.3643
  0
LINE
  8
0
 10
-82.7619
 20
-38.3643
 11
-82.6006
 21
-38.2471
  0
LINE
  8
0
 10
-82.6006
 20
-38.2471
 11
-82.4259
 21
-38.1511
  0
LINE
  8
0
 10
-82.4259
 20
-38.1511
 11
-82.2406
 21
-38.0777
  0
LINE
  8
0
 10
-82.2406
 20
-38.0777
 11
-82.0475
 21
-38.0281
  0
LINE
  8
0
 10
-82.0475
 20
-38.0281
 11
-81.8497
 21
-38.0031
  0
LINE
  8
0
 10
-81.8497
 20
-38.0031
 11
-81.6503
 21
-38.0031
  0
LINE
  8
0
 10
-81.6503
 20
-38.0031
 11
-81.4525
 21
-38.0281
  0
LINE
  8
0
 10
-81.4525
 20
-38.0281
 11
-81.2594
 21
-38.0777
  0
LINE
  8
0
 10
-81.2594
 20
-38.0777
 11
-81.0741
 21
-38.1511
  0
LINE
  8
0
 10
-81.0741
 20
-38.1511
 11
-80.8994
 21
-38.2471
  0
LINE
  8
0
 10
-80.8994
 20
-38.2471
 11
-80.7381
 21
-38.3643
  0
LINE
  8
0
 10
-80.7381
 20
-38.3643
 11
-80.5928
 21
-38.5008
  0
LINE
  8
0
 10
-80.5928
 20
-38.5008
 11
-80.4657
 21
-38.6544
  0
LINE
  8
0
 10
-80.4657
 20
-38.6544
 11
-80.3589
 21
-38.8227
  0
LINE
  8
0
 10
-80.3589
 20
-38.8227
 11
-80.274
 21
-39.0031
  0
LINE
  8
0
 10
-80.274
 20
-39.0031
 11
-80.2124
 21
-39.1927
  0
LINE
  8
0
 10
-80.2124
 20
-39.1927
 11
-80.175
 21
-39.3885
  0
LINE
  8
0
 10
-80.175
 20
-39.3885
 11
-80.1625
 21
-39.5875
  0
LINE
  8
0
 10
-80.1625
 20
-39.5875
 11
-80.175
 21
-39.7865
  0
LINE
  8
0
 10
-80.175
 20
-39.7865
 11
-80.2124
 21
-39.9823
  0
LINE
  8
0
 10
-80.2124
 20
-39.9823
 11
-80.274
 21
-40.1719
  0
LINE
  8
0
 10
-80.274
 20
-40.1719
 11
-80.3589
 21
-40.3523
  0
LINE
  8
0
 10
-80.3589
 20
-40.3523
 11
-80.4657
 21
-40.5206
  0
LINE
  8
0
 10
-80.4657
 20
-40.5206
 11
-80.5928
 21
-40.6742
  0
LINE
  8
0
 10
-80.5928
 20
-40.6742
 11
-80.7381
 21
-40.8107
  0
LINE
  8
0
 10
-80.7381
 20
-40.8107
 11
-80.8994
 21
-40.9279
  0
LINE
  8
0
 10
-80.8994
 20
-40.9279
 11
-81.0741
 21
-41.0239
  0
LINE
  8
0
 10
-81.0741
 20
-41.0239
 11
-81.2594
 21
-41.0973
  0
LINE
  8
0
 10
-81.2594
 20
-41.0973
 11
-81.4525
 21
-41.1469
  0
LINE
  8
0
 10
-81.4525
 20
-41.1469
 11
-81.6503
 21
-41.1719
  0
LINE
  8
0
 10
-81.6503
 20
-41.1719
 11
-81.8497
 21
-41.1719
  0
ENDSEC
  0
SECTION
  2
OBJECTS
  0
DICTIONARY
  0
ENDSEC
  0
EOF
