  0
SECTION
  2
BLOCKS
  0
ENDSEC
  0
SECTION
  2
ENTITIES
  0
LINE
  8
0
 10
4.49715
 20
-23.5749
 11
7.4164
 21
-22.8253
  0
LINE
  8
0
 10
7.4164
 20
-22.8253
 11
10.2187
 21
-21.7158
  0
LINE
  8
0
 10
10.2187
 20
-21.7158
 11
12.8598
 21
-20.2639
  0
LINE
  8
0
 10
12.8598
 20
-20.2639
 11
15.2982
 21
-18.4923
  0
LINE
  8
0
 10
15.2982
 20
-18.4923
 11
17.4952
 21
-16.4291
  0
LINE
  8
0
 10
17.4952
 20
-16.4291
 11
19.4164
 21
-14.1068
  0
LINE
  8
0
 10
19.4164
 20
-14.1068
 11
21.0314
 21
-11.5621
  0
LINE
  8
0
 10
21.0314
 20
-11.5621
 11
22.3146
 21
-8.83498
  0
LINE
  8
0
 10
22.3146
 20
-8.83498
 11
23.246
 21
-5.96855
  0
LINE
  8
0
 10
23.246
 20
-5.96855
 11
23.8107
 21
-3.008
  0
LINE
  8
0
 10
23.8107
 20
-3.008
 11
24
 21
0
  0
LINE
  8
0
 10
24
 20
0
 11
23.8107
 21
3.008
  0
LINE
  8
0
 10
23.8107
 20
3.008
 11
23.246
 21
5.96855
  0
LINE
  8
0
 10
23.246
 20
5.96855
 11
22.3146
 21
8.83498
  0
LINE
  8
0
 10
22.3146
 20
8.83498
 11
21.0314
 21
11.5621
  0
LINE
  8
0
 10
21.0314
 20
11.5621
 11
19.4164
 21
14.1068
  0
LINE
  8
0
 10
19.4164
 20
14.1068
 11
17.4952
 21
16.4291
  0
LINE
  8
0
 10
17.4952
 20
16.4291
 11
15.2982
 21
18.4923
  0
LINE
  8
0
 10
15.2982
 20
18.4923
 11
12.8598
 21
20.2639
  0
LINE
  8
0
 10
12.8598
 20
20.2639
 11
10.2187
 21
21.7158
  0
LINE
  8
0
 10
10.2187
 20
21.7158
 11
7.4164
 21
22.8253
  0
LINE
  8
0
 10
7.4164
 20
22.8253
 11
4.49715
 21
23.5749
  0
LINE
  8
0
 10
4.49715
 20
23.5749
 11
1.50696
 21
23.9526
  0
LINE
  8
0
 10
1.50696
 20
23.9526
 11
-1.50696
 21
23.9526
  0
LINE
  8
0
 10
-1.50696
 20
23.9526
 11
-4.49715
 21
23.5749
  0
LINE
  8
0
 10
-4.49715
 20
23.5749
 11
-7.4164
 21
22.8253
  0
LINE
  8
0
 10
-7.4164
 20
22.8253
 11
-10.2187
 21
21.7158
  0
LINE
  8
0
 10
-10.2187
 20
21.7158
 11
-12.8598
 21
20.2639
  0
LINE
  8
0
 10
-12.8598
 20
20.2639
 11
-15.2982
 21
18.4923
  0
LINE
  8
0
 10
-15.2982
 20
18.4923
 11
-17.4952
 21
16.4291
  0
LINE
  8
0
 10
-17.4952
 20
16.4291
 11
-19.4164
 21
14.1068
  0
LINE
  8
0
 10
-19.4164
 20
14.1068
 11
-21.0314
 21
11.5621
  0
LINE
  8
0
 10
-21.0314
 20
11.5621
 11
-22.3146
 21
8.83498
  0
LINE
  8
0
 10
-22.3146
 20
8.83498
 11
-23.246
 21
5.96855
  0
LINE
  8
0
 10
-23.246
 20
5.96855
 11
-23.8107
 21
3.008
  0
LINE
  8
0
 10
-23.8107
 20
3.008
 11
-24
 21
0
  0
LINE
  8
0
 10
-24
 20
0
 11
-23.8107
 21
-3.008
  0
LINE
  8
0
 10
-23.8107
 20
-3.008
 11
-23.246
 21
-5.96855
  0
LINE
  8
0
 10
-23.246
 20
-5.96855
 11
-22.3146
 21
-8.83498
  0
LINE
  8
0
 10
-22.3146
 20
-8.83498
 11
-21.0314
 21
-11.5621
  0
LINE
  8
0
 10
-21.0314
 20
-11.5621
 11
-19.4164
 21
-14.1068
  0
LINE
  8
0
 10
-19.4164
 20
-14.1068
 11
-17.4952
 21
-16.4291
  0
LINE
  8
0
 10
-17.4952
 20
-16.4291
 11
-15.2982
 21
-18.4923
  0
LINE
  8
0
 10
-15.2982
 20
-18.4923
 11
-12.8598
 21
-20.2639
  0
LINE
  8
0
 10
-12.8598
 20
-20.2639
 11
-10.2187
 21
-21.7158
  0
LINE
  8
0
 10
-10.2187
 20
-21.7158
 11
-7.4164
 21
-22.8253
  0
LINE
  8
0
 10
-7.4164
 20
-22.8253
 11
-4.49715
 21
-23.5749
  0
LINE
  8
0
 10
-4.49715
 20
-23.5749
 11
-1.50696
 21
-23.9526
  0
LINE
  8
0
 10
-1.50696
 20
-23.9526
 11
1.50696
 21
-23.9526
  0
LINE
  8
0
 10
1.50696
 20
-23.9526
 11
4.49715
 21
-23.5749
  0
LINE
  8
0
 10
-2.53448
 20
11.2079
 11
-3.11664
 21
11.338
  0
LINE
  8
0
 10
-3.11664
 20
11.338
 11
-3.67787
 21
11.5401
  0
LINE
  8
0
 10
-3.67787
 20
11.5401
 11
-4.20937
 21
11.8109
  0
LINE
  8
0
 10
-4.20937
 20
11.8109
 11
-4.70273
 21
12.1461
  0
LINE
  8
0
 10
-4.70273
 20
12.1461
 11
-5.15018
 21
12.5406
  0
LINE
  8
0
 10
-5.15018
 20
12.5406
 11
-5.54466
 21
12.9881
  0
LINE
  8
0
 10
-5.54466
 20
12.9881
 11
-5.87994
 21
13.4814
  0
LINE
  8
0
 10
-5.87994
 20
13.4814
 11
-6.15076
 21
14.0129
  0
LINE
  8
0
 10
-6.15076
 20
14.0129
 11
-6.35281
 21
14.5742
  0
LINE
  8
0
 10
-6.35281
 20
14.5742
 11
-6.48294
 21
15.1563
  0
LINE
  8
0
 10
-6.48294
 20
15.1563
 11
-6.53908
 21
15.7502
  0
LINE
  8
0
 10
-6.53908
 20
15.7502
 11
-6.52034
 21
16.3464
  0
LINE
  8
0
 10
-6.52034
 20
16.3464
 11
-6.42703
 21
16.9356
  0
LINE
  8
0
 10
-6.42703
 20
16.9356
 11
-6.2606
 21
17.5084
  0
LINE
  8
0
 10
-6.2606
 20
17.5084
 11
-6.02371
 21
18.0558
  0
LINE
  8
0
 10
-6.02371
 20
18.0558
 11
-5.72006
 21
18.5693
  0
LINE
  8
0
 10
-5.72006
 20
18.5693
 11
-5.35445
 21
19.0406
  0
LINE
  8
0
 10
-5.35445
 20
19.0406
 11
-4.93266
 21
19.4624
  0
LINE
  8
0
 10
-4.93266
 20
19.4624
 11
-4.46132
 21
19.828
  0
LINE
  8
0
 10
-4.46132
 20
19.828
 11
-3.94788
 21
20.1317
  0
LINE
  8
0
 10
-3.94788
 20
20.1317
 11
-3.40044
 21
20.3686
  0
LINE
  8
0
 10
-3.40044
 20
20.3686
 11
-2.82761
 21
20.535
  0
LINE
  8
0
 10
-2.82761
 20
20.535
 11
-2.23843
 21
20.6283
  0
LINE
  8
0
 10
-2.23843
 20
20.6283
 11
-1.64223
 21
20.647
  0
LINE
  8
0
 10
-1.64223
 20
20.647
 11
-1.04836
 21
20.5909
  0
LINE
  8
0
 10
-1.04836
 20
20.5909
 11
-0.466217
 21
20.4608
  0
LINE
  8
0
 10
-0.466217
 20
20.4608
 11
0.0950165
 21
20.2587
  0
LINE
  8
0
 10
0.0950165
 20
20.2587
 11
0.626511
 21
19.9879
  0
LINE
  8
0
 10
0.626511
 20
19.9879
 11
1.11987
 21
19.6526
  0
LINE
  8
0
 10
1.11987
 20
19.6526
 11
1.56732
 21
19.2581
  0
LINE
  8
0
 10
1.56732
 20
19.2581
 11
1.96179
 21
18.8107
  0
LINE
  8
0
 10
1.96179
 20
18.8107
 11
2.29709
 21
18.3173
  0
LINE
  8
0
 10
2.29709
 20
18.3173
 11
2.5679
 21
17.7858
  0
LINE
  8
0
 10
2.5679
 20
17.7858
 11
2.76996
 21
17.2246
  0
LINE
  8
0
 10
2.76996
 20
17.2246
 11
2.90009
 21
16.6425
  0
LINE
  8
0
 10
2.90009
 20
16.6425
 11
2.95622
 21
16.0486
  0
LINE
  8
0
 10
2.95622
 20
16.0486
 11
2.93748
 21
15.4524
  0
LINE
  8
0
 10
2.93748
 20
15.4524
 11
2.84416
 21
14.8632
  0
LINE
  8
0
 10
2.84416
 20
14.8632
 11
2.67775
 21
14.2904
  0
LINE
  8
0
 10
2.67775
 20
14.2904
 11
2.44084
 21
13.7429
  0
LINE
  8
0
 10
2.44084
 20
13.7429
 11
2.13719
 21
13.2295
  0
LINE
  8
0
 10
2.13719
 20
13.2295
 11
1.77159
 21
12.7582
  0
LINE
  8
0
 10
1.77159
 20
12.7582
 11
1.34979
 21
12.3364
  0
LINE
  8
0
 10
1.34979
 20
12.3364
 11
0.878464
 21
11.9707
  0
LINE
  8
0
 10
0.878464
 20
11.9707
 11
0.365021
 21
11.6671
  0
LINE
  8
0
 10
0.365021
 20
11.6671
 11
-0.182419
 21
11.4302
  0
LINE
  8
0
 10
-0.182419
 20
11.4302
 11
-0.755249
 21
11.2638
  0
LINE
  8
0
 10
-0.755249
 20
11.2638
 11
-1.34441
 21
11.1705
  0
LINE
  8
0
 10
-1.34441
 20
11.1705
 11
-1.94063
 21
11.1517
  0
LINE
  8
0
 10
-1.94063
 20
11.1517
 11
-2.53448
 21
11.2079
  0
LINE
  8
0
 10
10.5706
 20
6.62218
 11
9.98849
 21
6.7523
  0
LINE
  8
0
 10
9.98849
 20
6.7523
 11
9.42725
 21
6.95436
  0
LINE
  8
0
 10
9.42725
 20
6.95436
 11
8.89575
 21
7.22517
  0
LINE
  8
0
 10
8.89575
 20
7.22517
 11
8.40239
 21
7.56047
  0
LINE
  8
0
 10
8.40239
 20
7.56047
 11
7.95494
 21
7.95494
  0
LINE
  8
0
 10
7.95494
 20
7.95494
 11
7.56047
 21
8.40239
  0
LINE
  8
0
 10
7.56047
 20
8.40239
 11
7.22517
 21
8.89575
  0
LINE
  8
0
 10
7.22517
 20
8.89575
 11
6.95436
 21
9.42725
  0
LINE
  8
0
 10
6.95436
 20
9.42725
 11
6.7523
 21
9.98849
  0
LINE
  8
0
 10
6.7523
 20
9.98849
 11
6.62218
 21
10.5706
  0
LINE
  8
0
 10
6.62218
 20
10.5706
 11
6.56604
 21
11.1645
  0
LINE
  8
0
 10
6.56604
 20
11.1645
 11
6.58478
 21
11.7607
  0
LINE
  8
0
 10
6.58478
 20
11.7607
 11
6.6781
 21
12.3499
  0
LINE
  8
0
 10
6.6781
 20
12.3499
 11
6.84451
 21
12.9227
  0
LINE
  8
0
 10
6.84451
 20
12.9227
 11
7.08142
 21
13.4702
  0
LINE
  8
0
 10
7.08142
 20
13.4702
 11
7.38507
 21
13.9836
  0
LINE
  8
0
 10
7.38507
 20
13.9836
 11
7.75067
 21
14.4549
  0
LINE
  8
0
 10
7.75067
 20
14.4549
 11
8.17247
 21
14.8767
  0
LINE
  8
0
 10
8.17247
 20
14.8767
 11
8.6438
 21
15.2423
  0
LINE
  8
0
 10
8.6438
 20
15.2423
 11
9.15724
 21
15.546
  0
LINE
  8
0
 10
9.15724
 20
15.546
 11
9.7047
 21
15.7829
  0
LINE
  8
0
 10
9.7047
 20
15.7829
 11
10.2775
 21
15.9493
  0
LINE
  8
0
 10
10.2775
 20
15.9493
 11
10.8667
 21
16.0426
  0
LINE
  8
0
 10
10.8667
 20
16.0426
 11
11.4629
 21
16.0614
  0
LINE
  8
0
 10
11.4629
 20
16.0614
 11
12.0568
 21
16.0052
  0
LINE
  8
0
 10
12.0568
 20
16.0052
 11
12.6389
 21
15.8751
  0
LINE
  8
0
 10
12.6389
 20
15.8751
 11
13.2001
 21
15.673
  0
LINE
  8
0
 10
13.2001
 20
15.673
 11
13.7316
 21
15.4022
  0
LINE
  8
0
 10
13.7316
 20
15.4022
 11
14.225
 21
15.0669
  0
LINE
  8
0
 10
14.225
 20
15.0669
 11
14.6725
 21
14.6725
  0
LINE
  8
0
 10
14.6725
 20
14.6725
 11
15.0669
 21
14.225
  0
LINE
  8
0
 10
15.0669
 20
14.225
 11
15.4022
 21
13.7316
  0
LINE
  8
0
 10
15.4022
 20
13.7316
 11
15.673
 21
13.2001
  0
LINE
  8
0
 10
15.673
 20
13.2001
 11
15.8751
 21
12.6389
  0
LINE
  8
0
 10
15.8751
 20
12.6389
 11
16.0052
 21
12.0568
  0
LINE
  8
0
 10
16.0052
 20
12.0568
 11
16.0614
 21
11.4629
  0
LINE
  8
0
 10
16.0614
 20
11.4629
 11
16.0426
 21
10.8667
  0
LINE
  8
0
 10
16.0426
 20
10.8667
 11
15.9493
 21
10.2775
  0
LINE
  8
0
 10
15.9493
 20
10.2775
 11
15.7829
 21
9.7047
  0
LINE
  8
0
 10
15.7829
 20
9.7047
 11
15.546
 21
9.15724
  0
LINE
  8
0
 10
15.546
 20
9.15724
 11
15.2423
 21
8.6438
  0
LINE
  8
0
 10
15.2423
 20
8.6438
 11
14.8767
 21
8.17247
  0
LINE
  8
0
 10
14.8767
 20
8.17247
 11
14.4549
 21
7.75067
  0
LINE
  8
0
 10
14.4549
 20
7.75067
 11
13.9836
 21
7.38507
  0
LINE
  8
0
 10
13.9836
 20
7.38507
 11
13.4702
 21
7.08142
  0
LINE
  8
0
 10
13.4702
 20
7.08142
 11
12.9227
 21
6.84451
  0
LINE
  8
0
 10
12.9227
 20
6.84451
 11
12.3499
 21
6.6781
  0
LINE
  8
0
 10
12.3499
 20
6.6781
 11
11.7607
 21
6.58478
  0
LINE
  8
0
 10
11.7607
 20
6.58478
 11
11.1645
 21
6.56604
  0
LINE
  8
0
 10
11.1645
 20
6.56604
 11
10.5706
 21
6.62218
  0
LINE
  8
0
 10
-14.2906
 20
3.82098
 11
-14.8728
 21
3.95111
  0
LINE
  8
0
 10
-14.8728
 20
3.95111
 11
-15.434
 21
4.15317
  0
LINE
  8
0
 10
-15.434
 20
4.15317
 11
-15.9655
 21
4.42398
  0
LINE
  8
0
 10
-15.9655
 20
4.42398
 11
-16.4589
 21
4.75926
  0
LINE
  8
0
 10
-16.4589
 20
4.75926
 11
-16.9063
 21
5.15375
  0
LINE
  8
0
 10
-16.9063
 20
5.15375
 11
-17.3008
 21
5.6012
  0
LINE
  8
0
 10
-17.3008
 20
5.6012
 11
-17.6361
 21
6.09456
  0
LINE
  8
0
 10
-17.6361
 20
6.09456
 11
-17.9069
 21
6.62605
  0
LINE
  8
0
 10
-17.9069
 20
6.62605
 11
-18.109
 21
7.1873
  0
LINE
  8
0
 10
-18.109
 20
7.1873
 11
-18.2391
 21
7.76944
  0
LINE
  8
0
 10
-18.2391
 20
7.76944
 11
-18.2952
 21
8.36331
  0
LINE
  8
0
 10
-18.2952
 20
8.36331
 11
-18.2765
 21
8.95952
  0
LINE
  8
0
 10
-18.2765
 20
8.95952
 11
-18.1832
 21
9.54869
  0
LINE
  8
0
 10
-18.1832
 20
9.54869
 11
-18.0168
 21
10.1215
  0
LINE
  8
0
 10
-18.0168
 20
10.1215
 11
-17.7799
 21
10.669
  0
LINE
  8
0
 10
-17.7799
 20
10.669
 11
-17.4762
 21
11.1824
  0
LINE
  8
0
 10
-17.4762
 20
11.1824
 11
-17.1106
 21
11.6537
  0
LINE
  8
0
 10
-17.1106
 20
11.6537
 11
-16.6888
 21
12.0755
  0
LINE
  8
0
 10
-16.6888
 20
12.0755
 11
-16.2175
 21
12.4411
  0
LINE
  8
0
 10
-16.2175
 20
12.4411
 11
-15.704
 21
12.7448
  0
LINE
  8
0
 10
-15.704
 20
12.7448
 11
-15.1566
 21
12.9817
  0
LINE
  8
0
 10
-15.1566
 20
12.9817
 11
-14.5838
 21
13.1481
  0
LINE
  8
0
 10
-14.5838
 20
13.1481
 11
-13.9946
 21
13.2414
  0
LINE
  8
0
 10
-13.9946
 20
13.2414
 11
-13.3984
 21
13.2602
  0
LINE
  8
0
 10
-13.3984
 20
13.2602
 11
-12.8045
 21
13.204
  0
LINE
  8
0
 10
-12.8045
 20
13.204
 11
-12.2224
 21
13.0739
  0
LINE
  8
0
 10
-12.2224
 20
13.0739
 11
-11.6611
 21
12.8718
  0
LINE
  8
0
 10
-11.6611
 20
12.8718
 11
-11.1296
 21
12.601
  0
LINE
  8
0
 10
-11.1296
 20
12.601
 11
-10.6363
 21
12.2657
  0
LINE
  8
0
 10
-10.6363
 20
12.2657
 11
-10.1888
 21
11.8713
  0
LINE
  8
0
 10
-10.1888
 20
11.8713
 11
-9.79434
 21
11.4238
  0
LINE
  8
0
 10
-9.79434
 20
11.4238
 11
-9.45906
 21
10.9305
  0
LINE
  8
0
 10
-9.45906
 20
10.9305
 11
-9.18825
 21
10.399
  0
LINE
  8
0
 10
-9.18825
 20
10.399
 11
-8.98619
 21
9.83771
  0
LINE
  8
0
 10
-8.98619
 20
9.83771
 11
-8.85606
 21
9.25557
  0
LINE
  8
0
 10
-8.85606
 20
9.25557
 11
-8.79993
 21
8.66171
  0
LINE
  8
0
 10
-8.79993
 20
8.66171
 11
-8.81866
 21
8.06549
  0
LINE
  8
0
 10
-8.81866
 20
8.06549
 11
-8.91197
 21
7.47632
  0
LINE
  8
0
 10
-8.91197
 20
7.47632
 11
-9.0784
 21
6.9035
  0
LINE
  8
0
 10
-9.0784
 20
6.9035
 11
-9.31529
 21
6.35605
  0
LINE
  8
0
 10
-9.31529
 20
6.35605
 11
-9.61894
 21
5.84261
  0
LINE
  8
0
 10
-9.61894
 20
5.84261
 11
-9.98456
 21
5.37128
  0
LINE
  8
0
 10
-9.98456
 20
5.37128
 11
-10.4063
 21
4.94948
  0
LINE
  8
0
 10
-10.4063
 20
4.94948
 11
-10.8777
 21
4.58388
  0
LINE
  8
0
 10
-10.8777
 20
4.58388
 11
-11.3911
 21
4.28023
  0
LINE
  8
0
 10
-11.3911
 20
4.28023
 11
-11.9386
 21
4.04332
  0
LINE
  8
0
 10
-11.9386
 20
4.04332
 11
-12.5114
 21
3.87691
  0
LINE
  8
0
 10
-12.5114
 20
3.87691
 11
-13.1006
 21
3.78358
  0
LINE
  8
0
 10
-13.1006
 20
3.78358
 11
-13.6968
 21
3.76485
  0
LINE
  8
0
 10
-13.6968
 20
3.76485
 11
-14.2906
 21
3.82098
  0
LINE
  8
0
 10
-3.29825
 20
0.455521
 11
-3.89006
 21
0.530273
  0
LINE
  8
0
 10
-3.89006
 20
0.530273
 11
-4.46782
 21
0.678619
  0
LINE
  8
0
 10
-4.46782
 20
0.678619
 11
-5.02245
 21
0.898224
  0
LINE
  8
0
 10
-5.02245
 20
0.898224
 11
-5.54517
 21
1.18559
  0
LINE
  8
0
 10
-5.54517
 20
1.18559
 11
-6.02776
 21
1.53621
  0
LINE
  8
0
 10
-6.02776
 20
1.53621
 11
-6.4626
 21
1.94455
  0
LINE
  8
0
 10
-6.4626
 20
1.94455
 11
-6.84282
 21
2.40416
  0
LINE
  8
0
 10
-6.84282
 20
2.40416
 11
-7.16245
 21
2.90782
  0
LINE
  8
0
 10
-7.16245
 20
2.90782
 11
-7.41643
 21
3.44756
  0
LINE
  8
0
 10
-7.41643
 20
3.44756
 11
-7.60077
 21
4.01486
  0
LINE
  8
0
 10
-7.60077
 20
4.01486
 11
-7.71254
 21
4.60081
  0
LINE
  8
0
 10
-7.71254
 20
4.60081
 11
-7.75
 21
5.19615
  0
LINE
  8
0
 10
-7.75
 20
5.19615
 11
-7.71254
 21
5.79147
  0
LINE
  8
0
 10
-7.71254
 20
5.79147
 11
-7.60077
 21
6.37743
  0
LINE
  8
0
 10
-7.60077
 20
6.37743
 11
-7.41643
 21
6.94473
  0
LINE
  8
0
 10
-7.41643
 20
6.94473
 11
-7.16245
 21
7.48448
  0
LINE
  8
0
 10
-7.16245
 20
7.48448
 11
-6.84282
 21
7.98813
  0
LINE
  8
0
 10
-6.84282
 20
7.98813
 11
-6.4626
 21
8.44774
  0
LINE
  8
0
 10
-6.4626
 20
8.44774
 11
-6.02776
 21
8.85608
  0
LINE
  8
0
 10
-6.02776
 20
8.85608
 11
-5.54517
 21
9.2067
  0
LINE
  8
0
 10
-5.54517
 20
9.2067
 11
-5.02245
 21
9.49408
  0
LINE
  8
0
 10
-5.02245
 20
9.49408
 11
-4.46782
 21
9.71367
  0
LINE
  8
0
 10
-4.46782
 20
9.71367
 11
-3.89006
 21
9.86201
  0
LINE
  8
0
 10
-3.89006
 20
9.86201
 11
-3.29825
 21
9.93677
  0
LINE
  8
0
 10
-3.29825
 20
9.93677
 11
-2.70174
 21
9.93677
  0
LINE
  8
0
 10
-2.70174
 20
9.93677
 11
-2.10992
 21
9.86201
  0
LINE
  8
0
 10
-2.10992
 20
9.86201
 11
-1.53217
 21
9.71367
  0
LINE
  8
0
 10
-1.53217
 20
9.71367
 11
-0.977539
 21
9.49408
  0
LINE
  8
0
 10
-0.977539
 20
9.49408
 11
-0.454819
 21
9.2067
  0
LINE
  8
0
 10
-0.454819
 20
9.2067
 11
0.0277557
 21
8.85608
  0
LINE
  8
0
 10
0.0277557
 20
8.85608
 11
0.462601
 21
8.44774
  0
LINE
  8
0
 10
0.462601
 20
8.44774
 11
0.842819
 21
7.98813
  0
LINE
  8
0
 10
0.842819
 20
7.98813
 11
1.16245
 21
7.48448
  0
LINE
  8
0
 10
1.16245
 20
7.48448
 11
1.41643
 21
6.94473
  0
LINE
  8
0
 10
1.41643
 20
6.94473
 11
1.60077
 21
6.37743
  0
LINE
  8
0
 10
1.60077
 20
6.37743
 11
1.71254
 21
5.79147
  0
LINE
  8
0
 10
1.71254
 20
5.79147
 11
1.75
 21
5.19615
  0
LINE
  8
0
 10
1.75
 20
5.19615
 11
1.71254
 21
4.60081
  0
LINE
  8
0
 10
1.71254
 20
4.60081
 11
1.60077
 21
4.01486
  0
LINE
  8
0
 10
1.60077
 20
4.01486
 11
1.41643
 21
3.44756
  0
LINE
  8
0
 10
1.41643
 20
3.44756
 11
1.16245
 21
2.90782
  0
LINE
  8
0
 10
1.16245
 20
2.90782
 11
0.842819
 21
2.40416
  0
LINE
  8
0
 10
0.842819
 20
2.40416
 11
0.462601
 21
1.94455
  0
LINE
  8
0
 10
0.462601
 20
1.94455
 11
0.0277557
 21
1.53621
  0
LINE
  8
0
 10
0.0277557
 20
1.53621
 11
-0.454819
 21
1.18559
  0
LINE
  8
0
 10
-0.454819
 20
1.18559
 11
-0.977539
 21
0.898224
  0
LINE
  8
0
 10
-0.977539
 20
0.898224
 11
-1.53217
 21
0.678619
  0
LINE
  8
0
 10
-1.53217
 20
0.678619
 11
-2.10992
 21
0.530273
  0
LINE
  8
0
 10
-2.10992
 20
0.530273
 11
-2.70174
 21
0.455521
  0
LINE
  8
0
 10
-2.70174
 20
0.455521
 11
-3.29825
 21
0.455521
  0
LINE
  8
0
 10
5.70174
 20
-4.74062
 11
5.10992
 21
-4.66586
  0
LINE
  8
0
 10
5.10992
 20
-4.66586
 11
4.53217
 21
-4.51752
  0
LINE
  8
0
 10
4.53217
 20
-4.51752
 11
3.97754
 21
-4.29793
  0
LINE
  8
0
 10
3.97754
 20
-4.29793
 11
3.45482
 21
-4.01054
  0
LINE
  8
0
 10
3.45482
 20
-4.01054
 11
2.97223
 21
-3.65993
  0
LINE
  8
0
 10
2.97223
 20
-3.65993
 11
2.53738
 21
-3.25159
  0
LINE
  8
0
 10
2.53738
 20
-3.25159
 11
2.15717
 21
-2.79198
  0
LINE
  8
0
 10
2.15717
 20
-2.79198
 11
1.83754
 21
-2.28831
  0
LINE
  8
0
 10
1.83754
 20
-2.28831
 11
1.58356
 21
-1.74858
  0
LINE
  8
0
 10
1.58356
 20
-1.74858
 11
1.39922
 21
-1.18127
  0
LINE
  8
0
 10
1.39922
 20
-1.18127
 11
1.28745
 21
-0.595322
  0
LINE
  8
0
 10
1.28745
 20
-0.595322
 11
1.25
 21
0
  0
LINE
  8
0
 10
1.25
 20
0
 11
1.28745
 21
0.595322
  0
LINE
  8
0
 10
1.28745
 20
0.595322
 11
1.39922
 21
1.18127
  0
LINE
  8
0
 10
1.39922
 20
1.18127
 11
1.58356
 21
1.74858
  0
LINE
  8
0
 10
1.58356
 20
1.74858
 11
1.83754
 21
2.28831
  0
LINE
  8
0
 10
1.83754
 20
2.28831
 11
2.15717
 21
2.79198
  0
LINE
  8
0
 10
2.15717
 20
2.79198
 11
2.53738
 21
3.25159
  0
LINE
  8
0
 10
2.53738
 20
3.25159
 11
2.97223
 21
3.65993
  0
LINE
  8
0
 10
2.97223
 20
3.65993
 11
3.45482
 21
4.01054
  0
LINE
  8
0
 10
3.45482
 20
4.01054
 11
3.97754
 21
4.29793
  0
LINE
  8
0
 10
3.97754
 20
4.29793
 11
4.53217
 21
4.51752
  0
LINE
  8
0
 10
4.53217
 20
4.51752
 11
5.10992
 21
4.66586
  0
LINE
  8
0
 10
5.10992
 20
4.66586
 11
5.70174
 21
4.74062
  0
LINE
  8
0
 10
5.70174
 20
4.74062
 11
6.29825
 21
4.74062
  0
LINE
  8
0
 10
6.29825
 20
4.74062
 11
6.89006
 21
4.66586
  0
LINE
  8
0
 10
6.89006
 20
4.66586
 11
7.46782
 21
4.51752
  0
LINE
  8
0
 10
7.46782
 20
4.51752
 11
8.02245
 21
4.29793
  0
LINE
  8
0
 10
8.02245
 20
4.29793
 11
8.54517
 21
4.01054
  0
LINE
  8
0
 10
8.54517
 20
4.01054
 11
9.02776
 21
3.65993
  0
LINE
  8
0
 10
9.02776
 20
3.65993
 11
9.4626
 21
3.25159
  0
LINE
  8
0
 10
9.4626
 20
3.25159
 11
9.84282
 21
2.79198
  0
LINE
  8
0
 10
9.84282
 20
2.79198
 11
10.1624
 21
2.28831
  0
LINE
  8
0
 10
10.1624
 20
2.28831
 11
10.4164
 21
1.74858
  0
LINE
  8
0
 10
10.4164
 20
1.74858
 11
10.6008
 21
1.18127
  0
LINE
  8
0
 10
10.6008
 20
1.18127
 11
10.7125
 21
0.595322
  0
LINE
  8
0
 10
10.7125
 20
0.595322
 11
10.75
 21
0
  0
LINE
  8
0
 10
10.75
 20
0
 11
10.7125
 21
-0.595322
  0
LINE
  8
0
 10
10.7125
 20
-0.595322
 11
10.6008
 21
-1.18127
  0
LINE
  8
0
 10
10.6008
 20
-1.18127
 11
10.4164
 21
-1.74858
  0
LINE
  8
0
 10
10.4164
 20
-1.74858
 11
10.1624
 21
-2.28831
  0
LINE
  8
0
 10
10.1624
 20
-2.28831
 11
9.84282
 21
-2.79198
  0
LINE
  8
0
 10
9.84282
 20
-2.79198
 11
9.4626
 21
-3.25159
  0
LINE
  8
0
 10
9.4626
 20
-3.25159
 11
9.02776
 21
-3.65993
  0
LINE
  8
0
 10
9.02776
 20
-3.65993
 11
8.54517
 21
-4.01054
  0
LINE
  8
0
 10
8.54517
 20
-4.01054
 11
8.02245
 21
-4.29793
  0
LINE
  8
0
 10
8.02245
 20
-4.29793
 11
7.46782
 21
-4.51752
  0
LINE
  8
0
 10
7.46782
 20
-4.51752
 11
6.89006
 21
-4.66586
  0
LINE
  8
0
 10
6.89006
 20
-4.66586
 11
6.29825
 21
-4.74062
  0
LINE
  8
0
 10
6.29825
 20
-4.74062
 11
5.70174
 21
-4.74062
  0
LINE
  8
0
 10
15.1563
 20
-6.48294
 11
14.5742
 21
-6.35281
  0
LINE
  8
0
 10
14.5742
 20
-6.35281
 11
14.0129
 21
-6.15076
  0
LINE
  8
0
 10
14.0129
 20
-6.15076
 11
13.4814
 21
-5.87994
  0
LINE
  8
0
 10
13.4814
 20
-5.87994
 11
12.9881
 21
-5.54466
  0
LINE
  8
0
 10
12.9881
 20
-5.54466
 11
12.5406
 21
-5.15018
  0
LINE
  8
0
 10
12.5406
 20
-5.15018
 11
12.1461
 21
-4.70273
  0
LINE
  8
0
 10
12.1461
 20
-4.70273
 11
11.8109
 21
-4.20937
  0
LINE
  8
0
 10
11.8109
 20
-4.20937
 11
11.5401
 21
-3.67787
  0
LINE
  8
0
 10
11.5401
 20
-3.67787
 11
11.338
 21
-3.11664
  0
LINE
  8
0
 10
11.338
 20
-3.11664
 11
11.2079
 21
-2.53448
  0
LINE
  8
0
 10
11.2079
 20
-2.53448
 11
11.1517
 21
-1.94063
  0
LINE
  8
0
 10
11.1517
 20
-1.94063
 11
11.1705
 21
-1.34441
  0
LINE
  8
0
 10
11.1705
 20
-1.34441
 11
11.2638
 21
-0.755249
  0
LINE
  8
0
 10
11.2638
 20
-0.755249
 11
11.4302
 21
-0.182419
  0
LINE
  8
0
 10
11.4302
 20
-0.182419
 11
11.6671
 21
0.365021
  0
LINE
  8
0
 10
11.6671
 20
0.365021
 11
11.9707
 21
0.878464
  0
LINE
  8
0
 10
11.9707
 20
0.878464
 11
12.3364
 21
1.34979
  0
LINE
  8
0
 10
12.3364
 20
1.34979
 11
12.7582
 21
1.77159
  0
LINE
  8
0
 10
12.7582
 20
1.77159
 11
13.2295
 21
2.13719
  0
LINE
  8
0
 10
13.2295
 20
2.13719
 11
13.7429
 21
2.44084
  0
LINE
  8
0
 10
13.7429
 20
2.44084
 11
14.2904
 21
2.67775
  0
LINE
  8
0
 10
14.2904
 20
2.67775
 11
14.8632
 21
2.84416
  0
LINE
  8
0
 10
14.8632
 20
2.84416
 11
15.4524
 21
2.93748
  0
LINE
  8
0
 10
15.4524
 20
2.93748
 11
16.0486
 21
2.95622
  0
LINE
  8
0
 10
16.0486
 20
2.95622
 11
16.6425
 21
2.90009
  0
LINE
  8
0
 10
16.6425
 20
2.90009
 11
17.2246
 21
2.76996
  0
LINE
  8
0
 10
17.2246
 20
2.76996
 11
17.7858
 21
2.5679
  0
LINE
  8
0
 10
17.7858
 20
2.5679
 11
18.3173
 21
2.29709
  0
LINE
  8
0
 10
18.3173
 20
2.29709
 11
18.8107
 21
1.96179
  0
LINE
  8
0
 10
18.8107
 20
1.96179
 11
19.2581
 21
1.56732
  0
LINE
  8
0
 10
19.2581
 20
1.56732
 11
19.6526
 21
1.11987
  0
LINE
  8
0
 10
19.6526
 20
1.11987
 11
19.9879
 21
0.626511
  0
LINE
  8
0
 10
19.9879
 20
0.626511
 11
20.2587
 21
0.0950165
  0
LINE
  8
0
 10
20.2587
 20
0.0950165
 11
20.4608
 21
-0.466217
  0
LINE
  8
0
 10
20.4608
 20
-0.466217
 11
20.5909
 21
-1.04836
  0
LINE
  8
0
 10
20.5909
 20
-1.04836
 11
20.647
 21
-1.64223
  0
LINE
  8
0
 10
20.647
 20
-1.64223
 11
20.6283
 21
-2.23843
  0
LINE
  8
0
 10
20.6283
 20
-2.23843
 11
20.535
 21
-2.82761
  0
LINE
  8
0
 10
20.535
 20
-2.82761
 11
20.3686
 21
-3.40044
  0
LINE
  8
0
 10
20.3686
 20
-3.40044
 11
20.1317
 21
-3.94788
  0
LINE
  8
0
 10
20.1317
 20
-3.94788
 11
19.828
 21
-4.46132
  0
LINE
  8
0
 10
19.828
 20
-4.46132
 11
19.4624
 21
-4.93266
  0
LINE
  8
0
 10
19.4624
 20
-4.93266
 11
19.0406
 21
-5.35445
  0
LINE
  8
0
 10
19.0406
 20
-5.35445
 11
18.5693
 21
-5.72006
  0
LINE
  8
0
 10
18.5693
 20
-5.72006
 11
18.0558
 21
-6.02371
  0
LINE
  8
0
 10
18.0558
 20
-6.02371
 11
17.5084
 21
-6.2606
  0
LINE
  8
0
 10
17.5084
 20
-6.2606
 11
16.9356
 21
-6.42703
  0
LINE
  8
0
 10
16.9356
 20
-6.42703
 11
16.3464
 21
-6.52034
  0
LINE
  8
0
 10
16.3464
 20
-6.52034
 11
15.7502
 21
-6.53908
  0
LINE
  8
0
 10
15.7502
 20
-6.53908
 11
15.1563
 21
-6.48294
  0
LINE
  8
0
 10
-3.29825
 20
-9.93677
 11
-3.89006
 21
-9.86201
  0
LINE
  8
0
 10
-3.89006
 20
-9.86201
 11
-4.46782
 21
-9.71367
  0
LINE
  8
0
 10
-4.46782
 20
-9.71367
 11
-5.02245
 21
-9.49408
  0
LINE
  8
0
 10
-5.02245
 20
-9.49408
 11
-5.54517
 21
-9.2067
  0
LINE
  8
0
 10
-5.54517
 20
-9.2067
 11
-6.02776
 21
-8.85608
  0
LINE
  8
0
 10
-6.02776
 20
-8.85608
 11
-6.4626
 21
-8.44774
  0
LINE
  8
0
 10
-6.4626
 20
-8.44774
 11
-6.84282
 21
-7.98813
  0
LINE
  8
0
 10
-6.84282
 20
-7.98813
 11
-7.16245
 21
-7.48448
  0
LINE
  8
0
 10
-7.16245
 20
-7.48448
 11
-7.41643
 21
-6.94473
  0
LINE
  8
0
 10
-7.41643
 20
-6.94473
 11
-7.60077
 21
-6.37743
  0
LINE
  8
0
 10
-7.60077
 20
-6.37743
 11
-7.71254
 21
-5.79147
  0
LINE
  8
0
 10
-7.71254
 20
-5.79147
 11
-7.75
 21
-5.19615
  0
LINE
  8
0
 10
-7.75
 20
-5.19615
 11
-7.71254
 21
-4.60081
  0
LINE
  8
0
 10
-7.71254
 20
-4.60081
 11
-7.60077
 21
-4.01486
  0
LINE
  8
0
 10
-7.60077
 20
-4.01486
 11
-7.41643
 21
-3.44756
  0
LINE
  8
0
 10
-7.41643
 20
-3.44756
 11
-7.16245
 21
-2.90782
  0
LINE
  8
0
 10
-7.16245
 20
-2.90782
 11
-6.84282
 21
-2.40416
  0
LINE
  8
0
 10
-6.84282
 20
-2.40416
 11
-6.4626
 21
-1.94455
  0
LINE
  8
0
 10
-6.4626
 20
-1.94455
 11
-6.02776
 21
-1.53621
  0
LINE
  8
0
 10
-6.02776
 20
-1.53621
 11
-5.54517
 21
-1.18559
  0
LINE
  8
0
 10
-5.54517
 20
-1.18559
 11
-5.02245
 21
-0.898224
  0
LINE
  8
0
 10
-5.02245
 20
-0.898224
 11
-4.46782
 21
-0.678619
  0
LINE
  8
0
 10
-4.46782
 20
-0.678619
 11
-3.89006
 21
-0.530273
  0
LINE
  8
0
 10
-3.89006
 20
-0.530273
 11
-3.29825
 21
-0.455521
  0
LINE
  8
0
 10
-3.29825
 20
-0.455521
 11
-2.70174
 21
-0.455521
  0
LINE
  8
0
 10
-2.70174
 20
-0.455521
 11
-2.10992
 21
-0.530273
  0
LINE
  8
0
 10
-2.10992
 20
-0.530273
 11
-1.53217
 21
-0.678619
  0
LINE
  8
0
 10
-1.53217
 20
-0.678619
 11
-0.977539
 21
-0.898224
  0
LINE
  8
0
 10
-0.977539
 20
-0.898224
 11
-0.454819
 21
-1.18559
  0
LINE
  8
0
 10
-0.454819
 20
-1.18559
 11
0.0277557
 21
-1.53621
  0
LINE
  8
0
 10
0.0277557
 20
-1.53621
 11
0.462601
 21
-1.94455
  0
LINE
  8
0
 10
0.462601
 20
-1.94455
 11
0.842819
 21
-2.40416
  0
LINE
  8
0
 10
0.842819
 20
-2.40416
 11
1.16245
 21
-2.90782
  0
LINE
  8
0
 10
1.16245
 20
-2.90782
 11
1.41643
 21
-3.44756
  0
LINE
  8
0
 10
1.41643
 20
-3.44756
 11
1.60077
 21
-4.01486
  0
LINE
  8
0
 10
1.60077
 20
-4.01486
 11
1.71254
 21
-4.60081
  0
LINE
  8
0
 10
1.71254
 20
-4.60081
 11
1.75
 21
-5.19615
  0
LINE
  8
0
 10
1.75
 20
-5.19615
 11
1.71254
 21
-5.79147
  0
LINE
  8
0
 10
1.71254
 20
-5.79147
 11
1.60077
 21
-6.37743
  0
LINE
  8
0
 10
1.60077
 20
-6.37743
 11
1.41643
 21
-6.94473
  0
LINE
  8
0
 10
1.41643
 20
-6.94473
 11
1.16245
 21
-7.48448
  0
LINE
  8
0
 10
1.16245
 20
-7.48448
 11
0.842819
 21
-7.98813
  0
LINE
  8
0
 10
0.842819
 20
-7.98813
 11
0.462601
 21
-8.44774
  0
LINE
  8
0
 10
0.462601
 20
-8.44774
 11
0.0277557
 21
-8.85608
  0
LINE
  8
0
 10
0.0277557
 20
-8.85608
 11
-0.454819
 21
-9.2067
  0
LINE
  8
0
 10
-0.454819
 20
-9.2067
 11
-0.977539
 21
-9.49408
  0
LINE
  8
0
 10
-0.977539
 20
-9.49408
 11
-1.53217
 21
-9.71367
  0
LINE
  8
0
 10
-1.53217
 20
-9.71367
 11
-2.10992
 21
-9.86201
  0
LINE
  8
0
 10
-2.10992
 20
-9.86201
 11
-2.70174
 21
-9.93677
  0
LINE
  8
0
 10
-2.70174
 20
-9.93677
 11
-3.29825
 21
-9.93677
  0
LINE
  8
0
 10
-15.8452
 20
-9.97598
 11
-16.4273
 21
-9.84586
  0
LINE
  8
0
 10
-16.4273
 20
-9.84586
 11
-16.9886
 21
-9.6438
  0
LINE
  8
0
 10
-16.9886
 20
-9.6438
 11
-17.5201
 21
-9.37299
  0
LINE
  8
0
 10
-17.5201
 20
-9.37299
 11
-18.0134
 21
-9.03769
  0
LINE
  8
0
 10
-18.0134
 20
-9.03769
 11
-18.4609
 21
-8.64322
  0
LINE
  8
0
 10
-18.4609
 20
-8.64322
 11
-18.8554
 21
-8.19577
  0
LINE
  8
0
 10
-18.8554
 20
-8.19577
 11
-19.1906
 21
-7.70241
  0
LINE
  8
0
 10
-19.1906
 20
-7.70241
 11
-19.4615
 21
-7.17091
  0
LINE
  8
0
 10
-19.4615
 20
-7.17091
 11
-19.6635
 21
-6.60966
  0
LINE
  8
0
 10
-19.6635
 20
-6.60966
 11
-19.7936
 21
-6.02753
  0
LINE
  8
0
 10
-19.7936
 20
-6.02753
 11
-19.8498
 21
-5.43365
  0
LINE
  8
0
 10
-19.8498
 20
-5.43365
 11
-19.831
 21
-4.83745
  0
LINE
  8
0
 10
-19.831
 20
-4.83745
 11
-19.7377
 21
-4.24828
  0
LINE
  8
0
 10
-19.7377
 20
-4.24828
 11
-19.5713
 21
-3.67545
  0
LINE
  8
0
 10
-19.5713
 20
-3.67545
 11
-19.3344
 21
-3.12801
  0
LINE
  8
0
 10
-19.3344
 20
-3.12801
 11
-19.0308
 21
-2.61456
  0
LINE
  8
0
 10
-19.0308
 20
-2.61456
 11
-18.6651
 21
-2.14322
  0
LINE
  8
0
 10
-18.6651
 20
-2.14322
 11
-18.2434
 21
-1.72144
  0
LINE
  8
0
 10
-18.2434
 20
-1.72144
 11
-17.772
 21
-1.35582
  0
LINE
  8
0
 10
-17.772
 20
-1.35582
 11
-17.2586
 21
-1.05217
  0
LINE
  8
0
 10
-17.2586
 20
-1.05217
 11
-16.7111
 21
-0.815277
  0
LINE
  8
0
 10
-16.7111
 20
-0.815277
 11
-16.1383
 21
-0.648849
  0
LINE
  8
0
 10
-16.1383
 20
-0.648849
 11
-15.5491
 21
-0.555542
  0
LINE
  8
0
 10
-15.5491
 20
-0.555542
 11
-14.9529
 21
-0.536804
  0
LINE
  8
0
 10
-14.9529
 20
-0.536804
 11
-14.3591
 21
-0.592941
  0
LINE
  8
0
 10
-14.3591
 20
-0.592941
 11
-13.7769
 21
-0.723068
  0
LINE
  8
0
 10
-13.7769
 20
-0.723068
 11
-13.2157
 21
-0.925125
  0
LINE
  8
0
 10
-13.2157
 20
-0.925125
 11
-12.6842
 21
-1.19594
  0
LINE
  8
0
 10
-12.6842
 20
-1.19594
 11
-12.1908
 21
-1.53122
  0
LINE
  8
0
 10
-12.1908
 20
-1.53122
 11
-11.7434
 21
-1.9257
  0
LINE
  8
0
 10
-11.7434
 20
-1.9257
 11
-11.3489
 21
-2.37315
  0
LINE
  8
0
 10
-11.3489
 20
-2.37315
 11
-11.0136
 21
-2.86652
  0
LINE
  8
0
 10
-11.0136
 20
-2.86652
 11
-10.7428
 21
-3.39801
  0
LINE
  8
0
 10
-10.7428
 20
-3.39801
 11
-10.5407
 21
-3.95924
  0
LINE
  8
0
 10
-10.5407
 20
-3.95924
 11
-10.4106
 21
-4.5414
  0
LINE
  8
0
 10
-10.4106
 20
-4.5414
 11
-10.3545
 21
-5.13525
  0
LINE
  8
0
 10
-10.3545
 20
-5.13525
 11
-10.3732
 21
-5.73148
  0
LINE
  8
0
 10
-10.3732
 20
-5.73148
 11
-10.4665
 21
-6.32063
  0
LINE
  8
0
 10
-10.4665
 20
-6.32063
 11
-10.6329
 21
-6.89346
  0
LINE
  8
0
 10
-10.6329
 20
-6.89346
 11
-10.8698
 21
-7.44092
  0
LINE
  8
0
 10
-10.8698
 20
-7.44092
 11
-11.1735
 21
-7.95436
  0
LINE
  8
0
 10
-11.1735
 20
-7.95436
 11
-11.5391
 21
-8.42569
  0
LINE
  8
0
 10
-11.5391
 20
-8.42569
 11
-11.9609
 21
-8.84749
  0
LINE
  8
0
 10
-11.9609
 20
-8.84749
 11
-12.4322
 21
-9.21309
  0
LINE
  8
0
 10
-12.4322
 20
-9.21309
 11
-12.9457
 21
-9.51674
  0
LINE
  8
0
 10
-12.9457
 20
-9.51674
 11
-13.4931
 21
-9.75365
  0
LINE
  8
0
 10
-13.4931
 20
-9.75365
 11
-14.0659
 21
-9.92006
  0
LINE
  8
0
 10
-14.0659
 20
-9.92006
 11
-14.6551
 21
-10.0134
  0
LINE
  8
0
 10
-14.6551
 20
-10.0134
 11
-15.2513
 21
-10.0321
  0
LINE
  8
0
 10
-15.2513
 20
-10.0321
 11
-15.8452
 21
-9.97598
  0
LINE
  8
0
 10
7.76944
 20
-18.2391
 11
7.1873
 21
-18.109
  0
LINE
  8
0
 10
7.1873
 20
-18.109
 11
6.62605
 21
-17.9069
  0
LINE
  8
0
 10
6.62605
 20
-17.9069
 11
6.09456
 21
-17.6361
  0
LINE
  8
0
 10
6.09456
 20
-17.6361
 11
5.6012
 21
-17.3008
  0
LINE
  8
0
 10
5.6012
 20
-17.3008
 11
5.15375
 21
-16.9063
  0
LINE
  8
0
 10
5.15375
 20
-16.9063
 11
4.75926
 21
-16.4589
  0
LINE
  8
0
 10
4.75926
 20
-16.4589
 11
4.42398
 21
-15.9655
  0
LINE
  8
0
 10
4.42398
 20
-15.9655
 11
4.15317
 21
-15.434
  0
LINE
  8
0
 10
4.15317
 20
-15.434
 11
3.95111
 21
-14.8728
  0
LINE
  8
0
 10
3.95111
 20
-14.8728
 11
3.82098
 21
-14.2906
  0
LINE
  8
0
 10
3.82098
 20
-14.2906
 11
3.76485
 21
-13.6968
  0
LINE
  8
0
 10
3.76485
 20
-13.6968
 11
3.78358
 21
-13.1006
  0
LINE
  8
0
 10
3.78358
 20
-13.1006
 11
3.87691
 21
-12.5114
  0
LINE
  8
0
 10
3.87691
 20
-12.5114
 11
4.04332
 21
-11.9386
  0
LINE
  8
0
 10
4.04332
 20
-11.9386
 11
4.28023
 21
-11.3911
  0
LINE
  8
0
 10
4.28023
 20
-11.3911
 11
4.58388
 21
-10.8777
  0
LINE
  8
0
 10
4.58388
 20
-10.8777
 11
4.94948
 21
-10.4063
  0
LINE
  8
0
 10
4.94948
 20
-10.4063
 11
5.37128
 21
-9.98456
  0
LINE
  8
0
 10
5.37128
 20
-9.98456
 11
5.84261
 21
-9.61894
  0
LINE
  8
0
 10
5.84261
 20
-9.61894
 11
6.35605
 21
-9.31529
  0
LINE
  8
0
 10
6.35605
 20
-9.31529
 11
6.9035
 21
-9.0784
  0
LINE
  8
0
 10
6.9035
 20
-9.0784
 11
7.47632
 21
-8.91197
  0
LINE
  8
0
 10
7.47632
 20
-8.91197
 11
8.06549
 21
-8.81866
  0
LINE
  8
0
 10
8.06549
 20
-8.81866
 11
8.66171
 21
-8.79993
  0
LINE
  8
0
 10
8.66171
 20
-8.79993
 11
9.25557
 21
-8.85606
  0
LINE
  8
0
 10
9.25557
 20
-8.85606
 11
9.83771
 21
-8.98619
  0
LINE
  8
0
 10
9.83771
 20
-8.98619
 11
10.399
 21
-9.18825
  0
LINE
  8
0
 10
10.399
 20
-9.18825
 11
10.9305
 21
-9.45906
  0
LINE
  8
0
 10
10.9305
 20
-9.45906
 11
11.4238
 21
-9.79434
  0
LINE
  8
0
 10
11.4238
 20
-9.79434
 11
11.8713
 21
-10.1888
  0
LINE
  8
0
 10
11.8713
 20
-10.1888
 11
12.2657
 21
-10.6363
  0
LINE
  8
0
 10
12.2657
 20
-10.6363
 11
12.601
 21
-11.1296
  0
LINE
  8
0
 10
12.601
 20
-11.1296
 11
12.8718
 21
-11.6611
  0
LINE
  8
0
 10
12.8718
 20
-11.6611
 11
13.0739
 21
-12.2224
  0
LINE
  8
0
 10
13.0739
 20
-12.2224
 11
13.204
 21
-12.8045
  0
LINE
  8
0
 10
13.204
 20
-12.8045
 11
13.2602
 21
-13.3984
  0
LINE
  8
0
 10
13.2602
 20
-13.3984
 11
13.2414
 21
-13.9946
  0
LINE
  8
0
 10
13.2414
 20
-13.9946
 11
13.1481
 21
-14.5838
  0
LINE
  8
0
 10
13.1481
 20
-14.5838
 11
12.9817
 21
-15.1566
  0
LINE
  8
0
 10
12.9817
 20
-15.1566
 11
12.7448
 21
-15.704
  0
LINE
  8
0
 10
12.7448
 20
-15.704
 11
12.4411
 21
-16.2175
  0
LINE
  8
0
 10
12.4411
 20
-16.2175
 11
12.0755
 21
-16.6888
  0
LINE
  8
0
 10
12.0755
 20
-16.6888
 11
11.6537
 21
-17.1106
  0
LINE
  8
0
 10
11.6537
 20
-17.1106
 11
11.1824
 21
-17.4762
  0
LINE
  8
0
 10
11.1824
 20
-17.4762
 11
10.669
 21
-17.7799
  0
LINE
  8
0
 10
10.669
 20
-17.7799
 11
10.1215
 21
-18.0168
  0
LINE
  8
0
 10
10.1215
 20
-18.0168
 11
9.54869
 21
-18.1832
  0
LINE
  8
0
 10
9.54869
 20
-18.1832
 11
8.95952
 21
-18.2765
  0
LINE
  8
0
 10
8.95952
 20
-18.2765
 11
8.36331
 21
-18.2952
  0
LINE
  8
0
 10
8.36331
 20
-18.2952
 11
7.76944
 21
-18.2391
  0
LINE
  8
0
 10
-6.02753
 20
-19.7936
 11
-6.60966
 21
-19.6635
  0
LINE
  8
0
 10
-6.60966
 20
-19.6635
 11
-7.17091
 21
-19.4615
  0
LINE
  8
0
 10
-7.17091
 20
-19.4615
 11
-7.70241
 21
-19.1906
  0
LINE
  8
0
 10
-7.70241
 20
-19.1906
 11
-8.19577
 21
-18.8554
  0
LINE
  8
0
 10
-8.19577
 20
-18.8554
 11
-8.64322
 21
-18.4609
  0
LINE
  8
0
 10
-8.64322
 20
-18.4609
 11
-9.03769
 21
-18.0134
  0
LINE
  8
0
 10
-9.03769
 20
-18.0134
 11
-9.37299
 21
-17.5201
  0
LINE
  8
0
 10
-9.37299
 20
-17.5201
 11
-9.6438
 21
-16.9886
  0
LINE
  8
0
 10
-9.6438
 20
-16.9886
 11
-9.84586
 21
-16.4273
  0
LINE
  8
0
 10
-9.84586
 20
-16.4273
 11
-9.97598
 21
-15.8452
  0
LINE
  8
0
 10
-9.97598
 20
-15.8452
 11
-10.0321
 21
-15.2513
  0
LINE
  8
0
 10
-10.0321
 20
-15.2513
 11
-10.0134
 21
-14.6551
  0
LINE
  8
0
 10
-10.0134
 20
-14.6551
 11
-9.92006
 21
-14.0659
  0
LINE
  8
0
 10
-9.92006
 20
-14.0659
 11
-9.75365
 21
-13.4931
  0
LINE
  8
0
 10
-9.75365
 20
-13.4931
 11
-9.51674
 21
-12.9457
  0
LINE
  8
0
 10
-9.51674
 20
-12.9457
 11
-9.21309
 21
-12.4322
  0
LINE
  8
0
 10
-9.21309
 20
-12.4322
 11
-8.84749
 21
-11.9609
  0
LINE
  8
0
 10
-8.84749
 20
-11.9609
 11
-8.42569
 21
-11.5391
  0
LINE
  8
0
 10
-8.42569
 20
-11.5391
 11
-7.95436
 21
-11.1735
  0
LINE
  8
0
 10
-7.95436
 20
-11.1735
 11
-7.44092
 21
-10.8698
  0
LINE
  8
0
 10
-7.44092
 20
-10.8698
 11
-6.89346
 21
-10.6329
  0
LINE
  8
0
 10
-6.89346
 20
-10.6329
 11
-6.32063
 21
-10.4665
  0
LINE
  8
0
 10
-6.32063
 20
-10.4665
 11
-5.73148
 21
-10.3732
  0
LINE
  8
0
 10
-5.73148
 20
-10.3732
 11
-5.13525
 21
-10.3545
  0
LINE
  8
0
 10
-5.13525
 20
-10.3545
 11
-4.5414
 21
-10.4106
  0
LINE
  8
0
 10
-4.5414
 20
-10.4106
 11
-3.95924
 21
-10.5407
  0
LINE
  8
0
 10
-3.95924
 20
-10.5407
 11
-3.39801
 21
-10.7428
  0
LINE
  8
0
 10
-3.39801
 20
-10.7428
 11
-2.86652
 21
-11.0136
  0
LINE
  8
0
 10
-2.86652
 20
-11.0136
 11
-2.37315
 21
-11.3489
  0
LINE
  8
0
 10
-2.37315
 20
-11.3489
 11
-1.9257
 21
-11.7434
  0
LINE
  8
0
 10
-1.9257
 20
-11.7434
 11
-1.53122
 21
-12.1908
  0
LINE
  8
0
 10
-1.53122
 20
-12.1908
 11
-1.19594
 21
-12.6842
  0
LINE
  8
0
 10
-1.19594
 20
-12.6842
 11
-0.925125
 21
-13.2157
  0
LINE
  8
0
 10
-0.925125
 20
-13.2157
 11
-0.723068
 21
-13.7769
  0
LINE
  8
0
 10
-0.723068
 20
-13.7769
 11
-0.592941
 21
-14.3591
  0
LINE
  8
0
 10
-0.592941
 20
-14.3591
 11
-0.536804
 21
-14.9529
  0
LINE
  8
0
 10
-0.536804
 20
-14.9529
 11
-0.555542
 21
-15.5491
  0
LINE
  8
0
 10
-0.555542
 20
-15.5491
 11
-0.648849
 21
-16.1383
  0
LINE
  8
0
 10
-0.648849
 20
-16.1383
 11
-0.815277
 21
-16.7111
  0
LINE
  8
0
 10
-0.815277
 20
-16.7111
 11
-1.05217
 21
-17.2586
  0
LINE
  8
0
 10
-1.05217
 20
-17.2586
 11
-1.35582
 21
-17.772
  0
LINE
  8
0
 10
-1.35582
 20
-17.772
 11
-1.72144
 21
-18.2434
  0
LINE
  8
0
 10
-1.72144
 20
-18.2434
 11
-2.14322
 21
-18.6651
  0
LINE
  8
0
 10
-2.14322
 20
-18.6651
 11
-2.61456
 21
-19.0308
  0
LINE
  8
0
 10
-2.61456
 20
-19.0308
 11
-3.12801
 21
-19.3344
  0
LINE
  8
0
 10
-3.12801
 20
-19.3344
 11
-3.67545
 21
-19.5713
  0
LINE
  8
0
 10
-3.67545
 20
-19.5713
 11
-4.24828
 21
-19.7377
  0
LINE
  8
0
 10
-4.24828
 20
-19.7377
 11
-4.83745
 21
-19.831
  0
LINE
  8
0
 10
-4.83745
 20
-19.831
 11
-5.43365
 21
-19.8498
  0
LINE
  8
0
 10
-5.43365
 20
-19.8498
 11
-6.02753
 21
-19.7936
  0
ENDSEC
  0
SECTION
  2
OBJECTS
  0
DICTIONARY
  0
ENDSEC
  0
EOF
