  0
SECTION
  2
BLOCKS
  0
ENDSEC
  0
SECTION
  2
ENTITIES
  0
LINE
  8
0
 10
-112
 20
-76
 11
-13
 21
-76
  0
LINE
  8
0
 10
-13
 20
-76
 11
-13
 21
-82.5
  0
LINE
  8
0
 10
-13
 20
-82.5
 11
13
 21
-82.5
  0
LINE
  8
0
 10
13
 20
-82.5
 11
13
 21
-76
  0
LINE
  8
0
 10
13
 20
-76
 11
112
 21
-76
  0
LINE
  8
0
 10
112
 20
-76
 11
112
 21
-82.5
  0
LINE
  8
0
 10
112
 20
-82.5
 11
138
 21
-82.5
  0
LINE
  8
0
 10
138
 20
-82.5
 11
138
 21
-76
  0
LINE
  8
0
 10
138
 20
-76
 11
187.5
 21
-76
  0
LINE
  8
0
 10
187.5
 20
-76
 11
187.5
 21
-63.6667
  0
LINE
  8
0
 10
187.5
 20
-63.6667
 11
194
 21
-63.6667
  0
LINE
  8
0
 10
194
 20
-63.6667
 11
194
 21
-37.6667
  0
LINE
  8
0
 10
194
 20
-37.6667
 11
187.5
 21
-37.6667
  0
LINE
  8
0
 10
187.5
 20
-37.6667
 11
187.5
 21
37.6667
  0
LINE
  8
0
 10
187.5
 20
37.6667
 11
194
 21
37.6667
  0
LINE
  8
0
 10
194
 20
37.6667
 11
194
 21
63.6667
  0
LINE
  8
0
 10
194
 20
63.6667
 11
187.5
 21
63.6667
  0
LINE
  8
0
 10
187.5
 20
63.6667
 11
187.5
 21
76
  0
LINE
  8
0
 10
187.5
 20
76
 11
-187.5
 21
76
  0
LINE
  8
0
 10
-187.5
 20
76
 11
-187.5
 21
63.6667
  0
LINE
  8
0
 10
-187.5
 20
63.6667
 11
-194
 21
63.6667
  0
LINE
  8
0
 10
-194
 20
63.6667
 11
-194
 21
37.6667
  0
LINE
  8
0
 10
-194
 20
37.6667
 11
-187.5
 21
37.6667
  0
LINE
  8
0
 10
-187.5
 20
37.6667
 11
-187.5
 21
-37.6667
  0
LINE
  8
0
 10
-187.5
 20
-37.6667
 11
-194
 21
-37.6667
  0
LINE
  8
0
 10
-194
 20
-37.6667
 11
-194
 21
-63.6667
  0
LINE
  8
0
 10
-194
 20
-63.6667
 11
-187.5
 21
-63.6667
  0
LINE
  8
0
 10
-187.5
 20
-63.6667
 11
-187.5
 21
-76
  0
LINE
  8
0
 10
-187.5
 20
-76
 11
-138
 21
-76
  0
LINE
  8
0
 10
-138
 20
-76
 11
-138
 21
-82.5
  0
LINE
  8
0
 10
-138
 20
-82.5
 11
-112
 21
-82.5
  0
LINE
  8
0
 10
-112
 20
-82.5
 11
-112
 21
-76
  0
LINE
  8
0
 10
-2.98235
 20
15.1827
 11
-3.56448
 21
15.3128
  0
LINE
  8
0
 10
-3.56448
 20
15.3128
 11
-4.12573
 21
15.5149
  0
LINE
  8
0
 10
-4.12573
 20
15.5149
 11
-4.65723
 21
15.7857
  0
LINE
  8
0
 10
-4.65723
 20
15.7857
 11
-5.15059
 21
16.121
  0
LINE
  8
0
 10
-5.15059
 20
16.121
 11
-5.59804
 21
16.5155
  0
LINE
  8
0
 10
-5.59804
 20
16.5155
 11
-5.99252
 21
16.9629
  0
LINE
  8
0
 10
-5.99252
 20
16.9629
 11
-6.3278
 21
17.4563
  0
LINE
  8
0
 10
-6.3278
 20
17.4563
 11
-6.59862
 21
17.9878
  0
LINE
  8
0
 10
-6.59862
 20
17.9878
 11
-6.80067
 21
18.549
  0
LINE
  8
0
 10
-6.80067
 20
18.549
 11
-6.9308
 21
19.1312
  0
LINE
  8
0
 10
-6.9308
 20
19.1312
 11
-6.98694
 21
19.725
  0
LINE
  8
0
 10
-6.98694
 20
19.725
 11
-6.9682
 21
20.3213
  0
LINE
  8
0
 10
-6.9682
 20
20.3213
 11
-6.87489
 21
20.9104
  0
LINE
  8
0
 10
-6.87489
 20
20.9104
 11
-6.70847
 21
21.4832
  0
LINE
  8
0
 10
-6.70847
 20
21.4832
 11
-6.47156
 21
22.0307
  0
LINE
  8
0
 10
-6.47156
 20
22.0307
 11
-6.16792
 21
22.5441
  0
LINE
  8
0
 10
-6.16792
 20
22.5441
 11
-5.80231
 21
23.0155
  0
LINE
  8
0
 10
-5.80231
 20
23.0155
 11
-5.38051
 21
23.4373
  0
LINE
  8
0
 10
-5.38051
 20
23.4373
 11
-4.90918
 21
23.8029
  0
LINE
  8
0
 10
-4.90918
 20
23.8029
 11
-4.39574
 21
24.1065
  0
LINE
  8
0
 10
-4.39574
 20
24.1065
 11
-3.84828
 21
24.3434
  0
LINE
  8
0
 10
-3.84828
 20
24.3434
 11
-3.27547
 21
24.5098
  0
LINE
  8
0
 10
-3.27547
 20
24.5098
 11
-2.68629
 21
24.6031
  0
LINE
  8
0
 10
-2.68629
 20
24.6031
 11
-2.09009
 21
24.6219
  0
LINE
  8
0
 10
-2.09009
 20
24.6219
 11
-1.49622
 21
24.5658
  0
LINE
  8
0
 10
-1.49622
 20
24.5658
 11
-0.914078
 21
24.4356
  0
LINE
  8
0
 10
-0.914078
 20
24.4356
 11
-0.352829
 21
24.2336
  0
LINE
  8
0
 10
-0.352829
 20
24.2336
 11
0.17865
 21
23.9628
  0
LINE
  8
0
 10
0.17865
 20
23.9628
 11
0.672012
 21
23.6275
  0
LINE
  8
0
 10
0.672012
 20
23.6275
 11
1.11946
 21
23.233
  0
LINE
  8
0
 10
1.11946
 20
23.233
 11
1.51395
 21
22.7855
  0
LINE
  8
0
 10
1.51395
 20
22.7855
 11
1.84923
 21
22.2922
  0
LINE
  8
0
 10
1.84923
 20
22.2922
 11
2.12004
 21
21.7607
  0
LINE
  8
0
 10
2.12004
 20
21.7607
 11
2.3221
 21
21.1994
  0
LINE
  8
0
 10
2.3221
 20
21.1994
 11
2.45222
 21
20.6173
  0
LINE
  8
0
 10
2.45222
 20
20.6173
 11
2.50836
 21
20.0234
  0
LINE
  8
0
 10
2.50836
 20
20.0234
 11
2.48962
 21
19.4272
  0
LINE
  8
0
 10
2.48962
 20
19.4272
 11
2.3963
 21
18.8381
  0
LINE
  8
0
 10
2.3963
 20
18.8381
 11
2.22989
 21
18.2652
  0
LINE
  8
0
 10
2.22989
 20
18.2652
 11
1.99298
 21
17.7178
  0
LINE
  8
0
 10
1.99298
 20
17.7178
 11
1.68933
 21
17.2043
  0
LINE
  8
0
 10
1.68933
 20
17.2043
 11
1.32373
 21
16.733
  0
LINE
  8
0
 10
1.32373
 20
16.733
 11
0.901932
 21
16.3112
  0
LINE
  8
0
 10
0.901932
 20
16.3112
 11
0.430603
 21
15.9456
  0
LINE
  8
0
 10
0.430603
 20
15.9456
 11
-0.0828247
 21
15.642
  0
LINE
  8
0
 10
-0.0828247
 20
15.642
 11
-0.63028
 21
15.4051
  0
LINE
  8
0
 10
-0.63028
 20
15.4051
 11
-1.20309
 21
15.2386
  0
LINE
  8
0
 10
-1.20309
 20
15.2386
 11
-1.79227
 21
15.1453
  0
LINE
  8
0
 10
-1.79227
 20
15.1453
 11
-2.38849
 21
15.1266
  0
LINE
  8
0
 10
-2.38849
 20
15.1266
 11
-2.98235
 21
15.1827
  0
LINE
  8
0
 10
13.3991
 20
9.45061
 11
12.8169
 21
9.58073
  0
LINE
  8
0
 10
12.8169
 20
9.58073
 11
12.2557
 21
9.78279
  0
LINE
  8
0
 10
12.2557
 20
9.78279
 11
11.7242
 21
10.0536
  0
LINE
  8
0
 10
11.7242
 20
10.0536
 11
11.2308
 21
10.3889
  0
LINE
  8
0
 10
11.2308
 20
10.3889
 11
10.7834
 21
10.7834
  0
LINE
  8
0
 10
10.7834
 20
10.7834
 11
10.3889
 21
11.2308
  0
LINE
  8
0
 10
10.3889
 20
11.2308
 11
10.0536
 21
11.7242
  0
LINE
  8
0
 10
10.0536
 20
11.7242
 11
9.78279
 21
12.2557
  0
LINE
  8
0
 10
9.78279
 20
12.2557
 11
9.58073
 21
12.8169
  0
LINE
  8
0
 10
9.58073
 20
12.8169
 11
9.45061
 21
13.3991
  0
LINE
  8
0
 10
9.45061
 20
13.3991
 11
9.39447
 21
13.9929
  0
LINE
  8
0
 10
9.39447
 20
13.9929
 11
9.41321
 21
14.5891
  0
LINE
  8
0
 10
9.41321
 20
14.5891
 11
9.50653
 21
15.1783
  0
LINE
  8
0
 10
9.50653
 20
15.1783
 11
9.67294
 21
15.7511
  0
LINE
  8
0
 10
9.67294
 20
15.7511
 11
9.90985
 21
16.2986
  0
LINE
  8
0
 10
9.90985
 20
16.2986
 11
10.2135
 21
16.812
  0
LINE
  8
0
 10
10.2135
 20
16.812
 11
10.5791
 21
17.2834
  0
LINE
  8
0
 10
10.5791
 20
17.2834
 11
11.0009
 21
17.7052
  0
LINE
  8
0
 10
11.0009
 20
17.7052
 11
11.4722
 21
18.0708
  0
LINE
  8
0
 10
11.4722
 20
18.0708
 11
11.9857
 21
18.3744
  0
LINE
  8
0
 10
11.9857
 20
18.3744
 11
12.5331
 21
18.6113
  0
LINE
  8
0
 10
12.5331
 20
18.6113
 11
13.1059
 21
18.7777
  0
LINE
  8
0
 10
13.1059
 20
18.7777
 11
13.6951
 21
18.871
  0
LINE
  8
0
 10
13.6951
 20
18.871
 11
14.2913
 21
18.8898
  0
LINE
  8
0
 10
14.2913
 20
18.8898
 11
14.8852
 21
18.8336
  0
LINE
  8
0
 10
14.8852
 20
18.8336
 11
15.4673
 21
18.7035
  0
LINE
  8
0
 10
15.4673
 20
18.7035
 11
16.0286
 21
18.5015
  0
LINE
  8
0
 10
16.0286
 20
18.5015
 11
16.5601
 21
18.2307
  0
LINE
  8
0
 10
16.5601
 20
18.2307
 11
17.0534
 21
17.8954
  0
LINE
  8
0
 10
17.0534
 20
17.8954
 11
17.5009
 21
17.5009
  0
LINE
  8
0
 10
17.5009
 20
17.5009
 11
17.8954
 21
17.0534
  0
LINE
  8
0
 10
17.8954
 20
17.0534
 11
18.2307
 21
16.5601
  0
LINE
  8
0
 10
18.2307
 20
16.5601
 11
18.5015
 21
16.0286
  0
LINE
  8
0
 10
18.5015
 20
16.0286
 11
18.7035
 21
15.4673
  0
LINE
  8
0
 10
18.7035
 20
15.4673
 11
18.8336
 21
14.8852
  0
LINE
  8
0
 10
18.8336
 20
14.8852
 11
18.8898
 21
14.2913
  0
LINE
  8
0
 10
18.8898
 20
14.2913
 11
18.871
 21
13.6951
  0
LINE
  8
0
 10
18.871
 20
13.6951
 11
18.7777
 21
13.1059
  0
LINE
  8
0
 10
18.7777
 20
13.1059
 11
18.6113
 21
12.5331
  0
LINE
  8
0
 10
18.6113
 20
12.5331
 11
18.3744
 21
11.9857
  0
LINE
  8
0
 10
18.3744
 20
11.9857
 11
18.0708
 21
11.4722
  0
LINE
  8
0
 10
18.0708
 20
11.4722
 11
17.7052
 21
11.0009
  0
LINE
  8
0
 10
17.7052
 20
11.0009
 11
17.2834
 21
10.5791
  0
LINE
  8
0
 10
17.2834
 20
10.5791
 11
16.812
 21
10.2135
  0
LINE
  8
0
 10
16.812
 20
10.2135
 11
16.2986
 21
9.90985
  0
LINE
  8
0
 10
16.2986
 20
9.90985
 11
15.7511
 21
9.67294
  0
LINE
  8
0
 10
15.7511
 20
9.67294
 11
15.1783
 21
9.50653
  0
LINE
  8
0
 10
15.1783
 20
9.50653
 11
14.5891
 21
9.41321
  0
LINE
  8
0
 10
14.5891
 20
9.41321
 11
13.9929
 21
9.39447
  0
LINE
  8
0
 10
13.9929
 20
9.39447
 11
13.3991
 21
9.45061
  0
LINE
  8
0
 10
-17.6775
 20
5.94911
 11
-18.2597
 21
6.07924
  0
LINE
  8
0
 10
-18.2597
 20
6.07924
 11
-18.8209
 21
6.2813
  0
LINE
  8
0
 10
-18.8209
 20
6.2813
 11
-19.3524
 21
6.55211
  0
LINE
  8
0
 10
-19.3524
 20
6.55211
 11
-19.8458
 21
6.88741
  0
LINE
  8
0
 10
-19.8458
 20
6.88741
 11
-20.2932
 21
7.28188
  0
LINE
  8
0
 10
-20.2932
 20
7.28188
 11
-20.6877
 21
7.72932
  0
LINE
  8
0
 10
-20.6877
 20
7.72932
 11
-21.023
 21
8.22269
  0
LINE
  8
0
 10
-21.023
 20
8.22269
 11
-21.2938
 21
8.75418
  0
LINE
  8
0
 10
-21.2938
 20
8.75418
 11
-21.4959
 21
9.31543
  0
LINE
  8
0
 10
-21.4959
 20
9.31543
 11
-21.626
 21
9.89757
  0
LINE
  8
0
 10
-21.626
 20
9.89757
 11
-21.6821
 21
10.4914
  0
LINE
  8
0
 10
-21.6821
 20
10.4914
 11
-21.6634
 21
11.0876
  0
LINE
  8
0
 10
-21.6634
 20
11.0876
 11
-21.5701
 21
11.6768
  0
LINE
  8
0
 10
-21.5701
 20
11.6768
 11
-21.4037
 21
12.2496
  0
LINE
  8
0
 10
-21.4037
 20
12.2496
 11
-21.1668
 21
12.7971
  0
LINE
  8
0
 10
-21.1668
 20
12.7971
 11
-20.8631
 21
13.3105
  0
LINE
  8
0
 10
-20.8631
 20
13.3105
 11
-20.4975
 21
13.7819
  0
LINE
  8
0
 10
-20.4975
 20
13.7819
 11
-20.0757
 21
14.2037
  0
LINE
  8
0
 10
-20.0757
 20
14.2037
 11
-19.6044
 21
14.5693
  0
LINE
  8
0
 10
-19.6044
 20
14.5693
 11
-19.0909
 21
14.8729
  0
LINE
  8
0
 10
-19.0909
 20
14.8729
 11
-18.5435
 21
15.1098
  0
LINE
  8
0
 10
-18.5435
 20
15.1098
 11
-17.9707
 21
15.2762
  0
LINE
  8
0
 10
-17.9707
 20
15.2762
 11
-17.3815
 21
15.3696
  0
LINE
  8
0
 10
-17.3815
 20
15.3696
 11
-16.7853
 21
15.3883
  0
LINE
  8
0
 10
-16.7853
 20
15.3883
 11
-16.1914
 21
15.3322
  0
LINE
  8
0
 10
-16.1914
 20
15.3322
 11
-15.6093
 21
15.202
  0
LINE
  8
0
 10
-15.6093
 20
15.202
 11
-15.048
 21
15
  0
LINE
  8
0
 10
-15.048
 20
15
 11
-14.5165
 21
14.7292
  0
LINE
  8
0
 10
-14.5165
 20
14.7292
 11
-14.0232
 21
14.3939
  0
LINE
  8
0
 10
-14.0232
 20
14.3939
 11
-13.5757
 21
13.9994
  0
LINE
  8
0
 10
-13.5757
 20
13.9994
 11
-13.1812
 21
13.5519
  0
LINE
  8
0
 10
-13.1812
 20
13.5519
 11
-12.8459
 21
13.0586
  0
LINE
  8
0
 10
-12.8459
 20
13.0586
 11
-12.5751
 21
12.5271
  0
LINE
  8
0
 10
-12.5751
 20
12.5271
 11
-12.3731
 21
11.9658
  0
LINE
  8
0
 10
-12.3731
 20
11.9658
 11
-12.243
 21
11.3837
  0
LINE
  8
0
 10
-12.243
 20
11.3837
 11
-12.1868
 21
10.7898
  0
LINE
  8
0
 10
-12.1868
 20
10.7898
 11
-12.2056
 21
10.1936
  0
LINE
  8
0
 10
-12.2056
 20
10.1936
 11
-12.2989
 21
9.60445
  0
LINE
  8
0
 10
-12.2989
 20
9.60445
 11
-12.4653
 21
9.03163
  0
LINE
  8
0
 10
-12.4653
 20
9.03163
 11
-12.7022
 21
8.48418
  0
LINE
  8
0
 10
-12.7022
 20
8.48418
 11
-13.0058
 21
7.97073
  0
LINE
  8
0
 10
-13.0058
 20
7.97073
 11
-13.3714
 21
7.4994
  0
LINE
  8
0
 10
-13.3714
 20
7.4994
 11
-13.7932
 21
7.07761
  0
LINE
  8
0
 10
-13.7932
 20
7.07761
 11
-14.2646
 21
6.71201
  0
LINE
  8
0
 10
-14.2646
 20
6.71201
 11
-14.778
 21
6.40836
  0
LINE
  8
0
 10
-14.778
 20
6.40836
 11
-15.3255
 21
6.17145
  0
LINE
  8
0
 10
-15.3255
 20
6.17145
 11
-15.8983
 21
6.00504
  0
LINE
  8
0
 10
-15.8983
 20
6.00504
 11
-16.4875
 21
5.91171
  0
LINE
  8
0
 10
-16.4875
 20
5.91171
 11
-17.0837
 21
5.89297
  0
LINE
  8
0
 10
-17.0837
 20
5.89297
 11
-17.6775
 21
5.94911
  0
LINE
  8
0
 10
-3.79825
 20
1.32155
 11
-4.39006
 21
1.3963
  0
LINE
  8
0
 10
-4.39006
 20
1.3963
 11
-4.96782
 21
1.54465
  0
LINE
  8
0
 10
-4.96782
 20
1.54465
 11
-5.52245
 21
1.76424
  0
LINE
  8
0
 10
-5.52245
 20
1.76424
 11
-6.04517
 21
2.05161
  0
LINE
  8
0
 10
-6.04517
 20
2.05161
 11
-6.52776
 21
2.40224
  0
LINE
  8
0
 10
-6.52776
 20
2.40224
 11
-6.9626
 21
2.81058
  0
LINE
  8
0
 10
-6.9626
 20
2.81058
 11
-7.34282
 21
3.27019
  0
LINE
  8
0
 10
-7.34282
 20
3.27019
 11
-7.66245
 21
3.77383
  0
LINE
  8
0
 10
-7.66245
 20
3.77383
 11
-7.91643
 21
4.31358
  0
LINE
  8
0
 10
-7.91643
 20
4.31358
 11
-8.10077
 21
4.88089
  0
LINE
  8
0
 10
-8.10077
 20
4.88089
 11
-8.21254
 21
5.46684
  0
LINE
  8
0
 10
-8.21254
 20
5.46684
 11
-8.25
 21
6.06216
  0
LINE
  8
0
 10
-8.25
 20
6.06216
 11
-8.21254
 21
6.6575
  0
LINE
  8
0
 10
-8.21254
 20
6.6575
 11
-8.10077
 21
7.24345
  0
LINE
  8
0
 10
-8.10077
 20
7.24345
 11
-7.91643
 21
7.81076
  0
LINE
  8
0
 10
-7.91643
 20
7.81076
 11
-7.66245
 21
8.35049
  0
LINE
  8
0
 10
-7.66245
 20
8.35049
 11
-7.34282
 21
8.85416
  0
LINE
  8
0
 10
-7.34282
 20
8.85416
 11
-6.9626
 21
9.31377
  0
LINE
  8
0
 10
-6.9626
 20
9.31377
 11
-6.52776
 21
9.72211
  0
LINE
  8
0
 10
-6.52776
 20
9.72211
 11
-6.04517
 21
10.0727
  0
LINE
  8
0
 10
-6.04517
 20
10.0727
 11
-5.52245
 21
10.3601
  0
LINE
  8
0
 10
-5.52245
 20
10.3601
 11
-4.96782
 21
10.5797
  0
LINE
  8
0
 10
-4.96782
 20
10.5797
 11
-4.39006
 21
10.728
  0
LINE
  8
0
 10
-4.39006
 20
10.728
 11
-3.79825
 21
10.8028
  0
LINE
  8
0
 10
-3.79825
 20
10.8028
 11
-3.20174
 21
10.8028
  0
LINE
  8
0
 10
-3.20174
 20
10.8028
 11
-2.60992
 21
10.728
  0
LINE
  8
0
 10
-2.60992
 20
10.728
 11
-2.03217
 21
10.5797
  0
LINE
  8
0
 10
-2.03217
 20
10.5797
 11
-1.47754
 21
10.3601
  0
LINE
  8
0
 10
-1.47754
 20
10.3601
 11
-0.954819
 21
10.0727
  0
LINE
  8
0
 10
-0.954819
 20
10.0727
 11
-0.472229
 21
9.72211
  0
LINE
  8
0
 10
-0.472229
 20
9.72211
 11
-0.037384
 21
9.31377
  0
LINE
  8
0
 10
-0.037384
 20
9.31377
 11
0.342819
 21
8.85416
  0
LINE
  8
0
 10
0.342819
 20
8.85416
 11
0.662445
 21
8.35049
  0
LINE
  8
0
 10
0.662445
 20
8.35049
 11
0.916428
 21
7.81076
  0
LINE
  8
0
 10
0.916428
 20
7.81076
 11
1.10077
 21
7.24345
  0
LINE
  8
0
 10
1.10077
 20
7.24345
 11
1.21254
 21
6.6575
  0
LINE
  8
0
 10
1.21254
 20
6.6575
 11
1.25
 21
6.06216
  0
LINE
  8
0
 10
1.25
 20
6.06216
 11
1.21254
 21
5.46684
  0
LINE
  8
0
 10
1.21254
 20
5.46684
 11
1.10077
 21
4.88089
  0
LINE
  8
0
 10
1.10077
 20
4.88089
 11
0.916428
 21
4.31358
  0
LINE
  8
0
 10
0.916428
 20
4.31358
 11
0.662445
 21
3.77383
  0
LINE
  8
0
 10
0.662445
 20
3.77383
 11
0.342819
 21
3.27019
  0
LINE
  8
0
 10
0.342819
 20
3.27019
 11
-0.037384
 21
2.81058
  0
LINE
  8
0
 10
-0.037384
 20
2.81058
 11
-0.472229
 21
2.40224
  0
LINE
  8
0
 10
-0.472229
 20
2.40224
 11
-0.954819
 21
2.05161
  0
LINE
  8
0
 10
-0.954819
 20
2.05161
 11
-1.47754
 21
1.76424
  0
LINE
  8
0
 10
-1.47754
 20
1.76424
 11
-2.03217
 21
1.54465
  0
LINE
  8
0
 10
-2.03217
 20
1.54465
 11
-2.60992
 21
1.3963
  0
LINE
  8
0
 10
-2.60992
 20
1.3963
 11
-3.20174
 21
1.32155
  0
LINE
  8
0
 10
-3.20174
 20
1.32155
 11
-3.79825
 21
1.32155
  0
LINE
  8
0
 10
6.70174
 20
-4.74062
 11
6.10992
 21
-4.66586
  0
LINE
  8
0
 10
6.10992
 20
-4.66586
 11
5.53217
 21
-4.51752
  0
LINE
  8
0
 10
5.53217
 20
-4.51752
 11
4.97754
 21
-4.29793
  0
LINE
  8
0
 10
4.97754
 20
-4.29793
 11
4.45482
 21
-4.01054
  0
LINE
  8
0
 10
4.45482
 20
-4.01054
 11
3.97223
 21
-3.65993
  0
LINE
  8
0
 10
3.97223
 20
-3.65993
 11
3.53738
 21
-3.25159
  0
LINE
  8
0
 10
3.53738
 20
-3.25159
 11
3.15717
 21
-2.79198
  0
LINE
  8
0
 10
3.15717
 20
-2.79198
 11
2.83754
 21
-2.28831
  0
LINE
  8
0
 10
2.83754
 20
-2.28831
 11
2.58356
 21
-1.74858
  0
LINE
  8
0
 10
2.58356
 20
-1.74858
 11
2.39922
 21
-1.18127
  0
LINE
  8
0
 10
2.39922
 20
-1.18127
 11
2.28745
 21
-0.595322
  0
LINE
  8
0
 10
2.28745
 20
-0.595322
 11
2.25
 21
0
  0
LINE
  8
0
 10
2.25
 20
0
 11
2.28745
 21
0.595322
  0
LINE
  8
0
 10
2.28745
 20
0.595322
 11
2.39922
 21
1.18127
  0
LINE
  8
0
 10
2.39922
 20
1.18127
 11
2.58356
 21
1.74858
  0
LINE
  8
0
 10
2.58356
 20
1.74858
 11
2.83754
 21
2.28831
  0
LINE
  8
0
 10
2.83754
 20
2.28831
 11
3.15717
 21
2.79198
  0
LINE
  8
0
 10
3.15717
 20
2.79198
 11
3.53738
 21
3.25159
  0
LINE
  8
0
 10
3.53738
 20
3.25159
 11
3.97223
 21
3.65993
  0
LINE
  8
0
 10
3.97223
 20
3.65993
 11
4.45482
 21
4.01054
  0
LINE
  8
0
 10
4.45482
 20
4.01054
 11
4.97754
 21
4.29793
  0
LINE
  8
0
 10
4.97754
 20
4.29793
 11
5.53217
 21
4.51752
  0
LINE
  8
0
 10
5.53217
 20
4.51752
 11
6.10992
 21
4.66586
  0
LINE
  8
0
 10
6.10992
 20
4.66586
 11
6.70174
 21
4.74062
  0
LINE
  8
0
 10
6.70174
 20
4.74062
 11
7.29825
 21
4.74062
  0
LINE
  8
0
 10
7.29825
 20
4.74062
 11
7.89006
 21
4.66586
  0
LINE
  8
0
 10
7.89006
 20
4.66586
 11
8.46782
 21
4.51752
  0
LINE
  8
0
 10
8.46782
 20
4.51752
 11
9.02245
 21
4.29793
  0
LINE
  8
0
 10
9.02245
 20
4.29793
 11
9.54517
 21
4.01054
  0
LINE
  8
0
 10
9.54517
 20
4.01054
 11
10.0278
 21
3.65993
  0
LINE
  8
0
 10
10.0278
 20
3.65993
 11
10.4626
 21
3.25159
  0
LINE
  8
0
 10
10.4626
 20
3.25159
 11
10.8428
 21
2.79198
  0
LINE
  8
0
 10
10.8428
 20
2.79198
 11
11.1624
 21
2.28831
  0
LINE
  8
0
 10
11.1624
 20
2.28831
 11
11.4164
 21
1.74858
  0
LINE
  8
0
 10
11.4164
 20
1.74858
 11
11.6008
 21
1.18127
  0
LINE
  8
0
 10
11.6008
 20
1.18127
 11
11.7125
 21
0.595322
  0
LINE
  8
0
 10
11.7125
 20
0.595322
 11
11.75
 21
0
  0
LINE
  8
0
 10
11.75
 20
0
 11
11.7125
 21
-0.595322
  0
LINE
  8
0
 10
11.7125
 20
-0.595322
 11
11.6008
 21
-1.18127
  0
LINE
  8
0
 10
11.6008
 20
-1.18127
 11
11.4164
 21
-1.74858
  0
LINE
  8
0
 10
11.4164
 20
-1.74858
 11
11.1624
 21
-2.28831
  0
LINE
  8
0
 10
11.1624
 20
-2.28831
 11
10.8428
 21
-2.79198
  0
LINE
  8
0
 10
10.8428
 20
-2.79198
 11
10.4626
 21
-3.25159
  0
LINE
  8
0
 10
10.4626
 20
-3.25159
 11
10.0278
 21
-3.65993
  0
LINE
  8
0
 10
10.0278
 20
-3.65993
 11
9.54517
 21
-4.01054
  0
LINE
  8
0
 10
9.54517
 20
-4.01054
 11
9.02245
 21
-4.29793
  0
LINE
  8
0
 10
9.02245
 20
-4.29793
 11
8.46782
 21
-4.51752
  0
LINE
  8
0
 10
8.46782
 20
-4.51752
 11
7.89006
 21
-4.66586
  0
LINE
  8
0
 10
7.89006
 20
-4.66586
 11
7.29825
 21
-4.74062
  0
LINE
  8
0
 10
7.29825
 20
-4.74062
 11
6.70174
 21
-4.74062
  0
LINE
  8
0
 10
19.1312
 20
-6.9308
 11
18.549
 21
-6.80067
  0
LINE
  8
0
 10
18.549
 20
-6.80067
 11
17.9878
 21
-6.59862
  0
LINE
  8
0
 10
17.9878
 20
-6.59862
 11
17.4563
 21
-6.3278
  0
LINE
  8
0
 10
17.4563
 20
-6.3278
 11
16.9629
 21
-5.99252
  0
LINE
  8
0
 10
16.9629
 20
-5.99252
 11
16.5155
 21
-5.59804
  0
LINE
  8
0
 10
16.5155
 20
-5.59804
 11
16.121
 21
-5.15059
  0
LINE
  8
0
 10
16.121
 20
-5.15059
 11
15.7857
 21
-4.65723
  0
LINE
  8
0
 10
15.7857
 20
-4.65723
 11
15.5149
 21
-4.12573
  0
LINE
  8
0
 10
15.5149
 20
-4.12573
 11
15.3128
 21
-3.56448
  0
LINE
  8
0
 10
15.3128
 20
-3.56448
 11
15.1827
 21
-2.98235
  0
LINE
  8
0
 10
15.1827
 20
-2.98235
 11
15.1266
 21
-2.38849
  0
LINE
  8
0
 10
15.1266
 20
-2.38849
 11
15.1453
 21
-1.79227
  0
LINE
  8
0
 10
15.1453
 20
-1.79227
 11
15.2386
 21
-1.20309
  0
LINE
  8
0
 10
15.2386
 20
-1.20309
 11
15.4051
 21
-0.63028
  0
LINE
  8
0
 10
15.4051
 20
-0.63028
 11
15.642
 21
-0.0828247
  0
LINE
  8
0
 10
15.642
 20
-0.0828247
 11
15.9456
 21
0.430603
  0
LINE
  8
0
 10
15.9456
 20
0.430603
 11
16.3112
 21
0.901932
  0
LINE
  8
0
 10
16.3112
 20
0.901932
 11
16.733
 21
1.32373
  0
LINE
  8
0
 10
16.733
 20
1.32373
 11
17.2043
 21
1.68933
  0
LINE
  8
0
 10
17.2043
 20
1.68933
 11
17.7178
 21
1.99298
  0
LINE
  8
0
 10
17.7178
 20
1.99298
 11
18.2652
 21
2.22989
  0
LINE
  8
0
 10
18.2652
 20
2.22989
 11
18.8381
 21
2.3963
  0
LINE
  8
0
 10
18.8381
 20
2.3963
 11
19.4272
 21
2.48962
  0
LINE
  8
0
 10
19.4272
 20
2.48962
 11
20.0234
 21
2.50836
  0
LINE
  8
0
 10
20.0234
 20
2.50836
 11
20.6173
 21
2.45222
  0
LINE
  8
0
 10
20.6173
 20
2.45222
 11
21.1994
 21
2.3221
  0
LINE
  8
0
 10
21.1994
 20
2.3221
 11
21.7607
 21
2.12004
  0
LINE
  8
0
 10
21.7607
 20
2.12004
 11
22.2922
 21
1.84923
  0
LINE
  8
0
 10
22.2922
 20
1.84923
 11
22.7855
 21
1.51395
  0
LINE
  8
0
 10
22.7855
 20
1.51395
 11
23.233
 21
1.11946
  0
LINE
  8
0
 10
23.233
 20
1.11946
 11
23.6275
 21
0.672012
  0
LINE
  8
0
 10
23.6275
 20
0.672012
 11
23.9628
 21
0.17865
  0
LINE
  8
0
 10
23.9628
 20
0.17865
 11
24.2336
 21
-0.352829
  0
LINE
  8
0
 10
24.2336
 20
-0.352829
 11
24.4356
 21
-0.914078
  0
LINE
  8
0
 10
24.4356
 20
-0.914078
 11
24.5658
 21
-1.49622
  0
LINE
  8
0
 10
24.5658
 20
-1.49622
 11
24.6219
 21
-2.09009
  0
LINE
  8
0
 10
24.6219
 20
-2.09009
 11
24.6031
 21
-2.68629
  0
LINE
  8
0
 10
24.6031
 20
-2.68629
 11
24.5098
 21
-3.27547
  0
LINE
  8
0
 10
24.5098
 20
-3.27547
 11
24.3434
 21
-3.84828
  0
LINE
  8
0
 10
24.3434
 20
-3.84828
 11
24.1065
 21
-4.39574
  0
LINE
  8
0
 10
24.1065
 20
-4.39574
 11
23.8029
 21
-4.90918
  0
LINE
  8
0
 10
23.8029
 20
-4.90918
 11
23.4373
 21
-5.38051
  0
LINE
  8
0
 10
23.4373
 20
-5.38051
 11
23.0155
 21
-5.80231
  0
LINE
  8
0
 10
23.0155
 20
-5.80231
 11
22.5441
 21
-6.16792
  0
LINE
  8
0
 10
22.5441
 20
-6.16792
 11
22.0307
 21
-6.47156
  0
LINE
  8
0
 10
22.0307
 20
-6.47156
 11
21.4832
 21
-6.70847
  0
LINE
  8
0
 10
21.4832
 20
-6.70847
 11
20.9104
 21
-6.87489
  0
LINE
  8
0
 10
20.9104
 20
-6.87489
 11
20.3213
 21
-6.9682
  0
LINE
  8
0
 10
20.3213
 20
-6.9682
 11
19.725
 21
-6.98694
  0
LINE
  8
0
 10
19.725
 20
-6.98694
 11
19.1312
 21
-6.9308
  0
LINE
  8
0
 10
-3.79825
 20
-10.8028
 11
-4.39006
 21
-10.728
  0
LINE
  8
0
 10
-4.39006
 20
-10.728
 11
-4.96782
 21
-10.5797
  0
LINE
  8
0
 10
-4.96782
 20
-10.5797
 11
-5.52245
 21
-10.3601
  0
LINE
  8
0
 10
-5.52245
 20
-10.3601
 11
-6.04517
 21
-10.0727
  0
LINE
  8
0
 10
-6.04517
 20
-10.0727
 11
-6.52776
 21
-9.72211
  0
LINE
  8
0
 10
-6.52776
 20
-9.72211
 11
-6.9626
 21
-9.31377
  0
LINE
  8
0
 10
-6.9626
 20
-9.31377
 11
-7.34282
 21
-8.85416
  0
LINE
  8
0
 10
-7.34282
 20
-8.85416
 11
-7.66245
 21
-8.35049
  0
LINE
  8
0
 10
-7.66245
 20
-8.35049
 11
-7.91643
 21
-7.81076
  0
LINE
  8
0
 10
-7.91643
 20
-7.81076
 11
-8.10077
 21
-7.24345
  0
LINE
  8
0
 10
-8.10077
 20
-7.24345
 11
-8.21254
 21
-6.6575
  0
LINE
  8
0
 10
-8.21254
 20
-6.6575
 11
-8.25
 21
-6.06216
  0
LINE
  8
0
 10
-8.25
 20
-6.06216
 11
-8.21254
 21
-5.46684
  0
LINE
  8
0
 10
-8.21254
 20
-5.46684
 11
-8.10077
 21
-4.88089
  0
LINE
  8
0
 10
-8.10077
 20
-4.88089
 11
-7.91643
 21
-4.31358
  0
LINE
  8
0
 10
-7.91643
 20
-4.31358
 11
-7.66245
 21
-3.77383
  0
LINE
  8
0
 10
-7.66245
 20
-3.77383
 11
-7.34282
 21
-3.27019
  0
LINE
  8
0
 10
-7.34282
 20
-3.27019
 11
-6.9626
 21
-2.81058
  0
LINE
  8
0
 10
-6.9626
 20
-2.81058
 11
-6.52776
 21
-2.40224
  0
LINE
  8
0
 10
-6.52776
 20
-2.40224
 11
-6.04517
 21
-2.05161
  0
LINE
  8
0
 10
-6.04517
 20
-2.05161
 11
-5.52245
 21
-1.76424
  0
LINE
  8
0
 10
-5.52245
 20
-1.76424
 11
-4.96782
 21
-1.54465
  0
LINE
  8
0
 10
-4.96782
 20
-1.54465
 11
-4.39006
 21
-1.3963
  0
LINE
  8
0
 10
-4.39006
 20
-1.3963
 11
-3.79825
 21
-1.32155
  0
LINE
  8
0
 10
-3.79825
 20
-1.32155
 11
-3.20174
 21
-1.32155
  0
LINE
  8
0
 10
-3.20174
 20
-1.32155
 11
-2.60992
 21
-1.3963
  0
LINE
  8
0
 10
-2.60992
 20
-1.3963
 11
-2.03217
 21
-1.54465
  0
LINE
  8
0
 10
-2.03217
 20
-1.54465
 11
-1.47754
 21
-1.76424
  0
LINE
  8
0
 10
-1.47754
 20
-1.76424
 11
-0.954819
 21
-2.05161
  0
LINE
  8
0
 10
-0.954819
 20
-2.05161
 11
-0.472229
 21
-2.40224
  0
LINE
  8
0
 10
-0.472229
 20
-2.40224
 11
-0.037384
 21
-2.81058
  0
LINE
  8
0
 10
-0.037384
 20
-2.81058
 11
0.342819
 21
-3.27019
  0
LINE
  8
0
 10
0.342819
 20
-3.27019
 11
0.662445
 21
-3.77383
  0
LINE
  8
0
 10
0.662445
 20
-3.77383
 11
0.916428
 21
-4.31358
  0
LINE
  8
0
 10
0.916428
 20
-4.31358
 11
1.10077
 21
-4.88089
  0
LINE
  8
0
 10
1.10077
 20
-4.88089
 11
1.21254
 21
-5.46684
  0
LINE
  8
0
 10
1.21254
 20
-5.46684
 11
1.25
 21
-6.06216
  0
LINE
  8
0
 10
1.25
 20
-6.06216
 11
1.21254
 21
-6.6575
  0
LINE
  8
0
 10
1.21254
 20
-6.6575
 11
1.10077
 21
-7.24345
  0
LINE
  8
0
 10
1.10077
 20
-7.24345
 11
0.916428
 21
-7.81076
  0
LINE
  8
0
 10
0.916428
 20
-7.81076
 11
0.662445
 21
-8.35049
  0
LINE
  8
0
 10
0.662445
 20
-8.35049
 11
0.342819
 21
-8.85416
  0
LINE
  8
0
 10
0.342819
 20
-8.85416
 11
-0.037384
 21
-9.31377
  0
LINE
  8
0
 10
-0.037384
 20
-9.31377
 11
-0.472229
 21
-9.72211
  0
LINE
  8
0
 10
-0.472229
 20
-9.72211
 11
-0.954819
 21
-10.0727
  0
LINE
  8
0
 10
-0.954819
 20
-10.0727
 11
-1.47754
 21
-10.3601
  0
LINE
  8
0
 10
-1.47754
 20
-10.3601
 11
-2.03217
 21
-10.5797
  0
LINE
  8
0
 10
-2.03217
 20
-10.5797
 11
-2.60992
 21
-10.728
  0
LINE
  8
0
 10
-2.60992
 20
-10.728
 11
-3.20174
 21
-10.8028
  0
LINE
  8
0
 10
-3.20174
 20
-10.8028
 11
-3.79825
 21
-10.8028
  0
LINE
  8
0
 10
-19.6207
 20
-11.2971
 11
-20.2029
 21
-11.167
  0
LINE
  8
0
 10
-20.2029
 20
-11.167
 11
-20.7641
 21
-10.9649
  0
LINE
  8
0
 10
-20.7641
 20
-10.9649
 11
-21.2956
 21
-10.6941
  0
LINE
  8
0
 10
-21.2956
 20
-10.6941
 11
-21.789
 21
-10.3588
  0
LINE
  8
0
 10
-21.789
 20
-10.3588
 11
-22.2364
 21
-9.96432
  0
LINE
  8
0
 10
-22.2364
 20
-9.96432
 11
-22.6309
 21
-9.51688
  0
LINE
  8
0
 10
-22.6309
 20
-9.51688
 11
-22.9662
 21
-9.02351
  0
LINE
  8
0
 10
-22.9662
 20
-9.02351
 11
-23.237
 21
-8.49202
  0
LINE
  8
0
 10
-23.237
 20
-8.49202
 11
-23.4391
 21
-7.93079
  0
LINE
  8
0
 10
-23.4391
 20
-7.93079
 11
-23.5692
 21
-7.34863
  0
LINE
  8
0
 10
-23.5692
 20
-7.34863
 11
-23.6253
 21
-6.75478
  0
LINE
  8
0
 10
-23.6253
 20
-6.75478
 11
-23.6066
 21
-6.15855
  0
LINE
  8
0
 10
-23.6066
 20
-6.15855
 11
-23.5133
 21
-5.5694
  0
LINE
  8
0
 10
-23.5133
 20
-5.5694
 11
-23.3468
 21
-4.99657
  0
LINE
  8
0
 10
-23.3468
 20
-4.99657
 11
-23.1099
 21
-4.44911
  0
LINE
  8
0
 10
-23.1099
 20
-4.44911
 11
-22.8063
 21
-3.93568
  0
LINE
  8
0
 10
-22.8063
 20
-3.93568
 11
-22.4407
 21
-3.46434
  0
LINE
  8
0
 10
-22.4407
 20
-3.46434
 11
-22.0189
 21
-3.04254
  0
LINE
  8
0
 10
-22.0189
 20
-3.04254
 11
-21.5476
 21
-2.67694
  0
LINE
  8
0
 10
-21.5476
 20
-2.67694
 11
-21.0341
 21
-2.37329
  0
LINE
  8
0
 10
-21.0341
 20
-2.37329
 11
-20.4867
 21
-2.13638
  0
LINE
  8
0
 10
-20.4867
 20
-2.13638
 11
-19.9138
 21
-1.96997
  0
LINE
  8
0
 10
-19.9138
 20
-1.96997
 11
-19.3247
 21
-1.87665
  0
LINE
  8
0
 10
-19.3247
 20
-1.87665
 11
-18.7285
 21
-1.85793
  0
LINE
  8
0
 10
-18.7285
 20
-1.85793
 11
-18.1346
 21
-1.91405
  0
LINE
  8
0
 10
-18.1346
 20
-1.91405
 11
-17.5524
 21
-2.04417
  0
LINE
  8
0
 10
-17.5524
 20
-2.04417
 11
-16.9912
 21
-2.24625
  0
LINE
  8
0
 10
-16.9912
 20
-2.24625
 11
-16.4597
 21
-2.51704
  0
LINE
  8
0
 10
-16.4597
 20
-2.51704
 11
-15.9664
 21
-2.85234
  0
LINE
  8
0
 10
-15.9664
 20
-2.85234
 11
-15.5189
 21
-3.24681
  0
LINE
  8
0
 10
-15.5189
 20
-3.24681
 11
-15.1244
 21
-3.69426
  0
LINE
  8
0
 10
-15.1244
 20
-3.69426
 11
-14.7891
 21
-4.18762
  0
LINE
  8
0
 10
-14.7891
 20
-4.18762
 11
-14.5183
 21
-4.71912
  0
LINE
  8
0
 10
-14.5183
 20
-4.71912
 11
-14.3163
 21
-5.28036
  0
LINE
  8
0
 10
-14.3163
 20
-5.28036
 11
-14.1861
 21
-5.8625
  0
LINE
  8
0
 10
-14.1861
 20
-5.8625
 11
-14.13
 21
-6.45638
  0
LINE
  8
0
 10
-14.13
 20
-6.45638
 11
-14.1487
 21
-7.05258
  0
LINE
  8
0
 10
-14.1487
 20
-7.05258
 11
-14.2421
 21
-7.64175
  0
LINE
  8
0
 10
-14.2421
 20
-7.64175
 11
-14.4085
 21
-8.21458
  0
LINE
  8
0
 10
-14.4085
 20
-8.21458
 11
-14.6454
 21
-8.76202
  0
LINE
  8
0
 10
-14.6454
 20
-8.76202
 11
-14.949
 21
-9.27547
  0
LINE
  8
0
 10
-14.949
 20
-9.27547
 11
-15.3146
 21
-9.74681
  0
LINE
  8
0
 10
-15.3146
 20
-9.74681
 11
-15.7364
 21
-10.1686
  0
LINE
  8
0
 10
-15.7364
 20
-10.1686
 11
-16.2078
 21
-10.5342
  0
LINE
  8
0
 10
-16.2078
 20
-10.5342
 11
-16.7212
 21
-10.8379
  0
LINE
  8
0
 10
-16.7212
 20
-10.8379
 11
-17.2686
 21
-11.0748
  0
LINE
  8
0
 10
-17.2686
 20
-11.0748
 11
-17.8415
 21
-11.2412
  0
LINE
  8
0
 10
-17.8415
 20
-11.2412
 11
-18.4306
 21
-11.3345
  0
LINE
  8
0
 10
-18.4306
 20
-11.3345
 11
-19.0269
 21
-11.3532
  0
LINE
  8
0
 10
-19.0269
 20
-11.3532
 11
-19.6207
 21
-11.2971
  0
LINE
  8
0
 10
9.89757
 20
-21.626
 11
9.31543
 21
-21.4959
  0
LINE
  8
0
 10
9.31543
 20
-21.4959
 11
8.75418
 21
-21.2938
  0
LINE
  8
0
 10
8.75418
 20
-21.2938
 11
8.22269
 21
-21.023
  0
LINE
  8
0
 10
8.22269
 20
-21.023
 11
7.72932
 21
-20.6877
  0
LINE
  8
0
 10
7.72932
 20
-20.6877
 11
7.28188
 21
-20.2932
  0
LINE
  8
0
 10
7.28188
 20
-20.2932
 11
6.88741
 21
-19.8458
  0
LINE
  8
0
 10
6.88741
 20
-19.8458
 11
6.55211
 21
-19.3524
  0
LINE
  8
0
 10
6.55211
 20
-19.3524
 11
6.2813
 21
-18.8209
  0
LINE
  8
0
 10
6.2813
 20
-18.8209
 11
6.07924
 21
-18.2597
  0
LINE
  8
0
 10
6.07924
 20
-18.2597
 11
5.94911
 21
-17.6775
  0
LINE
  8
0
 10
5.94911
 20
-17.6775
 11
5.89297
 21
-17.0837
  0
LINE
  8
0
 10
5.89297
 20
-17.0837
 11
5.91171
 21
-16.4875
  0
LINE
  8
0
 10
5.91171
 20
-16.4875
 11
6.00504
 21
-15.8983
  0
LINE
  8
0
 10
6.00504
 20
-15.8983
 11
6.17145
 21
-15.3255
  0
LINE
  8
0
 10
6.17145
 20
-15.3255
 11
6.40836
 21
-14.778
  0
LINE
  8
0
 10
6.40836
 20
-14.778
 11
6.71201
 21
-14.2646
  0
LINE
  8
0
 10
6.71201
 20
-14.2646
 11
7.07761
 21
-13.7932
  0
LINE
  8
0
 10
7.07761
 20
-13.7932
 11
7.4994
 21
-13.3714
  0
LINE
  8
0
 10
7.4994
 20
-13.3714
 11
7.97073
 21
-13.0058
  0
LINE
  8
0
 10
7.97073
 20
-13.0058
 11
8.48418
 21
-12.7022
  0
LINE
  8
0
 10
8.48418
 20
-12.7022
 11
9.03163
 21
-12.4653
  0
LINE
  8
0
 10
9.03163
 20
-12.4653
 11
9.60445
 21
-12.2989
  0
LINE
  8
0
 10
9.60445
 20
-12.2989
 11
10.1936
 21
-12.2056
  0
LINE
  8
0
 10
10.1936
 20
-12.2056
 11
10.7898
 21
-12.1868
  0
LINE
  8
0
 10
10.7898
 20
-12.1868
 11
11.3837
 21
-12.243
  0
LINE
  8
0
 10
11.3837
 20
-12.243
 11
11.9658
 21
-12.3731
  0
LINE
  8
0
 10
11.9658
 20
-12.3731
 11
12.5271
 21
-12.5751
  0
LINE
  8
0
 10
12.5271
 20
-12.5751
 11
13.0586
 21
-12.8459
  0
LINE
  8
0
 10
13.0586
 20
-12.8459
 11
13.5519
 21
-13.1812
  0
LINE
  8
0
 10
13.5519
 20
-13.1812
 11
13.9994
 21
-13.5757
  0
LINE
  8
0
 10
13.9994
 20
-13.5757
 11
14.3939
 21
-14.0232
  0
LINE
  8
0
 10
14.3939
 20
-14.0232
 11
14.7292
 21
-14.5165
  0
LINE
  8
0
 10
14.7292
 20
-14.5165
 11
15
 21
-15.048
  0
LINE
  8
0
 10
15
 20
-15.048
 11
15.202
 21
-15.6093
  0
LINE
  8
0
 10
15.202
 20
-15.6093
 11
15.3322
 21
-16.1914
  0
LINE
  8
0
 10
15.3322
 20
-16.1914
 11
15.3883
 21
-16.7853
  0
LINE
  8
0
 10
15.3883
 20
-16.7853
 11
15.3696
 21
-17.3815
  0
LINE
  8
0
 10
15.3696
 20
-17.3815
 11
15.2762
 21
-17.9707
  0
LINE
  8
0
 10
15.2762
 20
-17.9707
 11
15.1098
 21
-18.5435
  0
LINE
  8
0
 10
15.1098
 20
-18.5435
 11
14.8729
 21
-19.0909
  0
LINE
  8
0
 10
14.8729
 20
-19.0909
 11
14.5693
 21
-19.6044
  0
LINE
  8
0
 10
14.5693
 20
-19.6044
 11
14.2037
 21
-20.0757
  0
LINE
  8
0
 10
14.2037
 20
-20.0757
 11
13.7819
 21
-20.4975
  0
LINE
  8
0
 10
13.7819
 20
-20.4975
 11
13.3105
 21
-20.8631
  0
LINE
  8
0
 10
13.3105
 20
-20.8631
 11
12.7971
 21
-21.1668
  0
LINE
  8
0
 10
12.7971
 20
-21.1668
 11
12.2496
 21
-21.4037
  0
LINE
  8
0
 10
12.2496
 20
-21.4037
 11
11.6768
 21
-21.5701
  0
LINE
  8
0
 10
11.6768
 20
-21.5701
 11
11.0876
 21
-21.6634
  0
LINE
  8
0
 10
11.0876
 20
-21.6634
 11
10.4914
 21
-21.6821
  0
LINE
  8
0
 10
10.4914
 20
-21.6821
 11
9.89757
 21
-21.626
  0
LINE
  8
0
 10
-7.34863
 20
-23.5692
 11
-7.93079
 21
-23.4391
  0
LINE
  8
0
 10
-7.93079
 20
-23.4391
 11
-8.49202
 21
-23.237
  0
LINE
  8
0
 10
-8.49202
 20
-23.237
 11
-9.02351
 21
-22.9662
  0
LINE
  8
0
 10
-9.02351
 20
-22.9662
 11
-9.51688
 21
-22.6309
  0
LINE
  8
0
 10
-9.51688
 20
-22.6309
 11
-9.96432
 21
-22.2364
  0
LINE
  8
0
 10
-9.96432
 20
-22.2364
 11
-10.3588
 21
-21.789
  0
LINE
  8
0
 10
-10.3588
 20
-21.789
 11
-10.6941
 21
-21.2956
  0
LINE
  8
0
 10
-10.6941
 20
-21.2956
 11
-10.9649
 21
-20.7641
  0
LINE
  8
0
 10
-10.9649
 20
-20.7641
 11
-11.167
 21
-20.2029
  0
LINE
  8
0
 10
-11.167
 20
-20.2029
 11
-11.2971
 21
-19.6207
  0
LINE
  8
0
 10
-11.2971
 20
-19.6207
 11
-11.3532
 21
-19.0269
  0
LINE
  8
0
 10
-11.3532
 20
-19.0269
 11
-11.3345
 21
-18.4306
  0
LINE
  8
0
 10
-11.3345
 20
-18.4306
 11
-11.2412
 21
-17.8415
  0
LINE
  8
0
 10
-11.2412
 20
-17.8415
 11
-11.0748
 21
-17.2686
  0
LINE
  8
0
 10
-11.0748
 20
-17.2686
 11
-10.8379
 21
-16.7212
  0
LINE
  8
0
 10
-10.8379
 20
-16.7212
 11
-10.5342
 21
-16.2078
  0
LINE
  8
0
 10
-10.5342
 20
-16.2078
 11
-10.1686
 21
-15.7364
  0
LINE
  8
0
 10
-10.1686
 20
-15.7364
 11
-9.74681
 21
-15.3146
  0
LINE
  8
0
 10
-9.74681
 20
-15.3146
 11
-9.27547
 21
-14.949
  0
LINE
  8
0
 10
-9.27547
 20
-14.949
 11
-8.76202
 21
-14.6454
  0
LINE
  8
0
 10
-8.76202
 20
-14.6454
 11
-8.21458
 21
-14.4085
  0
LINE
  8
0
 10
-8.21458
 20
-14.4085
 11
-7.64175
 21
-14.2421
  0
LINE
  8
0
 10
-7.64175
 20
-14.2421
 11
-7.05258
 21
-14.1487
  0
LINE
  8
0
 10
-7.05258
 20
-14.1487
 11
-6.45638
 21
-14.13
  0
LINE
  8
0
 10
-6.45638
 20
-14.13
 11
-5.8625
 21
-14.1861
  0
LINE
  8
0
 10
-5.8625
 20
-14.1861
 11
-5.28036
 21
-14.3163
  0
LINE
  8
0
 10
-5.28036
 20
-14.3163
 11
-4.71912
 21
-14.5183
  0
LINE
  8
0
 10
-4.71912
 20
-14.5183
 11
-4.18762
 21
-14.7891
  0
LINE
  8
0
 10
-4.18762
 20
-14.7891
 11
-3.69426
 21
-15.1244
  0
LINE
  8
0
 10
-3.69426
 20
-15.1244
 11
-3.24681
 21
-15.5189
  0
LINE
  8
0
 10
-3.24681
 20
-15.5189
 11
-2.85234
 21
-15.9664
  0
LINE
  8
0
 10
-2.85234
 20
-15.9664
 11
-2.51704
 21
-16.4597
  0
LINE
  8
0
 10
-2.51704
 20
-16.4597
 11
-2.24625
 21
-16.9912
  0
LINE
  8
0
 10
-2.24625
 20
-16.9912
 11
-2.04417
 21
-17.5524
  0
LINE
  8
0
 10
-2.04417
 20
-17.5524
 11
-1.91405
 21
-18.1346
  0
LINE
  8
0
 10
-1.91405
 20
-18.1346
 11
-1.85793
 21
-18.7285
  0
LINE
  8
0
 10
-1.85793
 20
-18.7285
 11
-1.87665
 21
-19.3247
  0
LINE
  8
0
 10
-1.87665
 20
-19.3247
 11
-1.96997
 21
-19.9138
  0
LINE
  8
0
 10
-1.96997
 20
-19.9138
 11
-2.13638
 21
-20.4867
  0
LINE
  8
0
 10
-2.13638
 20
-20.4867
 11
-2.37329
 21
-21.0341
  0
LINE
  8
0
 10
-2.37329
 20
-21.0341
 11
-2.67694
 21
-21.5476
  0
LINE
  8
0
 10
-2.67694
 20
-21.5476
 11
-3.04254
 21
-22.0189
  0
LINE
  8
0
 10
-3.04254
 20
-22.0189
 11
-3.46434
 21
-22.4407
  0
LINE
  8
0
 10
-3.46434
 20
-22.4407
 11
-3.93568
 21
-22.8063
  0
LINE
  8
0
 10
-3.93568
 20
-22.8063
 11
-4.44911
 21
-23.1099
  0
LINE
  8
0
 10
-4.44911
 20
-23.1099
 11
-4.99657
 21
-23.3468
  0
LINE
  8
0
 10
-4.99657
 20
-23.3468
 11
-5.5694
 21
-23.5133
  0
LINE
  8
0
 10
-5.5694
 20
-23.5133
 11
-6.15855
 21
-23.6066
  0
LINE
  8
0
 10
-6.15855
 20
-23.6066
 11
-6.75478
 21
-23.6253
  0
LINE
  8
0
 10
-6.75478
 20
-23.6253
 11
-7.34863
 21
-23.5692
  0
ENDSEC
  0
SECTION
  2
OBJECTS
  0
DICTIONARY
  0
ENDSEC
  0
EOF
