  0
SECTION
  2
BLOCKS
  0
ENDSEC
  0
SECTION
  2
ENTITIES
  0
LINE
  8
0
 10
-162.083
 20
-77.5
 11
-136.083
 21
-77.5
  0
LINE
  8
0
 10
-136.083
 20
-77.5
 11
-136.083
 21
-84
  0
LINE
  8
0
 10
-136.083
 20
-84
 11
-42.75
 21
-84
  0
LINE
  8
0
 10
-42.75
 20
-84
 11
-42.75
 21
-77.5
  0
LINE
  8
0
 10
-42.75
 20
-77.5
 11
-16.75
 21
-77.5
  0
LINE
  8
0
 10
-16.75
 20
-77.5
 11
-16.75
 21
-84
  0
LINE
  8
0
 10
-16.75
 20
-84
 11
-1.25
 21
-84
  0
LINE
  8
0
 10
-1.25
 20
-84
 11
76.5833
 21
-83.9351
  0
LINE
  8
0
 10
76.5833
 20
-83.9351
 11
76.5833
 21
-77.5
  0
LINE
  8
0
 10
76.5833
 20
-77.5
 11
102.583
 21
-77.5
  0
LINE
  8
0
 10
102.583
 20
-77.5
 11
102.583
 21
-83.9135
  0
LINE
  8
0
 10
102.583
 20
-83.9135
 11
148.75
 21
-83.875
  0
LINE
  8
0
 10
148.75
 20
-83.875
 11
148.75
 21
-4.625
  0
LINE
  8
0
 10
148.75
 20
-4.625
 11
-1.25
 21
74.5
  0
LINE
  8
0
 10
-1.25
 20
74.5
 11
-208.75
 21
74.5
  0
LINE
  8
0
 10
-208.75
 20
74.5
 11
-208.75
 21
62.1667
  0
LINE
  8
0
 10
-208.75
 20
62.1667
 11
-202.25
 21
62.1667
  0
LINE
  8
0
 10
-202.25
 20
62.1667
 11
-202.25
 21
36.1667
  0
LINE
  8
0
 10
-202.25
 20
36.1667
 11
-208.75
 21
36.1667
  0
LINE
  8
0
 10
-208.75
 20
36.1667
 11
-208.75
 21
-39.1667
  0
LINE
  8
0
 10
-208.75
 20
-39.1667
 11
-202.25
 21
-39.1667
  0
LINE
  8
0
 10
-202.25
 20
-39.1667
 11
-202.25
 21
-65.1667
  0
LINE
  8
0
 10
-202.25
 20
-65.1667
 11
-208.75
 21
-65.1667
  0
LINE
  8
0
 10
-208.75
 20
-65.1667
 11
-208.75
 21
-84
  0
LINE
  8
0
 10
-208.75
 20
-84
 11
-162.083
 21
-84
  0
LINE
  8
0
 10
-162.083
 20
-84
 11
-162.083
 21
-77.5
  0
LINE
  8
0
 10
-3.25
 20
36.1667
 11
-3.25
 21
62.1667
  0
LINE
  8
0
 10
-3.25
 20
62.1667
 11
3.25
 21
62.1667
  0
LINE
  8
0
 10
3.25
 20
62.1667
 11
3.25
 21
36.1667
  0
LINE
  8
0
 10
3.25
 20
36.1667
 11
-3.25
 21
36.1667
  0
LINE
  8
0
 10
78.25
 20
-15.925
 11
78.25
 21
-9.42499
  0
LINE
  8
0
 10
78.25
 20
-9.42499
 11
117.25
 21
-9.42499
  0
LINE
  8
0
 10
117.25
 20
-9.42499
 11
117.25
 21
-15.925
  0
LINE
  8
0
 10
117.25
 20
-15.925
 11
78.25
 21
-15.925
  0
LINE
  8
0
 10
-3.25
 20
-65.1667
 11
-3.25
 21
-39.1667
  0
LINE
  8
0
 10
-3.25
 20
-39.1667
 11
3.25
 21
-39.1667
  0
LINE
  8
0
 10
3.25
 20
-39.1667
 11
3.25
 21
-65.1667
  0
LINE
  8
0
 10
3.25
 20
-65.1667
 11
-3.25
 21
-65.1667
  0
ENDSEC
  0
SECTION
  2
OBJECTS
  0
DICTIONARY
  0
ENDSEC
  0
EOF
